<?xml version="1.0" encoding="utf-8" standalone="no"?>
<!DOCTYPE svg PUBLIC "-//W3C//DTD SVG 1.1//EN"
  "http://www.w3.org/Graphics/SVG/1.1/DTD/svg11.dtd">
<svg xmlns:xlink="http://www.w3.org/1999/xlink" width="746.50875pt" height="522.2925pt" viewBox="0 0 746.50875 522.2925" xmlns="http://www.w3.org/2000/svg" version="1.1">
 <metadata>
  <rdf:RDF xmlns:dc="http://purl.org/dc/elements/1.1/" xmlns:cc="http://creativecommons.org/ns#" xmlns:rdf="http://www.w3.org/1999/02/22-rdf-syntax-ns#">
   <cc:Work>
    <dc:type rdf:resource="http://purl.org/dc/dcmitype/StillImage"/>
    <dc:date>2025-09-24T13:10:03.493682</dc:date>
    <dc:format>image/svg+xml</dc:format>
    <dc:creator>
     <cc:Agent>
      <dc:title>Matplotlib v3.10.6, https://matplotlib.org/</dc:title>
     </cc:Agent>
    </dc:creator>
   </cc:Work>
  </rdf:RDF>
 </metadata>
 <defs>
  <style type="text/css">*{stroke-linejoin: round; stroke-linecap: butt}</style>
 </defs>
 <g id="figure_1">
  <g id="patch_1">
   <path d="M 0 522.2925 
L 746.50875 522.2925 
L 746.50875 0 
L 0 0 
z
" style="fill: #ffffff"/>
  </g>
  <g id="axes_1">
   <g id="patch_2">
    <path d="M 58.58875 474.19125 
L 728.18875 474.19125 
L 728.18875 30.67125 
L 58.58875 30.67125 
z
" style="fill: #ffffff"/>
   </g>
   <g id="matplotlib.axis_1">
    <g id="xtick_1">
     <g id="line2d_1">
      <path d="M 58.58875 474.19125 
L 58.58875 30.67125 
" clip-path="url(#p25833bbd00)" style="fill: none; stroke: #cccccc; stroke-width: 0.8; stroke-linecap: round"/>
     </g>
     <g id="line2d_2"/>
     <g id="text_1">
      <!-- 0.0 -->
      <g style="fill: #262626" transform="translate(47.46875 489.14375) scale(0.16 -0.16)">
       <defs>
        <path id="ArialMT-30" d="M 266 2259 
Q 266 3072 433 3567 
Q 600 4063 929 4331 
Q 1259 4600 1759 4600 
Q 2128 4600 2406 4451 
Q 2684 4303 2865 4023 
Q 3047 3744 3150 3342 
Q 3253 2941 3253 2259 
Q 3253 1453 3087 958 
Q 2922 463 2592 192 
Q 2263 -78 1759 -78 
Q 1097 -78 719 397 
Q 266 969 266 2259 
z
M 844 2259 
Q 844 1131 1108 757 
Q 1372 384 1759 384 
Q 2147 384 2411 759 
Q 2675 1134 2675 2259 
Q 2675 3391 2411 3762 
Q 2147 4134 1753 4134 
Q 1366 4134 1134 3806 
Q 844 3388 844 2259 
z
" transform="scale(0.015625)"/>
        <path id="ArialMT-2e" d="M 581 0 
L 581 641 
L 1222 641 
L 1222 0 
L 581 0 
z
" transform="scale(0.015625)"/>
       </defs>
       <use xlink:href="#ArialMT-30"/>
       <use xlink:href="#ArialMT-2e" transform="translate(55.615234 0)"/>
       <use xlink:href="#ArialMT-30" transform="translate(83.398438 0)"/>
      </g>
     </g>
    </g>
    <g id="xtick_2">
     <g id="line2d_3">
      <path d="M 192.50875 474.19125 
L 192.50875 30.67125 
" clip-path="url(#p25833bbd00)" style="fill: none; stroke: #cccccc; stroke-width: 0.8; stroke-linecap: round"/>
     </g>
     <g id="line2d_4"/>
     <g id="text_2">
      <!-- 0.2 -->
      <g style="fill: #262626" transform="translate(181.38875 489.14375) scale(0.16 -0.16)">
       <defs>
        <path id="ArialMT-32" d="M 3222 541 
L 3222 0 
L 194 0 
Q 188 203 259 391 
Q 375 700 629 1000 
Q 884 1300 1366 1694 
Q 2113 2306 2375 2664 
Q 2638 3022 2638 3341 
Q 2638 3675 2398 3904 
Q 2159 4134 1775 4134 
Q 1369 4134 1125 3890 
Q 881 3647 878 3216 
L 300 3275 
Q 359 3922 746 4261 
Q 1134 4600 1788 4600 
Q 2447 4600 2831 4234 
Q 3216 3869 3216 3328 
Q 3216 3053 3103 2787 
Q 2991 2522 2730 2228 
Q 2469 1934 1863 1422 
Q 1356 997 1212 845 
Q 1069 694 975 541 
L 3222 541 
z
" transform="scale(0.015625)"/>
       </defs>
       <use xlink:href="#ArialMT-30"/>
       <use xlink:href="#ArialMT-2e" transform="translate(55.615234 0)"/>
       <use xlink:href="#ArialMT-32" transform="translate(83.398438 0)"/>
      </g>
     </g>
    </g>
    <g id="xtick_3">
     <g id="line2d_5">
      <path d="M 326.42875 474.19125 
L 326.42875 30.67125 
" clip-path="url(#p25833bbd00)" style="fill: none; stroke: #cccccc; stroke-width: 0.8; stroke-linecap: round"/>
     </g>
     <g id="line2d_6"/>
     <g id="text_3">
      <!-- 0.4 -->
      <g style="fill: #262626" transform="translate(315.30875 489.14375) scale(0.16 -0.16)">
       <defs>
        <path id="ArialMT-34" d="M 2069 0 
L 2069 1097 
L 81 1097 
L 81 1613 
L 2172 4581 
L 2631 4581 
L 2631 1613 
L 3250 1613 
L 3250 1097 
L 2631 1097 
L 2631 0 
L 2069 0 
z
M 2069 1613 
L 2069 3678 
L 634 1613 
L 2069 1613 
z
" transform="scale(0.015625)"/>
       </defs>
       <use xlink:href="#ArialMT-30"/>
       <use xlink:href="#ArialMT-2e" transform="translate(55.615234 0)"/>
       <use xlink:href="#ArialMT-34" transform="translate(83.398438 0)"/>
      </g>
     </g>
    </g>
    <g id="xtick_4">
     <g id="line2d_7">
      <path d="M 460.34875 474.19125 
L 460.34875 30.67125 
" clip-path="url(#p25833bbd00)" style="fill: none; stroke: #cccccc; stroke-width: 0.8; stroke-linecap: round"/>
     </g>
     <g id="line2d_8"/>
     <g id="text_4">
      <!-- 0.6 -->
      <g style="fill: #262626" transform="translate(449.22875 489.14375) scale(0.16 -0.16)">
       <defs>
        <path id="ArialMT-36" d="M 3184 3459 
L 2625 3416 
Q 2550 3747 2413 3897 
Q 2184 4138 1850 4138 
Q 1581 4138 1378 3988 
Q 1113 3794 959 3422 
Q 806 3050 800 2363 
Q 1003 2672 1297 2822 
Q 1591 2972 1913 2972 
Q 2475 2972 2870 2558 
Q 3266 2144 3266 1488 
Q 3266 1056 3080 686 
Q 2894 316 2569 119 
Q 2244 -78 1831 -78 
Q 1128 -78 684 439 
Q 241 956 241 2144 
Q 241 3472 731 4075 
Q 1159 4600 1884 4600 
Q 2425 4600 2770 4297 
Q 3116 3994 3184 3459 
z
M 888 1484 
Q 888 1194 1011 928 
Q 1134 663 1356 523 
Q 1578 384 1822 384 
Q 2178 384 2434 671 
Q 2691 959 2691 1453 
Q 2691 1928 2437 2201 
Q 2184 2475 1800 2475 
Q 1419 2475 1153 2201 
Q 888 1928 888 1484 
z
" transform="scale(0.015625)"/>
       </defs>
       <use xlink:href="#ArialMT-30"/>
       <use xlink:href="#ArialMT-2e" transform="translate(55.615234 0)"/>
       <use xlink:href="#ArialMT-36" transform="translate(83.398438 0)"/>
      </g>
     </g>
    </g>
    <g id="xtick_5">
     <g id="line2d_9">
      <path d="M 594.26875 474.19125 
L 594.26875 30.67125 
" clip-path="url(#p25833bbd00)" style="fill: none; stroke: #cccccc; stroke-width: 0.8; stroke-linecap: round"/>
     </g>
     <g id="line2d_10"/>
     <g id="text_5">
      <!-- 0.8 -->
      <g style="fill: #262626" transform="translate(583.14875 489.14375) scale(0.16 -0.16)">
       <defs>
        <path id="ArialMT-38" d="M 1131 2484 
Q 781 2613 612 2850 
Q 444 3088 444 3419 
Q 444 3919 803 4259 
Q 1163 4600 1759 4600 
Q 2359 4600 2725 4251 
Q 3091 3903 3091 3403 
Q 3091 3084 2923 2848 
Q 2756 2613 2416 2484 
Q 2838 2347 3058 2040 
Q 3278 1734 3278 1309 
Q 3278 722 2862 322 
Q 2447 -78 1769 -78 
Q 1091 -78 675 323 
Q 259 725 259 1325 
Q 259 1772 486 2073 
Q 713 2375 1131 2484 
z
M 1019 3438 
Q 1019 3113 1228 2906 
Q 1438 2700 1772 2700 
Q 2097 2700 2305 2904 
Q 2513 3109 2513 3406 
Q 2513 3716 2298 3927 
Q 2084 4138 1766 4138 
Q 1444 4138 1231 3931 
Q 1019 3725 1019 3438 
z
M 838 1322 
Q 838 1081 952 856 
Q 1066 631 1291 507 
Q 1516 384 1775 384 
Q 2178 384 2440 643 
Q 2703 903 2703 1303 
Q 2703 1709 2433 1975 
Q 2163 2241 1756 2241 
Q 1359 2241 1098 1978 
Q 838 1716 838 1322 
z
" transform="scale(0.015625)"/>
       </defs>
       <use xlink:href="#ArialMT-30"/>
       <use xlink:href="#ArialMT-2e" transform="translate(55.615234 0)"/>
       <use xlink:href="#ArialMT-38" transform="translate(83.398438 0)"/>
      </g>
     </g>
    </g>
    <g id="xtick_6">
     <g id="line2d_11">
      <path d="M 728.18875 474.19125 
L 728.18875 30.67125 
" clip-path="url(#p25833bbd00)" style="fill: none; stroke: #cccccc; stroke-width: 0.8; stroke-linecap: round"/>
     </g>
     <g id="line2d_12"/>
     <g id="text_6">
      <!-- 1.0 -->
      <g style="fill: #262626" transform="translate(717.06875 489.14375) scale(0.16 -0.16)">
       <defs>
        <path id="ArialMT-31" d="M 2384 0 
L 1822 0 
L 1822 3584 
Q 1619 3391 1289 3197 
Q 959 3003 697 2906 
L 697 3450 
Q 1169 3672 1522 3987 
Q 1875 4303 2022 4600 
L 2384 4600 
L 2384 0 
z
" transform="scale(0.015625)"/>
       </defs>
       <use xlink:href="#ArialMT-31"/>
       <use xlink:href="#ArialMT-2e" transform="translate(55.615234 0)"/>
       <use xlink:href="#ArialMT-30" transform="translate(83.398438 0)"/>
      </g>
     </g>
    </g>
    <g id="text_7">
     <!-- Proportion of Training -->
     <g style="fill: #262626" transform="translate(297.784063 510.883125) scale(0.2 -0.2)">
      <defs>
       <path id="ArialMT-50" d="M 494 0 
L 494 4581 
L 2222 4581 
Q 2678 4581 2919 4538 
Q 3256 4481 3484 4323 
Q 3713 4166 3852 3881 
Q 3991 3597 3991 3256 
Q 3991 2672 3619 2267 
Q 3247 1863 2275 1863 
L 1100 1863 
L 1100 0 
L 494 0 
z
M 1100 2403 
L 2284 2403 
Q 2872 2403 3119 2622 
Q 3366 2841 3366 3238 
Q 3366 3525 3220 3729 
Q 3075 3934 2838 4000 
Q 2684 4041 2272 4041 
L 1100 4041 
L 1100 2403 
z
" transform="scale(0.015625)"/>
       <path id="ArialMT-72" d="M 416 0 
L 416 3319 
L 922 3319 
L 922 2816 
Q 1116 3169 1280 3281 
Q 1444 3394 1641 3394 
Q 1925 3394 2219 3213 
L 2025 2691 
Q 1819 2813 1613 2813 
Q 1428 2813 1281 2702 
Q 1134 2591 1072 2394 
Q 978 2094 978 1738 
L 978 0 
L 416 0 
z
" transform="scale(0.015625)"/>
       <path id="ArialMT-6f" d="M 213 1659 
Q 213 2581 725 3025 
Q 1153 3394 1769 3394 
Q 2453 3394 2887 2945 
Q 3322 2497 3322 1706 
Q 3322 1066 3130 698 
Q 2938 331 2570 128 
Q 2203 -75 1769 -75 
Q 1072 -75 642 372 
Q 213 819 213 1659 
z
M 791 1659 
Q 791 1022 1069 705 
Q 1347 388 1769 388 
Q 2188 388 2466 706 
Q 2744 1025 2744 1678 
Q 2744 2294 2464 2611 
Q 2184 2928 1769 2928 
Q 1347 2928 1069 2612 
Q 791 2297 791 1659 
z
" transform="scale(0.015625)"/>
       <path id="ArialMT-70" d="M 422 -1272 
L 422 3319 
L 934 3319 
L 934 2888 
Q 1116 3141 1344 3267 
Q 1572 3394 1897 3394 
Q 2322 3394 2647 3175 
Q 2972 2956 3137 2557 
Q 3303 2159 3303 1684 
Q 3303 1175 3120 767 
Q 2938 359 2589 142 
Q 2241 -75 1856 -75 
Q 1575 -75 1351 44 
Q 1128 163 984 344 
L 984 -1272 
L 422 -1272 
z
M 931 1641 
Q 931 1000 1190 694 
Q 1450 388 1819 388 
Q 2194 388 2461 705 
Q 2728 1022 2728 1688 
Q 2728 2322 2467 2637 
Q 2206 2953 1844 2953 
Q 1484 2953 1207 2617 
Q 931 2281 931 1641 
z
" transform="scale(0.015625)"/>
       <path id="ArialMT-74" d="M 1650 503 
L 1731 6 
Q 1494 -44 1306 -44 
Q 1000 -44 831 53 
Q 663 150 594 308 
Q 525 466 525 972 
L 525 2881 
L 113 2881 
L 113 3319 
L 525 3319 
L 525 4141 
L 1084 4478 
L 1084 3319 
L 1650 3319 
L 1650 2881 
L 1084 2881 
L 1084 941 
Q 1084 700 1114 631 
Q 1144 563 1211 522 
Q 1278 481 1403 481 
Q 1497 481 1650 503 
z
" transform="scale(0.015625)"/>
       <path id="ArialMT-69" d="M 425 3934 
L 425 4581 
L 988 4581 
L 988 3934 
L 425 3934 
z
M 425 0 
L 425 3319 
L 988 3319 
L 988 0 
L 425 0 
z
" transform="scale(0.015625)"/>
       <path id="ArialMT-6e" d="M 422 0 
L 422 3319 
L 928 3319 
L 928 2847 
Q 1294 3394 1984 3394 
Q 2284 3394 2536 3286 
Q 2788 3178 2913 3003 
Q 3038 2828 3088 2588 
Q 3119 2431 3119 2041 
L 3119 0 
L 2556 0 
L 2556 2019 
Q 2556 2363 2490 2533 
Q 2425 2703 2258 2804 
Q 2091 2906 1866 2906 
Q 1506 2906 1245 2678 
Q 984 2450 984 1813 
L 984 0 
L 422 0 
z
" transform="scale(0.015625)"/>
       <path id="ArialMT-20" transform="scale(0.015625)"/>
       <path id="ArialMT-66" d="M 556 0 
L 556 2881 
L 59 2881 
L 59 3319 
L 556 3319 
L 556 3672 
Q 556 4006 616 4169 
Q 697 4388 901 4523 
Q 1106 4659 1475 4659 
Q 1713 4659 2000 4603 
L 1916 4113 
Q 1741 4144 1584 4144 
Q 1328 4144 1222 4034 
Q 1116 3925 1116 3625 
L 1116 3319 
L 1763 3319 
L 1763 2881 
L 1116 2881 
L 1116 0 
L 556 0 
z
" transform="scale(0.015625)"/>
       <path id="ArialMT-54" d="M 1659 0 
L 1659 4041 
L 150 4041 
L 150 4581 
L 3781 4581 
L 3781 4041 
L 2266 4041 
L 2266 0 
L 1659 0 
z
" transform="scale(0.015625)"/>
       <path id="ArialMT-61" d="M 2588 409 
Q 2275 144 1986 34 
Q 1697 -75 1366 -75 
Q 819 -75 525 192 
Q 231 459 231 875 
Q 231 1119 342 1320 
Q 453 1522 633 1644 
Q 813 1766 1038 1828 
Q 1203 1872 1538 1913 
Q 2219 1994 2541 2106 
Q 2544 2222 2544 2253 
Q 2544 2597 2384 2738 
Q 2169 2928 1744 2928 
Q 1347 2928 1158 2789 
Q 969 2650 878 2297 
L 328 2372 
Q 403 2725 575 2942 
Q 747 3159 1072 3276 
Q 1397 3394 1825 3394 
Q 2250 3394 2515 3294 
Q 2781 3194 2906 3042 
Q 3031 2891 3081 2659 
Q 3109 2516 3109 2141 
L 3109 1391 
Q 3109 606 3145 398 
Q 3181 191 3288 0 
L 2700 0 
Q 2613 175 2588 409 
z
M 2541 1666 
Q 2234 1541 1622 1453 
Q 1275 1403 1131 1340 
Q 988 1278 909 1158 
Q 831 1038 831 891 
Q 831 666 1001 516 
Q 1172 366 1500 366 
Q 1825 366 2078 508 
Q 2331 650 2450 897 
Q 2541 1088 2541 1459 
L 2541 1666 
z
" transform="scale(0.015625)"/>
       <path id="ArialMT-67" d="M 319 -275 
L 866 -356 
Q 900 -609 1056 -725 
Q 1266 -881 1628 -881 
Q 2019 -881 2231 -725 
Q 2444 -569 2519 -288 
Q 2563 -116 2559 434 
Q 2191 0 1641 0 
Q 956 0 581 494 
Q 206 988 206 1678 
Q 206 2153 378 2554 
Q 550 2956 876 3175 
Q 1203 3394 1644 3394 
Q 2231 3394 2613 2919 
L 2613 3319 
L 3131 3319 
L 3131 450 
Q 3131 -325 2973 -648 
Q 2816 -972 2473 -1159 
Q 2131 -1347 1631 -1347 
Q 1038 -1347 672 -1080 
Q 306 -813 319 -275 
z
M 784 1719 
Q 784 1066 1043 766 
Q 1303 466 1694 466 
Q 2081 466 2343 764 
Q 2606 1063 2606 1700 
Q 2606 2309 2336 2618 
Q 2066 2928 1684 2928 
Q 1309 2928 1046 2623 
Q 784 2319 784 1719 
z
" transform="scale(0.015625)"/>
      </defs>
      <use xlink:href="#ArialMT-50"/>
      <use xlink:href="#ArialMT-72" transform="translate(66.699219 0)"/>
      <use xlink:href="#ArialMT-6f" transform="translate(100 0)"/>
      <use xlink:href="#ArialMT-70" transform="translate(155.615234 0)"/>
      <use xlink:href="#ArialMT-6f" transform="translate(211.230469 0)"/>
      <use xlink:href="#ArialMT-72" transform="translate(266.845703 0)"/>
      <use xlink:href="#ArialMT-74" transform="translate(300.146484 0)"/>
      <use xlink:href="#ArialMT-69" transform="translate(327.929688 0)"/>
      <use xlink:href="#ArialMT-6f" transform="translate(350.146484 0)"/>
      <use xlink:href="#ArialMT-6e" transform="translate(405.761719 0)"/>
      <use xlink:href="#ArialMT-20" transform="translate(461.376953 0)"/>
      <use xlink:href="#ArialMT-6f" transform="translate(489.160156 0)"/>
      <use xlink:href="#ArialMT-66" transform="translate(544.775391 0)"/>
      <use xlink:href="#ArialMT-20" transform="translate(572.558594 0)"/>
      <use xlink:href="#ArialMT-54" transform="translate(598.591797 0)"/>
      <use xlink:href="#ArialMT-72" transform="translate(655.925781 0)"/>
      <use xlink:href="#ArialMT-61" transform="translate(689.226562 0)"/>
      <use xlink:href="#ArialMT-69" transform="translate(744.841797 0)"/>
      <use xlink:href="#ArialMT-6e" transform="translate(767.058594 0)"/>
      <use xlink:href="#ArialMT-69" transform="translate(822.673828 0)"/>
      <use xlink:href="#ArialMT-6e" transform="translate(844.890625 0)"/>
      <use xlink:href="#ArialMT-67" transform="translate(900.505859 0)"/>
     </g>
    </g>
   </g>
   <g id="matplotlib.axis_2">
    <g id="ytick_1">
     <g id="line2d_13">
      <path d="M 58.58875 450.025186 
L 728.18875 450.025186 
" clip-path="url(#p25833bbd00)" style="fill: none; stroke: #cccccc; stroke-width: 0.8; stroke-linecap: round"/>
     </g>
     <g id="line2d_14"/>
     <g id="text_8">
      <!-- $\mathdefault{10^{1}}$ -->
      <g style="fill: #262626" transform="translate(29.96875 458.275186) scale(0.16 -0.16)">
       <use xlink:href="#ArialMT-31" transform="translate(0 0.99375)"/>
       <use xlink:href="#ArialMT-30" transform="translate(55.615234 0.99375)"/>
       <use xlink:href="#ArialMT-31" transform="translate(112.972813 70.6875) scale(0.7)"/>
      </g>
     </g>
    </g>
    <g id="ytick_2">
     <g id="line2d_15">
      <path d="M 58.58875 352.102519 
L 728.18875 352.102519 
" clip-path="url(#p25833bbd00)" style="fill: none; stroke: #cccccc; stroke-width: 0.8; stroke-linecap: round"/>
     </g>
     <g id="line2d_16"/>
     <g id="text_9">
      <!-- $\mathdefault{10^{2}}$ -->
      <g style="fill: #262626" transform="translate(29.96875 360.352519) scale(0.16 -0.16)">
       <use xlink:href="#ArialMT-31" transform="translate(0 0.99375)"/>
       <use xlink:href="#ArialMT-30" transform="translate(55.615234 0.99375)"/>
       <use xlink:href="#ArialMT-32" transform="translate(112.972813 70.6875) scale(0.7)"/>
      </g>
     </g>
    </g>
    <g id="ytick_3">
     <g id="line2d_17">
      <path d="M 58.58875 254.179851 
L 728.18875 254.179851 
" clip-path="url(#p25833bbd00)" style="fill: none; stroke: #cccccc; stroke-width: 0.8; stroke-linecap: round"/>
     </g>
     <g id="line2d_18"/>
     <g id="text_10">
      <!-- $\mathdefault{10^{3}}$ -->
      <g style="fill: #262626" transform="translate(29.96875 262.429851) scale(0.16 -0.16)">
       <defs>
        <path id="ArialMT-33" d="M 269 1209 
L 831 1284 
Q 928 806 1161 595 
Q 1394 384 1728 384 
Q 2125 384 2398 659 
Q 2672 934 2672 1341 
Q 2672 1728 2419 1979 
Q 2166 2231 1775 2231 
Q 1616 2231 1378 2169 
L 1441 2663 
Q 1497 2656 1531 2656 
Q 1891 2656 2178 2843 
Q 2466 3031 2466 3422 
Q 2466 3731 2256 3934 
Q 2047 4138 1716 4138 
Q 1388 4138 1169 3931 
Q 950 3725 888 3313 
L 325 3413 
Q 428 3978 793 4289 
Q 1159 4600 1703 4600 
Q 2078 4600 2393 4439 
Q 2709 4278 2876 4000 
Q 3044 3722 3044 3409 
Q 3044 3113 2884 2869 
Q 2725 2625 2413 2481 
Q 2819 2388 3044 2092 
Q 3269 1797 3269 1353 
Q 3269 753 2831 336 
Q 2394 -81 1725 -81 
Q 1122 -81 723 278 
Q 325 638 269 1209 
z
" transform="scale(0.015625)"/>
       </defs>
       <use xlink:href="#ArialMT-31" transform="translate(0 0.99375)"/>
       <use xlink:href="#ArialMT-30" transform="translate(55.615234 0.99375)"/>
       <use xlink:href="#ArialMT-33" transform="translate(112.972813 70.6875) scale(0.7)"/>
      </g>
     </g>
    </g>
    <g id="ytick_4">
     <g id="line2d_19">
      <path d="M 58.58875 156.257184 
L 728.18875 156.257184 
" clip-path="url(#p25833bbd00)" style="fill: none; stroke: #cccccc; stroke-width: 0.8; stroke-linecap: round"/>
     </g>
     <g id="line2d_20"/>
     <g id="text_11">
      <!-- $\mathdefault{10^{4}}$ -->
      <g style="fill: #262626" transform="translate(29.96875 164.427184) scale(0.16 -0.16)">
       <use xlink:href="#ArialMT-31" transform="translate(0 0.201563)"/>
       <use xlink:href="#ArialMT-30" transform="translate(55.615234 0.201563)"/>
       <use xlink:href="#ArialMT-34" transform="translate(112.972813 69.895313) scale(0.7)"/>
      </g>
     </g>
    </g>
    <g id="ytick_5">
     <g id="line2d_21">
      <path d="M 58.58875 58.334516 
L 728.18875 58.334516 
" clip-path="url(#p25833bbd00)" style="fill: none; stroke: #cccccc; stroke-width: 0.8; stroke-linecap: round"/>
     </g>
     <g id="line2d_22"/>
     <g id="text_12">
      <!-- $\mathdefault{10^{5}}$ -->
      <g style="fill: #262626" transform="translate(29.96875 66.504516) scale(0.16 -0.16)">
       <defs>
        <path id="ArialMT-35" d="M 266 1200 
L 856 1250 
Q 922 819 1161 601 
Q 1400 384 1738 384 
Q 2144 384 2425 690 
Q 2706 997 2706 1503 
Q 2706 1984 2436 2262 
Q 2166 2541 1728 2541 
Q 1456 2541 1237 2417 
Q 1019 2294 894 2097 
L 366 2166 
L 809 4519 
L 3088 4519 
L 3088 3981 
L 1259 3981 
L 1013 2750 
Q 1425 3038 1878 3038 
Q 2478 3038 2890 2622 
Q 3303 2206 3303 1553 
Q 3303 931 2941 478 
Q 2500 -78 1738 -78 
Q 1113 -78 717 272 
Q 322 622 266 1200 
z
" transform="scale(0.015625)"/>
       </defs>
       <use xlink:href="#ArialMT-31" transform="translate(0 0.879688)"/>
       <use xlink:href="#ArialMT-30" transform="translate(55.615234 0.879688)"/>
       <use xlink:href="#ArialMT-35" transform="translate(112.972813 70.573438) scale(0.7)"/>
      </g>
     </g>
    </g>
    <g id="ytick_6">
     <g id="line2d_23"/>
    </g>
    <g id="ytick_7">
     <g id="line2d_24"/>
    </g>
    <g id="ytick_8">
     <g id="line2d_25"/>
    </g>
    <g id="ytick_9">
     <g id="line2d_26"/>
    </g>
    <g id="ytick_10">
     <g id="line2d_27"/>
    </g>
    <g id="ytick_11">
     <g id="line2d_28"/>
    </g>
    <g id="ytick_12">
     <g id="line2d_29"/>
    </g>
    <g id="ytick_13">
     <g id="line2d_30"/>
    </g>
    <g id="ytick_14">
     <g id="line2d_31"/>
    </g>
    <g id="ytick_15">
     <g id="line2d_32"/>
    </g>
    <g id="ytick_16">
     <g id="line2d_33"/>
    </g>
    <g id="ytick_17">
     <g id="line2d_34"/>
    </g>
    <g id="ytick_18">
     <g id="line2d_35"/>
    </g>
    <g id="ytick_19">
     <g id="line2d_36"/>
    </g>
    <g id="ytick_20">
     <g id="line2d_37"/>
    </g>
    <g id="ytick_21">
     <g id="line2d_38"/>
    </g>
    <g id="ytick_22">
     <g id="line2d_39"/>
    </g>
    <g id="ytick_23">
     <g id="line2d_40"/>
    </g>
    <g id="ytick_24">
     <g id="line2d_41"/>
    </g>
    <g id="ytick_25">
     <g id="line2d_42"/>
    </g>
    <g id="ytick_26">
     <g id="line2d_43"/>
    </g>
    <g id="ytick_27">
     <g id="line2d_44"/>
    </g>
    <g id="ytick_28">
     <g id="line2d_45"/>
    </g>
    <g id="ytick_29">
     <g id="line2d_46"/>
    </g>
    <g id="ytick_30">
     <g id="line2d_47"/>
    </g>
    <g id="ytick_31">
     <g id="line2d_48"/>
    </g>
    <g id="ytick_32">
     <g id="line2d_49"/>
    </g>
    <g id="ytick_33">
     <g id="line2d_50"/>
    </g>
    <g id="ytick_34">
     <g id="line2d_51"/>
    </g>
    <g id="ytick_35">
     <g id="line2d_52"/>
    </g>
    <g id="ytick_36">
     <g id="line2d_53"/>
    </g>
    <g id="ytick_37">
     <g id="line2d_54"/>
    </g>
    <g id="ytick_38">
     <g id="line2d_55"/>
    </g>
    <g id="ytick_39">
     <g id="line2d_56"/>
    </g>
    <g id="ytick_40">
     <g id="line2d_57"/>
    </g>
    <g id="ytick_41">
     <g id="line2d_58"/>
    </g>
    <g id="text_13">
     <!-- Training Perplexity (Log Scale) -->
     <g style="fill: #262626" transform="translate(21.759375 388.776562) rotate(-90) scale(0.2 -0.2)">
      <defs>
       <path id="ArialMT-65" d="M 2694 1069 
L 3275 997 
Q 3138 488 2766 206 
Q 2394 -75 1816 -75 
Q 1088 -75 661 373 
Q 234 822 234 1631 
Q 234 2469 665 2931 
Q 1097 3394 1784 3394 
Q 2450 3394 2872 2941 
Q 3294 2488 3294 1666 
Q 3294 1616 3291 1516 
L 816 1516 
Q 847 969 1125 678 
Q 1403 388 1819 388 
Q 2128 388 2347 550 
Q 2566 713 2694 1069 
z
M 847 1978 
L 2700 1978 
Q 2663 2397 2488 2606 
Q 2219 2931 1791 2931 
Q 1403 2931 1139 2672 
Q 875 2413 847 1978 
z
" transform="scale(0.015625)"/>
       <path id="ArialMT-6c" d="M 409 0 
L 409 4581 
L 972 4581 
L 972 0 
L 409 0 
z
" transform="scale(0.015625)"/>
       <path id="ArialMT-78" d="M 47 0 
L 1259 1725 
L 138 3319 
L 841 3319 
L 1350 2541 
Q 1494 2319 1581 2169 
Q 1719 2375 1834 2534 
L 2394 3319 
L 3066 3319 
L 1919 1756 
L 3153 0 
L 2463 0 
L 1781 1031 
L 1600 1309 
L 728 0 
L 47 0 
z
" transform="scale(0.015625)"/>
       <path id="ArialMT-79" d="M 397 -1278 
L 334 -750 
Q 519 -800 656 -800 
Q 844 -800 956 -737 
Q 1069 -675 1141 -563 
Q 1194 -478 1313 -144 
Q 1328 -97 1363 -6 
L 103 3319 
L 709 3319 
L 1400 1397 
Q 1534 1031 1641 628 
Q 1738 1016 1872 1384 
L 2581 3319 
L 3144 3319 
L 1881 -56 
Q 1678 -603 1566 -809 
Q 1416 -1088 1222 -1217 
Q 1028 -1347 759 -1347 
Q 597 -1347 397 -1278 
z
" transform="scale(0.015625)"/>
       <path id="ArialMT-28" d="M 1497 -1347 
Q 1031 -759 709 28 
Q 388 816 388 1659 
Q 388 2403 628 3084 
Q 909 3875 1497 4659 
L 1900 4659 
Q 1522 4009 1400 3731 
Q 1209 3300 1100 2831 
Q 966 2247 966 1656 
Q 966 153 1900 -1347 
L 1497 -1347 
z
" transform="scale(0.015625)"/>
       <path id="ArialMT-4c" d="M 469 0 
L 469 4581 
L 1075 4581 
L 1075 541 
L 3331 541 
L 3331 0 
L 469 0 
z
" transform="scale(0.015625)"/>
       <path id="ArialMT-53" d="M 288 1472 
L 859 1522 
Q 900 1178 1048 958 
Q 1197 738 1509 602 
Q 1822 466 2213 466 
Q 2559 466 2825 569 
Q 3091 672 3220 851 
Q 3350 1031 3350 1244 
Q 3350 1459 3225 1620 
Q 3100 1781 2813 1891 
Q 2628 1963 1997 2114 
Q 1366 2266 1113 2400 
Q 784 2572 623 2826 
Q 463 3081 463 3397 
Q 463 3744 659 4045 
Q 856 4347 1234 4503 
Q 1613 4659 2075 4659 
Q 2584 4659 2973 4495 
Q 3363 4331 3572 4012 
Q 3781 3694 3797 3291 
L 3216 3247 
Q 3169 3681 2898 3903 
Q 2628 4125 2100 4125 
Q 1550 4125 1298 3923 
Q 1047 3722 1047 3438 
Q 1047 3191 1225 3031 
Q 1400 2872 2139 2705 
Q 2878 2538 3153 2413 
Q 3553 2228 3743 1945 
Q 3934 1663 3934 1294 
Q 3934 928 3725 604 
Q 3516 281 3123 101 
Q 2731 -78 2241 -78 
Q 1619 -78 1198 103 
Q 778 284 539 648 
Q 300 1013 288 1472 
z
" transform="scale(0.015625)"/>
       <path id="ArialMT-63" d="M 2588 1216 
L 3141 1144 
Q 3050 572 2676 248 
Q 2303 -75 1759 -75 
Q 1078 -75 664 370 
Q 250 816 250 1647 
Q 250 2184 428 2587 
Q 606 2991 970 3192 
Q 1334 3394 1763 3394 
Q 2303 3394 2647 3120 
Q 2991 2847 3088 2344 
L 2541 2259 
Q 2463 2594 2264 2762 
Q 2066 2931 1784 2931 
Q 1359 2931 1093 2626 
Q 828 2322 828 1663 
Q 828 994 1084 691 
Q 1341 388 1753 388 
Q 2084 388 2306 591 
Q 2528 794 2588 1216 
z
" transform="scale(0.015625)"/>
       <path id="ArialMT-29" d="M 791 -1347 
L 388 -1347 
Q 1322 153 1322 1656 
Q 1322 2244 1188 2822 
Q 1081 3291 891 3722 
Q 769 4003 388 4659 
L 791 4659 
Q 1378 3875 1659 3084 
Q 1900 2403 1900 1659 
Q 1900 816 1576 28 
Q 1253 -759 791 -1347 
z
" transform="scale(0.015625)"/>
      </defs>
      <use xlink:href="#ArialMT-54"/>
      <use xlink:href="#ArialMT-72" transform="translate(57.333984 0)"/>
      <use xlink:href="#ArialMT-61" transform="translate(90.634766 0)"/>
      <use xlink:href="#ArialMT-69" transform="translate(146.25 0)"/>
      <use xlink:href="#ArialMT-6e" transform="translate(168.466797 0)"/>
      <use xlink:href="#ArialMT-69" transform="translate(224.082031 0)"/>
      <use xlink:href="#ArialMT-6e" transform="translate(246.298828 0)"/>
      <use xlink:href="#ArialMT-67" transform="translate(301.914062 0)"/>
      <use xlink:href="#ArialMT-20" transform="translate(357.529297 0)"/>
      <use xlink:href="#ArialMT-50" transform="translate(385.3125 0)"/>
      <use xlink:href="#ArialMT-65" transform="translate(452.011719 0)"/>
      <use xlink:href="#ArialMT-72" transform="translate(507.626953 0)"/>
      <use xlink:href="#ArialMT-70" transform="translate(540.927734 0)"/>
      <use xlink:href="#ArialMT-6c" transform="translate(596.542969 0)"/>
      <use xlink:href="#ArialMT-65" transform="translate(618.759766 0)"/>
      <use xlink:href="#ArialMT-78" transform="translate(674.375 0)"/>
      <use xlink:href="#ArialMT-69" transform="translate(724.375 0)"/>
      <use xlink:href="#ArialMT-74" transform="translate(746.591797 0)"/>
      <use xlink:href="#ArialMT-79" transform="translate(774.375 0)"/>
      <use xlink:href="#ArialMT-20" transform="translate(824.375 0)"/>
      <use xlink:href="#ArialMT-28" transform="translate(852.158203 0)"/>
      <use xlink:href="#ArialMT-4c" transform="translate(885.458984 0)"/>
      <use xlink:href="#ArialMT-6f" transform="translate(941.074219 0)"/>
      <use xlink:href="#ArialMT-67" transform="translate(996.689453 0)"/>
      <use xlink:href="#ArialMT-20" transform="translate(1052.304688 0)"/>
      <use xlink:href="#ArialMT-53" transform="translate(1080.087891 0)"/>
      <use xlink:href="#ArialMT-63" transform="translate(1146.787109 0)"/>
      <use xlink:href="#ArialMT-61" transform="translate(1196.787109 0)"/>
      <use xlink:href="#ArialMT-6c" transform="translate(1252.402344 0)"/>
      <use xlink:href="#ArialMT-65" transform="translate(1274.619141 0)"/>
      <use xlink:href="#ArialMT-29" transform="translate(1330.234375 0)"/>
     </g>
    </g>
   </g>
   <g id="line2d_59">
    <path d="M 59.50853 184.926797 
L 60.42831 186.090922 
L 61.348091 185.918277 
L 62.267871 187.104378 
L 63.187651 189.356144 
L 64.107431 193.237646 
L 76.984354 264.555941 
L 79.743695 279.739305 
L 85.262376 308.414639 
L 90.781058 335.289972 
L 92.620618 342.735899 
L 93.540398 345.978746 
L 95.379959 353.815047 
L 98.139299 364.49264 
L 99.97886 370.697062 
L 100.89864 373.182192 
L 101.81842 375.32716 
L 102.738201 378.322308 
L 104.577761 382.705018 
L 105.497541 384.140734 
L 106.417321 384.894898 
L 107.337102 387.819092 
L 108.256882 388.795359 
L 110.096442 393.609657 
L 111.016223 395.643559 
L 111.936003 395.494331 
L 112.855783 396.443021 
L 113.775563 396.670802 
L 114.695343 397.541672 
L 116.534904 401.338276 
L 117.454684 403.401806 
L 118.374464 403.758797 
L 119.294245 405.363428 
L 120.214025 406.687295 
L 121.133805 406.809388 
L 122.053585 407.616488 
L 122.973365 407.177562 
L 123.893146 404.518949 
L 124.812926 405.165488 
L 125.732706 406.43902 
L 126.652486 406.452393 
L 127.572266 406.6119 
L 128.492047 407.146259 
L 129.411827 408.811744 
L 130.331607 410.120583 
L 131.251387 409.564135 
L 132.171168 410.726262 
L 133.090948 409.224252 
L 134.930508 410.863701 
L 135.850288 409.129836 
L 136.770069 409.40853 
L 137.689849 410.143493 
L 139.529409 407.91997 
L 140.44919 408.719717 
L 141.36897 409.946812 
L 143.20853 413.56697 
L 144.12831 414.792755 
L 145.048091 415.042539 
L 145.967871 413.193806 
L 146.887651 414.713185 
L 147.807431 414.47019 
L 148.727212 413.907637 
L 149.646992 412.565459 
L 150.566772 414.648975 
L 151.486552 416.243372 
L 153.326113 417.684543 
L 154.245893 418.848367 
L 155.165673 418.952454 
L 156.085453 419.852385 
L 157.005234 419.854278 
L 157.925014 420.989257 
L 158.844794 420.207794 
L 159.764574 420.072939 
L 160.684354 421.065378 
L 161.604135 421.234472 
L 162.523915 420.786453 
L 163.443695 422.147606 
L 164.363475 421.396058 
L 165.283255 421.06319 
L 166.203036 421.924714 
L 167.122816 422.085072 
L 168.042596 423.228934 
L 168.962376 421.359109 
L 169.882157 422.15453 
L 170.801937 424.016221 
L 171.721717 421.248739 
L 172.641497 420.695104 
L 173.561277 421.93315 
L 174.481058 421.428388 
L 175.400838 422.251689 
L 176.320618 420.189737 
L 177.240398 421.70131 
L 178.160179 420.417592 
L 179.079959 422.16661 
L 179.999739 422.081888 
L 180.919519 423.980015 
L 181.839299 424.321283 
L 182.75908 425.30772 
L 183.67886 426.511426 
L 184.59864 426.837371 
L 185.51842 426.525784 
L 186.438201 426.877117 
L 187.357981 426.309744 
L 188.277761 428.994402 
L 189.197541 431.000599 
L 190.117321 431.718327 
L 191.037102 428.418492 
L 191.956882 428.310195 
L 192.876662 427.294654 
L 193.796442 428.113919 
L 194.716223 428.249132 
L 195.636003 427.789664 
L 196.555783 427.088342 
L 197.475563 428.733444 
L 198.395343 427.834418 
L 199.315124 425.86409 
L 200.234904 423.213853 
L 201.154684 424.292797 
L 202.074464 424.323915 
L 202.994245 424.8297 
L 203.914025 426.200622 
L 204.833805 425.105986 
L 205.753585 425.871003 
L 206.673365 425.749544 
L 207.593146 426.75197 
L 208.512926 428.449968 
L 209.432706 427.799639 
L 210.352486 426.903048 
L 211.272266 428.206803 
L 212.192047 429.230719 
L 213.111827 427.995452 
L 214.031607 427.668774 
L 214.951387 428.45394 
L 215.871168 428.573653 
L 216.790948 427.851216 
L 217.710728 429.283713 
L 218.630508 428.637278 
L 219.550288 426.419834 
L 220.470069 426.43664 
L 221.389849 427.964688 
L 222.309629 428.555778 
L 223.229409 429.781781 
L 224.14919 429.385315 
L 225.06897 430.601024 
L 225.98875 432.270185 
L 226.90853 432.476576 
L 227.82831 433.257641 
L 228.748091 430.933589 
L 229.667871 432.259061 
L 230.587651 432.620187 
L 231.507431 433.931015 
L 232.427212 433.723591 
L 233.346992 431.438134 
L 234.266772 431.626773 
L 235.186552 433.243217 
L 236.106332 432.348633 
L 237.026113 431.239706 
L 237.945893 428.889211 
L 238.865673 428.043744 
L 239.785453 428.076619 
L 241.625014 430.269294 
L 242.544794 429.873318 
L 244.384354 432.401733 
L 245.304135 432.229312 
L 246.223915 431.396885 
L 247.143695 433.085878 
L 248.063475 433.218519 
L 248.983255 433.81203 
L 249.903036 435.029565 
L 250.822816 436.976046 
L 251.742596 438.479998 
L 252.662376 439.539794 
L 255.421717 437.84095 
L 256.341497 440.383873 
L 257.261277 437.523872 
L 258.181058 436.947394 
L 259.100838 437.461439 
L 260.020618 438.524187 
L 260.940398 436.371965 
L 261.860179 436.401616 
L 262.779959 434.654733 
L 263.699739 435.391768 
L 264.619519 435.04662 
L 265.539299 434.953469 
L 266.45908 435.52935 
L 267.37886 435.780014 
L 268.29864 436.551201 
L 269.21842 435.230004 
L 270.138201 436.01028 
L 271.057981 435.914162 
L 271.977761 437.535885 
L 272.897541 437.524535 
L 273.817321 438.51929 
L 274.737102 438.958279 
L 275.656882 439.706016 
L 276.576662 439.183217 
L 277.496442 436.697222 
L 278.416223 436.806515 
L 279.336003 437.767922 
L 280.255783 436.779439 
L 281.175563 436.541631 
L 282.095343 436.101619 
L 283.015124 437.582899 
L 283.934904 437.387528 
L 284.854684 436.432849 
L 285.774464 437.634262 
L 286.694245 438.522361 
L 287.614025 438.793939 
L 288.533805 438.28933 
L 289.453585 436.4901 
L 290.373365 438.388771 
L 291.293146 437.859024 
L 292.212926 439.160988 
L 293.132706 436.750706 
L 294.052486 433.760839 
L 295.892047 435.975368 
L 296.811827 436.133728 
L 297.731607 437.260235 
L 298.651387 437.635631 
L 299.571168 438.780772 
L 300.490948 438.548471 
L 301.410728 439.332673 
L 302.330508 437.460078 
L 303.250288 438.546164 
L 304.170069 438.084137 
L 305.089849 438.802275 
L 306.009629 438.100226 
L 306.929409 438.044076 
L 307.84919 437.200162 
L 308.76897 437.471355 
L 309.68875 438.033386 
L 310.60853 437.801079 
L 312.448091 439.720217 
L 313.367871 440.83343 
L 315.207431 441.673643 
L 317.046992 442.054882 
L 317.966772 440.348888 
L 318.886552 439.538579 
L 319.806332 439.676063 
L 320.726113 438.834737 
L 321.645893 438.492669 
L 323.485453 439.701421 
L 324.405234 439.761462 
L 325.325014 440.034313 
L 326.244794 439.798541 
L 327.164574 439.012927 
L 328.084354 437.622119 
L 329.004135 437.286627 
L 329.923915 438.374223 
L 330.843695 438.871191 
L 331.763475 439.600894 
L 332.683255 439.414501 
L 333.603036 440.408197 
L 334.522816 439.989858 
L 335.442596 438.550785 
L 336.362376 438.069113 
L 337.282157 438.264444 
L 338.201937 438.85851 
L 339.121717 438.943889 
L 340.041497 439.58564 
L 340.961277 439.061923 
L 341.881058 439.783588 
L 342.800838 439.848142 
L 343.720618 440.14677 
L 344.640398 440.186067 
L 345.560179 441.95077 
L 346.479959 442.808423 
L 347.399739 442.888975 
L 348.319519 441.440885 
L 349.239299 441.202864 
L 351.07886 442.050603 
L 351.99864 442.951638 
L 352.91842 442.244277 
L 353.838201 443.320228 
L 354.757981 443.711617 
L 355.677761 443.746996 
L 356.597541 445.258 
L 357.517321 444.948692 
L 358.437102 444.270738 
L 359.356882 444.131411 
L 360.276662 445.366538 
L 361.196442 444.55395 
L 362.116223 444.580296 
L 363.036003 444.29802 
L 364.875563 440.88183 
L 365.795343 441.257466 
L 366.715124 439.676691 
L 367.634904 438.398385 
L 368.554684 439.629256 
L 369.474464 439.084783 
L 371.314025 437.540637 
L 373.153585 440.111851 
L 374.073365 442.495123 
L 374.993146 441.423826 
L 375.912926 442.087926 
L 377.752486 442.789913 
L 378.672266 444.210572 
L 379.592047 443.147736 
L 380.511827 443.693702 
L 381.431607 445.203511 
L 383.271168 445.883727 
L 384.190948 447.19847 
L 385.110728 447.562195 
L 386.030508 447.707094 
L 386.950288 445.291834 
L 387.870069 446.470956 
L 388.789849 446.161835 
L 389.709629 445.040994 
L 390.629409 445.494921 
L 391.54919 445.800626 
L 392.46897 446.877995 
L 393.38875 446.573288 
L 394.30853 445.004335 
L 395.22831 443.068736 
L 396.148091 442.935912 
L 397.067871 442.253625 
L 399.827212 445.647144 
L 400.746992 445.843644 
L 402.586552 445.170282 
L 403.506332 440.506372 
L 404.426113 440.405674 
L 405.345893 441.277935 
L 406.265673 439.929924 
L 407.185453 441.874166 
L 408.105234 442.606882 
L 409.025014 443.032805 
L 409.944794 443.251851 
L 410.864574 441.83319 
L 411.784354 442.753373 
L 412.704135 443.109693 
L 413.623915 440.623786 
L 414.543695 439.58798 
L 415.463475 441.687503 
L 416.383255 442.326187 
L 417.303036 443.117191 
L 418.222816 443.268464 
L 419.142596 442.010003 
L 420.062376 439.95778 
L 420.982157 441.861783 
L 421.901937 442.0756 
L 422.821717 441.15144 
L 423.741497 440.756941 
L 424.661277 441.203113 
L 425.581058 440.681683 
L 426.500838 440.5671 
L 427.420618 440.625784 
L 428.340398 442.479093 
L 429.260179 442.957154 
L 430.179959 443.02269 
L 431.099739 444.631821 
L 432.019519 444.970702 
L 432.939299 444.599131 
L 433.85908 445.609566 
L 434.77886 445.757776 
L 435.69864 446.988937 
L 436.61842 446.844874 
L 437.538201 445.519209 
L 438.457981 443.707553 
L 439.377761 440.539585 
L 440.297541 442.087747 
L 441.217321 441.766426 
L 442.137102 441.987491 
L 443.056882 442.43324 
L 443.976662 442.560085 
L 444.896442 442.572905 
L 445.816223 442.918805 
L 447.655783 445.079151 
L 448.575563 443.252187 
L 449.495343 443.013131 
L 450.415124 444.178441 
L 451.334904 444.339338 
L 452.254684 441.944199 
L 453.174464 442.134582 
L 454.094245 439.509433 
L 455.014025 441.259951 
L 455.933805 441.238696 
L 456.853585 440.290509 
L 457.773365 442.190397 
L 458.693146 443.119579 
L 459.612926 443.058702 
L 460.532706 442.585842 
L 461.452486 444.506302 
L 462.372266 443.202219 
L 463.292047 443.33279 
L 464.211827 443.153998 
L 465.131607 443.443655 
L 466.051387 445.684591 
L 466.971168 445.434648 
L 467.890948 443.422015 
L 468.810728 443.881009 
L 469.730508 444.697173 
L 470.650288 442.992507 
L 471.570069 442.862051 
L 473.409629 445.383546 
L 474.329409 446.151826 
L 475.24919 446.257292 
L 476.16897 444.341624 
L 477.08875 444.901957 
L 478.00853 445.922237 
L 478.92831 446.771492 
L 479.848091 446.265619 
L 480.767871 447.010524 
L 481.687651 445.711068 
L 482.607431 447.086832 
L 483.527212 445.526166 
L 484.446992 445.799422 
L 485.366772 445.931094 
L 486.286552 445.293504 
L 487.206332 442.506772 
L 488.126113 441.453229 
L 489.965673 442.445912 
L 490.885453 442.953505 
L 491.805234 443.911467 
L 492.725014 441.517149 
L 493.644794 441.52234 
L 494.564574 440.423322 
L 495.484354 441.633678 
L 496.404135 442.611068 
L 497.323915 444.766337 
L 498.243695 444.388927 
L 499.163475 444.817597 
L 500.083255 445.018852 
L 501.003036 445.807484 
L 501.922816 443.781927 
L 502.842596 443.028759 
L 503.762376 444.359787 
L 504.682157 442.988094 
L 505.601937 444.530378 
L 506.521717 445.751776 
L 507.441497 445.066081 
L 508.361277 444.527719 
L 509.281058 444.995876 
L 510.200838 445.688126 
L 512.040398 447.919956 
L 512.960179 447.106743 
L 513.879959 445.407871 
L 514.799739 444.305522 
L 515.719519 445.283933 
L 517.55908 446.195192 
L 518.47886 447.538027 
L 519.39864 448.510756 
L 520.31842 447.695515 
L 521.238201 447.899346 
L 522.157981 447.70969 
L 523.077761 445.782155 
L 523.997541 445.859368 
L 524.917321 446.390804 
L 525.837102 445.802756 
L 526.756882 446.557406 
L 527.676662 446.973997 
L 528.596442 445.521182 
L 529.516223 445.473327 
L 530.436003 444.875253 
L 531.355783 446.107216 
L 532.275563 446.947963 
L 533.195343 446.37735 
L 534.115124 446.59465 
L 535.034904 445.656411 
L 535.954684 443.523614 
L 537.794245 439.969348 
L 538.714025 441.226975 
L 539.633805 441.352329 
L 540.553585 442.955138 
L 541.473365 443.66369 
L 542.393146 439.803508 
L 543.312926 441.272649 
L 544.232706 441.489401 
L 545.152486 441.84672 
L 546.072266 441.101988 
L 546.992047 439.972607 
L 547.911827 440.436346 
L 548.831607 441.248609 
L 549.751387 440.620164 
L 550.671168 441.332468 
L 551.590948 442.401767 
L 552.510728 444.190318 
L 553.430508 443.702418 
L 554.350288 443.881358 
L 555.270069 443.314807 
L 556.189849 443.159565 
L 557.109629 444.165947 
L 558.029409 443.101042 
L 558.94919 443.491112 
L 559.86897 444.892472 
L 560.78875 445.207569 
L 561.70853 444.750302 
L 562.62831 446.385837 
L 563.548091 447.277775 
L 564.467871 447.559687 
L 565.387651 448.103056 
L 566.307431 445.995131 
L 567.227212 447.41334 
L 568.146992 447.96701 
L 569.066772 449.577538 
L 569.986552 449.771781 
L 570.906332 451.022698 
L 571.826113 449.765782 
L 572.745893 450.531105 
L 573.665673 449.807971 
L 574.585453 448.698424 
L 575.505234 450.868017 
L 576.425014 451.42291 
L 577.344794 451.834594 
L 578.264574 450.342233 
L 579.184354 449.631221 
L 580.104135 450.108433 
L 581.023915 449.559101 
L 581.943695 450.166118 
L 582.863475 448.148601 
L 583.783255 449.401608 
L 584.703036 449.352074 
L 585.622816 450.78983 
L 586.542596 451.289358 
L 587.462376 450.739779 
L 588.382157 450.558497 
L 589.301937 451.625688 
L 590.221717 450.961066 
L 591.141497 451.29423 
L 592.061277 451.480009 
L 593.900838 454.03125 
L 594.820618 452.040255 
L 595.740398 450.621788 
L 596.660179 450.053658 
L 597.579959 450.13964 
L 598.499739 450.67939 
L 599.419519 447.74293 
L 600.339299 445.853603 
L 601.25908 445.434359 
L 602.17886 446.21377 
L 603.09864 445.444372 
L 604.01842 445.357352 
L 604.938201 446.127961 
L 605.857981 447.638489 
L 606.777761 447.517973 
L 607.697541 448.00597 
L 608.617321 443.850444 
L 609.537102 444.428002 
L 610.456882 444.412191 
L 611.376662 445.386395 
L 613.216223 445.988589 
L 614.136003 446.014942 
L 615.055783 445.828552 
L 615.975563 445.882985 
L 616.895343 444.353406 
L 617.815124 445.235544 
L 618.734904 445.410544 
L 619.654684 447.219998 
L 620.574464 446.464847 
L 621.494245 445.078865 
L 622.414025 444.723257 
L 623.333805 443.834056 
L 624.253585 443.565573 
L 626.093146 441.523745 
L 627.012926 441.93557 
L 627.932706 437.708066 
L 628.852486 438.43773 
L 629.772266 438.750301 
L 630.692047 438.917619 
L 631.611827 441.128971 
L 632.531607 442.492111 
L 633.451387 441.67972 
L 634.371168 441.740855 
L 635.290948 442.960085 
L 636.210728 443.768158 
L 639.889849 448.213362 
L 640.809629 450.136133 
L 641.729409 451.209635 
L 642.64919 449.686511 
L 643.56897 449.672827 
L 644.48875 449.09155 
L 645.40853 449.750207 
L 646.32831 449.205417 
L 647.248091 446.673293 
L 648.167871 446.609512 
L 649.087651 444.914624 
L 650.007431 443.699028 
L 650.927212 444.692267 
L 651.846992 446.116232 
L 652.766772 446.219392 
L 653.686552 445.368577 
L 654.606332 445.746365 
L 655.526113 443.073186 
L 656.445893 442.360399 
L 657.365673 441.916118 
L 658.285453 442.319618 
L 659.205234 441.032708 
L 660.125014 442.488512 
L 661.044794 440.358532 
L 661.964574 441.363151 
L 662.884354 441.397467 
L 664.723915 444.33199 
L 665.643695 445.286621 
L 666.563475 445.777071 
L 667.483255 445.980431 
L 668.403036 446.064403 
L 669.322816 447.534626 
L 670.242596 447.509394 
L 671.162376 448.544717 
L 672.082157 446.31321 
L 673.001937 447.24401 
L 673.921717 446.927489 
L 674.841497 445.559457 
L 675.761277 446.95574 
L 676.681058 446.162356 
L 677.600838 447.064596 
L 678.520618 446.97419 
L 679.440398 448.751511 
L 680.360179 447.863753 
L 682.199739 449.065853 
L 683.119519 449.619898 
L 684.039299 450.906246 
L 684.95908 451.560414 
L 685.87886 450.308769 
L 686.79864 449.999678 
L 687.71842 448.503312 
L 688.638201 446.590083 
L 689.557981 446.326914 
L 690.477761 445.562929 
L 691.397541 446.617539 
L 692.317321 446.563488 
L 693.237102 445.042927 
L 694.156882 444.799231 
L 695.076662 443.578271 
L 695.996442 444.24656 
L 696.916223 445.873131 
L 697.836003 445.075303 
L 699.675563 446.329509 
L 700.595343 447.614944 
L 701.515124 447.998132 
L 702.434904 447.286799 
L 704.274464 447.341473 
L 705.194245 446.82705 
L 706.114025 447.750692 
L 707.033805 447.360829 
L 707.953585 448.118124 
L 708.873365 448.033563 
L 709.793146 448.418362 
L 710.712926 449.082431 
L 711.632706 448.708982 
L 712.552486 448.789404 
L 713.472266 446.863164 
L 714.392047 448.019288 
L 715.311827 448.191474 
L 716.231607 449.455757 
L 717.151387 448.215196 
L 718.071168 448.452315 
L 718.990948 448.179198 
L 719.910728 449.716068 
L 720.830508 450.363644 
L 721.750288 450.760733 
L 722.670069 451.874464 
L 723.589849 452.222824 
L 724.509629 451.384473 
L 725.429409 452.605615 
L 726.34919 452.707444 
L 727.26897 450.750596 
L 728.18875 452.348847 
L 728.18875 452.348847 
" clip-path="url(#p25833bbd00)" style="fill: none; stroke: #d92523; stroke-opacity: 0.7; stroke-width: 2; stroke-linecap: round"/>
   </g>
   <g id="line2d_60">
    <path d="M 59.50853 50.83125 
L 60.42831 51.335298 
L 61.348091 52.274151 
L 62.267871 54.799478 
L 65.027212 68.711369 
L 67.786552 84.992543 
L 76.064574 134.7873 
L 91.700838 228.360521 
L 98.139299 264.608542 
L 101.81842 283.520524 
L 102.738201 288.22172 
L 103.657981 292.024411 
L 105.497541 301.85971 
L 106.417321 305.522247 
L 110.096442 323.136777 
L 111.936003 331.79174 
L 112.855783 335.372931 
L 113.775563 339.702813 
L 114.695343 343.463627 
L 115.615124 345.932554 
L 121.133805 366.092895 
L 122.053585 367.650205 
L 122.973365 369.833098 
L 123.893146 370.897513 
L 125.732706 375.62792 
L 126.652486 377.113167 
L 127.572266 378.882131 
L 128.492047 381.71439 
L 129.411827 383.348106 
L 130.331607 383.401993 
L 131.251387 384.294198 
L 132.171168 385.880507 
L 133.090948 387.895624 
L 134.010728 388.663116 
L 134.930508 387.803091 
L 136.770069 390.416681 
L 137.689849 392.905055 
L 138.609629 394.911825 
L 139.529409 395.155044 
L 140.44919 395.645005 
L 141.36897 395.747267 
L 142.28875 396.235166 
L 144.12831 398.493292 
L 145.048091 400.996893 
L 145.967871 400.940805 
L 146.887651 400.725588 
L 147.807431 398.580839 
L 148.727212 399.890278 
L 149.646992 400.48399 
L 151.486552 398.558315 
L 152.406332 398.928672 
L 153.326113 400.284278 
L 154.245893 400.73077 
L 155.165673 400.115881 
L 156.085453 401.335851 
L 157.005234 401.944346 
L 157.925014 404.287417 
L 158.844794 404.805706 
L 159.764574 406.328739 
L 160.684354 404.988667 
L 161.604135 405.215793 
L 162.523915 407.827802 
L 163.443695 407.874443 
L 164.363475 408.178609 
L 165.283255 410.081368 
L 166.203036 408.494507 
L 167.122816 410.118964 
L 168.042596 409.570531 
L 168.962376 410.83911 
L 169.882157 411.595917 
L 170.801937 411.97653 
L 171.721717 412.060369 
L 172.641497 410.192818 
L 173.561277 410.896859 
L 174.481058 408.484017 
L 175.400838 409.678354 
L 176.320618 410.616352 
L 177.240398 411.092113 
L 179.079959 413.206574 
L 180.919519 416.148992 
L 181.839299 416.26064 
L 182.75908 415.505584 
L 183.67886 416.961685 
L 184.59864 416.669978 
L 185.51842 417.143855 
L 186.438201 417.092478 
L 187.357981 416.168175 
L 188.277761 418.559872 
L 189.197541 418.482052 
L 190.117321 419.072758 
L 191.037102 417.232964 
L 191.956882 418.838398 
L 192.876662 417.244025 
L 193.796442 415.223422 
L 194.716223 414.02134 
L 195.636003 415.747621 
L 196.555783 416.529014 
L 197.475563 416.271232 
L 198.395343 417.847743 
L 199.315124 418.93826 
L 200.234904 418.406689 
L 201.154684 419.275632 
L 202.074464 420.433006 
L 202.994245 421.187242 
L 203.914025 419.419684 
L 204.833805 418.277693 
L 205.753585 417.687916 
L 206.673365 418.032424 
L 207.593146 417.764054 
L 208.512926 415.519991 
L 210.352486 419.506909 
L 211.272266 419.307594 
L 212.192047 421.190241 
L 213.111827 419.971268 
L 214.031607 419.346244 
L 215.871168 422.995324 
L 216.790948 424.176033 
L 217.710728 423.846277 
L 218.630508 423.683569 
L 219.550288 424.731321 
L 220.470069 424.066401 
L 221.389849 424.337566 
L 222.309629 426.383747 
L 223.229409 425.587401 
L 224.14919 425.159999 
L 225.06897 427.043053 
L 225.98875 428.42738 
L 226.90853 428.902485 
L 227.82831 428.069988 
L 228.748091 427.683177 
L 229.667871 428.052264 
L 230.587651 428.602285 
L 231.507431 427.688323 
L 233.346992 429.430327 
L 234.266772 428.221305 
L 236.106332 429.270557 
L 237.026113 428.031852 
L 237.945893 428.538594 
L 238.865673 430.035979 
L 239.785453 431.114337 
L 240.705234 429.432869 
L 241.625014 430.140018 
L 242.544794 429.390985 
L 243.464574 430.292835 
L 244.384354 431.578556 
L 245.304135 430.487149 
L 246.223915 431.959045 
L 247.143695 431.654117 
L 248.063475 430.820619 
L 248.983255 430.441012 
L 249.903036 431.92319 
L 250.822816 432.030737 
L 251.742596 433.390784 
L 252.662376 433.316485 
L 253.582157 433.434445 
L 254.501937 432.36984 
L 255.421717 431.573131 
L 256.341497 432.301856 
L 257.261277 431.60718 
L 258.181058 432.028137 
L 259.100838 431.208513 
L 260.020618 431.930163 
L 260.940398 428.94434 
L 261.860179 429.231349 
L 262.779959 429.790784 
L 263.699739 430.891168 
L 264.619519 430.227445 
L 265.539299 431.219144 
L 266.45908 429.502644 
L 267.37886 429.859772 
L 268.29864 429.567594 
L 269.21842 431.450847 
L 270.138201 430.492189 
L 271.057981 431.333143 
L 271.977761 431.77088 
L 272.897541 433.176697 
L 273.817321 430.651662 
L 274.737102 431.810089 
L 275.656882 432.47729 
L 276.576662 429.184212 
L 277.496442 428.057706 
L 278.416223 428.19041 
L 279.336003 427.5897 
L 281.175563 427.1941 
L 282.095343 428.251244 
L 283.015124 426.365113 
L 283.934904 425.277173 
L 284.854684 425.713513 
L 285.774464 428.413219 
L 286.694245 430.408558 
L 287.614025 428.575991 
L 288.533805 429.970561 
L 289.453585 430.807205 
L 290.373365 429.364105 
L 291.293146 429.504013 
L 292.212926 431.356594 
L 293.132706 432.144788 
L 294.052486 430.419104 
L 294.972266 431.421899 
L 295.892047 431.036977 
L 296.811827 432.32333 
L 298.651387 433.320898 
L 299.571168 430.345567 
L 301.410728 432.161352 
L 302.330508 432.749359 
L 303.250288 433.738699 
L 304.170069 433.591314 
L 305.089849 435.903484 
L 306.929409 435.529285 
L 307.84919 435.07314 
L 308.76897 435.340469 
L 309.68875 435.076829 
L 310.60853 433.405772 
L 311.52831 432.479469 
L 312.448091 432.06867 
L 313.367871 433.353624 
L 314.287651 432.523223 
L 315.207431 429.452474 
L 317.966772 432.846533 
L 318.886552 435.096184 
L 319.806332 435.863562 
L 320.726113 434.435378 
L 321.645893 432.386814 
L 322.565673 433.593742 
L 323.485453 433.777932 
L 324.405234 434.211322 
L 325.325014 435.977284 
L 326.244794 436.030513 
L 327.164574 432.097901 
L 328.084354 433.87966 
L 329.004135 433.757262 
L 329.923915 435.513759 
L 330.843695 435.754022 
L 331.763475 437.563227 
L 332.683255 436.838815 
L 333.603036 435.755764 
L 334.522816 437.072109 
L 335.442596 437.554256 
L 336.362376 439.75492 
L 337.282157 438.979658 
L 338.201937 438.69169 
L 339.121717 436.9837 
L 340.041497 435.916742 
L 340.961277 436.434283 
L 341.881058 437.885068 
L 342.800838 435.81861 
L 343.720618 437.901459 
L 344.640398 436.953761 
L 345.560179 436.863412 
L 347.399739 437.135266 
L 348.319519 435.822689 
L 349.239299 436.858442 
L 350.15908 436.159018 
L 351.07886 436.740152 
L 351.99864 437.17168 
L 353.838201 440.332867 
L 354.757981 438.06724 
L 355.677761 439.875137 
L 356.597541 435.83549 
L 357.517321 435.42973 
L 358.437102 434.043972 
L 359.356882 434.934616 
L 361.196442 437.62644 
L 362.116223 437.181583 
L 363.036003 438.272873 
L 363.955783 439.809303 
L 364.875563 439.298036 
L 365.795343 439.575873 
L 366.715124 439.67612 
L 367.634904 436.918439 
L 368.554684 437.145481 
L 369.474464 434.608919 
L 370.394245 435.792469 
L 371.314025 434.88382 
L 372.233805 436.763688 
L 373.153585 436.39898 
L 374.073365 436.585922 
L 374.993146 436.502996 
L 375.912926 436.741536 
L 376.832706 438.63826 
L 377.752486 438.918677 
L 378.672266 438.753213 
L 379.592047 439.909296 
L 380.511827 436.852367 
L 381.431607 438.378448 
L 382.351387 438.895657 
L 383.271168 438.96682 
L 384.190948 438.91942 
L 385.110728 439.559405 
L 386.030508 438.959927 
L 386.950288 438.497887 
L 387.870069 440.399294 
L 388.789849 440.929697 
L 389.709629 440.788433 
L 390.629409 438.054224 
L 391.54919 438.288043 
L 393.38875 441.490721 
L 394.30853 440.661104 
L 395.22831 441.902179 
L 396.148091 441.88764 
L 397.067871 441.62716 
L 398.907431 443.997046 
L 399.827212 443.62889 
L 400.746992 441.138159 
L 401.666772 441.609278 
L 403.506332 440.399258 
L 405.345893 438.595693 
L 408.105234 438.604045 
L 409.025014 439.798374 
L 409.944794 439.287363 
L 410.864574 440.138406 
L 411.784354 439.026069 
L 412.704135 438.887193 
L 413.623915 438.411854 
L 415.463475 439.886241 
L 416.383255 439.410413 
L 417.303036 439.904657 
L 418.222816 440.113502 
L 419.142596 437.567758 
L 420.062376 436.052526 
L 420.982157 437.027215 
L 421.901937 438.45206 
L 422.821717 437.991027 
L 423.741497 438.403183 
L 424.661277 438.451227 
L 425.581058 437.632267 
L 426.500838 435.830507 
L 427.420618 434.977237 
L 428.340398 436.339151 
L 429.260179 438.000843 
L 430.179959 439.379557 
L 431.099739 438.614603 
L 432.019519 437.031351 
L 432.939299 437.53389 
L 433.85908 439.347689 
L 434.77886 438.152133 
L 435.69864 439.375569 
L 436.61842 439.369253 
L 437.538201 441.18091 
L 438.457981 441.875915 
L 439.377761 441.578821 
L 440.297541 440.854011 
L 442.137102 438.840332 
L 443.056882 438.294074 
L 443.976662 439.669181 
L 444.896442 439.612537 
L 445.816223 440.327471 
L 446.736003 440.481222 
L 447.655783 439.448816 
L 448.575563 438.227569 
L 449.495343 438.942016 
L 450.415124 438.011229 
L 451.334904 437.440125 
L 452.254684 435.10677 
L 453.174464 436.722499 
L 454.094245 436.959463 
L 455.933805 440.472306 
L 456.853585 440.978377 
L 457.773365 443.505255 
L 458.693146 443.39689 
L 459.612926 443.608497 
L 460.532706 443.583994 
L 461.452486 443.675415 
L 462.372266 444.656115 
L 463.292047 445.983394 
L 464.211827 444.000665 
L 465.131607 444.094621 
L 466.051387 442.949162 
L 466.971168 442.908178 
L 467.890948 442.463173 
L 468.810728 443.045287 
L 469.730508 437.045909 
L 470.650288 438.092166 
L 471.570069 440.210418 
L 472.489849 441.043171 
L 473.409629 441.114414 
L 474.329409 441.024044 
L 475.24919 441.110049 
L 476.16897 440.532102 
L 477.08875 440.225532 
L 478.00853 440.33135 
L 479.848091 438.837682 
L 480.767871 438.870261 
L 481.687651 438.701969 
L 483.527212 436.885896 
L 484.446992 438.402926 
L 485.366772 438.510224 
L 486.286552 437.208367 
L 487.206332 438.44638 
L 488.126113 439.36247 
L 489.045893 437.736061 
L 489.965673 438.633034 
L 490.885453 438.428961 
L 491.805234 437.612241 
L 492.725014 437.52082 
L 493.644794 437.721919 
L 494.564574 438.127825 
L 495.484354 437.466398 
L 496.404135 438.503834 
L 498.243695 440.065449 
L 499.163475 439.034511 
L 501.003036 438.916592 
L 501.922816 439.34862 
L 502.842596 437.271401 
L 503.762376 438.537803 
L 504.682157 439.169545 
L 505.601937 440.126177 
L 506.521717 439.740276 
L 507.441497 439.589936 
L 508.361277 438.91073 
L 509.281058 440.16432 
L 510.200838 442.298215 
L 511.120618 442.468629 
L 512.040398 442.374312 
L 512.960179 439.490254 
L 513.879959 440.12944 
L 514.799739 440.506473 
L 516.639299 436.151438 
L 517.55908 438.448609 
L 518.47886 438.954085 
L 519.39864 440.057248 
L 520.31842 440.383307 
L 521.238201 441.504292 
L 522.157981 440.857482 
L 523.077761 441.89712 
L 524.917321 443.191573 
L 525.837102 443.625096 
L 526.756882 443.352016 
L 527.676662 441.53121 
L 528.596442 443.283834 
L 529.516223 444.0372 
L 530.436003 443.210063 
L 531.355783 442.201705 
L 532.275563 442.045018 
L 533.195343 442.65766 
L 534.115124 442.458161 
L 535.034904 440.882441 
L 535.954684 441.151767 
L 536.874464 441.626379 
L 537.794245 440.758661 
L 538.714025 442.53537 
L 539.633805 440.865111 
L 540.553585 437.886327 
L 541.473365 439.16307 
L 542.393146 438.811427 
L 543.312926 440.078574 
L 544.232706 440.183649 
L 545.152486 439.486305 
L 546.072266 440.593048 
L 546.992047 441.165511 
L 547.911827 440.760715 
L 548.831607 441.004753 
L 549.751387 441.119535 
L 550.671168 440.936882 
L 552.510728 443.211827 
L 553.430508 443.945371 
L 554.350288 443.164243 
L 555.270069 442.998075 
L 556.189849 443.115845 
L 557.109629 443.927131 
L 558.029409 443.859624 
L 558.94919 444.593822 
L 559.86897 443.943778 
L 561.70853 441.769515 
L 562.62831 442.510699 
L 563.548091 444.042568 
L 564.467871 446.480114 
L 565.387651 446.996604 
L 566.307431 447.859616 
L 567.227212 448.077117 
L 568.146992 446.461806 
L 569.066772 445.361742 
L 569.986552 445.814307 
L 570.906332 447.441457 
L 571.826113 448.80303 
L 572.745893 449.901414 
L 573.665673 447.825983 
L 574.585453 447.041362 
L 575.505234 447.602646 
L 576.425014 448.772915 
L 577.344794 448.001235 
L 578.264574 446.273345 
L 579.184354 445.564105 
L 580.104135 445.537583 
L 581.023915 444.819776 
L 581.943695 446.266251 
L 582.863475 446.988476 
L 584.703036 447.388162 
L 585.622816 448.614309 
L 587.462376 448.695448 
L 588.382157 448.412704 
L 589.301937 448.915397 
L 590.221717 445.789222 
L 591.141497 447.016748 
L 592.061277 448.054359 
L 592.981058 441.927318 
L 593.900838 438.591593 
L 595.740398 439.841584 
L 596.660179 436.572644 
L 597.579959 437.610492 
L 599.419519 440.586594 
L 600.339299 441.839334 
L 601.25908 442.271567 
L 602.17886 442.877207 
L 603.09864 442.227146 
L 604.01842 443.561278 
L 604.938201 443.128089 
L 605.857981 444.100073 
L 606.777761 444.538671 
L 607.697541 444.111931 
L 608.617321 445.013386 
L 609.537102 442.912082 
L 610.456882 442.26277 
L 611.376662 443.569985 
L 612.296442 442.160444 
L 613.216223 443.94159 
L 614.136003 444.791152 
L 615.055783 444.153164 
L 615.975563 443.861268 
L 617.815124 445.035226 
L 618.734904 445.629116 
L 619.654684 444.667959 
L 620.574464 443.250885 
L 621.494245 440.545516 
L 622.414025 439.429004 
L 623.333805 440.614642 
L 624.253585 441.526461 
L 625.173365 443.553879 
L 626.093146 444.053523 
L 627.012926 445.092697 
L 627.932706 443.924672 
L 628.852486 443.459865 
L 629.772266 444.169305 
L 630.692047 443.638601 
L 631.611827 444.157771 
L 632.531607 442.291751 
L 633.451387 443.370164 
L 634.371168 444.761051 
L 635.290948 445.660038 
L 636.210728 443.682064 
L 637.130508 445.314105 
L 638.050288 441.321934 
L 638.970069 439.726129 
L 639.889849 440.561153 
L 640.809629 441.633636 
L 641.729409 442.031847 
L 642.64919 444.450437 
L 643.56897 442.235087 
L 644.48875 443.104411 
L 645.40853 443.215214 
L 647.248091 440.191779 
L 648.167871 441.536661 
L 649.087651 441.168669 
L 650.007431 440.472995 
L 650.927212 442.357004 
L 651.846992 443.505011 
L 652.766772 442.743315 
L 653.686552 443.802143 
L 654.606332 445.193983 
L 655.526113 445.8507 
L 656.445893 447.298728 
L 657.365673 445.889299 
L 658.285453 446.383234 
L 660.125014 448.519065 
L 661.044794 447.678585 
L 662.884354 446.568173 
L 663.804135 446.629085 
L 665.643695 448.943181 
L 666.563475 448.531687 
L 667.483255 448.434223 
L 668.403036 449.073198 
L 669.322816 449.179247 
L 670.242596 446.257829 
L 671.162376 446.87324 
L 672.082157 447.694662 
L 673.001937 445.94749 
L 673.921717 445.986299 
L 674.841497 445.763899 
L 675.761277 446.034605 
L 676.681058 445.023788 
L 677.600838 443.331171 
L 678.520618 443.459249 
L 679.440398 442.230332 
L 680.360179 442.992634 
L 681.279959 443.508056 
L 682.199739 444.186503 
L 683.119519 444.320013 
L 684.039299 445.197683 
L 684.95908 443.797285 
L 685.87886 444.394154 
L 686.79864 443.580684 
L 687.71842 444.080269 
L 688.638201 443.107614 
L 689.557981 443.66221 
L 690.477761 444.592422 
L 691.397541 444.254257 
L 692.317321 444.379996 
L 693.237102 443.138511 
L 695.076662 442.659238 
L 695.996442 443.392381 
L 696.916223 443.204124 
L 697.836003 444.001092 
L 698.755783 443.85184 
L 699.675563 443.851687 
L 701.515124 445.834597 
L 702.434904 445.703487 
L 703.354684 446.469868 
L 704.274464 445.083835 
L 705.194245 445.525973 
L 706.114025 446.629668 
L 707.033805 445.009537 
L 707.953585 444.472978 
L 708.873365 442.411228 
L 709.793146 442.595358 
L 710.712926 442.445431 
L 711.632706 442.547237 
L 712.552486 444.391643 
L 713.472266 444.070437 
L 714.392047 444.460553 
L 715.311827 444.083055 
L 716.231607 444.223551 
L 717.151387 443.860652 
L 718.071168 444.057783 
L 718.990948 445.150173 
L 719.910728 446.928499 
L 720.830508 444.769772 
L 721.750288 446.070054 
L 722.670069 444.813766 
L 723.589849 445.332511 
L 724.509629 444.995926 
L 726.34919 447.386989 
L 727.26897 448.127554 
L 728.18875 448.614439 
L 728.18875 448.614439 
" clip-path="url(#p25833bbd00)" style="fill: none; stroke: #2e7ebc; stroke-opacity: 0.7; stroke-width: 2; stroke-linecap: round"/>
   </g>
   <g id="patch_3">
    <path d="M 58.58875 474.19125 
L 58.58875 30.67125 
" style="fill: none; stroke: #cccccc; stroke-linejoin: miter; stroke-linecap: square"/>
   </g>
   <g id="patch_4">
    <path d="M 728.18875 474.19125 
L 728.18875 30.67125 
" style="fill: none; stroke: #cccccc; stroke-linejoin: miter; stroke-linecap: square"/>
   </g>
   <g id="patch_5">
    <path d="M 58.58875 474.19125 
L 728.18875 474.19125 
" style="fill: none; stroke: #cccccc; stroke-linejoin: miter; stroke-linecap: square"/>
   </g>
   <g id="patch_6">
    <path d="M 58.58875 30.67125 
L 728.18875 30.67125 
" style="fill: none; stroke: #cccccc; stroke-linejoin: miter; stroke-linecap: square"/>
   </g>
   <g id="text_14">
    <!-- Architecture Comparison: Training Perplexity -->
    <g style="fill: #262626" transform="translate(134.674375 24.67125) scale(0.24 -0.24)">
     <defs>
      <path id="Arial-BoldMT-41" d="M 4597 0 
L 3591 0 
L 3191 1041 
L 1359 1041 
L 981 0 
L 0 0 
L 1784 4581 
L 2763 4581 
L 4597 0 
z
M 2894 1813 
L 2263 3513 
L 1644 1813 
L 2894 1813 
z
" transform="scale(0.015625)"/>
      <path id="Arial-BoldMT-72" d="M 1300 0 
L 422 0 
L 422 3319 
L 1238 3319 
L 1238 2847 
Q 1447 3181 1614 3287 
Q 1781 3394 1994 3394 
Q 2294 3394 2572 3228 
L 2300 2463 
Q 2078 2606 1888 2606 
Q 1703 2606 1575 2504 
Q 1447 2403 1373 2137 
Q 1300 1872 1300 1025 
L 1300 0 
z
" transform="scale(0.015625)"/>
      <path id="Arial-BoldMT-63" d="M 3353 2338 
L 2488 2181 
Q 2444 2441 2289 2572 
Q 2134 2703 1888 2703 
Q 1559 2703 1364 2476 
Q 1169 2250 1169 1719 
Q 1169 1128 1367 884 
Q 1566 641 1900 641 
Q 2150 641 2309 783 
Q 2469 925 2534 1272 
L 3397 1125 
Q 3263 531 2881 228 
Q 2500 -75 1859 -75 
Q 1131 -75 698 384 
Q 266 844 266 1656 
Q 266 2478 700 2936 
Q 1134 3394 1875 3394 
Q 2481 3394 2839 3133 
Q 3197 2872 3353 2338 
z
" transform="scale(0.015625)"/>
      <path id="Arial-BoldMT-68" d="M 1334 4581 
L 1334 2897 
Q 1759 3394 2350 3394 
Q 2653 3394 2897 3281 
Q 3141 3169 3264 2994 
Q 3388 2819 3433 2606 
Q 3478 2394 3478 1947 
L 3478 0 
L 2600 0 
L 2600 1753 
Q 2600 2275 2550 2415 
Q 2500 2556 2373 2639 
Q 2247 2722 2056 2722 
Q 1838 2722 1666 2615 
Q 1494 2509 1414 2295 
Q 1334 2081 1334 1663 
L 1334 0 
L 456 0 
L 456 4581 
L 1334 4581 
z
" transform="scale(0.015625)"/>
      <path id="Arial-BoldMT-69" d="M 459 3769 
L 459 4581 
L 1338 4581 
L 1338 3769 
L 459 3769 
z
M 459 0 
L 459 3319 
L 1338 3319 
L 1338 0 
L 459 0 
z
" transform="scale(0.015625)"/>
      <path id="Arial-BoldMT-74" d="M 1981 3319 
L 1981 2619 
L 1381 2619 
L 1381 1281 
Q 1381 875 1398 808 
Q 1416 741 1477 697 
Q 1538 653 1625 653 
Q 1747 653 1978 738 
L 2053 56 
Q 1747 -75 1359 -75 
Q 1122 -75 931 4 
Q 741 84 652 211 
Q 563 338 528 553 
Q 500 706 500 1172 
L 500 2619 
L 97 2619 
L 97 3319 
L 500 3319 
L 500 3978 
L 1381 4491 
L 1381 3319 
L 1981 3319 
z
" transform="scale(0.015625)"/>
      <path id="Arial-BoldMT-65" d="M 2381 1056 
L 3256 909 
Q 3088 428 2723 176 
Q 2359 -75 1813 -75 
Q 947 -75 531 491 
Q 203 944 203 1634 
Q 203 2459 634 2926 
Q 1066 3394 1725 3394 
Q 2466 3394 2894 2905 
Q 3322 2416 3303 1406 
L 1103 1406 
Q 1113 1016 1316 798 
Q 1519 581 1822 581 
Q 2028 581 2168 693 
Q 2309 806 2381 1056 
z
M 2431 1944 
Q 2422 2325 2234 2523 
Q 2047 2722 1778 2722 
Q 1491 2722 1303 2513 
Q 1116 2303 1119 1944 
L 2431 1944 
z
" transform="scale(0.015625)"/>
      <path id="Arial-BoldMT-75" d="M 2644 0 
L 2644 497 
Q 2463 231 2167 78 
Q 1872 -75 1544 -75 
Q 1209 -75 943 72 
Q 678 219 559 484 
Q 441 750 441 1219 
L 441 3319 
L 1319 3319 
L 1319 1794 
Q 1319 1094 1367 936 
Q 1416 778 1544 686 
Q 1672 594 1869 594 
Q 2094 594 2272 717 
Q 2450 841 2515 1023 
Q 2581 1206 2581 1919 
L 2581 3319 
L 3459 3319 
L 3459 0 
L 2644 0 
z
" transform="scale(0.015625)"/>
      <path id="Arial-BoldMT-20" transform="scale(0.015625)"/>
      <path id="Arial-BoldMT-43" d="M 3397 1684 
L 4294 1400 
Q 4088 650 3608 286 
Q 3128 -78 2391 -78 
Q 1478 -78 890 545 
Q 303 1169 303 2250 
Q 303 3394 893 4026 
Q 1484 4659 2447 4659 
Q 3288 4659 3813 4163 
Q 4125 3869 4281 3319 
L 3366 3100 
Q 3284 3456 3026 3662 
Q 2769 3869 2400 3869 
Q 1891 3869 1573 3503 
Q 1256 3138 1256 2319 
Q 1256 1450 1568 1081 
Q 1881 713 2381 713 
Q 2750 713 3015 947 
Q 3281 1181 3397 1684 
z
" transform="scale(0.015625)"/>
      <path id="Arial-BoldMT-6f" d="M 256 1706 
Q 256 2144 472 2553 
Q 688 2963 1083 3178 
Q 1478 3394 1966 3394 
Q 2719 3394 3200 2905 
Q 3681 2416 3681 1669 
Q 3681 916 3195 420 
Q 2709 -75 1972 -75 
Q 1516 -75 1102 131 
Q 688 338 472 736 
Q 256 1134 256 1706 
z
M 1156 1659 
Q 1156 1166 1390 903 
Q 1625 641 1969 641 
Q 2313 641 2545 903 
Q 2778 1166 2778 1666 
Q 2778 2153 2545 2415 
Q 2313 2678 1969 2678 
Q 1625 2678 1390 2415 
Q 1156 2153 1156 1659 
z
" transform="scale(0.015625)"/>
      <path id="Arial-BoldMT-6d" d="M 394 3319 
L 1203 3319 
L 1203 2866 
Q 1638 3394 2238 3394 
Q 2556 3394 2790 3262 
Q 3025 3131 3175 2866 
Q 3394 3131 3647 3262 
Q 3900 3394 4188 3394 
Q 4553 3394 4806 3245 
Q 5059 3097 5184 2809 
Q 5275 2597 5275 2122 
L 5275 0 
L 4397 0 
L 4397 1897 
Q 4397 2391 4306 2534 
Q 4184 2722 3931 2722 
Q 3747 2722 3584 2609 
Q 3422 2497 3350 2280 
Q 3278 2063 3278 1594 
L 3278 0 
L 2400 0 
L 2400 1819 
Q 2400 2303 2353 2443 
Q 2306 2584 2207 2653 
Q 2109 2722 1941 2722 
Q 1738 2722 1575 2612 
Q 1413 2503 1342 2297 
Q 1272 2091 1272 1613 
L 1272 0 
L 394 0 
L 394 3319 
z
" transform="scale(0.015625)"/>
      <path id="Arial-BoldMT-70" d="M 434 3319 
L 1253 3319 
L 1253 2831 
Q 1413 3081 1684 3237 
Q 1956 3394 2288 3394 
Q 2866 3394 3269 2941 
Q 3672 2488 3672 1678 
Q 3672 847 3265 386 
Q 2859 -75 2281 -75 
Q 2006 -75 1782 34 
Q 1559 144 1313 409 
L 1313 -1263 
L 434 -1263 
L 434 3319 
z
M 1303 1716 
Q 1303 1156 1525 889 
Q 1747 622 2066 622 
Q 2372 622 2575 867 
Q 2778 1113 2778 1672 
Q 2778 2194 2568 2447 
Q 2359 2700 2050 2700 
Q 1728 2700 1515 2451 
Q 1303 2203 1303 1716 
z
" transform="scale(0.015625)"/>
      <path id="Arial-BoldMT-61" d="M 1116 2306 
L 319 2450 
Q 453 2931 781 3162 
Q 1109 3394 1756 3394 
Q 2344 3394 2631 3255 
Q 2919 3116 3036 2902 
Q 3153 2688 3153 2116 
L 3144 1091 
Q 3144 653 3186 445 
Q 3228 238 3344 0 
L 2475 0 
Q 2441 88 2391 259 
Q 2369 338 2359 363 
Q 2134 144 1878 34 
Q 1622 -75 1331 -75 
Q 819 -75 523 203 
Q 228 481 228 906 
Q 228 1188 362 1408 
Q 497 1628 739 1745 
Q 981 1863 1438 1950 
Q 2053 2066 2291 2166 
L 2291 2253 
Q 2291 2506 2166 2614 
Q 2041 2722 1694 2722 
Q 1459 2722 1328 2630 
Q 1197 2538 1116 2306 
z
M 2291 1594 
Q 2122 1538 1756 1459 
Q 1391 1381 1278 1306 
Q 1106 1184 1106 997 
Q 1106 813 1243 678 
Q 1381 544 1594 544 
Q 1831 544 2047 700 
Q 2206 819 2256 991 
Q 2291 1103 2291 1419 
L 2291 1594 
z
" transform="scale(0.015625)"/>
      <path id="Arial-BoldMT-73" d="M 150 947 
L 1031 1081 
Q 1088 825 1259 692 
Q 1431 559 1741 559 
Q 2081 559 2253 684 
Q 2369 772 2369 919 
Q 2369 1019 2306 1084 
Q 2241 1147 2013 1200 
Q 950 1434 666 1628 
Q 272 1897 272 2375 
Q 272 2806 612 3100 
Q 953 3394 1669 3394 
Q 2350 3394 2681 3172 
Q 3013 2950 3138 2516 
L 2309 2363 
Q 2256 2556 2107 2659 
Q 1959 2763 1684 2763 
Q 1338 2763 1188 2666 
Q 1088 2597 1088 2488 
Q 1088 2394 1175 2328 
Q 1294 2241 1995 2081 
Q 2697 1922 2975 1691 
Q 3250 1456 3250 1038 
Q 3250 581 2869 253 
Q 2488 -75 1741 -75 
Q 1063 -75 667 200 
Q 272 475 150 947 
z
" transform="scale(0.015625)"/>
      <path id="Arial-BoldMT-6e" d="M 3478 0 
L 2600 0 
L 2600 1694 
Q 2600 2231 2544 2389 
Q 2488 2547 2361 2634 
Q 2234 2722 2056 2722 
Q 1828 2722 1647 2597 
Q 1466 2472 1398 2265 
Q 1331 2059 1331 1503 
L 1331 0 
L 453 0 
L 453 3319 
L 1269 3319 
L 1269 2831 
Q 1703 3394 2363 3394 
Q 2653 3394 2893 3289 
Q 3134 3184 3257 3021 
Q 3381 2859 3429 2653 
Q 3478 2447 3478 2063 
L 3478 0 
z
" transform="scale(0.015625)"/>
      <path id="Arial-BoldMT-3a" d="M 628 2441 
L 628 3319 
L 1506 3319 
L 1506 2441 
L 628 2441 
z
M 628 0 
L 628 878 
L 1506 878 
L 1506 0 
L 628 0 
z
" transform="scale(0.015625)"/>
      <path id="Arial-BoldMT-54" d="M 1497 0 
L 1497 3806 
L 138 3806 
L 138 4581 
L 3778 4581 
L 3778 3806 
L 2422 3806 
L 2422 0 
L 1497 0 
z
" transform="scale(0.015625)"/>
      <path id="Arial-BoldMT-67" d="M 378 -219 
L 1381 -341 
Q 1406 -516 1497 -581 
Q 1622 -675 1891 -675 
Q 2234 -675 2406 -572 
Q 2522 -503 2581 -350 
Q 2622 -241 2622 53 
L 2622 538 
Q 2228 0 1628 0 
Q 959 0 569 566 
Q 263 1013 263 1678 
Q 263 2513 664 2953 
Q 1066 3394 1663 3394 
Q 2278 3394 2678 2853 
L 2678 3319 
L 3500 3319 
L 3500 341 
Q 3500 -247 3403 -537 
Q 3306 -828 3131 -993 
Q 2956 -1159 2664 -1253 
Q 2372 -1347 1925 -1347 
Q 1081 -1347 728 -1058 
Q 375 -769 375 -325 
Q 375 -281 378 -219 
z
M 1163 1728 
Q 1163 1200 1367 954 
Q 1572 709 1872 709 
Q 2194 709 2416 961 
Q 2638 1213 2638 1706 
Q 2638 2222 2425 2472 
Q 2213 2722 1888 2722 
Q 1572 2722 1367 2476 
Q 1163 2231 1163 1728 
z
" transform="scale(0.015625)"/>
      <path id="Arial-BoldMT-50" d="M 466 0 
L 466 4581 
L 1950 4581 
Q 2794 4581 3050 4513 
Q 3444 4409 3709 4064 
Q 3975 3719 3975 3172 
Q 3975 2750 3822 2462 
Q 3669 2175 3433 2011 
Q 3197 1847 2953 1794 
Q 2622 1728 1994 1728 
L 1391 1728 
L 1391 0 
L 466 0 
z
M 1391 3806 
L 1391 2506 
L 1897 2506 
Q 2444 2506 2628 2578 
Q 2813 2650 2917 2803 
Q 3022 2956 3022 3159 
Q 3022 3409 2875 3571 
Q 2728 3734 2503 3775 
Q 2338 3806 1838 3806 
L 1391 3806 
z
" transform="scale(0.015625)"/>
      <path id="Arial-BoldMT-6c" d="M 459 0 
L 459 4581 
L 1338 4581 
L 1338 0 
L 459 0 
z
" transform="scale(0.015625)"/>
      <path id="Arial-BoldMT-78" d="M 38 0 
L 1234 1709 
L 88 3319 
L 1159 3319 
L 1747 2406 
L 2366 3319 
L 3397 3319 
L 2272 1747 
L 3500 0 
L 2422 0 
L 1747 1028 
L 1066 0 
L 38 0 
z
" transform="scale(0.015625)"/>
      <path id="Arial-BoldMT-79" d="M 44 3319 
L 978 3319 
L 1772 963 
L 2547 3319 
L 3456 3319 
L 2284 125 
L 2075 -453 
Q 1959 -744 1854 -897 
Q 1750 -1050 1614 -1145 
Q 1478 -1241 1279 -1294 
Q 1081 -1347 831 -1347 
Q 578 -1347 334 -1294 
L 256 -606 
Q 463 -647 628 -647 
Q 934 -647 1081 -467 
Q 1228 -288 1306 -9 
L 44 3319 
z
" transform="scale(0.015625)"/>
     </defs>
     <use xlink:href="#Arial-BoldMT-41"/>
     <use xlink:href="#Arial-BoldMT-72" transform="translate(72.216797 0)"/>
     <use xlink:href="#Arial-BoldMT-63" transform="translate(111.132812 0)"/>
     <use xlink:href="#Arial-BoldMT-68" transform="translate(166.748047 0)"/>
     <use xlink:href="#Arial-BoldMT-69" transform="translate(227.832031 0)"/>
     <use xlink:href="#Arial-BoldMT-74" transform="translate(255.615234 0)"/>
     <use xlink:href="#Arial-BoldMT-65" transform="translate(288.916016 0)"/>
     <use xlink:href="#Arial-BoldMT-63" transform="translate(344.53125 0)"/>
     <use xlink:href="#Arial-BoldMT-74" transform="translate(400.146484 0)"/>
     <use xlink:href="#Arial-BoldMT-75" transform="translate(433.447266 0)"/>
     <use xlink:href="#Arial-BoldMT-72" transform="translate(494.53125 0)"/>
     <use xlink:href="#Arial-BoldMT-65" transform="translate(533.447266 0)"/>
     <use xlink:href="#Arial-BoldMT-20" transform="translate(589.0625 0)"/>
     <use xlink:href="#Arial-BoldMT-43" transform="translate(616.845703 0)"/>
     <use xlink:href="#Arial-BoldMT-6f" transform="translate(689.0625 0)"/>
     <use xlink:href="#Arial-BoldMT-6d" transform="translate(750.146484 0)"/>
     <use xlink:href="#Arial-BoldMT-70" transform="translate(839.0625 0)"/>
     <use xlink:href="#Arial-BoldMT-61" transform="translate(900.146484 0)"/>
     <use xlink:href="#Arial-BoldMT-72" transform="translate(955.761719 0)"/>
     <use xlink:href="#Arial-BoldMT-69" transform="translate(994.677734 0)"/>
     <use xlink:href="#Arial-BoldMT-73" transform="translate(1022.460938 0)"/>
     <use xlink:href="#Arial-BoldMT-6f" transform="translate(1078.076172 0)"/>
     <use xlink:href="#Arial-BoldMT-6e" transform="translate(1139.160156 0)"/>
     <use xlink:href="#Arial-BoldMT-3a" transform="translate(1200.244141 0)"/>
     <use xlink:href="#Arial-BoldMT-20" transform="translate(1233.544922 0)"/>
     <use xlink:href="#Arial-BoldMT-54" transform="translate(1261.328125 0)"/>
     <use xlink:href="#Arial-BoldMT-72" transform="translate(1316.912109 0)"/>
     <use xlink:href="#Arial-BoldMT-61" transform="translate(1355.828125 0)"/>
     <use xlink:href="#Arial-BoldMT-69" transform="translate(1411.443359 0)"/>
     <use xlink:href="#Arial-BoldMT-6e" transform="translate(1439.226562 0)"/>
     <use xlink:href="#Arial-BoldMT-69" transform="translate(1500.310547 0)"/>
     <use xlink:href="#Arial-BoldMT-6e" transform="translate(1528.09375 0)"/>
     <use xlink:href="#Arial-BoldMT-67" transform="translate(1589.177734 0)"/>
     <use xlink:href="#Arial-BoldMT-20" transform="translate(1650.261719 0)"/>
     <use xlink:href="#Arial-BoldMT-50" transform="translate(1678.044922 0)"/>
     <use xlink:href="#Arial-BoldMT-65" transform="translate(1744.744141 0)"/>
     <use xlink:href="#Arial-BoldMT-72" transform="translate(1800.359375 0)"/>
     <use xlink:href="#Arial-BoldMT-70" transform="translate(1839.275391 0)"/>
     <use xlink:href="#Arial-BoldMT-6c" transform="translate(1900.359375 0)"/>
     <use xlink:href="#Arial-BoldMT-65" transform="translate(1928.142578 0)"/>
     <use xlink:href="#Arial-BoldMT-78" transform="translate(1983.757812 0)"/>
     <use xlink:href="#Arial-BoldMT-69" transform="translate(2039.373047 0)"/>
     <use xlink:href="#Arial-BoldMT-74" transform="translate(2067.15625 0)"/>
     <use xlink:href="#Arial-BoldMT-79" transform="translate(2100.457031 0)"/>
    </g>
   </g>
   <g id="legend_1">
    <g id="line2d_61">
     <path d="M 623.58625 53.455313 
L 641.58625 53.455313 
L 659.58625 53.455313 
" style="fill: none; stroke: #d92523; stroke-opacity: 0.7; stroke-width: 2; stroke-linecap: round"/>
    </g>
    <g id="text_15">
     <!-- SDT -->
     <g style="fill: #262626" transform="translate(673.98625 59.755313) scale(0.18 -0.18)">
      <defs>
       <path id="ArialMT-44" d="M 494 0 
L 494 4581 
L 2072 4581 
Q 2606 4581 2888 4516 
Q 3281 4425 3559 4188 
Q 3922 3881 4101 3404 
Q 4281 2928 4281 2316 
Q 4281 1794 4159 1391 
Q 4038 988 3847 723 
Q 3656 459 3429 307 
Q 3203 156 2883 78 
Q 2563 0 2147 0 
L 494 0 
z
M 1100 541 
L 2078 541 
Q 2531 541 2789 625 
Q 3047 709 3200 863 
Q 3416 1078 3536 1442 
Q 3656 1806 3656 2325 
Q 3656 3044 3420 3430 
Q 3184 3816 2847 3947 
Q 2603 4041 2063 4041 
L 1100 4041 
L 1100 541 
z
" transform="scale(0.015625)"/>
      </defs>
      <use xlink:href="#ArialMT-53"/>
      <use xlink:href="#ArialMT-44" transform="translate(66.699219 0)"/>
      <use xlink:href="#ArialMT-54" transform="translate(138.916016 0)"/>
     </g>
    </g>
    <g id="line2d_62">
     <path d="M 623.58625 78.916875 
L 641.58625 78.916875 
L 659.58625 78.916875 
" style="fill: none; stroke: #2e7ebc; stroke-opacity: 0.7; stroke-width: 2; stroke-linecap: round"/>
    </g>
    <g id="text_16">
     <!-- MoD -->
     <g style="fill: #262626" transform="translate(673.98625 85.216875) scale(0.18 -0.18)">
      <defs>
       <path id="ArialMT-4d" d="M 475 0 
L 475 4581 
L 1388 4581 
L 2472 1338 
Q 2622 884 2691 659 
Q 2769 909 2934 1394 
L 4031 4581 
L 4847 4581 
L 4847 0 
L 4263 0 
L 4263 3834 
L 2931 0 
L 2384 0 
L 1059 3900 
L 1059 0 
L 475 0 
z
" transform="scale(0.015625)"/>
      </defs>
      <use xlink:href="#ArialMT-4d"/>
      <use xlink:href="#ArialMT-6f" transform="translate(83.300781 0)"/>
      <use xlink:href="#ArialMT-44" transform="translate(138.916016 0)"/>
     </g>
    </g>
   </g>
  </g>
 </g>
 <defs>
  <clipPath id="p25833bbd00">
   <rect x="58.58875" y="30.67125" width="669.6" height="443.52"/>
  </clipPath>
 </defs>
</svg>
