<?xml version="1.0" encoding="utf-8" standalone="no"?>
<!DOCTYPE svg PUBLIC "-//W3C//DTD SVG 1.1//EN"
  "http://www.w3.org/Graphics/SVG/1.1/DTD/svg11.dtd">
<svg xmlns:xlink="http://www.w3.org/1999/xlink" width="740.928125pt" height="522.34125pt" viewBox="0 0 740.928125 522.34125" xmlns="http://www.w3.org/2000/svg" version="1.1">
 <metadata>
  <rdf:RDF xmlns:dc="http://purl.org/dc/elements/1.1/" xmlns:cc="http://creativecommons.org/ns#" xmlns:rdf="http://www.w3.org/1999/02/22-rdf-syntax-ns#">
   <cc:Work>
    <dc:type rdf:resource="http://purl.org/dc/dcmitype/StillImage"/>
    <dc:date>2025-09-24T13:10:15.944905</dc:date>
    <dc:format>image/svg+xml</dc:format>
    <dc:creator>
     <cc:Agent>
      <dc:title>Matplotlib v3.10.6, https://matplotlib.org/</dc:title>
     </cc:Agent>
    </dc:creator>
   </cc:Work>
  </rdf:RDF>
 </metadata>
 <defs>
  <style type="text/css">*{stroke-linejoin: round; stroke-linecap: butt}</style>
 </defs>
 <g id="figure_1">
  <g id="patch_1">
   <path d="M 0 522.34125 
L 740.928125 522.34125 
L 740.928125 0 
L 0 0 
z
" style="fill: #ffffff"/>
  </g>
  <g id="axes_1">
   <g id="patch_2">
    <path d="M 64.128125 474.24 
L 733.728125 474.24 
L 733.728125 30.72 
L 64.128125 30.72 
z
" style="fill: #ffffff"/>
   </g>
   <g id="matplotlib.axis_1">
    <g id="xtick_1">
     <g id="line2d_1">
      <path d="M 64.128125 474.24 
L 64.128125 30.72 
" clip-path="url(#pc9d4c9cb89)" style="fill: none; stroke: #cccccc; stroke-width: 0.8; stroke-linecap: round"/>
     </g>
     <g id="line2d_2"/>
     <g id="text_1">
      <!-- 0 -->
      <g style="fill: #262626" transform="translate(59.679375 489.1925) scale(0.16 -0.16)">
       <defs>
        <path id="ArialMT-30" d="M 266 2259 
Q 266 3072 433 3567 
Q 600 4063 929 4331 
Q 1259 4600 1759 4600 
Q 2128 4600 2406 4451 
Q 2684 4303 2865 4023 
Q 3047 3744 3150 3342 
Q 3253 2941 3253 2259 
Q 3253 1453 3087 958 
Q 2922 463 2592 192 
Q 2263 -78 1759 -78 
Q 1097 -78 719 397 
Q 266 969 266 2259 
z
M 844 2259 
Q 844 1131 1108 757 
Q 1372 384 1759 384 
Q 2147 384 2411 759 
Q 2675 1134 2675 2259 
Q 2675 3391 2411 3762 
Q 2147 4134 1753 4134 
Q 1366 4134 1134 3806 
Q 844 3388 844 2259 
z
" transform="scale(0.015625)"/>
       </defs>
       <use xlink:href="#ArialMT-30"/>
      </g>
     </g>
    </g>
    <g id="xtick_2">
     <g id="line2d_3">
      <path d="M 151.731971 474.24 
L 151.731971 30.72 
" clip-path="url(#pc9d4c9cb89)" style="fill: none; stroke: #cccccc; stroke-width: 0.8; stroke-linecap: round"/>
     </g>
     <g id="line2d_4"/>
     <g id="text_2">
      <!-- 100 -->
      <g style="fill: #262626" transform="translate(138.385721 489.1925) scale(0.16 -0.16)">
       <defs>
        <path id="ArialMT-31" d="M 2384 0 
L 1822 0 
L 1822 3584 
Q 1619 3391 1289 3197 
Q 959 3003 697 2906 
L 697 3450 
Q 1169 3672 1522 3987 
Q 1875 4303 2022 4600 
L 2384 4600 
L 2384 0 
z
" transform="scale(0.015625)"/>
       </defs>
       <use xlink:href="#ArialMT-31"/>
       <use xlink:href="#ArialMT-30" transform="translate(55.615234 0)"/>
       <use xlink:href="#ArialMT-30" transform="translate(111.230469 0)"/>
      </g>
     </g>
    </g>
    <g id="xtick_3">
     <g id="line2d_5">
      <path d="M 239.335818 474.24 
L 239.335818 30.72 
" clip-path="url(#pc9d4c9cb89)" style="fill: none; stroke: #cccccc; stroke-width: 0.8; stroke-linecap: round"/>
     </g>
     <g id="line2d_6"/>
     <g id="text_3">
      <!-- 200 -->
      <g style="fill: #262626" transform="translate(225.989568 489.1925) scale(0.16 -0.16)">
       <defs>
        <path id="ArialMT-32" d="M 3222 541 
L 3222 0 
L 194 0 
Q 188 203 259 391 
Q 375 700 629 1000 
Q 884 1300 1366 1694 
Q 2113 2306 2375 2664 
Q 2638 3022 2638 3341 
Q 2638 3675 2398 3904 
Q 2159 4134 1775 4134 
Q 1369 4134 1125 3890 
Q 881 3647 878 3216 
L 300 3275 
Q 359 3922 746 4261 
Q 1134 4600 1788 4600 
Q 2447 4600 2831 4234 
Q 3216 3869 3216 3328 
Q 3216 3053 3103 2787 
Q 2991 2522 2730 2228 
Q 2469 1934 1863 1422 
Q 1356 997 1212 845 
Q 1069 694 975 541 
L 3222 541 
z
" transform="scale(0.015625)"/>
       </defs>
       <use xlink:href="#ArialMT-32"/>
       <use xlink:href="#ArialMT-30" transform="translate(55.615234 0)"/>
       <use xlink:href="#ArialMT-30" transform="translate(111.230469 0)"/>
      </g>
     </g>
    </g>
    <g id="xtick_4">
     <g id="line2d_7">
      <path d="M 326.939664 474.24 
L 326.939664 30.72 
" clip-path="url(#pc9d4c9cb89)" style="fill: none; stroke: #cccccc; stroke-width: 0.8; stroke-linecap: round"/>
     </g>
     <g id="line2d_8"/>
     <g id="text_4">
      <!-- 300 -->
      <g style="fill: #262626" transform="translate(313.593414 489.1925) scale(0.16 -0.16)">
       <defs>
        <path id="ArialMT-33" d="M 269 1209 
L 831 1284 
Q 928 806 1161 595 
Q 1394 384 1728 384 
Q 2125 384 2398 659 
Q 2672 934 2672 1341 
Q 2672 1728 2419 1979 
Q 2166 2231 1775 2231 
Q 1616 2231 1378 2169 
L 1441 2663 
Q 1497 2656 1531 2656 
Q 1891 2656 2178 2843 
Q 2466 3031 2466 3422 
Q 2466 3731 2256 3934 
Q 2047 4138 1716 4138 
Q 1388 4138 1169 3931 
Q 950 3725 888 3313 
L 325 3413 
Q 428 3978 793 4289 
Q 1159 4600 1703 4600 
Q 2078 4600 2393 4439 
Q 2709 4278 2876 4000 
Q 3044 3722 3044 3409 
Q 3044 3113 2884 2869 
Q 2725 2625 2413 2481 
Q 2819 2388 3044 2092 
Q 3269 1797 3269 1353 
Q 3269 753 2831 336 
Q 2394 -81 1725 -81 
Q 1122 -81 723 278 
Q 325 638 269 1209 
z
" transform="scale(0.015625)"/>
       </defs>
       <use xlink:href="#ArialMT-33"/>
       <use xlink:href="#ArialMT-30" transform="translate(55.615234 0)"/>
       <use xlink:href="#ArialMT-30" transform="translate(111.230469 0)"/>
      </g>
     </g>
    </g>
    <g id="xtick_5">
     <g id="line2d_9">
      <path d="M 414.543511 474.24 
L 414.543511 30.72 
" clip-path="url(#pc9d4c9cb89)" style="fill: none; stroke: #cccccc; stroke-width: 0.8; stroke-linecap: round"/>
     </g>
     <g id="line2d_10"/>
     <g id="text_5">
      <!-- 400 -->
      <g style="fill: #262626" transform="translate(401.197261 489.1925) scale(0.16 -0.16)">
       <defs>
        <path id="ArialMT-34" d="M 2069 0 
L 2069 1097 
L 81 1097 
L 81 1613 
L 2172 4581 
L 2631 4581 
L 2631 1613 
L 3250 1613 
L 3250 1097 
L 2631 1097 
L 2631 0 
L 2069 0 
z
M 2069 1613 
L 2069 3678 
L 634 1613 
L 2069 1613 
z
" transform="scale(0.015625)"/>
       </defs>
       <use xlink:href="#ArialMT-34"/>
       <use xlink:href="#ArialMT-30" transform="translate(55.615234 0)"/>
       <use xlink:href="#ArialMT-30" transform="translate(111.230469 0)"/>
      </g>
     </g>
    </g>
    <g id="xtick_6">
     <g id="line2d_11">
      <path d="M 502.147357 474.24 
L 502.147357 30.72 
" clip-path="url(#pc9d4c9cb89)" style="fill: none; stroke: #cccccc; stroke-width: 0.8; stroke-linecap: round"/>
     </g>
     <g id="line2d_12"/>
     <g id="text_6">
      <!-- 500 -->
      <g style="fill: #262626" transform="translate(488.801107 489.1925) scale(0.16 -0.16)">
       <defs>
        <path id="ArialMT-35" d="M 266 1200 
L 856 1250 
Q 922 819 1161 601 
Q 1400 384 1738 384 
Q 2144 384 2425 690 
Q 2706 997 2706 1503 
Q 2706 1984 2436 2262 
Q 2166 2541 1728 2541 
Q 1456 2541 1237 2417 
Q 1019 2294 894 2097 
L 366 2166 
L 809 4519 
L 3088 4519 
L 3088 3981 
L 1259 3981 
L 1013 2750 
Q 1425 3038 1878 3038 
Q 2478 3038 2890 2622 
Q 3303 2206 3303 1553 
Q 3303 931 2941 478 
Q 2500 -78 1738 -78 
Q 1113 -78 717 272 
Q 322 622 266 1200 
z
" transform="scale(0.015625)"/>
       </defs>
       <use xlink:href="#ArialMT-35"/>
       <use xlink:href="#ArialMT-30" transform="translate(55.615234 0)"/>
       <use xlink:href="#ArialMT-30" transform="translate(111.230469 0)"/>
      </g>
     </g>
    </g>
    <g id="xtick_7">
     <g id="line2d_13">
      <path d="M 589.751203 474.24 
L 589.751203 30.72 
" clip-path="url(#pc9d4c9cb89)" style="fill: none; stroke: #cccccc; stroke-width: 0.8; stroke-linecap: round"/>
     </g>
     <g id="line2d_14"/>
     <g id="text_7">
      <!-- 600 -->
      <g style="fill: #262626" transform="translate(576.404953 489.1925) scale(0.16 -0.16)">
       <defs>
        <path id="ArialMT-36" d="M 3184 3459 
L 2625 3416 
Q 2550 3747 2413 3897 
Q 2184 4138 1850 4138 
Q 1581 4138 1378 3988 
Q 1113 3794 959 3422 
Q 806 3050 800 2363 
Q 1003 2672 1297 2822 
Q 1591 2972 1913 2972 
Q 2475 2972 2870 2558 
Q 3266 2144 3266 1488 
Q 3266 1056 3080 686 
Q 2894 316 2569 119 
Q 2244 -78 1831 -78 
Q 1128 -78 684 439 
Q 241 956 241 2144 
Q 241 3472 731 4075 
Q 1159 4600 1884 4600 
Q 2425 4600 2770 4297 
Q 3116 3994 3184 3459 
z
M 888 1484 
Q 888 1194 1011 928 
Q 1134 663 1356 523 
Q 1578 384 1822 384 
Q 2178 384 2434 671 
Q 2691 959 2691 1453 
Q 2691 1928 2437 2201 
Q 2184 2475 1800 2475 
Q 1419 2475 1153 2201 
Q 888 1928 888 1484 
z
" transform="scale(0.015625)"/>
       </defs>
       <use xlink:href="#ArialMT-36"/>
       <use xlink:href="#ArialMT-30" transform="translate(55.615234 0)"/>
       <use xlink:href="#ArialMT-30" transform="translate(111.230469 0)"/>
      </g>
     </g>
    </g>
    <g id="xtick_8">
     <g id="line2d_15">
      <path d="M 677.35505 474.24 
L 677.35505 30.72 
" clip-path="url(#pc9d4c9cb89)" style="fill: none; stroke: #cccccc; stroke-width: 0.8; stroke-linecap: round"/>
     </g>
     <g id="line2d_16"/>
     <g id="text_8">
      <!-- 700 -->
      <g style="fill: #262626" transform="translate(664.0088 489.1925) scale(0.16 -0.16)">
       <defs>
        <path id="ArialMT-37" d="M 303 3981 
L 303 4522 
L 3269 4522 
L 3269 4084 
Q 2831 3619 2401 2847 
Q 1972 2075 1738 1259 
Q 1569 684 1522 0 
L 944 0 
Q 953 541 1156 1306 
Q 1359 2072 1739 2783 
Q 2119 3494 2547 3981 
L 303 3981 
z
" transform="scale(0.015625)"/>
       </defs>
       <use xlink:href="#ArialMT-37"/>
       <use xlink:href="#ArialMT-30" transform="translate(55.615234 0)"/>
       <use xlink:href="#ArialMT-30" transform="translate(111.230469 0)"/>
      </g>
     </g>
    </g>
    <g id="text_9">
     <!-- Training Step -->
     <g style="fill: #262626" transform="translate(339.829688 510.931875) scale(0.2 -0.2)">
      <defs>
       <path id="ArialMT-54" d="M 1659 0 
L 1659 4041 
L 150 4041 
L 150 4581 
L 3781 4581 
L 3781 4041 
L 2266 4041 
L 2266 0 
L 1659 0 
z
" transform="scale(0.015625)"/>
       <path id="ArialMT-72" d="M 416 0 
L 416 3319 
L 922 3319 
L 922 2816 
Q 1116 3169 1280 3281 
Q 1444 3394 1641 3394 
Q 1925 3394 2219 3213 
L 2025 2691 
Q 1819 2813 1613 2813 
Q 1428 2813 1281 2702 
Q 1134 2591 1072 2394 
Q 978 2094 978 1738 
L 978 0 
L 416 0 
z
" transform="scale(0.015625)"/>
       <path id="ArialMT-61" d="M 2588 409 
Q 2275 144 1986 34 
Q 1697 -75 1366 -75 
Q 819 -75 525 192 
Q 231 459 231 875 
Q 231 1119 342 1320 
Q 453 1522 633 1644 
Q 813 1766 1038 1828 
Q 1203 1872 1538 1913 
Q 2219 1994 2541 2106 
Q 2544 2222 2544 2253 
Q 2544 2597 2384 2738 
Q 2169 2928 1744 2928 
Q 1347 2928 1158 2789 
Q 969 2650 878 2297 
L 328 2372 
Q 403 2725 575 2942 
Q 747 3159 1072 3276 
Q 1397 3394 1825 3394 
Q 2250 3394 2515 3294 
Q 2781 3194 2906 3042 
Q 3031 2891 3081 2659 
Q 3109 2516 3109 2141 
L 3109 1391 
Q 3109 606 3145 398 
Q 3181 191 3288 0 
L 2700 0 
Q 2613 175 2588 409 
z
M 2541 1666 
Q 2234 1541 1622 1453 
Q 1275 1403 1131 1340 
Q 988 1278 909 1158 
Q 831 1038 831 891 
Q 831 666 1001 516 
Q 1172 366 1500 366 
Q 1825 366 2078 508 
Q 2331 650 2450 897 
Q 2541 1088 2541 1459 
L 2541 1666 
z
" transform="scale(0.015625)"/>
       <path id="ArialMT-69" d="M 425 3934 
L 425 4581 
L 988 4581 
L 988 3934 
L 425 3934 
z
M 425 0 
L 425 3319 
L 988 3319 
L 988 0 
L 425 0 
z
" transform="scale(0.015625)"/>
       <path id="ArialMT-6e" d="M 422 0 
L 422 3319 
L 928 3319 
L 928 2847 
Q 1294 3394 1984 3394 
Q 2284 3394 2536 3286 
Q 2788 3178 2913 3003 
Q 3038 2828 3088 2588 
Q 3119 2431 3119 2041 
L 3119 0 
L 2556 0 
L 2556 2019 
Q 2556 2363 2490 2533 
Q 2425 2703 2258 2804 
Q 2091 2906 1866 2906 
Q 1506 2906 1245 2678 
Q 984 2450 984 1813 
L 984 0 
L 422 0 
z
" transform="scale(0.015625)"/>
       <path id="ArialMT-67" d="M 319 -275 
L 866 -356 
Q 900 -609 1056 -725 
Q 1266 -881 1628 -881 
Q 2019 -881 2231 -725 
Q 2444 -569 2519 -288 
Q 2563 -116 2559 434 
Q 2191 0 1641 0 
Q 956 0 581 494 
Q 206 988 206 1678 
Q 206 2153 378 2554 
Q 550 2956 876 3175 
Q 1203 3394 1644 3394 
Q 2231 3394 2613 2919 
L 2613 3319 
L 3131 3319 
L 3131 450 
Q 3131 -325 2973 -648 
Q 2816 -972 2473 -1159 
Q 2131 -1347 1631 -1347 
Q 1038 -1347 672 -1080 
Q 306 -813 319 -275 
z
M 784 1719 
Q 784 1066 1043 766 
Q 1303 466 1694 466 
Q 2081 466 2343 764 
Q 2606 1063 2606 1700 
Q 2606 2309 2336 2618 
Q 2066 2928 1684 2928 
Q 1309 2928 1046 2623 
Q 784 2319 784 1719 
z
" transform="scale(0.015625)"/>
       <path id="ArialMT-20" transform="scale(0.015625)"/>
       <path id="ArialMT-53" d="M 288 1472 
L 859 1522 
Q 900 1178 1048 958 
Q 1197 738 1509 602 
Q 1822 466 2213 466 
Q 2559 466 2825 569 
Q 3091 672 3220 851 
Q 3350 1031 3350 1244 
Q 3350 1459 3225 1620 
Q 3100 1781 2813 1891 
Q 2628 1963 1997 2114 
Q 1366 2266 1113 2400 
Q 784 2572 623 2826 
Q 463 3081 463 3397 
Q 463 3744 659 4045 
Q 856 4347 1234 4503 
Q 1613 4659 2075 4659 
Q 2584 4659 2973 4495 
Q 3363 4331 3572 4012 
Q 3781 3694 3797 3291 
L 3216 3247 
Q 3169 3681 2898 3903 
Q 2628 4125 2100 4125 
Q 1550 4125 1298 3923 
Q 1047 3722 1047 3438 
Q 1047 3191 1225 3031 
Q 1400 2872 2139 2705 
Q 2878 2538 3153 2413 
Q 3553 2228 3743 1945 
Q 3934 1663 3934 1294 
Q 3934 928 3725 604 
Q 3516 281 3123 101 
Q 2731 -78 2241 -78 
Q 1619 -78 1198 103 
Q 778 284 539 648 
Q 300 1013 288 1472 
z
" transform="scale(0.015625)"/>
       <path id="ArialMT-74" d="M 1650 503 
L 1731 6 
Q 1494 -44 1306 -44 
Q 1000 -44 831 53 
Q 663 150 594 308 
Q 525 466 525 972 
L 525 2881 
L 113 2881 
L 113 3319 
L 525 3319 
L 525 4141 
L 1084 4478 
L 1084 3319 
L 1650 3319 
L 1650 2881 
L 1084 2881 
L 1084 941 
Q 1084 700 1114 631 
Q 1144 563 1211 522 
Q 1278 481 1403 481 
Q 1497 481 1650 503 
z
" transform="scale(0.015625)"/>
       <path id="ArialMT-65" d="M 2694 1069 
L 3275 997 
Q 3138 488 2766 206 
Q 2394 -75 1816 -75 
Q 1088 -75 661 373 
Q 234 822 234 1631 
Q 234 2469 665 2931 
Q 1097 3394 1784 3394 
Q 2450 3394 2872 2941 
Q 3294 2488 3294 1666 
Q 3294 1616 3291 1516 
L 816 1516 
Q 847 969 1125 678 
Q 1403 388 1819 388 
Q 2128 388 2347 550 
Q 2566 713 2694 1069 
z
M 847 1978 
L 2700 1978 
Q 2663 2397 2488 2606 
Q 2219 2931 1791 2931 
Q 1403 2931 1139 2672 
Q 875 2413 847 1978 
z
" transform="scale(0.015625)"/>
       <path id="ArialMT-70" d="M 422 -1272 
L 422 3319 
L 934 3319 
L 934 2888 
Q 1116 3141 1344 3267 
Q 1572 3394 1897 3394 
Q 2322 3394 2647 3175 
Q 2972 2956 3137 2557 
Q 3303 2159 3303 1684 
Q 3303 1175 3120 767 
Q 2938 359 2589 142 
Q 2241 -75 1856 -75 
Q 1575 -75 1351 44 
Q 1128 163 984 344 
L 984 -1272 
L 422 -1272 
z
M 931 1641 
Q 931 1000 1190 694 
Q 1450 388 1819 388 
Q 2194 388 2461 705 
Q 2728 1022 2728 1688 
Q 2728 2322 2467 2637 
Q 2206 2953 1844 2953 
Q 1484 2953 1207 2617 
Q 931 2281 931 1641 
z
" transform="scale(0.015625)"/>
      </defs>
      <use xlink:href="#ArialMT-54"/>
      <use xlink:href="#ArialMT-72" transform="translate(57.333984 0)"/>
      <use xlink:href="#ArialMT-61" transform="translate(90.634766 0)"/>
      <use xlink:href="#ArialMT-69" transform="translate(146.25 0)"/>
      <use xlink:href="#ArialMT-6e" transform="translate(168.466797 0)"/>
      <use xlink:href="#ArialMT-69" transform="translate(224.082031 0)"/>
      <use xlink:href="#ArialMT-6e" transform="translate(246.298828 0)"/>
      <use xlink:href="#ArialMT-67" transform="translate(301.914062 0)"/>
      <use xlink:href="#ArialMT-20" transform="translate(357.529297 0)"/>
      <use xlink:href="#ArialMT-53" transform="translate(385.3125 0)"/>
      <use xlink:href="#ArialMT-74" transform="translate(452.011719 0)"/>
      <use xlink:href="#ArialMT-65" transform="translate(479.794922 0)"/>
      <use xlink:href="#ArialMT-70" transform="translate(535.410156 0)"/>
     </g>
    </g>
   </g>
   <g id="matplotlib.axis_2">
    <g id="ytick_1">
     <g id="line2d_17">
      <path d="M 64.128125 416.484348 
L 733.728125 416.484348 
" clip-path="url(#pc9d4c9cb89)" style="fill: none; stroke: #cccccc; stroke-width: 0.8; stroke-linecap: round"/>
     </g>
     <g id="line2d_18"/>
     <g id="text_10">
      <!-- 1.01 -->
      <g style="fill: #262626" transform="translate(29.490625 422.210598) scale(0.16 -0.16)">
       <defs>
        <path id="ArialMT-2e" d="M 581 0 
L 581 641 
L 1222 641 
L 1222 0 
L 581 0 
z
" transform="scale(0.015625)"/>
       </defs>
       <use xlink:href="#ArialMT-31"/>
       <use xlink:href="#ArialMT-2e" transform="translate(55.615234 0)"/>
       <use xlink:href="#ArialMT-30" transform="translate(83.398438 0)"/>
       <use xlink:href="#ArialMT-31" transform="translate(139.013672 0)"/>
      </g>
     </g>
    </g>
    <g id="ytick_2">
     <g id="line2d_19">
      <path d="M 64.128125 335.392439 
L 733.728125 335.392439 
" clip-path="url(#pc9d4c9cb89)" style="fill: none; stroke: #cccccc; stroke-width: 0.8; stroke-linecap: round"/>
     </g>
     <g id="line2d_20"/>
     <g id="text_11">
      <!-- 1.02 -->
      <g style="fill: #262626" transform="translate(29.490625 341.118689) scale(0.16 -0.16)">
       <use xlink:href="#ArialMT-31"/>
       <use xlink:href="#ArialMT-2e" transform="translate(55.615234 0)"/>
       <use xlink:href="#ArialMT-30" transform="translate(83.398438 0)"/>
       <use xlink:href="#ArialMT-32" transform="translate(139.013672 0)"/>
      </g>
     </g>
    </g>
    <g id="ytick_3">
     <g id="line2d_21">
      <path d="M 64.128125 254.30053 
L 733.728125 254.30053 
" clip-path="url(#pc9d4c9cb89)" style="fill: none; stroke: #cccccc; stroke-width: 0.8; stroke-linecap: round"/>
     </g>
     <g id="line2d_22"/>
     <g id="text_12">
      <!-- 1.03 -->
      <g style="fill: #262626" transform="translate(29.490625 260.02678) scale(0.16 -0.16)">
       <use xlink:href="#ArialMT-31"/>
       <use xlink:href="#ArialMT-2e" transform="translate(55.615234 0)"/>
       <use xlink:href="#ArialMT-30" transform="translate(83.398438 0)"/>
       <use xlink:href="#ArialMT-33" transform="translate(139.013672 0)"/>
      </g>
     </g>
    </g>
    <g id="ytick_4">
     <g id="line2d_23">
      <path d="M 64.128125 173.208622 
L 733.728125 173.208622 
" clip-path="url(#pc9d4c9cb89)" style="fill: none; stroke: #cccccc; stroke-width: 0.8; stroke-linecap: round"/>
     </g>
     <g id="line2d_24"/>
     <g id="text_13">
      <!-- 1.04 -->
      <g style="fill: #262626" transform="translate(29.490625 178.934872) scale(0.16 -0.16)">
       <use xlink:href="#ArialMT-31"/>
       <use xlink:href="#ArialMT-2e" transform="translate(55.615234 0)"/>
       <use xlink:href="#ArialMT-30" transform="translate(83.398438 0)"/>
       <use xlink:href="#ArialMT-34" transform="translate(139.013672 0)"/>
      </g>
     </g>
    </g>
    <g id="ytick_5">
     <g id="line2d_25">
      <path d="M 64.128125 92.116713 
L 733.728125 92.116713 
" clip-path="url(#pc9d4c9cb89)" style="fill: none; stroke: #cccccc; stroke-width: 0.8; stroke-linecap: round"/>
     </g>
     <g id="line2d_26"/>
     <g id="text_14">
      <!-- 1.05 -->
      <g style="fill: #262626" transform="translate(29.490625 97.842963) scale(0.16 -0.16)">
       <use xlink:href="#ArialMT-31"/>
       <use xlink:href="#ArialMT-2e" transform="translate(55.615234 0)"/>
       <use xlink:href="#ArialMT-30" transform="translate(83.398438 0)"/>
       <use xlink:href="#ArialMT-35" transform="translate(139.013672 0)"/>
      </g>
     </g>
    </g>
    <g id="text_15">
     <!-- Learned Parameter Value -->
     <g style="fill: #262626" transform="translate(21.515625 366.250312) rotate(-90) scale(0.2 -0.2)">
      <defs>
       <path id="ArialMT-4c" d="M 469 0 
L 469 4581 
L 1075 4581 
L 1075 541 
L 3331 541 
L 3331 0 
L 469 0 
z
" transform="scale(0.015625)"/>
       <path id="ArialMT-64" d="M 2575 0 
L 2575 419 
Q 2259 -75 1647 -75 
Q 1250 -75 917 144 
Q 584 363 401 755 
Q 219 1147 219 1656 
Q 219 2153 384 2558 
Q 550 2963 881 3178 
Q 1213 3394 1622 3394 
Q 1922 3394 2156 3267 
Q 2391 3141 2538 2938 
L 2538 4581 
L 3097 4581 
L 3097 0 
L 2575 0 
z
M 797 1656 
Q 797 1019 1065 703 
Q 1334 388 1700 388 
Q 2069 388 2326 689 
Q 2584 991 2584 1609 
Q 2584 2291 2321 2609 
Q 2059 2928 1675 2928 
Q 1300 2928 1048 2622 
Q 797 2316 797 1656 
z
" transform="scale(0.015625)"/>
       <path id="ArialMT-50" d="M 494 0 
L 494 4581 
L 2222 4581 
Q 2678 4581 2919 4538 
Q 3256 4481 3484 4323 
Q 3713 4166 3852 3881 
Q 3991 3597 3991 3256 
Q 3991 2672 3619 2267 
Q 3247 1863 2275 1863 
L 1100 1863 
L 1100 0 
L 494 0 
z
M 1100 2403 
L 2284 2403 
Q 2872 2403 3119 2622 
Q 3366 2841 3366 3238 
Q 3366 3525 3220 3729 
Q 3075 3934 2838 4000 
Q 2684 4041 2272 4041 
L 1100 4041 
L 1100 2403 
z
" transform="scale(0.015625)"/>
       <path id="ArialMT-6d" d="M 422 0 
L 422 3319 
L 925 3319 
L 925 2853 
Q 1081 3097 1340 3245 
Q 1600 3394 1931 3394 
Q 2300 3394 2536 3241 
Q 2772 3088 2869 2813 
Q 3263 3394 3894 3394 
Q 4388 3394 4653 3120 
Q 4919 2847 4919 2278 
L 4919 0 
L 4359 0 
L 4359 2091 
Q 4359 2428 4304 2576 
Q 4250 2725 4106 2815 
Q 3963 2906 3769 2906 
Q 3419 2906 3187 2673 
Q 2956 2441 2956 1928 
L 2956 0 
L 2394 0 
L 2394 2156 
Q 2394 2531 2256 2718 
Q 2119 2906 1806 2906 
Q 1569 2906 1367 2781 
Q 1166 2656 1075 2415 
Q 984 2175 984 1722 
L 984 0 
L 422 0 
z
" transform="scale(0.015625)"/>
       <path id="ArialMT-56" d="M 1803 0 
L 28 4581 
L 684 4581 
L 1875 1253 
Q 2019 853 2116 503 
Q 2222 878 2363 1253 
L 3600 4581 
L 4219 4581 
L 2425 0 
L 1803 0 
z
" transform="scale(0.015625)"/>
       <path id="ArialMT-6c" d="M 409 0 
L 409 4581 
L 972 4581 
L 972 0 
L 409 0 
z
" transform="scale(0.015625)"/>
       <path id="ArialMT-75" d="M 2597 0 
L 2597 488 
Q 2209 -75 1544 -75 
Q 1250 -75 995 37 
Q 741 150 617 320 
Q 494 491 444 738 
Q 409 903 409 1263 
L 409 3319 
L 972 3319 
L 972 1478 
Q 972 1038 1006 884 
Q 1059 663 1231 536 
Q 1403 409 1656 409 
Q 1909 409 2131 539 
Q 2353 669 2445 892 
Q 2538 1116 2538 1541 
L 2538 3319 
L 3100 3319 
L 3100 0 
L 2597 0 
z
" transform="scale(0.015625)"/>
      </defs>
      <use xlink:href="#ArialMT-4c"/>
      <use xlink:href="#ArialMT-65" transform="translate(55.615234 0)"/>
      <use xlink:href="#ArialMT-61" transform="translate(111.230469 0)"/>
      <use xlink:href="#ArialMT-72" transform="translate(166.845703 0)"/>
      <use xlink:href="#ArialMT-6e" transform="translate(200.146484 0)"/>
      <use xlink:href="#ArialMT-65" transform="translate(255.761719 0)"/>
      <use xlink:href="#ArialMT-64" transform="translate(311.376953 0)"/>
      <use xlink:href="#ArialMT-20" transform="translate(366.992188 0)"/>
      <use xlink:href="#ArialMT-50" transform="translate(394.775391 0)"/>
      <use xlink:href="#ArialMT-61" transform="translate(461.474609 0)"/>
      <use xlink:href="#ArialMT-72" transform="translate(517.089844 0)"/>
      <use xlink:href="#ArialMT-61" transform="translate(550.390625 0)"/>
      <use xlink:href="#ArialMT-6d" transform="translate(606.005859 0)"/>
      <use xlink:href="#ArialMT-65" transform="translate(689.306641 0)"/>
      <use xlink:href="#ArialMT-74" transform="translate(744.921875 0)"/>
      <use xlink:href="#ArialMT-65" transform="translate(772.705078 0)"/>
      <use xlink:href="#ArialMT-72" transform="translate(828.320312 0)"/>
      <use xlink:href="#ArialMT-20" transform="translate(861.621094 0)"/>
      <use xlink:href="#ArialMT-56" transform="translate(889.404297 0)"/>
      <use xlink:href="#ArialMT-61" transform="translate(948.728516 0)"/>
      <use xlink:href="#ArialMT-6c" transform="translate(1004.34375 0)"/>
      <use xlink:href="#ArialMT-75" transform="translate(1026.560547 0)"/>
      <use xlink:href="#ArialMT-65" transform="translate(1082.175781 0)"/>
     </g>
    </g>
   </g>
   <g id="line2d_27">
    <path d="M 65.004163 294.846678 
L 65.880202 294.846678 
L 66.75624 292.940364 
L 67.632279 289.008832 
L 68.508317 283.060783 
L 69.384356 273.448009 
L 70.260394 259.099416 
L 71.136433 238.798907 
L 72.012471 213.370104 
L 73.764548 177.327034 
L 75.516625 149.716409 
L 77.268702 127.877895 
L 79.020779 110.333423 
L 80.772856 96.25067 
L 81.648894 90.289087 
L 83.400971 80.516809 
L 84.27701 76.427707 
L 85.153048 72.909919 
L 86.029087 69.91801 
L 87.781164 65.183158 
L 89.53324 61.703071 
L 91.285317 59.024371 
L 93.037394 56.875417 
L 94.789471 55.208842 
L 96.541548 54.015945 
L 98.293625 53.088889 
L 100.92174 52.090297 
L 102.673817 51.576017 
L 106.177971 50.916734 
L 107.930048 50.919634 
L 109.682125 51.126506 
L 111.434202 51.562484 
L 113.186279 52.350337 
L 116.690433 54.265351 
L 122.822702 57.879809 
L 127.202894 60.237568 
L 130.707048 62.18835 
L 132.459125 63.020671 
L 135.963279 65.067155 
L 138.591394 66.861334 
L 140.343471 68.289136 
L 142.095548 70.001146 
L 145.599702 73.923011 
L 149.103856 77.821675 
L 152.60801 81.874043 
L 156.988202 87.394815 
L 159.616318 90.813034 
L 169.252741 102.584429 
L 178.889164 115.130143 
L 183.269356 120.664448 
L 189.401625 127.474785 
L 192.029741 130.280122 
L 194.657856 133.12606 
L 197.285972 135.931397 
L 200.790125 139.126311 
L 206.046356 143.782861 
L 209.55051 147.039642 
L 217.434856 153.294132 
L 220.062972 154.966507 
L 222.691087 156.299574 
L 225.319202 157.444136 
L 229.699395 159.548622 
L 233.203549 161.619274 
L 237.583741 163.669625 
L 243.71601 166.927374 
L 247.220164 168.389977 
L 248.972241 169.19233 
L 250.724318 170.324325 
L 255.10451 172.366943 
L 256.856587 172.737186 
L 257.732626 172.89089 
L 260.360741 173.886581 
L 262.988856 174.942208 
L 267.369049 176.387411 
L 271.749241 178.367194 
L 275.253395 180.293808 
L 277.88151 180.922158 
L 279.633587 181.234399 
L 282.261703 182.131488 
L 284.889818 182.895174 
L 287.517933 183.700427 
L 292.774164 185.558407 
L 298.030395 188.057303 
L 298.906433 188.428512 
L 300.65851 188.795855 
L 305.038703 189.463838 
L 306.79078 189.636876 
L 308.542856 189.866948 
L 314.675126 190.443096 
L 318.17928 190.914841 
L 320.807395 191.487122 
L 324.311549 192.148339 
L 326.063626 192.529215 
L 332.195895 193.482372 
L 334.82401 194.159056 
L 336.576087 194.356261 
L 338.328164 194.495464 
L 340.080241 194.720703 
L 342.708357 195.282351 
L 344.460433 195.908766 
L 347.088549 196.816489 
L 348.840626 197.296934 
L 350.592703 198.04902 
L 354.096857 199.78713 
L 355.848934 200.458014 
L 357.60101 200.922025 
L 363.73328 201.79398 
L 370.741587 204.082138 
L 372.493664 204.922192 
L 374.245741 205.930451 
L 377.749895 207.544824 
L 386.51028 210.896342 
L 388.262357 211.071313 
L 390.014434 211.292685 
L 395.270664 212.609318 
L 404.031049 215.76363 
L 405.783126 216.247942 
L 407.535203 216.521516 
L 411.915395 216.95556 
L 415.419549 216.864691 
L 418.047664 216.83279 
L 420.67578 217.2301 
L 422.427857 217.527841 
L 424.179934 217.720213 
L 427.684088 217.678645 
L 430.312203 217.769514 
L 432.06428 218.111722 
L 435.568434 218.946943 
L 437.320511 219.598493 
L 439.948626 220.518783 
L 441.700703 220.987628 
L 444.328818 221.526075 
L 447.832972 222.098356 
L 450.461088 222.682237 
L 453.089203 223.567726 
L 454.84128 223.913801 
L 457.469395 224.27921 
L 463.601665 225.204333 
L 465.353742 225.543642 
L 468.857895 225.943852 
L 472.362049 225.941919 
L 481.998472 225.369638 
L 484.626588 225.591976 
L 489.00678 226.549 
L 493.386972 227.634594 
L 496.891126 227.971003 
L 500.39528 227.911068 
L 514.411896 228.859392 
L 517.040011 229.288602 
L 521.420203 229.630811 
L 531.932665 229.806749 
L 552.081549 229.260568 
L 558.213819 229.278935 
L 560.841934 229.280869 
L 566.098165 229.306003 
L 569.602319 229.31277 
L 573.106473 229.347571 
L 580.11478 229.241235 
L 584.494973 229.429739 
L 595.007434 230.031988 
L 600.263665 230.179891 
L 616.908396 230.288161 
L 645.817665 230.635203 
L 681.735242 230.624569 
L 701.884127 230.623603 
L 701.884127 230.623603 
" clip-path="url(#pc9d4c9cb89)" style="fill: none; stroke: #d62728; stroke-width: 3.5; stroke-linecap: round"/>
   </g>
   <g id="line2d_28">
    <path d="M 65.004163 294.846678 
L 65.880202 294.846678 
L 66.75624 291.400425 
L 67.632279 286.331098 
L 68.508317 278.897245 
L 69.384356 268.990597 
L 70.260394 255.92287 
L 72.88851 200.550816 
L 74.640587 172.992392 
L 76.392663 150.845504 
L 78.14474 132.876654 
L 79.896817 118.337623 
L 81.648894 106.61843 
L 82.524933 101.83041 
L 83.400971 97.787708 
L 84.27701 94.482592 
L 85.153048 91.852226 
L 86.029087 89.799942 
L 86.905125 88.302537 
L 87.781164 87.293312 
L 88.657202 86.622429 
L 89.53324 86.316954 
L 90.409279 86.315021 
L 91.285317 86.527693 
L 92.161356 86.94627 
L 93.037394 87.564952 
L 94.789471 89.254728 
L 96.541548 91.423016 
L 98.293625 93.912245 
L 100.045702 96.717582 
L 102.673817 101.476601 
L 104.425894 104.958621 
L 107.05401 110.973372 
L 109.682125 117.922913 
L 114.062317 130.608797 
L 117.566471 140.545413 
L 122.822702 154.518929 
L 132.459125 179.164713 
L 137.715356 191.439754 
L 140.343471 197.191565 
L 144.723664 206.202091 
L 149.103856 214.747638 
L 153.484048 222.905543 
L 157.864241 230.692238 
L 159.616318 233.667712 
L 163.120471 238.827908 
L 166.624625 243.593694 
L 168.376702 245.752315 
L 171.004818 248.761624 
L 173.632933 252.004871 
L 178.013125 257.461841 
L 185.021433 264.960463 
L 189.401625 269.479743 
L 192.029741 271.901303 
L 199.914087 279.904537 
L 201.666164 281.449309 
L 204.294279 283.357557 
L 207.798433 285.86322 
L 211.302587 288.619255 
L 213.930702 290.280997 
L 214.806741 290.696674 
L 217.434856 291.429426 
L 219.186933 291.873137 
L 226.195241 294.272464 
L 235.831664 298.712475 
L 238.459779 299.614397 
L 242.839972 301.343807 
L 248.972241 304.153011 
L 251.600356 304.982432 
L 253.352433 305.461911 
L 259.484702 307.608931 
L 262.112818 308.311715 
L 263.864895 308.91203 
L 269.121126 310.209329 
L 277.005472 311.079351 
L 277.88151 311.261089 
L 279.633587 311.95614 
L 281.385664 312.284815 
L 285.765856 312.785561 
L 287.517933 313.169337 
L 292.774164 315.293157 
L 295.40228 315.854804 
L 298.030395 316.342016 
L 298.906433 316.457053 
L 303.286626 316.408718 
L 308.542856 317.504946 
L 314.675126 319.235322 
L 316.427203 319.541763 
L 318.17928 319.721568 
L 321.683433 320.116944 
L 323.43551 320.563555 
L 324.311549 320.850663 
L 326.063626 321.618215 
L 331.319857 323.097252 
L 333.071933 323.13882 
L 334.82401 323.191021 
L 337.452126 323.641499 
L 340.080241 324.152879 
L 344.460433 325.722785 
L 347.964587 327.625232 
L 351.468741 329.741319 
L 354.096857 330.992217 
L 355.848934 331.636033 
L 357.60101 332.139679 
L 358.477049 332.234414 
L 361.105164 333.047402 
L 366.361395 335.117087 
L 373.369703 337.017601 
L 375.12178 337.266041 
L 376.873857 337.708785 
L 380.378011 338.96935 
L 384.758203 340.889198 
L 386.51028 341.731186 
L 390.014434 343.10002 
L 392.642549 344.456287 
L 396.146703 346.191497 
L 398.774818 347.555498 
L 401.402934 348.603391 
L 403.155011 349.035502 
L 404.907088 349.419278 
L 407.535203 350.083395 
L 414.543511 351.391328 
L 416.295588 351.661034 
L 419.799741 352.565857 
L 422.427857 353.444579 
L 425.932011 354.696444 
L 427.684088 354.989351 
L 431.188241 355.34606 
L 432.940318 355.629301 
L 439.072588 357.020369 
L 440.824665 357.385778 
L 447.832972 359.664268 
L 450.461088 360.203682 
L 453.965242 361.039869 
L 457.469395 361.950492 
L 461.849588 363.233291 
L 463.601665 363.46433 
L 465.353742 363.560999 
L 473.238088 364.637893 
L 475.866203 365.33101 
L 481.998472 366.433038 
L 486.378665 367.5805 
L 494.263011 369.882191 
L 496.891126 370.220533 
L 499.519242 370.566608 
L 502.147357 370.883683 
L 505.651511 370.953284 
L 507.403588 370.92235 
L 513.535857 371.475297 
L 519.668126 371.531366 
L 523.17228 371.734371 
L 526.676434 371.97701 
L 535.436819 372.967868 
L 539.817011 373.624251 
L 544.197203 373.924892 
L 554.709665 374.552275 
L 564.346088 374.860649 
L 576.610626 375.448397 
L 580.990819 375.634002 
L 591.50328 376.444089 
L 601.139703 376.734096 
L 605.519896 376.922601 
L 609.900088 377.097572 
L 626.544819 377.791656 
L 642.313511 378.10873 
L 655.454088 378.304002 
L 701.884127 378.399704 
L 701.884127 378.399704 
" clip-path="url(#pc9d4c9cb89)" style="fill: none; stroke: #ffbf00; stroke-width: 3.5; stroke-linecap: round"/>
   </g>
   <g id="line2d_29">
    <path d="M 65.004163 294.846678 
L 65.880202 294.846678 
L 66.75624 292.978064 
L 67.632279 289.244704 
L 68.508317 283.492894 
L 69.384356 274.475601 
L 70.260394 263.24072 
L 73.764548 205.197699 
L 75.516625 183.081745 
L 77.268702 164.626649 
L 79.020779 149.521138 
L 79.896817 143.334316 
L 80.772856 138.222455 
L 81.648894 134.241622 
L 82.524933 131.464319 
L 83.400971 129.676907 
L 84.27701 128.681216 
L 85.153048 128.275205 
L 86.029087 128.322573 
L 86.905125 128.721817 
L 87.781164 129.3753 
L 88.657202 130.31879 
L 90.409279 132.785785 
L 92.161356 135.91013 
L 94.789471 141.068393 
L 98.293625 148.492578 
L 100.045702 152.566214 
L 101.797779 157.100961 
L 104.425894 164.630516 
L 106.177971 170.319492 
L 109.682125 182.968642 
L 112.310241 192.199573 
L 114.938356 200.501515 
L 116.690433 205.572775 
L 119.318548 212.432413 
L 123.698741 223.032179 
L 128.954971 234.493266 
L 133.335164 243.353955 
L 146.475741 269.651813 
L 149.103856 274.4263 
L 154.360087 283.390424 
L 156.112164 286.351398 
L 164.872548 299.230621 
L 178.013125 317.831687 
L 180.641241 321.226705 
L 182.393318 323.197788 
L 189.401625 329.763553 
L 191.153702 331.298658 
L 194.657856 334.280899 
L 197.285972 336.56229 
L 199.914087 339.014784 
L 202.542202 340.922065 
L 205.170318 342.55964 
L 207.798433 344.634158 
L 211.302587 347.652167 
L 213.930702 349.659018 
L 219.186933 353.893124 
L 221.815049 355.271625 
L 223.567125 355.896107 
L 226.195241 356.711994 
L 227.947318 357.523048 
L 228.823356 358.034427 
L 230.575433 358.747845 
L 236.707702 360.635793 
L 238.459779 361.036969 
L 248.096202 363.992143 
L 250.724318 364.422321 
L 255.10451 364.685261 
L 255.980549 364.77903 
L 259.484702 365.837556 
L 262.112818 366.255167 
L 262.988856 366.292868 
L 265.616972 366.010594 
L 268.245087 366.173965 
L 269.997164 366.432071 
L 272.625279 366.458172 
L 277.005472 366.044428 
L 278.757549 366.323802 
L 280.509626 366.968585 
L 284.013779 368.420554 
L 285.765856 369.012169 
L 287.517933 369.253842 
L 291.022087 369.604751 
L 293.650203 370.205066 
L 294.526241 370.323002 
L 296.278318 370.797647 
L 301.534549 371.434696 
L 306.79078 372.612126 
L 312.04701 375.154523 
L 316.427203 376.674161 
L 318.17928 377.060837 
L 319.931357 377.254176 
L 321.683433 377.41658 
L 324.311549 377.235808 
L 326.939664 377.464914 
L 327.815703 377.628285 
L 329.56778 377.633118 
L 333.071933 377.214541 
L 334.82401 377.146873 
L 336.576087 377.332478 
L 338.328164 377.484248 
L 341.832318 377.056971 
L 343.584395 377.250309 
L 345.336472 377.402079 
L 346.21251 377.490048 
L 353.220818 379.239759 
L 354.972895 379.930943 
L 356.724972 380.392054 
L 360.229126 380.496457 
L 361.981203 380.325352 
L 365.485357 380.337919 
L 368.113472 380.36112 
L 369.865549 380.989469 
L 372.493664 381.975494 
L 374.245741 382.33897 
L 375.12178 382.511041 
L 376.873857 383.324028 
L 377.749895 383.787073 
L 379.501972 384.177616 
L 381.254049 384.521758 
L 383.882164 385.082438 
L 385.634241 385.272876 
L 390.014434 385.68372 
L 391.766511 385.854824 
L 402.278972 388.054046 
L 407.535203 389.627819 
L 410.163318 389.93716 
L 417.171626 390.942518 
L 418.923703 391.442298 
L 421.551818 392.181816 
L 423.303895 392.952269 
L 425.932011 393.558384 
L 427.684088 394.041729 
L 428.560126 394.288236 
L 432.940318 394.844083 
L 434.692395 395.051921 
L 437.320511 395.557501 
L 441.700703 396.770698 
L 444.328818 396.829666 
L 446.080895 396.936002 
L 447.832972 396.789065 
L 451.337126 396.287352 
L 452.213165 396.239984 
L 454.84128 396.531925 
L 460.973549 398.136632 
L 462.725626 398.766914 
L 467.105818 400.03908 
L 468.857895 400.291386 
L 473.238088 400.950669 
L 476.742242 401.78879 
L 479.370357 402.218001 
L 480.246395 402.380405 
L 484.626588 404.091448 
L 487.254703 405.11034 
L 490.758857 406.1621 
L 493.386972 406.538142 
L 495.139049 406.647378 
L 503.899434 406.450174 
L 505.651511 406.525575 
L 510.907742 406.713113 
L 512.659819 406.800116 
L 517.916049 406.641578 
L 521.420203 406.862951 
L 524.048319 406.95672 
L 529.304549 407.176158 
L 533.684742 407.273794 
L 539.817011 407.515467 
L 545.073242 407.583135 
L 549.453434 407.882809 
L 555.585703 408.060681 
L 558.213819 408.230818 
L 562.594011 408.776032 
L 566.098165 409.10084 
L 570.478357 409.270978 
L 575.734588 409.341546 
L 594.131396 410.42714 
L 605.519896 410.69588 
L 610.776127 410.731647 
L 615.156319 410.779982 
L 649.321819 410.898885 
L 701.884127 410.985887 
L 701.884127 410.985887 
" clip-path="url(#pc9d4c9cb89)" style="fill: none; stroke: #2ca02c; stroke-width: 3.5; stroke-linecap: round"/>
   </g>
   <g id="line2d_30">
    <path d="M 65.004163 294.846678 
L 65.880202 294.846678 
L 66.75624 292.901696 
L 67.632279 289.052333 
L 68.508317 281.777984 
L 69.384356 272.996564 
L 70.260394 262.652971 
L 71.136433 250.084057 
L 72.88851 221.020495 
L 74.640587 196.527448 
L 76.392663 176.255941 
L 78.14474 158.994708 
L 79.020779 151.829595 
L 79.896817 145.657274 
L 80.772856 140.56958 
L 81.648894 136.522045 
L 82.524933 133.495336 
L 83.400971 131.220713 
L 84.27701 129.587005 
L 85.153048 128.495611 
L 86.029087 127.868229 
L 86.905125 127.629456 
L 87.781164 127.738692 
L 88.657202 128.154369 
L 89.53324 128.795285 
L 90.409279 129.756176 
L 91.285317 130.975173 
L 93.037394 134.158486 
L 94.789471 138.254355 
L 97.417587 145.138161 
L 100.92174 155.385084 
L 103.549856 163.672525 
L 106.177971 172.891856 
L 108.806087 182.925141 
L 115.814394 210.366595 
L 120.194587 226.605069 
L 125.450817 244.674454 
L 128.078933 253.1504 
L 130.707048 260.620987 
L 133.335164 267.519293 
L 135.963279 273.661647 
L 139.467433 281.48411 
L 145.599702 295.218854 
L 148.227818 300.728992 
L 156.988202 317.657683 
L 159.616318 322.485337 
L 162.244433 326.756177 
L 169.252741 337.36271 
L 171.880856 341.184039 
L 177.137087 349.642584 
L 179.765202 352.984434 
L 181.517279 355.009652 
L 185.897472 359.697136 
L 189.401625 363.955409 
L 191.153702 366.255167 
L 198.16201 374.803614 
L 199.914087 377.322811 
L 205.170318 383.574401 
L 207.798433 386.007561 
L 210.426548 387.81624 
L 213.054664 389.269177 
L 214.806741 390.513308 
L 219.186933 393.503283 
L 220.93901 394.654611 
L 222.691087 395.521733 
L 225.319202 396.253518 
L 227.071279 396.876067 
L 228.823356 397.680354 
L 231.451472 398.496241 
L 233.203549 398.576476 
L 234.079587 398.532975 
L 235.831664 398.827816 
L 239.335818 400.049713 
L 241.963933 400.525325 
L 242.839972 400.812432 
L 244.592049 401.023171 
L 247.220164 401.724989 
L 249.848279 402.609511 
L 253.352433 404.239352 
L 258.608664 405.486383 
L 260.360741 405.669087 
L 265.616972 407.238993 
L 270.873203 409.919627 
L 274.377356 410.831217 
L 277.88151 411.217893 
L 284.013779 412.791666 
L 286.641895 413.127107 
L 287.517933 413.117441 
L 289.27001 413.287578 
L 291.022087 413.49155 
L 292.774164 413.846325 
L 294.526241 414.092832 
L 296.278318 414.458241 
L 298.030395 414.761782 
L 300.65851 415.411398 
L 302.410587 415.876376 
L 305.038703 416.17025 
L 306.79078 416.333621 
L 311.170972 416.082282 
L 312.923049 416.467024 
L 315.551164 417.555518 
L 322.559472 421.193176 
L 326.063626 421.818625 
L 327.815703 421.86406 
L 330.443818 422.060298 
L 331.319857 422.399606 
L 332.195895 422.516576 
L 334.82401 422.454708 
L 336.576087 422.577478 
L 341.832318 422.345472 
L 342.708357 422.373506 
L 344.460433 422.050631 
L 347.088549 421.635921 
L 349.716664 421.369114 
L 350.592703 421.546018 
L 352.34478 422.095099 
L 354.096857 422.663513 
L 354.972895 423.161359 
L 355.848934 423.506467 
L 357.60101 424.379389 
L 360.229126 425.539418 
L 361.105164 425.969596 
L 364.609318 426.997188 
L 368.98951 428.834868 
L 370.741587 429.530885 
L 374.245741 430.149567 
L 377.749895 430.038398 
L 378.625934 429.977496 
L 380.378011 429.550219 
L 383.882164 429.408115 
L 387.386318 429.581153 
L 390.890472 429.326913 
L 392.642549 428.960537 
L 393.518587 428.935403 
L 396.146703 429.414882 
L 398.774818 429.762891 
L 404.031049 429.269879 
L 407.535203 428.946037 
L 409.28728 429.086207 
L 418.047664 431.31733 
L 420.67578 432.113883 
L 422.427857 432.621396 
L 424.179934 433.361881 
L 425.055972 433.797859 
L 427.684088 434.643713 
L 429.436165 435.178293 
L 430.312203 435.406432 
L 434.692395 435.394832 
L 437.320511 435.33103 
L 441.700703 435.506001 
L 443.45278 435.636505 
L 446.080895 436.048315 
L 451.337126 437.905328 
L 453.089203 438.250437 
L 455.717318 438.430241 
L 458.345434 438.77825 
L 463.601665 439.230661 
L 465.353742 439.422066 
L 472.362049 439.84161 
L 474.990165 440.326889 
L 476.742242 440.663297 
L 481.122434 441.180477 
L 482.874511 441.707323 
L 484.626588 442.155868 
L 488.130742 442.859619 
L 508.279626 444.192686 
L 511.78378 444.572595 
L 513.535857 444.695365 
L 517.040011 445.396216 
L 519.668126 446.024565 
L 525.800396 447.135293 
L 531.932665 447.809076 
L 534.56078 448.025615 
L 540.693049 449.02614 
L 547.701357 449.893262 
L 550.329473 450.457809 
L 553.833626 450.715916 
L 563.47005 451.240829 
L 572.230434 452.279055 
L 574.85855 452.500427 
L 583.618934 452.847469 
L 587.123088 452.922871 
L 602.015742 453.021473 
L 618.660473 453.368516 
L 623.040665 453.483552 
L 644.941627 453.862495 
L 676.479011 454.0684 
L 701.884127 454.059699 
L 701.884127 454.059699 
" clip-path="url(#pc9d4c9cb89)" style="fill: none; stroke: #1f77b4; stroke-width: 3.5; stroke-linecap: round"/>
   </g>
   <g id="patch_3">
    <path d="M 64.128125 474.24 
L 64.128125 30.72 
" style="fill: none; stroke: #cccccc; stroke-linejoin: miter; stroke-linecap: square"/>
   </g>
   <g id="patch_4">
    <path d="M 733.728125 474.24 
L 733.728125 30.72 
" style="fill: none; stroke: #cccccc; stroke-linejoin: miter; stroke-linecap: square"/>
   </g>
   <g id="patch_5">
    <path d="M 64.128125 474.24 
L 733.728125 474.24 
" style="fill: none; stroke: #cccccc; stroke-linejoin: miter; stroke-linecap: square"/>
   </g>
   <g id="patch_6">
    <path d="M 64.128125 30.72 
L 733.728125 30.72 
" style="fill: none; stroke: #cccccc; stroke-linejoin: miter; stroke-linecap: square"/>
   </g>
   <g id="text_16">
    <!-- Evolution of Prediction Offset ($o_{CE}$) -->
    <g style="fill: #262626" transform="translate(199.368125 24.72) scale(0.24 -0.24)">
     <defs>
      <path id="Arial-BoldMT-45" d="M 466 0 
L 466 4581 
L 3863 4581 
L 3863 3806 
L 1391 3806 
L 1391 2791 
L 3691 2791 
L 3691 2019 
L 1391 2019 
L 1391 772 
L 3950 772 
L 3950 0 
L 466 0 
z
" transform="scale(0.015625)"/>
      <path id="Arial-BoldMT-76" d="M 1372 0 
L 34 3319 
L 956 3319 
L 1581 1625 
L 1763 1059 
Q 1834 1275 1853 1344 
Q 1897 1484 1947 1625 
L 2578 3319 
L 3481 3319 
L 2163 0 
L 1372 0 
z
" transform="scale(0.015625)"/>
      <path id="Arial-BoldMT-6f" d="M 256 1706 
Q 256 2144 472 2553 
Q 688 2963 1083 3178 
Q 1478 3394 1966 3394 
Q 2719 3394 3200 2905 
Q 3681 2416 3681 1669 
Q 3681 916 3195 420 
Q 2709 -75 1972 -75 
Q 1516 -75 1102 131 
Q 688 338 472 736 
Q 256 1134 256 1706 
z
M 1156 1659 
Q 1156 1166 1390 903 
Q 1625 641 1969 641 
Q 2313 641 2545 903 
Q 2778 1166 2778 1666 
Q 2778 2153 2545 2415 
Q 2313 2678 1969 2678 
Q 1625 2678 1390 2415 
Q 1156 2153 1156 1659 
z
" transform="scale(0.015625)"/>
      <path id="Arial-BoldMT-6c" d="M 459 0 
L 459 4581 
L 1338 4581 
L 1338 0 
L 459 0 
z
" transform="scale(0.015625)"/>
      <path id="Arial-BoldMT-75" d="M 2644 0 
L 2644 497 
Q 2463 231 2167 78 
Q 1872 -75 1544 -75 
Q 1209 -75 943 72 
Q 678 219 559 484 
Q 441 750 441 1219 
L 441 3319 
L 1319 3319 
L 1319 1794 
Q 1319 1094 1367 936 
Q 1416 778 1544 686 
Q 1672 594 1869 594 
Q 2094 594 2272 717 
Q 2450 841 2515 1023 
Q 2581 1206 2581 1919 
L 2581 3319 
L 3459 3319 
L 3459 0 
L 2644 0 
z
" transform="scale(0.015625)"/>
      <path id="Arial-BoldMT-74" d="M 1981 3319 
L 1981 2619 
L 1381 2619 
L 1381 1281 
Q 1381 875 1398 808 
Q 1416 741 1477 697 
Q 1538 653 1625 653 
Q 1747 653 1978 738 
L 2053 56 
Q 1747 -75 1359 -75 
Q 1122 -75 931 4 
Q 741 84 652 211 
Q 563 338 528 553 
Q 500 706 500 1172 
L 500 2619 
L 97 2619 
L 97 3319 
L 500 3319 
L 500 3978 
L 1381 4491 
L 1381 3319 
L 1981 3319 
z
" transform="scale(0.015625)"/>
      <path id="Arial-BoldMT-69" d="M 459 3769 
L 459 4581 
L 1338 4581 
L 1338 3769 
L 459 3769 
z
M 459 0 
L 459 3319 
L 1338 3319 
L 1338 0 
L 459 0 
z
" transform="scale(0.015625)"/>
      <path id="Arial-BoldMT-6e" d="M 3478 0 
L 2600 0 
L 2600 1694 
Q 2600 2231 2544 2389 
Q 2488 2547 2361 2634 
Q 2234 2722 2056 2722 
Q 1828 2722 1647 2597 
Q 1466 2472 1398 2265 
Q 1331 2059 1331 1503 
L 1331 0 
L 453 0 
L 453 3319 
L 1269 3319 
L 1269 2831 
Q 1703 3394 2363 3394 
Q 2653 3394 2893 3289 
Q 3134 3184 3257 3021 
Q 3381 2859 3429 2653 
Q 3478 2447 3478 2063 
L 3478 0 
z
" transform="scale(0.015625)"/>
      <path id="Arial-BoldMT-20" transform="scale(0.015625)"/>
      <path id="Arial-BoldMT-66" d="M 75 3319 
L 563 3319 
L 563 3569 
Q 563 3988 652 4194 
Q 741 4400 980 4529 
Q 1219 4659 1584 4659 
Q 1959 4659 2319 4547 
L 2200 3934 
Q 1991 3984 1797 3984 
Q 1606 3984 1523 3895 
Q 1441 3806 1441 3553 
L 1441 3319 
L 2097 3319 
L 2097 2628 
L 1441 2628 
L 1441 0 
L 563 0 
L 563 2628 
L 75 2628 
L 75 3319 
z
" transform="scale(0.015625)"/>
      <path id="Arial-BoldMT-50" d="M 466 0 
L 466 4581 
L 1950 4581 
Q 2794 4581 3050 4513 
Q 3444 4409 3709 4064 
Q 3975 3719 3975 3172 
Q 3975 2750 3822 2462 
Q 3669 2175 3433 2011 
Q 3197 1847 2953 1794 
Q 2622 1728 1994 1728 
L 1391 1728 
L 1391 0 
L 466 0 
z
M 1391 3806 
L 1391 2506 
L 1897 2506 
Q 2444 2506 2628 2578 
Q 2813 2650 2917 2803 
Q 3022 2956 3022 3159 
Q 3022 3409 2875 3571 
Q 2728 3734 2503 3775 
Q 2338 3806 1838 3806 
L 1391 3806 
z
" transform="scale(0.015625)"/>
      <path id="Arial-BoldMT-72" d="M 1300 0 
L 422 0 
L 422 3319 
L 1238 3319 
L 1238 2847 
Q 1447 3181 1614 3287 
Q 1781 3394 1994 3394 
Q 2294 3394 2572 3228 
L 2300 2463 
Q 2078 2606 1888 2606 
Q 1703 2606 1575 2504 
Q 1447 2403 1373 2137 
Q 1300 1872 1300 1025 
L 1300 0 
z
" transform="scale(0.015625)"/>
      <path id="Arial-BoldMT-65" d="M 2381 1056 
L 3256 909 
Q 3088 428 2723 176 
Q 2359 -75 1813 -75 
Q 947 -75 531 491 
Q 203 944 203 1634 
Q 203 2459 634 2926 
Q 1066 3394 1725 3394 
Q 2466 3394 2894 2905 
Q 3322 2416 3303 1406 
L 1103 1406 
Q 1113 1016 1316 798 
Q 1519 581 1822 581 
Q 2028 581 2168 693 
Q 2309 806 2381 1056 
z
M 2431 1944 
Q 2422 2325 2234 2523 
Q 2047 2722 1778 2722 
Q 1491 2722 1303 2513 
Q 1116 2303 1119 1944 
L 2431 1944 
z
" transform="scale(0.015625)"/>
      <path id="Arial-BoldMT-64" d="M 3503 0 
L 2688 0 
L 2688 488 
Q 2484 203 2207 64 
Q 1931 -75 1650 -75 
Q 1078 -75 670 386 
Q 263 847 263 1672 
Q 263 2516 659 2955 
Q 1056 3394 1663 3394 
Q 2219 3394 2625 2931 
L 2625 4581 
L 3503 4581 
L 3503 0 
z
M 1159 1731 
Q 1159 1200 1306 963 
Q 1519 619 1900 619 
Q 2203 619 2415 876 
Q 2628 1134 2628 1647 
Q 2628 2219 2422 2470 
Q 2216 2722 1894 2722 
Q 1581 2722 1370 2473 
Q 1159 2225 1159 1731 
z
" transform="scale(0.015625)"/>
      <path id="Arial-BoldMT-63" d="M 3353 2338 
L 2488 2181 
Q 2444 2441 2289 2572 
Q 2134 2703 1888 2703 
Q 1559 2703 1364 2476 
Q 1169 2250 1169 1719 
Q 1169 1128 1367 884 
Q 1566 641 1900 641 
Q 2150 641 2309 783 
Q 2469 925 2534 1272 
L 3397 1125 
Q 3263 531 2881 228 
Q 2500 -75 1859 -75 
Q 1131 -75 698 384 
Q 266 844 266 1656 
Q 266 2478 700 2936 
Q 1134 3394 1875 3394 
Q 2481 3394 2839 3133 
Q 3197 2872 3353 2338 
z
" transform="scale(0.015625)"/>
      <path id="Arial-BoldMT-4f" d="M 278 2263 
Q 278 2963 488 3438 
Q 644 3788 914 4066 
Q 1184 4344 1506 4478 
Q 1934 4659 2494 4659 
Q 3506 4659 4114 4031 
Q 4722 3403 4722 2284 
Q 4722 1175 4119 548 
Q 3516 -78 2506 -78 
Q 1484 -78 881 545 
Q 278 1169 278 2263 
z
M 1231 2294 
Q 1231 1516 1590 1114 
Q 1950 713 2503 713 
Q 3056 713 3411 1111 
Q 3766 1509 3766 2306 
Q 3766 3094 3420 3481 
Q 3075 3869 2503 3869 
Q 1931 3869 1581 3476 
Q 1231 3084 1231 2294 
z
" transform="scale(0.015625)"/>
      <path id="Arial-BoldMT-73" d="M 150 947 
L 1031 1081 
Q 1088 825 1259 692 
Q 1431 559 1741 559 
Q 2081 559 2253 684 
Q 2369 772 2369 919 
Q 2369 1019 2306 1084 
Q 2241 1147 2013 1200 
Q 950 1434 666 1628 
Q 272 1897 272 2375 
Q 272 2806 612 3100 
Q 953 3394 1669 3394 
Q 2350 3394 2681 3172 
Q 3013 2950 3138 2516 
L 2309 2363 
Q 2256 2556 2107 2659 
Q 1959 2763 1684 2763 
Q 1338 2763 1188 2666 
Q 1088 2597 1088 2488 
Q 1088 2394 1175 2328 
Q 1294 2241 1995 2081 
Q 2697 1922 2975 1691 
Q 3250 1456 3250 1038 
Q 3250 581 2869 253 
Q 2488 -75 1741 -75 
Q 1063 -75 667 200 
Q 272 475 150 947 
z
" transform="scale(0.015625)"/>
      <path id="Arial-BoldMT-28" d="M 1916 -1347 
L 1313 -1347 
Q 834 -625 584 153 
Q 334 931 334 1659 
Q 334 2563 644 3369 
Q 913 4069 1325 4659 
L 1925 4659 
Q 1497 3713 1336 3048 
Q 1175 2384 1175 1641 
Q 1175 1128 1270 590 
Q 1366 53 1531 -431 
Q 1641 -750 1916 -1347 
z
" transform="scale(0.015625)"/>
      <path id="DejaVuSans-Oblique-6f" d="M 1625 -91 
Q 1009 -91 651 289 
Q 294 669 294 1325 
Q 294 1706 417 2101 
Q 541 2497 738 2766 
Q 1047 3184 1428 3384 
Q 1809 3584 2291 3584 
Q 2888 3584 3255 3212 
Q 3622 2841 3622 2241 
Q 3622 1825 3500 1412 
Q 3378 1000 3181 728 
Q 2875 309 2494 109 
Q 2113 -91 1625 -91 
z
M 891 1344 
Q 891 869 1089 633 
Q 1288 397 1691 397 
Q 2269 397 2648 901 
Q 3028 1406 3028 2181 
Q 3028 2634 2825 2865 
Q 2622 3097 2228 3097 
Q 1903 3097 1650 2945 
Q 1397 2794 1197 2484 
Q 1050 2253 970 1956 
Q 891 1659 891 1344 
z
" transform="scale(0.015625)"/>
      <path id="DejaVuSans-Oblique-43" d="M 4447 4306 
L 4319 3641 
Q 4019 3944 3683 4091 
Q 3347 4238 2956 4238 
Q 2422 4238 2017 3981 
Q 1613 3725 1319 3200 
Q 1131 2863 1032 2486 
Q 934 2109 934 1728 
Q 934 1091 1264 756 
Q 1594 422 2222 422 
Q 2656 422 3056 561 
Q 3456 700 3834 978 
L 3688 231 
Q 3316 72 2936 -9 
Q 2556 -91 2175 -91 
Q 1278 -91 773 396 
Q 269 884 269 1753 
Q 269 2309 461 2846 
Q 653 3384 1013 3828 
Q 1394 4300 1883 4525 
Q 2372 4750 3022 4750 
Q 3422 4750 3780 4639 
Q 4138 4528 4447 4306 
z
" transform="scale(0.015625)"/>
      <path id="DejaVuSans-Oblique-45" d="M 1081 4666 
L 4031 4666 
L 3928 4134 
L 1606 4134 
L 1338 2753 
L 3566 2753 
L 3463 2222 
L 1234 2222 
L 909 531 
L 3284 531 
L 3181 0 
L 172 0 
L 1081 4666 
z
" transform="scale(0.015625)"/>
      <path id="Arial-BoldMT-29" d="M 216 -1347 
Q 475 -791 581 -494 
Q 688 -197 778 190 
Q 869 578 912 926 
Q 956 1275 956 1641 
Q 956 2384 797 3048 
Q 638 3713 209 4659 
L 806 4659 
Q 1278 3988 1539 3234 
Q 1800 2481 1800 1706 
Q 1800 1053 1594 306 
Q 1359 -531 822 -1347 
L 216 -1347 
z
" transform="scale(0.015625)"/>
     </defs>
     <use xlink:href="#Arial-BoldMT-45" transform="translate(0 0.203125)"/>
     <use xlink:href="#Arial-BoldMT-76" transform="translate(66.699219 0.203125)"/>
     <use xlink:href="#Arial-BoldMT-6f" transform="translate(122.314453 0.203125)"/>
     <use xlink:href="#Arial-BoldMT-6c" transform="translate(183.398438 0.203125)"/>
     <use xlink:href="#Arial-BoldMT-75" transform="translate(211.181641 0.203125)"/>
     <use xlink:href="#Arial-BoldMT-74" transform="translate(272.265625 0.203125)"/>
     <use xlink:href="#Arial-BoldMT-69" transform="translate(305.566406 0.203125)"/>
     <use xlink:href="#Arial-BoldMT-6f" transform="translate(333.349609 0.203125)"/>
     <use xlink:href="#Arial-BoldMT-6e" transform="translate(394.433594 0.203125)"/>
     <use xlink:href="#Arial-BoldMT-20" transform="translate(455.517578 0.203125)"/>
     <use xlink:href="#Arial-BoldMT-6f" transform="translate(483.300781 0.203125)"/>
     <use xlink:href="#Arial-BoldMT-66" transform="translate(544.384766 0.203125)"/>
     <use xlink:href="#Arial-BoldMT-20" transform="translate(577.685547 0.203125)"/>
     <use xlink:href="#Arial-BoldMT-50" transform="translate(605.46875 0.203125)"/>
     <use xlink:href="#Arial-BoldMT-72" transform="translate(672.167969 0.203125)"/>
     <use xlink:href="#Arial-BoldMT-65" transform="translate(711.083984 0.203125)"/>
     <use xlink:href="#Arial-BoldMT-64" transform="translate(766.699219 0.203125)"/>
     <use xlink:href="#Arial-BoldMT-69" transform="translate(827.783203 0.203125)"/>
     <use xlink:href="#Arial-BoldMT-63" transform="translate(855.566406 0.203125)"/>
     <use xlink:href="#Arial-BoldMT-74" transform="translate(911.181641 0.203125)"/>
     <use xlink:href="#Arial-BoldMT-69" transform="translate(944.482422 0.203125)"/>
     <use xlink:href="#Arial-BoldMT-6f" transform="translate(972.265625 0.203125)"/>
     <use xlink:href="#Arial-BoldMT-6e" transform="translate(1033.349609 0.203125)"/>
     <use xlink:href="#Arial-BoldMT-20" transform="translate(1094.433594 0.203125)"/>
     <use xlink:href="#Arial-BoldMT-4f" transform="translate(1122.216797 0.203125)"/>
     <use xlink:href="#Arial-BoldMT-66" transform="translate(1200 0.203125)"/>
     <use xlink:href="#Arial-BoldMT-66" transform="translate(1233.300781 0.203125)"/>
     <use xlink:href="#Arial-BoldMT-73" transform="translate(1266.601562 0.203125)"/>
     <use xlink:href="#Arial-BoldMT-65" transform="translate(1322.216797 0.203125)"/>
     <use xlink:href="#Arial-BoldMT-74" transform="translate(1377.832031 0.203125)"/>
     <use xlink:href="#Arial-BoldMT-20" transform="translate(1411.132812 0.203125)"/>
     <use xlink:href="#Arial-BoldMT-28" transform="translate(1438.916016 0.203125)"/>
     <use xlink:href="#DejaVuSans-Oblique-6f" transform="translate(1472.216797 0.203125)"/>
     <use xlink:href="#DejaVuSans-Oblique-43" transform="translate(1533.398438 -16.203125) scale(0.7)"/>
     <use xlink:href="#DejaVuSans-Oblique-45" transform="translate(1582.275391 -16.203125) scale(0.7)"/>
     <use xlink:href="#Arial-BoldMT-29" transform="translate(1629.238281 0.203125)"/>
    </g>
   </g>
   <g id="legend_1">
    <g id="line2d_31">
     <path d="M 497.554063 53.504062 
L 515.554063 53.504062 
L 533.554063 53.504062 
" style="fill: none; stroke: #d62728; stroke-width: 3.5; stroke-linecap: round"/>
    </g>
    <g id="text_17">
     <!-- Prior Factor = 0.0625 -->
     <g style="fill: #262626" transform="translate(547.954063 59.804062) scale(0.18 -0.18)">
      <defs>
       <path id="ArialMT-6f" d="M 213 1659 
Q 213 2581 725 3025 
Q 1153 3394 1769 3394 
Q 2453 3394 2887 2945 
Q 3322 2497 3322 1706 
Q 3322 1066 3130 698 
Q 2938 331 2570 128 
Q 2203 -75 1769 -75 
Q 1072 -75 642 372 
Q 213 819 213 1659 
z
M 791 1659 
Q 791 1022 1069 705 
Q 1347 388 1769 388 
Q 2188 388 2466 706 
Q 2744 1025 2744 1678 
Q 2744 2294 2464 2611 
Q 2184 2928 1769 2928 
Q 1347 2928 1069 2612 
Q 791 2297 791 1659 
z
" transform="scale(0.015625)"/>
       <path id="ArialMT-46" d="M 525 0 
L 525 4581 
L 3616 4581 
L 3616 4041 
L 1131 4041 
L 1131 2622 
L 3281 2622 
L 3281 2081 
L 1131 2081 
L 1131 0 
L 525 0 
z
" transform="scale(0.015625)"/>
       <path id="ArialMT-63" d="M 2588 1216 
L 3141 1144 
Q 3050 572 2676 248 
Q 2303 -75 1759 -75 
Q 1078 -75 664 370 
Q 250 816 250 1647 
Q 250 2184 428 2587 
Q 606 2991 970 3192 
Q 1334 3394 1763 3394 
Q 2303 3394 2647 3120 
Q 2991 2847 3088 2344 
L 2541 2259 
Q 2463 2594 2264 2762 
Q 2066 2931 1784 2931 
Q 1359 2931 1093 2626 
Q 828 2322 828 1663 
Q 828 994 1084 691 
Q 1341 388 1753 388 
Q 2084 388 2306 591 
Q 2528 794 2588 1216 
z
" transform="scale(0.015625)"/>
       <path id="ArialMT-3d" d="M 3381 2694 
L 356 2694 
L 356 3219 
L 3381 3219 
L 3381 2694 
z
M 3381 1303 
L 356 1303 
L 356 1828 
L 3381 1828 
L 3381 1303 
z
" transform="scale(0.015625)"/>
      </defs>
      <use xlink:href="#ArialMT-50"/>
      <use xlink:href="#ArialMT-72" transform="translate(66.699219 0)"/>
      <use xlink:href="#ArialMT-69" transform="translate(100 0)"/>
      <use xlink:href="#ArialMT-6f" transform="translate(122.216797 0)"/>
      <use xlink:href="#ArialMT-72" transform="translate(177.832031 0)"/>
      <use xlink:href="#ArialMT-20" transform="translate(211.132812 0)"/>
      <use xlink:href="#ArialMT-46" transform="translate(238.916016 0)"/>
      <use xlink:href="#ArialMT-61" transform="translate(300 0)"/>
      <use xlink:href="#ArialMT-63" transform="translate(355.615234 0)"/>
      <use xlink:href="#ArialMT-74" transform="translate(405.615234 0)"/>
      <use xlink:href="#ArialMT-6f" transform="translate(433.398438 0)"/>
      <use xlink:href="#ArialMT-72" transform="translate(489.013672 0)"/>
      <use xlink:href="#ArialMT-20" transform="translate(522.314453 0)"/>
      <use xlink:href="#ArialMT-3d" transform="translate(550.097656 0)"/>
      <use xlink:href="#ArialMT-20" transform="translate(608.496094 0)"/>
      <use xlink:href="#ArialMT-30" transform="translate(636.279297 0)"/>
      <use xlink:href="#ArialMT-2e" transform="translate(691.894531 0)"/>
      <use xlink:href="#ArialMT-30" transform="translate(719.677734 0)"/>
      <use xlink:href="#ArialMT-36" transform="translate(775.292969 0)"/>
      <use xlink:href="#ArialMT-32" transform="translate(830.908203 0)"/>
      <use xlink:href="#ArialMT-35" transform="translate(886.523438 0)"/>
     </g>
    </g>
    <g id="line2d_32">
     <path d="M 497.554063 78.965625 
L 515.554063 78.965625 
L 533.554063 78.965625 
" style="fill: none; stroke: #ffbf00; stroke-width: 3.5; stroke-linecap: round"/>
    </g>
    <g id="text_18">
     <!-- Prior Factor = 0.125 -->
     <g style="fill: #262626" transform="translate(547.954063 85.265625) scale(0.18 -0.18)">
      <use xlink:href="#ArialMT-50"/>
      <use xlink:href="#ArialMT-72" transform="translate(66.699219 0)"/>
      <use xlink:href="#ArialMT-69" transform="translate(100 0)"/>
      <use xlink:href="#ArialMT-6f" transform="translate(122.216797 0)"/>
      <use xlink:href="#ArialMT-72" transform="translate(177.832031 0)"/>
      <use xlink:href="#ArialMT-20" transform="translate(211.132812 0)"/>
      <use xlink:href="#ArialMT-46" transform="translate(238.916016 0)"/>
      <use xlink:href="#ArialMT-61" transform="translate(300 0)"/>
      <use xlink:href="#ArialMT-63" transform="translate(355.615234 0)"/>
      <use xlink:href="#ArialMT-74" transform="translate(405.615234 0)"/>
      <use xlink:href="#ArialMT-6f" transform="translate(433.398438 0)"/>
      <use xlink:href="#ArialMT-72" transform="translate(489.013672 0)"/>
      <use xlink:href="#ArialMT-20" transform="translate(522.314453 0)"/>
      <use xlink:href="#ArialMT-3d" transform="translate(550.097656 0)"/>
      <use xlink:href="#ArialMT-20" transform="translate(608.496094 0)"/>
      <use xlink:href="#ArialMT-30" transform="translate(636.279297 0)"/>
      <use xlink:href="#ArialMT-2e" transform="translate(691.894531 0)"/>
      <use xlink:href="#ArialMT-31" transform="translate(719.677734 0)"/>
      <use xlink:href="#ArialMT-32" transform="translate(775.292969 0)"/>
      <use xlink:href="#ArialMT-35" transform="translate(830.908203 0)"/>
     </g>
    </g>
    <g id="line2d_33">
     <path d="M 497.554063 104.427187 
L 515.554063 104.427187 
L 533.554063 104.427187 
" style="fill: none; stroke: #2ca02c; stroke-width: 3.5; stroke-linecap: round"/>
    </g>
    <g id="text_19">
     <!-- Prior Factor = 0.25 -->
     <g style="fill: #262626" transform="translate(547.954063 110.727187) scale(0.18 -0.18)">
      <use xlink:href="#ArialMT-50"/>
      <use xlink:href="#ArialMT-72" transform="translate(66.699219 0)"/>
      <use xlink:href="#ArialMT-69" transform="translate(100 0)"/>
      <use xlink:href="#ArialMT-6f" transform="translate(122.216797 0)"/>
      <use xlink:href="#ArialMT-72" transform="translate(177.832031 0)"/>
      <use xlink:href="#ArialMT-20" transform="translate(211.132812 0)"/>
      <use xlink:href="#ArialMT-46" transform="translate(238.916016 0)"/>
      <use xlink:href="#ArialMT-61" transform="translate(300 0)"/>
      <use xlink:href="#ArialMT-63" transform="translate(355.615234 0)"/>
      <use xlink:href="#ArialMT-74" transform="translate(405.615234 0)"/>
      <use xlink:href="#ArialMT-6f" transform="translate(433.398438 0)"/>
      <use xlink:href="#ArialMT-72" transform="translate(489.013672 0)"/>
      <use xlink:href="#ArialMT-20" transform="translate(522.314453 0)"/>
      <use xlink:href="#ArialMT-3d" transform="translate(550.097656 0)"/>
      <use xlink:href="#ArialMT-20" transform="translate(608.496094 0)"/>
      <use xlink:href="#ArialMT-30" transform="translate(636.279297 0)"/>
      <use xlink:href="#ArialMT-2e" transform="translate(691.894531 0)"/>
      <use xlink:href="#ArialMT-32" transform="translate(719.677734 0)"/>
      <use xlink:href="#ArialMT-35" transform="translate(775.292969 0)"/>
     </g>
    </g>
    <g id="line2d_34">
     <path d="M 497.554063 129.88875 
L 515.554063 129.88875 
L 533.554063 129.88875 
" style="fill: none; stroke: #1f77b4; stroke-width: 3.5; stroke-linecap: round"/>
    </g>
    <g id="text_20">
     <!-- Prior Factor = 0.5 -->
     <g style="fill: #262626" transform="translate(547.954063 136.18875) scale(0.18 -0.18)">
      <use xlink:href="#ArialMT-50"/>
      <use xlink:href="#ArialMT-72" transform="translate(66.699219 0)"/>
      <use xlink:href="#ArialMT-69" transform="translate(100 0)"/>
      <use xlink:href="#ArialMT-6f" transform="translate(122.216797 0)"/>
      <use xlink:href="#ArialMT-72" transform="translate(177.832031 0)"/>
      <use xlink:href="#ArialMT-20" transform="translate(211.132812 0)"/>
      <use xlink:href="#ArialMT-46" transform="translate(238.916016 0)"/>
      <use xlink:href="#ArialMT-61" transform="translate(300 0)"/>
      <use xlink:href="#ArialMT-63" transform="translate(355.615234 0)"/>
      <use xlink:href="#ArialMT-74" transform="translate(405.615234 0)"/>
      <use xlink:href="#ArialMT-6f" transform="translate(433.398438 0)"/>
      <use xlink:href="#ArialMT-72" transform="translate(489.013672 0)"/>
      <use xlink:href="#ArialMT-20" transform="translate(522.314453 0)"/>
      <use xlink:href="#ArialMT-3d" transform="translate(550.097656 0)"/>
      <use xlink:href="#ArialMT-20" transform="translate(608.496094 0)"/>
      <use xlink:href="#ArialMT-30" transform="translate(636.279297 0)"/>
      <use xlink:href="#ArialMT-2e" transform="translate(691.894531 0)"/>
      <use xlink:href="#ArialMT-35" transform="translate(719.677734 0)"/>
     </g>
    </g>
   </g>
  </g>
 </g>
 <defs>
  <clipPath id="pc9d4c9cb89">
   <rect x="64.128125" y="30.72" width="669.6" height="443.52"/>
  </clipPath>
 </defs>
</svg>
