<?xml version="1.0" encoding="utf-8" standalone="no"?>
<!DOCTYPE svg PUBLIC "-//W3C//DTD SVG 1.1//EN"
  "http://www.w3.org/Graphics/SVG/1.1/DTD/svg11.dtd">
<svg xmlns:xlink="http://www.w3.org/1999/xlink" width="750.273125pt" height="523.30125pt" viewBox="0 0 750.273125 523.30125" xmlns="http://www.w3.org/2000/svg" version="1.1">
 <metadata>
  <rdf:RDF xmlns:dc="http://purl.org/dc/elements/1.1/" xmlns:cc="http://creativecommons.org/ns#" xmlns:rdf="http://www.w3.org/1999/02/22-rdf-syntax-ns#">
   <cc:Work>
    <dc:type rdf:resource="http://purl.org/dc/dcmitype/StillImage"/>
    <dc:date>2025-09-24T13:10:15.729055</dc:date>
    <dc:format>image/svg+xml</dc:format>
    <dc:creator>
     <cc:Agent>
      <dc:title>Matplotlib v3.10.6, https://matplotlib.org/</dc:title>
     </cc:Agent>
    </dc:creator>
   </cc:Work>
  </rdf:RDF>
 </metadata>
 <defs>
  <style type="text/css">*{stroke-linejoin: round; stroke-linecap: butt}</style>
 </defs>
 <g id="figure_1">
  <g id="patch_1">
   <path d="M 0 523.30125 
L 750.273125 523.30125 
L 750.273125 0 
L 0 0 
z
" style="fill: #ffffff"/>
  </g>
  <g id="axes_1">
   <g id="patch_2">
    <path d="M 73.473125 475.2 
L 743.073125 475.2 
L 743.073125 31.68 
L 73.473125 31.68 
z
" style="fill: #ffffff"/>
   </g>
   <g id="matplotlib.axis_1">
    <g id="xtick_1">
     <g id="line2d_1">
      <path d="M 73.473125 475.2 
L 73.473125 31.68 
" clip-path="url(#p4c22c9cba4)" style="fill: none; stroke: #cccccc; stroke-width: 0.8; stroke-linecap: round"/>
     </g>
     <g id="line2d_2"/>
     <g id="text_1">
      <!-- 0 -->
      <g style="fill: #262626" transform="translate(69.024375 490.1525) scale(0.16 -0.16)">
       <defs>
        <path id="ArialMT-30" d="M 266 2259 
Q 266 3072 433 3567 
Q 600 4063 929 4331 
Q 1259 4600 1759 4600 
Q 2128 4600 2406 4451 
Q 2684 4303 2865 4023 
Q 3047 3744 3150 3342 
Q 3253 2941 3253 2259 
Q 3253 1453 3087 958 
Q 2922 463 2592 192 
Q 2263 -78 1759 -78 
Q 1097 -78 719 397 
Q 266 969 266 2259 
z
M 844 2259 
Q 844 1131 1108 757 
Q 1372 384 1759 384 
Q 2147 384 2411 759 
Q 2675 1134 2675 2259 
Q 2675 3391 2411 3762 
Q 2147 4134 1753 4134 
Q 1366 4134 1134 3806 
Q 844 3388 844 2259 
z
" transform="scale(0.015625)"/>
       </defs>
       <use xlink:href="#ArialMT-30"/>
      </g>
     </g>
    </g>
    <g id="xtick_2">
     <g id="line2d_3">
      <path d="M 161.076971 475.2 
L 161.076971 31.68 
" clip-path="url(#p4c22c9cba4)" style="fill: none; stroke: #cccccc; stroke-width: 0.8; stroke-linecap: round"/>
     </g>
     <g id="line2d_4"/>
     <g id="text_2">
      <!-- 100 -->
      <g style="fill: #262626" transform="translate(147.730721 490.1525) scale(0.16 -0.16)">
       <defs>
        <path id="ArialMT-31" d="M 2384 0 
L 1822 0 
L 1822 3584 
Q 1619 3391 1289 3197 
Q 959 3003 697 2906 
L 697 3450 
Q 1169 3672 1522 3987 
Q 1875 4303 2022 4600 
L 2384 4600 
L 2384 0 
z
" transform="scale(0.015625)"/>
       </defs>
       <use xlink:href="#ArialMT-31"/>
       <use xlink:href="#ArialMT-30" transform="translate(55.615234 0)"/>
       <use xlink:href="#ArialMT-30" transform="translate(111.230469 0)"/>
      </g>
     </g>
    </g>
    <g id="xtick_3">
     <g id="line2d_5">
      <path d="M 248.680818 475.2 
L 248.680818 31.68 
" clip-path="url(#p4c22c9cba4)" style="fill: none; stroke: #cccccc; stroke-width: 0.8; stroke-linecap: round"/>
     </g>
     <g id="line2d_6"/>
     <g id="text_3">
      <!-- 200 -->
      <g style="fill: #262626" transform="translate(235.334568 490.1525) scale(0.16 -0.16)">
       <defs>
        <path id="ArialMT-32" d="M 3222 541 
L 3222 0 
L 194 0 
Q 188 203 259 391 
Q 375 700 629 1000 
Q 884 1300 1366 1694 
Q 2113 2306 2375 2664 
Q 2638 3022 2638 3341 
Q 2638 3675 2398 3904 
Q 2159 4134 1775 4134 
Q 1369 4134 1125 3890 
Q 881 3647 878 3216 
L 300 3275 
Q 359 3922 746 4261 
Q 1134 4600 1788 4600 
Q 2447 4600 2831 4234 
Q 3216 3869 3216 3328 
Q 3216 3053 3103 2787 
Q 2991 2522 2730 2228 
Q 2469 1934 1863 1422 
Q 1356 997 1212 845 
Q 1069 694 975 541 
L 3222 541 
z
" transform="scale(0.015625)"/>
       </defs>
       <use xlink:href="#ArialMT-32"/>
       <use xlink:href="#ArialMT-30" transform="translate(55.615234 0)"/>
       <use xlink:href="#ArialMT-30" transform="translate(111.230469 0)"/>
      </g>
     </g>
    </g>
    <g id="xtick_4">
     <g id="line2d_7">
      <path d="M 336.284664 475.2 
L 336.284664 31.68 
" clip-path="url(#p4c22c9cba4)" style="fill: none; stroke: #cccccc; stroke-width: 0.8; stroke-linecap: round"/>
     </g>
     <g id="line2d_8"/>
     <g id="text_4">
      <!-- 300 -->
      <g style="fill: #262626" transform="translate(322.938414 490.1525) scale(0.16 -0.16)">
       <defs>
        <path id="ArialMT-33" d="M 269 1209 
L 831 1284 
Q 928 806 1161 595 
Q 1394 384 1728 384 
Q 2125 384 2398 659 
Q 2672 934 2672 1341 
Q 2672 1728 2419 1979 
Q 2166 2231 1775 2231 
Q 1616 2231 1378 2169 
L 1441 2663 
Q 1497 2656 1531 2656 
Q 1891 2656 2178 2843 
Q 2466 3031 2466 3422 
Q 2466 3731 2256 3934 
Q 2047 4138 1716 4138 
Q 1388 4138 1169 3931 
Q 950 3725 888 3313 
L 325 3413 
Q 428 3978 793 4289 
Q 1159 4600 1703 4600 
Q 2078 4600 2393 4439 
Q 2709 4278 2876 4000 
Q 3044 3722 3044 3409 
Q 3044 3113 2884 2869 
Q 2725 2625 2413 2481 
Q 2819 2388 3044 2092 
Q 3269 1797 3269 1353 
Q 3269 753 2831 336 
Q 2394 -81 1725 -81 
Q 1122 -81 723 278 
Q 325 638 269 1209 
z
" transform="scale(0.015625)"/>
       </defs>
       <use xlink:href="#ArialMT-33"/>
       <use xlink:href="#ArialMT-30" transform="translate(55.615234 0)"/>
       <use xlink:href="#ArialMT-30" transform="translate(111.230469 0)"/>
      </g>
     </g>
    </g>
    <g id="xtick_5">
     <g id="line2d_9">
      <path d="M 423.888511 475.2 
L 423.888511 31.68 
" clip-path="url(#p4c22c9cba4)" style="fill: none; stroke: #cccccc; stroke-width: 0.8; stroke-linecap: round"/>
     </g>
     <g id="line2d_10"/>
     <g id="text_5">
      <!-- 400 -->
      <g style="fill: #262626" transform="translate(410.542261 490.1525) scale(0.16 -0.16)">
       <defs>
        <path id="ArialMT-34" d="M 2069 0 
L 2069 1097 
L 81 1097 
L 81 1613 
L 2172 4581 
L 2631 4581 
L 2631 1613 
L 3250 1613 
L 3250 1097 
L 2631 1097 
L 2631 0 
L 2069 0 
z
M 2069 1613 
L 2069 3678 
L 634 1613 
L 2069 1613 
z
" transform="scale(0.015625)"/>
       </defs>
       <use xlink:href="#ArialMT-34"/>
       <use xlink:href="#ArialMT-30" transform="translate(55.615234 0)"/>
       <use xlink:href="#ArialMT-30" transform="translate(111.230469 0)"/>
      </g>
     </g>
    </g>
    <g id="xtick_6">
     <g id="line2d_11">
      <path d="M 511.492357 475.2 
L 511.492357 31.68 
" clip-path="url(#p4c22c9cba4)" style="fill: none; stroke: #cccccc; stroke-width: 0.8; stroke-linecap: round"/>
     </g>
     <g id="line2d_12"/>
     <g id="text_6">
      <!-- 500 -->
      <g style="fill: #262626" transform="translate(498.146107 490.1525) scale(0.16 -0.16)">
       <defs>
        <path id="ArialMT-35" d="M 266 1200 
L 856 1250 
Q 922 819 1161 601 
Q 1400 384 1738 384 
Q 2144 384 2425 690 
Q 2706 997 2706 1503 
Q 2706 1984 2436 2262 
Q 2166 2541 1728 2541 
Q 1456 2541 1237 2417 
Q 1019 2294 894 2097 
L 366 2166 
L 809 4519 
L 3088 4519 
L 3088 3981 
L 1259 3981 
L 1013 2750 
Q 1425 3038 1878 3038 
Q 2478 3038 2890 2622 
Q 3303 2206 3303 1553 
Q 3303 931 2941 478 
Q 2500 -78 1738 -78 
Q 1113 -78 717 272 
Q 322 622 266 1200 
z
" transform="scale(0.015625)"/>
       </defs>
       <use xlink:href="#ArialMT-35"/>
       <use xlink:href="#ArialMT-30" transform="translate(55.615234 0)"/>
       <use xlink:href="#ArialMT-30" transform="translate(111.230469 0)"/>
      </g>
     </g>
    </g>
    <g id="xtick_7">
     <g id="line2d_13">
      <path d="M 599.096203 475.2 
L 599.096203 31.68 
" clip-path="url(#p4c22c9cba4)" style="fill: none; stroke: #cccccc; stroke-width: 0.8; stroke-linecap: round"/>
     </g>
     <g id="line2d_14"/>
     <g id="text_7">
      <!-- 600 -->
      <g style="fill: #262626" transform="translate(585.749953 490.1525) scale(0.16 -0.16)">
       <defs>
        <path id="ArialMT-36" d="M 3184 3459 
L 2625 3416 
Q 2550 3747 2413 3897 
Q 2184 4138 1850 4138 
Q 1581 4138 1378 3988 
Q 1113 3794 959 3422 
Q 806 3050 800 2363 
Q 1003 2672 1297 2822 
Q 1591 2972 1913 2972 
Q 2475 2972 2870 2558 
Q 3266 2144 3266 1488 
Q 3266 1056 3080 686 
Q 2894 316 2569 119 
Q 2244 -78 1831 -78 
Q 1128 -78 684 439 
Q 241 956 241 2144 
Q 241 3472 731 4075 
Q 1159 4600 1884 4600 
Q 2425 4600 2770 4297 
Q 3116 3994 3184 3459 
z
M 888 1484 
Q 888 1194 1011 928 
Q 1134 663 1356 523 
Q 1578 384 1822 384 
Q 2178 384 2434 671 
Q 2691 959 2691 1453 
Q 2691 1928 2437 2201 
Q 2184 2475 1800 2475 
Q 1419 2475 1153 2201 
Q 888 1928 888 1484 
z
" transform="scale(0.015625)"/>
       </defs>
       <use xlink:href="#ArialMT-36"/>
       <use xlink:href="#ArialMT-30" transform="translate(55.615234 0)"/>
       <use xlink:href="#ArialMT-30" transform="translate(111.230469 0)"/>
      </g>
     </g>
    </g>
    <g id="xtick_8">
     <g id="line2d_15">
      <path d="M 686.70005 475.2 
L 686.70005 31.68 
" clip-path="url(#p4c22c9cba4)" style="fill: none; stroke: #cccccc; stroke-width: 0.8; stroke-linecap: round"/>
     </g>
     <g id="line2d_16"/>
     <g id="text_8">
      <!-- 700 -->
      <g style="fill: #262626" transform="translate(673.3538 490.1525) scale(0.16 -0.16)">
       <defs>
        <path id="ArialMT-37" d="M 303 3981 
L 303 4522 
L 3269 4522 
L 3269 4084 
Q 2831 3619 2401 2847 
Q 1972 2075 1738 1259 
Q 1569 684 1522 0 
L 944 0 
Q 953 541 1156 1306 
Q 1359 2072 1739 2783 
Q 2119 3494 2547 3981 
L 303 3981 
z
" transform="scale(0.015625)"/>
       </defs>
       <use xlink:href="#ArialMT-37"/>
       <use xlink:href="#ArialMT-30" transform="translate(55.615234 0)"/>
       <use xlink:href="#ArialMT-30" transform="translate(111.230469 0)"/>
      </g>
     </g>
    </g>
    <g id="text_9">
     <!-- Training Step -->
     <g style="fill: #262626" transform="translate(349.174688 511.891875) scale(0.2 -0.2)">
      <defs>
       <path id="ArialMT-54" d="M 1659 0 
L 1659 4041 
L 150 4041 
L 150 4581 
L 3781 4581 
L 3781 4041 
L 2266 4041 
L 2266 0 
L 1659 0 
z
" transform="scale(0.015625)"/>
       <path id="ArialMT-72" d="M 416 0 
L 416 3319 
L 922 3319 
L 922 2816 
Q 1116 3169 1280 3281 
Q 1444 3394 1641 3394 
Q 1925 3394 2219 3213 
L 2025 2691 
Q 1819 2813 1613 2813 
Q 1428 2813 1281 2702 
Q 1134 2591 1072 2394 
Q 978 2094 978 1738 
L 978 0 
L 416 0 
z
" transform="scale(0.015625)"/>
       <path id="ArialMT-61" d="M 2588 409 
Q 2275 144 1986 34 
Q 1697 -75 1366 -75 
Q 819 -75 525 192 
Q 231 459 231 875 
Q 231 1119 342 1320 
Q 453 1522 633 1644 
Q 813 1766 1038 1828 
Q 1203 1872 1538 1913 
Q 2219 1994 2541 2106 
Q 2544 2222 2544 2253 
Q 2544 2597 2384 2738 
Q 2169 2928 1744 2928 
Q 1347 2928 1158 2789 
Q 969 2650 878 2297 
L 328 2372 
Q 403 2725 575 2942 
Q 747 3159 1072 3276 
Q 1397 3394 1825 3394 
Q 2250 3394 2515 3294 
Q 2781 3194 2906 3042 
Q 3031 2891 3081 2659 
Q 3109 2516 3109 2141 
L 3109 1391 
Q 3109 606 3145 398 
Q 3181 191 3288 0 
L 2700 0 
Q 2613 175 2588 409 
z
M 2541 1666 
Q 2234 1541 1622 1453 
Q 1275 1403 1131 1340 
Q 988 1278 909 1158 
Q 831 1038 831 891 
Q 831 666 1001 516 
Q 1172 366 1500 366 
Q 1825 366 2078 508 
Q 2331 650 2450 897 
Q 2541 1088 2541 1459 
L 2541 1666 
z
" transform="scale(0.015625)"/>
       <path id="ArialMT-69" d="M 425 3934 
L 425 4581 
L 988 4581 
L 988 3934 
L 425 3934 
z
M 425 0 
L 425 3319 
L 988 3319 
L 988 0 
L 425 0 
z
" transform="scale(0.015625)"/>
       <path id="ArialMT-6e" d="M 422 0 
L 422 3319 
L 928 3319 
L 928 2847 
Q 1294 3394 1984 3394 
Q 2284 3394 2536 3286 
Q 2788 3178 2913 3003 
Q 3038 2828 3088 2588 
Q 3119 2431 3119 2041 
L 3119 0 
L 2556 0 
L 2556 2019 
Q 2556 2363 2490 2533 
Q 2425 2703 2258 2804 
Q 2091 2906 1866 2906 
Q 1506 2906 1245 2678 
Q 984 2450 984 1813 
L 984 0 
L 422 0 
z
" transform="scale(0.015625)"/>
       <path id="ArialMT-67" d="M 319 -275 
L 866 -356 
Q 900 -609 1056 -725 
Q 1266 -881 1628 -881 
Q 2019 -881 2231 -725 
Q 2444 -569 2519 -288 
Q 2563 -116 2559 434 
Q 2191 0 1641 0 
Q 956 0 581 494 
Q 206 988 206 1678 
Q 206 2153 378 2554 
Q 550 2956 876 3175 
Q 1203 3394 1644 3394 
Q 2231 3394 2613 2919 
L 2613 3319 
L 3131 3319 
L 3131 450 
Q 3131 -325 2973 -648 
Q 2816 -972 2473 -1159 
Q 2131 -1347 1631 -1347 
Q 1038 -1347 672 -1080 
Q 306 -813 319 -275 
z
M 784 1719 
Q 784 1066 1043 766 
Q 1303 466 1694 466 
Q 2081 466 2343 764 
Q 2606 1063 2606 1700 
Q 2606 2309 2336 2618 
Q 2066 2928 1684 2928 
Q 1309 2928 1046 2623 
Q 784 2319 784 1719 
z
" transform="scale(0.015625)"/>
       <path id="ArialMT-20" transform="scale(0.015625)"/>
       <path id="ArialMT-53" d="M 288 1472 
L 859 1522 
Q 900 1178 1048 958 
Q 1197 738 1509 602 
Q 1822 466 2213 466 
Q 2559 466 2825 569 
Q 3091 672 3220 851 
Q 3350 1031 3350 1244 
Q 3350 1459 3225 1620 
Q 3100 1781 2813 1891 
Q 2628 1963 1997 2114 
Q 1366 2266 1113 2400 
Q 784 2572 623 2826 
Q 463 3081 463 3397 
Q 463 3744 659 4045 
Q 856 4347 1234 4503 
Q 1613 4659 2075 4659 
Q 2584 4659 2973 4495 
Q 3363 4331 3572 4012 
Q 3781 3694 3797 3291 
L 3216 3247 
Q 3169 3681 2898 3903 
Q 2628 4125 2100 4125 
Q 1550 4125 1298 3923 
Q 1047 3722 1047 3438 
Q 1047 3191 1225 3031 
Q 1400 2872 2139 2705 
Q 2878 2538 3153 2413 
Q 3553 2228 3743 1945 
Q 3934 1663 3934 1294 
Q 3934 928 3725 604 
Q 3516 281 3123 101 
Q 2731 -78 2241 -78 
Q 1619 -78 1198 103 
Q 778 284 539 648 
Q 300 1013 288 1472 
z
" transform="scale(0.015625)"/>
       <path id="ArialMT-74" d="M 1650 503 
L 1731 6 
Q 1494 -44 1306 -44 
Q 1000 -44 831 53 
Q 663 150 594 308 
Q 525 466 525 972 
L 525 2881 
L 113 2881 
L 113 3319 
L 525 3319 
L 525 4141 
L 1084 4478 
L 1084 3319 
L 1650 3319 
L 1650 2881 
L 1084 2881 
L 1084 941 
Q 1084 700 1114 631 
Q 1144 563 1211 522 
Q 1278 481 1403 481 
Q 1497 481 1650 503 
z
" transform="scale(0.015625)"/>
       <path id="ArialMT-65" d="M 2694 1069 
L 3275 997 
Q 3138 488 2766 206 
Q 2394 -75 1816 -75 
Q 1088 -75 661 373 
Q 234 822 234 1631 
Q 234 2469 665 2931 
Q 1097 3394 1784 3394 
Q 2450 3394 2872 2941 
Q 3294 2488 3294 1666 
Q 3294 1616 3291 1516 
L 816 1516 
Q 847 969 1125 678 
Q 1403 388 1819 388 
Q 2128 388 2347 550 
Q 2566 713 2694 1069 
z
M 847 1978 
L 2700 1978 
Q 2663 2397 2488 2606 
Q 2219 2931 1791 2931 
Q 1403 2931 1139 2672 
Q 875 2413 847 1978 
z
" transform="scale(0.015625)"/>
       <path id="ArialMT-70" d="M 422 -1272 
L 422 3319 
L 934 3319 
L 934 2888 
Q 1116 3141 1344 3267 
Q 1572 3394 1897 3394 
Q 2322 3394 2647 3175 
Q 2972 2956 3137 2557 
Q 3303 2159 3303 1684 
Q 3303 1175 3120 767 
Q 2938 359 2589 142 
Q 2241 -75 1856 -75 
Q 1575 -75 1351 44 
Q 1128 163 984 344 
L 984 -1272 
L 422 -1272 
z
M 931 1641 
Q 931 1000 1190 694 
Q 1450 388 1819 388 
Q 2194 388 2461 705 
Q 2728 1022 2728 1688 
Q 2728 2322 2467 2637 
Q 2206 2953 1844 2953 
Q 1484 2953 1207 2617 
Q 931 2281 931 1641 
z
" transform="scale(0.015625)"/>
      </defs>
      <use xlink:href="#ArialMT-54"/>
      <use xlink:href="#ArialMT-72" transform="translate(57.333984 0)"/>
      <use xlink:href="#ArialMT-61" transform="translate(90.634766 0)"/>
      <use xlink:href="#ArialMT-69" transform="translate(146.25 0)"/>
      <use xlink:href="#ArialMT-6e" transform="translate(168.466797 0)"/>
      <use xlink:href="#ArialMT-69" transform="translate(224.082031 0)"/>
      <use xlink:href="#ArialMT-6e" transform="translate(246.298828 0)"/>
      <use xlink:href="#ArialMT-67" transform="translate(301.914062 0)"/>
      <use xlink:href="#ArialMT-20" transform="translate(357.529297 0)"/>
      <use xlink:href="#ArialMT-53" transform="translate(385.3125 0)"/>
      <use xlink:href="#ArialMT-74" transform="translate(452.011719 0)"/>
      <use xlink:href="#ArialMT-65" transform="translate(479.794922 0)"/>
      <use xlink:href="#ArialMT-70" transform="translate(535.410156 0)"/>
     </g>
    </g>
   </g>
   <g id="matplotlib.axis_2">
    <g id="ytick_1">
     <g id="line2d_17">
      <path d="M 73.473125 437.209282 
L 743.073125 437.209282 
" clip-path="url(#p4c22c9cba4)" style="fill: none; stroke: #cccccc; stroke-width: 0.8; stroke-linecap: round"/>
     </g>
     <g id="line2d_18"/>
     <g id="text_10">
      <!-- −0.60 -->
      <g style="fill: #262626" transform="translate(29.490625 442.935532) scale(0.16 -0.16)">
       <defs>
        <path id="ArialMT-2212" d="M 3381 1997 
L 356 1997 
L 356 2522 
L 3381 2522 
L 3381 1997 
z
" transform="scale(0.015625)"/>
        <path id="ArialMT-2e" d="M 581 0 
L 581 641 
L 1222 641 
L 1222 0 
L 581 0 
z
" transform="scale(0.015625)"/>
       </defs>
       <use xlink:href="#ArialMT-2212"/>
       <use xlink:href="#ArialMT-30" transform="translate(58.398438 0)"/>
       <use xlink:href="#ArialMT-2e" transform="translate(114.013672 0)"/>
       <use xlink:href="#ArialMT-36" transform="translate(141.796875 0)"/>
       <use xlink:href="#ArialMT-30" transform="translate(197.412109 0)"/>
      </g>
     </g>
    </g>
    <g id="ytick_2">
     <g id="line2d_19">
      <path d="M 73.473125 379.438813 
L 743.073125 379.438813 
" clip-path="url(#p4c22c9cba4)" style="fill: none; stroke: #cccccc; stroke-width: 0.8; stroke-linecap: round"/>
     </g>
     <g id="line2d_20"/>
     <g id="text_11">
      <!-- −0.55 -->
      <g style="fill: #262626" transform="translate(29.490625 385.165063) scale(0.16 -0.16)">
       <use xlink:href="#ArialMT-2212"/>
       <use xlink:href="#ArialMT-30" transform="translate(58.398438 0)"/>
       <use xlink:href="#ArialMT-2e" transform="translate(114.013672 0)"/>
       <use xlink:href="#ArialMT-35" transform="translate(141.796875 0)"/>
       <use xlink:href="#ArialMT-35" transform="translate(197.412109 0)"/>
      </g>
     </g>
    </g>
    <g id="ytick_3">
     <g id="line2d_21">
      <path d="M 73.473125 321.668345 
L 743.073125 321.668345 
" clip-path="url(#p4c22c9cba4)" style="fill: none; stroke: #cccccc; stroke-width: 0.8; stroke-linecap: round"/>
     </g>
     <g id="line2d_22"/>
     <g id="text_12">
      <!-- −0.50 -->
      <g style="fill: #262626" transform="translate(29.490625 327.394595) scale(0.16 -0.16)">
       <use xlink:href="#ArialMT-2212"/>
       <use xlink:href="#ArialMT-30" transform="translate(58.398438 0)"/>
       <use xlink:href="#ArialMT-2e" transform="translate(114.013672 0)"/>
       <use xlink:href="#ArialMT-35" transform="translate(141.796875 0)"/>
       <use xlink:href="#ArialMT-30" transform="translate(197.412109 0)"/>
      </g>
     </g>
    </g>
    <g id="ytick_4">
     <g id="line2d_23">
      <path d="M 73.473125 263.897877 
L 743.073125 263.897877 
" clip-path="url(#p4c22c9cba4)" style="fill: none; stroke: #cccccc; stroke-width: 0.8; stroke-linecap: round"/>
     </g>
     <g id="line2d_24"/>
     <g id="text_13">
      <!-- −0.45 -->
      <g style="fill: #262626" transform="translate(29.490625 269.624127) scale(0.16 -0.16)">
       <use xlink:href="#ArialMT-2212"/>
       <use xlink:href="#ArialMT-30" transform="translate(58.398438 0)"/>
       <use xlink:href="#ArialMT-2e" transform="translate(114.013672 0)"/>
       <use xlink:href="#ArialMT-34" transform="translate(141.796875 0)"/>
       <use xlink:href="#ArialMT-35" transform="translate(197.412109 0)"/>
      </g>
     </g>
    </g>
    <g id="ytick_5">
     <g id="line2d_25">
      <path d="M 73.473125 206.127408 
L 743.073125 206.127408 
" clip-path="url(#p4c22c9cba4)" style="fill: none; stroke: #cccccc; stroke-width: 0.8; stroke-linecap: round"/>
     </g>
     <g id="line2d_26"/>
     <g id="text_14">
      <!-- −0.40 -->
      <g style="fill: #262626" transform="translate(29.490625 211.853658) scale(0.16 -0.16)">
       <use xlink:href="#ArialMT-2212"/>
       <use xlink:href="#ArialMT-30" transform="translate(58.398438 0)"/>
       <use xlink:href="#ArialMT-2e" transform="translate(114.013672 0)"/>
       <use xlink:href="#ArialMT-34" transform="translate(141.796875 0)"/>
       <use xlink:href="#ArialMT-30" transform="translate(197.412109 0)"/>
      </g>
     </g>
    </g>
    <g id="ytick_6">
     <g id="line2d_27">
      <path d="M 73.473125 148.35694 
L 743.073125 148.35694 
" clip-path="url(#p4c22c9cba4)" style="fill: none; stroke: #cccccc; stroke-width: 0.8; stroke-linecap: round"/>
     </g>
     <g id="line2d_28"/>
     <g id="text_15">
      <!-- −0.35 -->
      <g style="fill: #262626" transform="translate(29.490625 154.08319) scale(0.16 -0.16)">
       <use xlink:href="#ArialMT-2212"/>
       <use xlink:href="#ArialMT-30" transform="translate(58.398438 0)"/>
       <use xlink:href="#ArialMT-2e" transform="translate(114.013672 0)"/>
       <use xlink:href="#ArialMT-33" transform="translate(141.796875 0)"/>
       <use xlink:href="#ArialMT-35" transform="translate(197.412109 0)"/>
      </g>
     </g>
    </g>
    <g id="ytick_7">
     <g id="line2d_29">
      <path d="M 73.473125 90.586471 
L 743.073125 90.586471 
" clip-path="url(#p4c22c9cba4)" style="fill: none; stroke: #cccccc; stroke-width: 0.8; stroke-linecap: round"/>
     </g>
     <g id="line2d_30"/>
     <g id="text_16">
      <!-- −0.30 -->
      <g style="fill: #262626" transform="translate(29.490625 96.312721) scale(0.16 -0.16)">
       <use xlink:href="#ArialMT-2212"/>
       <use xlink:href="#ArialMT-30" transform="translate(58.398438 0)"/>
       <use xlink:href="#ArialMT-2e" transform="translate(114.013672 0)"/>
       <use xlink:href="#ArialMT-33" transform="translate(141.796875 0)"/>
       <use xlink:href="#ArialMT-30" transform="translate(197.412109 0)"/>
      </g>
     </g>
    </g>
    <g id="ytick_8">
     <g id="line2d_31">
      <path d="M 73.473125 32.816003 
L 743.073125 32.816003 
" clip-path="url(#p4c22c9cba4)" style="fill: none; stroke: #cccccc; stroke-width: 0.8; stroke-linecap: round"/>
     </g>
     <g id="line2d_32"/>
     <g id="text_17">
      <!-- −0.25 -->
      <g style="fill: #262626" transform="translate(29.490625 38.542253) scale(0.16 -0.16)">
       <use xlink:href="#ArialMT-2212"/>
       <use xlink:href="#ArialMT-30" transform="translate(58.398438 0)"/>
       <use xlink:href="#ArialMT-2e" transform="translate(114.013672 0)"/>
       <use xlink:href="#ArialMT-32" transform="translate(141.796875 0)"/>
       <use xlink:href="#ArialMT-35" transform="translate(197.412109 0)"/>
      </g>
     </g>
    </g>
    <g id="text_18">
     <!-- Learned Parameter Value -->
     <g style="fill: #262626" transform="translate(21.515625 367.210312) rotate(-90) scale(0.2 -0.2)">
      <defs>
       <path id="ArialMT-4c" d="M 469 0 
L 469 4581 
L 1075 4581 
L 1075 541 
L 3331 541 
L 3331 0 
L 469 0 
z
" transform="scale(0.015625)"/>
       <path id="ArialMT-64" d="M 2575 0 
L 2575 419 
Q 2259 -75 1647 -75 
Q 1250 -75 917 144 
Q 584 363 401 755 
Q 219 1147 219 1656 
Q 219 2153 384 2558 
Q 550 2963 881 3178 
Q 1213 3394 1622 3394 
Q 1922 3394 2156 3267 
Q 2391 3141 2538 2938 
L 2538 4581 
L 3097 4581 
L 3097 0 
L 2575 0 
z
M 797 1656 
Q 797 1019 1065 703 
Q 1334 388 1700 388 
Q 2069 388 2326 689 
Q 2584 991 2584 1609 
Q 2584 2291 2321 2609 
Q 2059 2928 1675 2928 
Q 1300 2928 1048 2622 
Q 797 2316 797 1656 
z
" transform="scale(0.015625)"/>
       <path id="ArialMT-50" d="M 494 0 
L 494 4581 
L 2222 4581 
Q 2678 4581 2919 4538 
Q 3256 4481 3484 4323 
Q 3713 4166 3852 3881 
Q 3991 3597 3991 3256 
Q 3991 2672 3619 2267 
Q 3247 1863 2275 1863 
L 1100 1863 
L 1100 0 
L 494 0 
z
M 1100 2403 
L 2284 2403 
Q 2872 2403 3119 2622 
Q 3366 2841 3366 3238 
Q 3366 3525 3220 3729 
Q 3075 3934 2838 4000 
Q 2684 4041 2272 4041 
L 1100 4041 
L 1100 2403 
z
" transform="scale(0.015625)"/>
       <path id="ArialMT-6d" d="M 422 0 
L 422 3319 
L 925 3319 
L 925 2853 
Q 1081 3097 1340 3245 
Q 1600 3394 1931 3394 
Q 2300 3394 2536 3241 
Q 2772 3088 2869 2813 
Q 3263 3394 3894 3394 
Q 4388 3394 4653 3120 
Q 4919 2847 4919 2278 
L 4919 0 
L 4359 0 
L 4359 2091 
Q 4359 2428 4304 2576 
Q 4250 2725 4106 2815 
Q 3963 2906 3769 2906 
Q 3419 2906 3187 2673 
Q 2956 2441 2956 1928 
L 2956 0 
L 2394 0 
L 2394 2156 
Q 2394 2531 2256 2718 
Q 2119 2906 1806 2906 
Q 1569 2906 1367 2781 
Q 1166 2656 1075 2415 
Q 984 2175 984 1722 
L 984 0 
L 422 0 
z
" transform="scale(0.015625)"/>
       <path id="ArialMT-56" d="M 1803 0 
L 28 4581 
L 684 4581 
L 1875 1253 
Q 2019 853 2116 503 
Q 2222 878 2363 1253 
L 3600 4581 
L 4219 4581 
L 2425 0 
L 1803 0 
z
" transform="scale(0.015625)"/>
       <path id="ArialMT-6c" d="M 409 0 
L 409 4581 
L 972 4581 
L 972 0 
L 409 0 
z
" transform="scale(0.015625)"/>
       <path id="ArialMT-75" d="M 2597 0 
L 2597 488 
Q 2209 -75 1544 -75 
Q 1250 -75 995 37 
Q 741 150 617 320 
Q 494 491 444 738 
Q 409 903 409 1263 
L 409 3319 
L 972 3319 
L 972 1478 
Q 972 1038 1006 884 
Q 1059 663 1231 536 
Q 1403 409 1656 409 
Q 1909 409 2131 539 
Q 2353 669 2445 892 
Q 2538 1116 2538 1541 
L 2538 3319 
L 3100 3319 
L 3100 0 
L 2597 0 
z
" transform="scale(0.015625)"/>
      </defs>
      <use xlink:href="#ArialMT-4c"/>
      <use xlink:href="#ArialMT-65" transform="translate(55.615234 0)"/>
      <use xlink:href="#ArialMT-61" transform="translate(111.230469 0)"/>
      <use xlink:href="#ArialMT-72" transform="translate(166.845703 0)"/>
      <use xlink:href="#ArialMT-6e" transform="translate(200.146484 0)"/>
      <use xlink:href="#ArialMT-65" transform="translate(255.761719 0)"/>
      <use xlink:href="#ArialMT-64" transform="translate(311.376953 0)"/>
      <use xlink:href="#ArialMT-20" transform="translate(366.992188 0)"/>
      <use xlink:href="#ArialMT-50" transform="translate(394.775391 0)"/>
      <use xlink:href="#ArialMT-61" transform="translate(461.474609 0)"/>
      <use xlink:href="#ArialMT-72" transform="translate(517.089844 0)"/>
      <use xlink:href="#ArialMT-61" transform="translate(550.390625 0)"/>
      <use xlink:href="#ArialMT-6d" transform="translate(606.005859 0)"/>
      <use xlink:href="#ArialMT-65" transform="translate(689.306641 0)"/>
      <use xlink:href="#ArialMT-74" transform="translate(744.921875 0)"/>
      <use xlink:href="#ArialMT-65" transform="translate(772.705078 0)"/>
      <use xlink:href="#ArialMT-72" transform="translate(828.320312 0)"/>
      <use xlink:href="#ArialMT-20" transform="translate(861.621094 0)"/>
      <use xlink:href="#ArialMT-56" transform="translate(889.404297 0)"/>
      <use xlink:href="#ArialMT-61" transform="translate(948.728516 0)"/>
      <use xlink:href="#ArialMT-6c" transform="translate(1004.34375 0)"/>
      <use xlink:href="#ArialMT-75" transform="translate(1026.560547 0)"/>
      <use xlink:href="#ArialMT-65" transform="translate(1082.175781 0)"/>
     </g>
    </g>
   </g>
   <g id="line2d_33">
    <path d="M 74.349163 437.209309 
L 75.225202 437.209309 
L 76.10124 436.923508 
L 76.977279 436.35101 
L 77.853317 435.498358 
L 78.729356 434.381737 
L 79.605394 432.915129 
L 80.481433 431.019475 
L 81.357471 428.733409 
L 82.23351 426.813031 
L 83.109548 425.295048 
L 83.985587 424.079463 
L 84.861625 423.189967 
L 85.737663 422.615128 
L 86.613702 422.284218 
L 87.48974 422.140216 
L 88.365779 422.122173 
L 90.117856 422.380564 
L 91.869933 422.911673 
L 95.374087 424.339577 
L 98.002202 425.417495 
L 100.630317 426.210714 
L 103.258433 426.654636 
L 105.886548 426.817301 
L 108.514664 426.737001 
L 114.646933 426.213055 
L 118.151087 425.822575 
L 120.779202 425.283892 
L 124.283356 424.320018 
L 127.78751 423.052025 
L 131.291664 421.483286 
L 134.795817 419.615661 
L 139.17601 417.11404 
L 145.308279 413.150631 
L 152.316587 408.307505 
L 157.572818 404.404081 
L 170.713395 393.894791 
L 179.473779 386.249642 
L 185.606048 380.704961 
L 191.738318 374.881503 
L 213.639279 353.283401 
L 226.779856 339.910452 
L 232.912125 333.624615 
L 237.292318 329.177824 
L 249.556856 316.45323 
L 254.813087 311.074348 
L 262.697433 302.995195 
L 284.598395 281.213492 
L 290.730664 275.197582 
L 294.234818 271.743451 
L 297.738972 269.178368 
L 302.995203 265.017584 
L 307.375395 261.168909 
L 321.39201 248.124838 
L 332.78051 237.444446 
L 338.91278 232.290451 
L 347.673164 225.053689 
L 358.185626 216.432615 
L 363.441857 212.38505 
L 372.202241 205.922499 
L 375.706395 203.229838 
L 380.962626 199.223904 
L 420.384357 171.316241 
L 428.268703 165.988424 
L 432.648895 163.169287 
L 438.781165 159.484552 
L 444.913434 155.994747 
L 458.054011 148.242785 
L 461.558165 146.354913 
L 474.698742 139.705764 
L 484.335165 135.172475 
L 500.103857 128.446401 
L 525.508972 119.183136 
L 534.269357 116.391271 
L 541.277665 114.40509 
L 560.550511 109.480425 
L 571.062973 107.17549 
L 582.451473 104.915181 
L 591.211857 103.351883 
L 599.972242 102.058099 
L 608.732627 100.934039 
L 620.997165 99.553344 
L 629.75755 98.811259 
L 643.774165 97.907576 
L 656.038704 97.358253 
L 671.807396 96.906824 
L 687.576088 96.691681 
L 711.229127 96.629012 
L 711.229127 96.629012 
" clip-path="url(#p4c22c9cba4)" style="fill: none; stroke: #d62728; stroke-width: 3.5; stroke-linecap: round"/>
   </g>
   <g id="line2d_34">
    <path d="M 74.349163 437.209309 
L 75.225202 437.209309 
L 76.10124 436.763459 
L 76.977279 435.997925 
L 77.853317 434.905407 
L 78.729356 433.550847 
L 79.605394 431.858904 
L 82.23351 425.782219 
L 83.109548 424.280764 
L 83.985587 423.010704 
L 84.861625 421.94408 
L 86.613702 420.34931 
L 88.365779 419.26664 
L 90.993894 418.088174 
L 93.62201 417.162867 
L 95.374087 416.721425 
L 97.126164 416.520675 
L 98.87824 416.599804 
L 102.382394 417.134769 
L 105.01051 417.287104 
L 108.514664 417.24785 
L 112.894856 416.955575 
L 119.027125 416.221996 
L 122.531279 415.620642 
L 125.159394 415.003174 
L 130.415625 413.407301 
L 133.043741 412.460025 
L 136.547894 410.946863 
L 140.928087 408.780489 
L 146.184318 405.928606 
L 152.316587 402.284537 
L 160.200933 397.157195 
L 164.581125 394.073365 
L 168.961318 390.731694 
L 175.969625 385.000794 
L 182.977933 378.87356 
L 189.986241 372.52774 
L 208.383048 355.105298 
L 228.531933 334.882898 
L 265.325549 296.876087 
L 281.970279 279.207442 
L 310.879549 248.883932 
L 316.13578 243.229614 
L 328.400318 230.608631 
L 366.94601 192.146329 
L 377.458472 182.205543 
L 387.970934 172.545668 
L 394.979241 166.293129 
L 405.491703 157.113228 
L 419.508318 145.174416 
L 424.764549 140.821663 
L 431.772857 135.372329 
L 444.913434 125.67654 
L 452.79778 120.191876 
L 455.425895 118.542631 
L 470.318549 109.271894 
L 484.335165 100.732532 
L 493.971588 95.307095 
L 504.484049 89.716203 
L 510.616319 86.706751 
L 519.376703 82.731497 
L 529.889165 78.30874 
L 536.897472 75.652476 
L 546.533896 72.341452 
L 557.046357 68.991276 
L 566.68278 66.203027 
L 574.567126 64.084207 
L 584.20355 61.738123 
L 592.087896 60.09907 
L 601.724319 58.374277 
L 611.360742 56.857086 
L 620.997165 55.558859 
L 630.633588 54.518371 
L 641.14605 53.634487 
L 652.53455 52.918504 
L 663.92305 52.413324 
L 677.063627 52.064061 
L 692.832319 51.879565 
L 711.229127 51.84 
L 711.229127 51.84 
" clip-path="url(#p4c22c9cba4)" style="fill: none; stroke: #ffbf00; stroke-width: 3.5; stroke-linecap: round"/>
   </g>
   <g id="line2d_35">
    <path d="M 74.349163 437.209309 
L 75.225202 437.209309 
L 76.10124 436.925299 
L 76.977279 436.364853 
L 77.853317 435.514129 
L 78.729356 434.40343 
L 80.481433 431.713317 
L 81.357471 430.704473 
L 82.23351 430.02647 
L 83.985587 429.090626 
L 84.861625 429.068451 
L 85.737663 429.329597 
L 87.48974 430.182456 
L 92.745971 433.458426 
L 95.374087 435.495948 
L 98.002202 437.261442 
L 100.630317 438.821848 
L 103.258433 440.183708 
L 107.638625 442.346638 
L 113.770894 445.81351 
L 117.275048 447.386656 
L 120.779202 448.786945 
L 123.407317 449.556335 
L 126.911471 450.245151 
L 129.539587 450.482194 
L 133.919779 450.587424 
L 136.547894 450.44955 
L 139.17601 450.12353 
L 143.556202 449.314954 
L 147.060356 448.504449 
L 150.56451 447.447053 
L 156.696779 445.168839 
L 164.581125 441.854302 
L 168.961318 439.69881 
L 178.597741 434.758788 
L 182.977933 432.4418 
L 187.358125 429.863322 
L 195.242472 425.040237 
L 202.250779 420.824704 
L 208.383048 416.927546 
L 240.796472 396.209367 
L 261.821395 382.939513 
L 264.44951 381.334757 
L 274.961972 375.05808 
L 289.854626 366.022422 
L 300.367087 359.652292 
L 306.499356 355.971585 
L 317.887856 349.333835 
L 336.284664 338.160797 
L 343.292972 334.090024 
L 353.805433 327.638009 
L 360.813741 323.651323 
L 371.326203 317.476605 
L 380.962626 312.050273 
L 393.227164 305.378708 
L 402.863587 300.405388 
L 414.252088 294.309214 
L 430.02078 286.828625 
L 437.905126 283.083871 
L 447.541549 278.884212 
L 458.930049 274.011852 
L 491.343472 261.775771 
L 500.103857 258.942689 
L 507.988203 256.50422 
L 517.624626 253.588703 
L 535.145396 248.761899 
L 543.90578 246.654752 
L 557.922396 243.586073 
L 566.68278 241.985035 
L 579.823357 239.791184 
L 588.583742 238.544333 
L 599.972242 237.104997 
L 610.484703 236.076284 
L 621.873203 235.141714 
L 635.01378 234.284655 
L 647.278319 233.677207 
L 661.294934 233.208803 
L 677.063627 232.921211 
L 698.08855 232.783028 
L 711.229127 232.772732 
L 711.229127 232.772732 
" clip-path="url(#p4c22c9cba4)" style="fill: none; stroke: #2ca02c; stroke-width: 3.5; stroke-linecap: round"/>
   </g>
   <g id="line2d_36">
    <path d="M 74.349163 437.209309 
L 75.225202 437.209309 
L 76.10124 436.916346 
L 76.977279 436.311687 
L 77.853317 435.414546 
L 80.481433 431.981144 
L 82.23351 430.290096 
L 83.109548 429.629861 
L 83.985587 429.110253 
L 85.737663 428.465031 
L 86.613702 428.324335 
L 87.48974 428.319927 
L 88.365779 428.494576 
L 89.241817 428.820733 
L 90.993894 429.883707 
L 93.62201 431.974051 
L 101.506356 439.25661 
L 105.01051 442.444017 
L 108.514664 445.249345 
L 111.142779 447.112563 
L 113.770894 448.724137 
L 116.39901 450.084 
L 119.903164 451.552399 
L 125.159394 453.375191 
L 127.78751 454.069653 
L 130.415625 454.550281 
L 133.919779 454.889799 
L 136.547894 455.030703 
L 141.804125 454.994616 
L 145.308279 454.856123 
L 149.688471 454.377423 
L 154.944702 453.552181 
L 159.324894 452.607935 
L 168.961318 450.142676 
L 178.597741 447.209529 
L 184.73001 444.998804 
L 189.110202 443.218504 
L 217.143433 430.635606 
L 224.151741 426.90311 
L 230.28401 423.547598 
L 267.953664 402.864679 
L 291.606703 389.403924 
L 298.61501 385.109605 
L 310.879549 377.783453 
L 317.011818 374.247644 
L 324.896164 369.619041 
L 341.540895 359.560147 
L 350.30128 354.217868 
L 364.317895 345.957455 
L 370.450164 342.557247 
L 380.086587 337.189486 
L 401.111511 325.711296 
L 409.871895 321.243706 
L 420.384357 316.08131 
L 426.516626 313.326599 
L 440.533241 307.143238 
L 448.417588 303.896433 
L 463.310242 298.214739 
L 482.583088 291.181687 
L 492.219511 287.894594 
L 505.360088 283.890244 
L 513.244434 281.712645 
L 522.880857 279.335468 
L 533.393319 276.930743 
L 543.90578 274.787922 
L 553.542203 273.047841 
L 562.302588 271.587775 
L 574.567126 269.785781 
L 585.955626 268.374887 
L 599.972242 266.853288 
L 613.988857 265.643316 
L 624.501319 264.917312 
L 637.641896 264.208112 
L 652.53455 263.654278 
L 666.551165 263.325055 
L 684.071934 263.128093 
L 710.353088 263.062221 
L 711.229127 263.062152 
L 711.229127 263.062152 
" clip-path="url(#p4c22c9cba4)" style="fill: none; stroke: #1f77b4; stroke-width: 3.5; stroke-linecap: round"/>
   </g>
   <g id="patch_3">
    <path d="M 73.473125 475.2 
L 73.473125 31.68 
" style="fill: none; stroke: #cccccc; stroke-linejoin: miter; stroke-linecap: square"/>
   </g>
   <g id="patch_4">
    <path d="M 743.073125 475.2 
L 743.073125 31.68 
" style="fill: none; stroke: #cccccc; stroke-linejoin: miter; stroke-linecap: square"/>
   </g>
   <g id="patch_5">
    <path d="M 73.473125 475.2 
L 743.073125 475.2 
" style="fill: none; stroke: #cccccc; stroke-linejoin: miter; stroke-linecap: square"/>
   </g>
   <g id="patch_6">
    <path d="M 73.473125 31.68 
L 743.073125 31.68 
" style="fill: none; stroke: #cccccc; stroke-linejoin: miter; stroke-linecap: square"/>
   </g>
   <g id="text_19">
    <!-- Evolution of Gating Temperature ($\beta_{CU}$) -->
    <g style="fill: #262626" transform="translate(190.233125 25.68) scale(0.24 -0.24)">
     <defs>
      <path id="Arial-BoldMT-45" d="M 466 0 
L 466 4581 
L 3863 4581 
L 3863 3806 
L 1391 3806 
L 1391 2791 
L 3691 2791 
L 3691 2019 
L 1391 2019 
L 1391 772 
L 3950 772 
L 3950 0 
L 466 0 
z
" transform="scale(0.015625)"/>
      <path id="Arial-BoldMT-76" d="M 1372 0 
L 34 3319 
L 956 3319 
L 1581 1625 
L 1763 1059 
Q 1834 1275 1853 1344 
Q 1897 1484 1947 1625 
L 2578 3319 
L 3481 3319 
L 2163 0 
L 1372 0 
z
" transform="scale(0.015625)"/>
      <path id="Arial-BoldMT-6f" d="M 256 1706 
Q 256 2144 472 2553 
Q 688 2963 1083 3178 
Q 1478 3394 1966 3394 
Q 2719 3394 3200 2905 
Q 3681 2416 3681 1669 
Q 3681 916 3195 420 
Q 2709 -75 1972 -75 
Q 1516 -75 1102 131 
Q 688 338 472 736 
Q 256 1134 256 1706 
z
M 1156 1659 
Q 1156 1166 1390 903 
Q 1625 641 1969 641 
Q 2313 641 2545 903 
Q 2778 1166 2778 1666 
Q 2778 2153 2545 2415 
Q 2313 2678 1969 2678 
Q 1625 2678 1390 2415 
Q 1156 2153 1156 1659 
z
" transform="scale(0.015625)"/>
      <path id="Arial-BoldMT-6c" d="M 459 0 
L 459 4581 
L 1338 4581 
L 1338 0 
L 459 0 
z
" transform="scale(0.015625)"/>
      <path id="Arial-BoldMT-75" d="M 2644 0 
L 2644 497 
Q 2463 231 2167 78 
Q 1872 -75 1544 -75 
Q 1209 -75 943 72 
Q 678 219 559 484 
Q 441 750 441 1219 
L 441 3319 
L 1319 3319 
L 1319 1794 
Q 1319 1094 1367 936 
Q 1416 778 1544 686 
Q 1672 594 1869 594 
Q 2094 594 2272 717 
Q 2450 841 2515 1023 
Q 2581 1206 2581 1919 
L 2581 3319 
L 3459 3319 
L 3459 0 
L 2644 0 
z
" transform="scale(0.015625)"/>
      <path id="Arial-BoldMT-74" d="M 1981 3319 
L 1981 2619 
L 1381 2619 
L 1381 1281 
Q 1381 875 1398 808 
Q 1416 741 1477 697 
Q 1538 653 1625 653 
Q 1747 653 1978 738 
L 2053 56 
Q 1747 -75 1359 -75 
Q 1122 -75 931 4 
Q 741 84 652 211 
Q 563 338 528 553 
Q 500 706 500 1172 
L 500 2619 
L 97 2619 
L 97 3319 
L 500 3319 
L 500 3978 
L 1381 4491 
L 1381 3319 
L 1981 3319 
z
" transform="scale(0.015625)"/>
      <path id="Arial-BoldMT-69" d="M 459 3769 
L 459 4581 
L 1338 4581 
L 1338 3769 
L 459 3769 
z
M 459 0 
L 459 3319 
L 1338 3319 
L 1338 0 
L 459 0 
z
" transform="scale(0.015625)"/>
      <path id="Arial-BoldMT-6e" d="M 3478 0 
L 2600 0 
L 2600 1694 
Q 2600 2231 2544 2389 
Q 2488 2547 2361 2634 
Q 2234 2722 2056 2722 
Q 1828 2722 1647 2597 
Q 1466 2472 1398 2265 
Q 1331 2059 1331 1503 
L 1331 0 
L 453 0 
L 453 3319 
L 1269 3319 
L 1269 2831 
Q 1703 3394 2363 3394 
Q 2653 3394 2893 3289 
Q 3134 3184 3257 3021 
Q 3381 2859 3429 2653 
Q 3478 2447 3478 2063 
L 3478 0 
z
" transform="scale(0.015625)"/>
      <path id="Arial-BoldMT-20" transform="scale(0.015625)"/>
      <path id="Arial-BoldMT-66" d="M 75 3319 
L 563 3319 
L 563 3569 
Q 563 3988 652 4194 
Q 741 4400 980 4529 
Q 1219 4659 1584 4659 
Q 1959 4659 2319 4547 
L 2200 3934 
Q 1991 3984 1797 3984 
Q 1606 3984 1523 3895 
Q 1441 3806 1441 3553 
L 1441 3319 
L 2097 3319 
L 2097 2628 
L 1441 2628 
L 1441 0 
L 563 0 
L 563 2628 
L 75 2628 
L 75 3319 
z
" transform="scale(0.015625)"/>
      <path id="Arial-BoldMT-47" d="M 2597 1684 
L 2597 2456 
L 4591 2456 
L 4591 631 
Q 4300 350 3748 136 
Q 3197 -78 2631 -78 
Q 1913 -78 1378 223 
Q 844 525 575 1086 
Q 306 1647 306 2306 
Q 306 3022 606 3578 
Q 906 4134 1484 4431 
Q 1925 4659 2581 4659 
Q 3434 4659 3914 4301 
Q 4394 3944 4531 3313 
L 3613 3141 
Q 3516 3478 3248 3673 
Q 2981 3869 2581 3869 
Q 1975 3869 1617 3484 
Q 1259 3100 1259 2344 
Q 1259 1528 1621 1120 
Q 1984 713 2572 713 
Q 2863 713 3155 827 
Q 3447 941 3656 1103 
L 3656 1684 
L 2597 1684 
z
" transform="scale(0.015625)"/>
      <path id="Arial-BoldMT-61" d="M 1116 2306 
L 319 2450 
Q 453 2931 781 3162 
Q 1109 3394 1756 3394 
Q 2344 3394 2631 3255 
Q 2919 3116 3036 2902 
Q 3153 2688 3153 2116 
L 3144 1091 
Q 3144 653 3186 445 
Q 3228 238 3344 0 
L 2475 0 
Q 2441 88 2391 259 
Q 2369 338 2359 363 
Q 2134 144 1878 34 
Q 1622 -75 1331 -75 
Q 819 -75 523 203 
Q 228 481 228 906 
Q 228 1188 362 1408 
Q 497 1628 739 1745 
Q 981 1863 1438 1950 
Q 2053 2066 2291 2166 
L 2291 2253 
Q 2291 2506 2166 2614 
Q 2041 2722 1694 2722 
Q 1459 2722 1328 2630 
Q 1197 2538 1116 2306 
z
M 2291 1594 
Q 2122 1538 1756 1459 
Q 1391 1381 1278 1306 
Q 1106 1184 1106 997 
Q 1106 813 1243 678 
Q 1381 544 1594 544 
Q 1831 544 2047 700 
Q 2206 819 2256 991 
Q 2291 1103 2291 1419 
L 2291 1594 
z
" transform="scale(0.015625)"/>
      <path id="Arial-BoldMT-67" d="M 378 -219 
L 1381 -341 
Q 1406 -516 1497 -581 
Q 1622 -675 1891 -675 
Q 2234 -675 2406 -572 
Q 2522 -503 2581 -350 
Q 2622 -241 2622 53 
L 2622 538 
Q 2228 0 1628 0 
Q 959 0 569 566 
Q 263 1013 263 1678 
Q 263 2513 664 2953 
Q 1066 3394 1663 3394 
Q 2278 3394 2678 2853 
L 2678 3319 
L 3500 3319 
L 3500 341 
Q 3500 -247 3403 -537 
Q 3306 -828 3131 -993 
Q 2956 -1159 2664 -1253 
Q 2372 -1347 1925 -1347 
Q 1081 -1347 728 -1058 
Q 375 -769 375 -325 
Q 375 -281 378 -219 
z
M 1163 1728 
Q 1163 1200 1367 954 
Q 1572 709 1872 709 
Q 2194 709 2416 961 
Q 2638 1213 2638 1706 
Q 2638 2222 2425 2472 
Q 2213 2722 1888 2722 
Q 1572 2722 1367 2476 
Q 1163 2231 1163 1728 
z
" transform="scale(0.015625)"/>
      <path id="Arial-BoldMT-54" d="M 1497 0 
L 1497 3806 
L 138 3806 
L 138 4581 
L 3778 4581 
L 3778 3806 
L 2422 3806 
L 2422 0 
L 1497 0 
z
" transform="scale(0.015625)"/>
      <path id="Arial-BoldMT-65" d="M 2381 1056 
L 3256 909 
Q 3088 428 2723 176 
Q 2359 -75 1813 -75 
Q 947 -75 531 491 
Q 203 944 203 1634 
Q 203 2459 634 2926 
Q 1066 3394 1725 3394 
Q 2466 3394 2894 2905 
Q 3322 2416 3303 1406 
L 1103 1406 
Q 1113 1016 1316 798 
Q 1519 581 1822 581 
Q 2028 581 2168 693 
Q 2309 806 2381 1056 
z
M 2431 1944 
Q 2422 2325 2234 2523 
Q 2047 2722 1778 2722 
Q 1491 2722 1303 2513 
Q 1116 2303 1119 1944 
L 2431 1944 
z
" transform="scale(0.015625)"/>
      <path id="Arial-BoldMT-6d" d="M 394 3319 
L 1203 3319 
L 1203 2866 
Q 1638 3394 2238 3394 
Q 2556 3394 2790 3262 
Q 3025 3131 3175 2866 
Q 3394 3131 3647 3262 
Q 3900 3394 4188 3394 
Q 4553 3394 4806 3245 
Q 5059 3097 5184 2809 
Q 5275 2597 5275 2122 
L 5275 0 
L 4397 0 
L 4397 1897 
Q 4397 2391 4306 2534 
Q 4184 2722 3931 2722 
Q 3747 2722 3584 2609 
Q 3422 2497 3350 2280 
Q 3278 2063 3278 1594 
L 3278 0 
L 2400 0 
L 2400 1819 
Q 2400 2303 2353 2443 
Q 2306 2584 2207 2653 
Q 2109 2722 1941 2722 
Q 1738 2722 1575 2612 
Q 1413 2503 1342 2297 
Q 1272 2091 1272 1613 
L 1272 0 
L 394 0 
L 394 3319 
z
" transform="scale(0.015625)"/>
      <path id="Arial-BoldMT-70" d="M 434 3319 
L 1253 3319 
L 1253 2831 
Q 1413 3081 1684 3237 
Q 1956 3394 2288 3394 
Q 2866 3394 3269 2941 
Q 3672 2488 3672 1678 
Q 3672 847 3265 386 
Q 2859 -75 2281 -75 
Q 2006 -75 1782 34 
Q 1559 144 1313 409 
L 1313 -1263 
L 434 -1263 
L 434 3319 
z
M 1303 1716 
Q 1303 1156 1525 889 
Q 1747 622 2066 622 
Q 2372 622 2575 867 
Q 2778 1113 2778 1672 
Q 2778 2194 2568 2447 
Q 2359 2700 2050 2700 
Q 1728 2700 1515 2451 
Q 1303 2203 1303 1716 
z
" transform="scale(0.015625)"/>
      <path id="Arial-BoldMT-72" d="M 1300 0 
L 422 0 
L 422 3319 
L 1238 3319 
L 1238 2847 
Q 1447 3181 1614 3287 
Q 1781 3394 1994 3394 
Q 2294 3394 2572 3228 
L 2300 2463 
Q 2078 2606 1888 2606 
Q 1703 2606 1575 2504 
Q 1447 2403 1373 2137 
Q 1300 1872 1300 1025 
L 1300 0 
z
" transform="scale(0.015625)"/>
      <path id="Arial-BoldMT-28" d="M 1916 -1347 
L 1313 -1347 
Q 834 -625 584 153 
Q 334 931 334 1659 
Q 334 2563 644 3369 
Q 913 4069 1325 4659 
L 1925 4659 
Q 1497 3713 1336 3048 
Q 1175 2384 1175 1641 
Q 1175 1128 1270 590 
Q 1366 53 1531 -431 
Q 1641 -750 1916 -1347 
z
" transform="scale(0.015625)"/>
      <path id="DejaVuSans-Oblique-3b2" d="M 872 216 
L 572 -1331 
L -6 -1331 
L 928 3478 
Q 1206 4903 2538 4903 
Q 3888 4903 3659 3700 
Q 3503 2844 2894 2531 
Q 3713 2250 3553 1416 
Q 3272 -69 1759 -66 
Q 1097 -63 872 216 
z
M 1019 966 
Q 1259 422 1875 425 
Q 2775 425 2966 1406 
Q 3138 2288 1675 2219 
L 1778 2750 
Q 2909 2731 3106 3750 
Q 3241 4438 2509 4434 
Q 1691 4434 1503 3459 
L 1019 966 
z
" transform="scale(0.015625)"/>
      <path id="DejaVuSans-Oblique-43" d="M 4447 4306 
L 4319 3641 
Q 4019 3944 3683 4091 
Q 3347 4238 2956 4238 
Q 2422 4238 2017 3981 
Q 1613 3725 1319 3200 
Q 1131 2863 1032 2486 
Q 934 2109 934 1728 
Q 934 1091 1264 756 
Q 1594 422 2222 422 
Q 2656 422 3056 561 
Q 3456 700 3834 978 
L 3688 231 
Q 3316 72 2936 -9 
Q 2556 -91 2175 -91 
Q 1278 -91 773 396 
Q 269 884 269 1753 
Q 269 2309 461 2846 
Q 653 3384 1013 3828 
Q 1394 4300 1883 4525 
Q 2372 4750 3022 4750 
Q 3422 4750 3780 4639 
Q 4138 4528 4447 4306 
z
" transform="scale(0.015625)"/>
      <path id="DejaVuSans-Oblique-55" d="M 991 4666 
L 1625 4666 
L 1075 1831 
Q 1041 1641 1027 1517 
Q 1013 1394 1013 1300 
Q 1013 869 1253 645 
Q 1494 422 1959 422 
Q 2563 422 2898 753 
Q 3234 1084 3378 1831 
L 3928 4666 
L 4563 4666 
L 4000 1753 
Q 3816 809 3300 359 
Q 2784 -91 1888 -91 
Q 1188 -91 780 261 
Q 372 613 372 1216 
Q 372 1325 387 1461 
Q 403 1597 434 1753 
L 991 4666 
z
" transform="scale(0.015625)"/>
      <path id="Arial-BoldMT-29" d="M 216 -1347 
Q 475 -791 581 -494 
Q 688 -197 778 190 
Q 869 578 912 926 
Q 956 1275 956 1641 
Q 956 2384 797 3048 
Q 638 3713 209 4659 
L 806 4659 
Q 1278 3988 1539 3234 
Q 1800 2481 1800 1706 
Q 1800 1053 1594 306 
Q 1359 -531 822 -1347 
L 216 -1347 
z
" transform="scale(0.015625)"/>
     </defs>
     <use xlink:href="#Arial-BoldMT-45" transform="translate(0 0.390625)"/>
     <use xlink:href="#Arial-BoldMT-76" transform="translate(66.699219 0.390625)"/>
     <use xlink:href="#Arial-BoldMT-6f" transform="translate(122.314453 0.390625)"/>
     <use xlink:href="#Arial-BoldMT-6c" transform="translate(183.398438 0.390625)"/>
     <use xlink:href="#Arial-BoldMT-75" transform="translate(211.181641 0.390625)"/>
     <use xlink:href="#Arial-BoldMT-74" transform="translate(272.265625 0.390625)"/>
     <use xlink:href="#Arial-BoldMT-69" transform="translate(305.566406 0.390625)"/>
     <use xlink:href="#Arial-BoldMT-6f" transform="translate(333.349609 0.390625)"/>
     <use xlink:href="#Arial-BoldMT-6e" transform="translate(394.433594 0.390625)"/>
     <use xlink:href="#Arial-BoldMT-20" transform="translate(455.517578 0.390625)"/>
     <use xlink:href="#Arial-BoldMT-6f" transform="translate(483.300781 0.390625)"/>
     <use xlink:href="#Arial-BoldMT-66" transform="translate(544.384766 0.390625)"/>
     <use xlink:href="#Arial-BoldMT-20" transform="translate(577.685547 0.390625)"/>
     <use xlink:href="#Arial-BoldMT-47" transform="translate(605.46875 0.390625)"/>
     <use xlink:href="#Arial-BoldMT-61" transform="translate(683.251953 0.390625)"/>
     <use xlink:href="#Arial-BoldMT-74" transform="translate(738.867188 0.390625)"/>
     <use xlink:href="#Arial-BoldMT-69" transform="translate(772.167969 0.390625)"/>
     <use xlink:href="#Arial-BoldMT-6e" transform="translate(799.951172 0.390625)"/>
     <use xlink:href="#Arial-BoldMT-67" transform="translate(861.035156 0.390625)"/>
     <use xlink:href="#Arial-BoldMT-20" transform="translate(922.119141 0.390625)"/>
     <use xlink:href="#Arial-BoldMT-54" transform="translate(949.902344 0.390625)"/>
     <use xlink:href="#Arial-BoldMT-65" transform="translate(1010.986328 0.390625)"/>
     <use xlink:href="#Arial-BoldMT-6d" transform="translate(1066.601562 0.390625)"/>
     <use xlink:href="#Arial-BoldMT-70" transform="translate(1155.517578 0.390625)"/>
     <use xlink:href="#Arial-BoldMT-65" transform="translate(1216.601562 0.390625)"/>
     <use xlink:href="#Arial-BoldMT-72" transform="translate(1272.216797 0.390625)"/>
     <use xlink:href="#Arial-BoldMT-61" transform="translate(1311.132812 0.390625)"/>
     <use xlink:href="#Arial-BoldMT-74" transform="translate(1366.748047 0.390625)"/>
     <use xlink:href="#Arial-BoldMT-75" transform="translate(1400.048828 0.390625)"/>
     <use xlink:href="#Arial-BoldMT-72" transform="translate(1461.132812 0.390625)"/>
     <use xlink:href="#Arial-BoldMT-65" transform="translate(1500.048828 0.390625)"/>
     <use xlink:href="#Arial-BoldMT-20" transform="translate(1555.664062 0.390625)"/>
     <use xlink:href="#Arial-BoldMT-28" transform="translate(1583.447266 0.390625)"/>
     <use xlink:href="#DejaVuSans-Oblique-3b2" transform="translate(1616.748047 0.390625)"/>
     <use xlink:href="#DejaVuSans-Oblique-43" transform="translate(1680.566406 -16.015625) scale(0.7)"/>
     <use xlink:href="#DejaVuSans-Oblique-55" transform="translate(1729.443359 -16.015625) scale(0.7)"/>
     <use xlink:href="#Arial-BoldMT-29" transform="translate(1783.413086 0.390625)"/>
    </g>
   </g>
   <g id="legend_1">
    <g id="line2d_37">
     <path d="M 89.673125 54.464062 
L 107.673125 54.464062 
L 125.673125 54.464062 
" style="fill: none; stroke: #d62728; stroke-width: 3.5; stroke-linecap: round"/>
    </g>
    <g id="text_20">
     <!-- Prior Factor = 0.0625 -->
     <g style="fill: #262626" transform="translate(140.073125 60.764062) scale(0.18 -0.18)">
      <defs>
       <path id="ArialMT-6f" d="M 213 1659 
Q 213 2581 725 3025 
Q 1153 3394 1769 3394 
Q 2453 3394 2887 2945 
Q 3322 2497 3322 1706 
Q 3322 1066 3130 698 
Q 2938 331 2570 128 
Q 2203 -75 1769 -75 
Q 1072 -75 642 372 
Q 213 819 213 1659 
z
M 791 1659 
Q 791 1022 1069 705 
Q 1347 388 1769 388 
Q 2188 388 2466 706 
Q 2744 1025 2744 1678 
Q 2744 2294 2464 2611 
Q 2184 2928 1769 2928 
Q 1347 2928 1069 2612 
Q 791 2297 791 1659 
z
" transform="scale(0.015625)"/>
       <path id="ArialMT-46" d="M 525 0 
L 525 4581 
L 3616 4581 
L 3616 4041 
L 1131 4041 
L 1131 2622 
L 3281 2622 
L 3281 2081 
L 1131 2081 
L 1131 0 
L 525 0 
z
" transform="scale(0.015625)"/>
       <path id="ArialMT-63" d="M 2588 1216 
L 3141 1144 
Q 3050 572 2676 248 
Q 2303 -75 1759 -75 
Q 1078 -75 664 370 
Q 250 816 250 1647 
Q 250 2184 428 2587 
Q 606 2991 970 3192 
Q 1334 3394 1763 3394 
Q 2303 3394 2647 3120 
Q 2991 2847 3088 2344 
L 2541 2259 
Q 2463 2594 2264 2762 
Q 2066 2931 1784 2931 
Q 1359 2931 1093 2626 
Q 828 2322 828 1663 
Q 828 994 1084 691 
Q 1341 388 1753 388 
Q 2084 388 2306 591 
Q 2528 794 2588 1216 
z
" transform="scale(0.015625)"/>
       <path id="ArialMT-3d" d="M 3381 2694 
L 356 2694 
L 356 3219 
L 3381 3219 
L 3381 2694 
z
M 3381 1303 
L 356 1303 
L 356 1828 
L 3381 1828 
L 3381 1303 
z
" transform="scale(0.015625)"/>
      </defs>
      <use xlink:href="#ArialMT-50"/>
      <use xlink:href="#ArialMT-72" transform="translate(66.699219 0)"/>
      <use xlink:href="#ArialMT-69" transform="translate(100 0)"/>
      <use xlink:href="#ArialMT-6f" transform="translate(122.216797 0)"/>
      <use xlink:href="#ArialMT-72" transform="translate(177.832031 0)"/>
      <use xlink:href="#ArialMT-20" transform="translate(211.132812 0)"/>
      <use xlink:href="#ArialMT-46" transform="translate(238.916016 0)"/>
      <use xlink:href="#ArialMT-61" transform="translate(300 0)"/>
      <use xlink:href="#ArialMT-63" transform="translate(355.615234 0)"/>
      <use xlink:href="#ArialMT-74" transform="translate(405.615234 0)"/>
      <use xlink:href="#ArialMT-6f" transform="translate(433.398438 0)"/>
      <use xlink:href="#ArialMT-72" transform="translate(489.013672 0)"/>
      <use xlink:href="#ArialMT-20" transform="translate(522.314453 0)"/>
      <use xlink:href="#ArialMT-3d" transform="translate(550.097656 0)"/>
      <use xlink:href="#ArialMT-20" transform="translate(608.496094 0)"/>
      <use xlink:href="#ArialMT-30" transform="translate(636.279297 0)"/>
      <use xlink:href="#ArialMT-2e" transform="translate(691.894531 0)"/>
      <use xlink:href="#ArialMT-30" transform="translate(719.677734 0)"/>
      <use xlink:href="#ArialMT-36" transform="translate(775.292969 0)"/>
      <use xlink:href="#ArialMT-32" transform="translate(830.908203 0)"/>
      <use xlink:href="#ArialMT-35" transform="translate(886.523438 0)"/>
     </g>
    </g>
    <g id="line2d_38">
     <path d="M 89.673125 79.925625 
L 107.673125 79.925625 
L 125.673125 79.925625 
" style="fill: none; stroke: #ffbf00; stroke-width: 3.5; stroke-linecap: round"/>
    </g>
    <g id="text_21">
     <!-- Prior Factor = 0.125 -->
     <g style="fill: #262626" transform="translate(140.073125 86.225625) scale(0.18 -0.18)">
      <use xlink:href="#ArialMT-50"/>
      <use xlink:href="#ArialMT-72" transform="translate(66.699219 0)"/>
      <use xlink:href="#ArialMT-69" transform="translate(100 0)"/>
      <use xlink:href="#ArialMT-6f" transform="translate(122.216797 0)"/>
      <use xlink:href="#ArialMT-72" transform="translate(177.832031 0)"/>
      <use xlink:href="#ArialMT-20" transform="translate(211.132812 0)"/>
      <use xlink:href="#ArialMT-46" transform="translate(238.916016 0)"/>
      <use xlink:href="#ArialMT-61" transform="translate(300 0)"/>
      <use xlink:href="#ArialMT-63" transform="translate(355.615234 0)"/>
      <use xlink:href="#ArialMT-74" transform="translate(405.615234 0)"/>
      <use xlink:href="#ArialMT-6f" transform="translate(433.398438 0)"/>
      <use xlink:href="#ArialMT-72" transform="translate(489.013672 0)"/>
      <use xlink:href="#ArialMT-20" transform="translate(522.314453 0)"/>
      <use xlink:href="#ArialMT-3d" transform="translate(550.097656 0)"/>
      <use xlink:href="#ArialMT-20" transform="translate(608.496094 0)"/>
      <use xlink:href="#ArialMT-30" transform="translate(636.279297 0)"/>
      <use xlink:href="#ArialMT-2e" transform="translate(691.894531 0)"/>
      <use xlink:href="#ArialMT-31" transform="translate(719.677734 0)"/>
      <use xlink:href="#ArialMT-32" transform="translate(775.292969 0)"/>
      <use xlink:href="#ArialMT-35" transform="translate(830.908203 0)"/>
     </g>
    </g>
    <g id="line2d_39">
     <path d="M 89.673125 105.387187 
L 107.673125 105.387187 
L 125.673125 105.387187 
" style="fill: none; stroke: #2ca02c; stroke-width: 3.5; stroke-linecap: round"/>
    </g>
    <g id="text_22">
     <!-- Prior Factor = 0.25 -->
     <g style="fill: #262626" transform="translate(140.073125 111.687187) scale(0.18 -0.18)">
      <use xlink:href="#ArialMT-50"/>
      <use xlink:href="#ArialMT-72" transform="translate(66.699219 0)"/>
      <use xlink:href="#ArialMT-69" transform="translate(100 0)"/>
      <use xlink:href="#ArialMT-6f" transform="translate(122.216797 0)"/>
      <use xlink:href="#ArialMT-72" transform="translate(177.832031 0)"/>
      <use xlink:href="#ArialMT-20" transform="translate(211.132812 0)"/>
      <use xlink:href="#ArialMT-46" transform="translate(238.916016 0)"/>
      <use xlink:href="#ArialMT-61" transform="translate(300 0)"/>
      <use xlink:href="#ArialMT-63" transform="translate(355.615234 0)"/>
      <use xlink:href="#ArialMT-74" transform="translate(405.615234 0)"/>
      <use xlink:href="#ArialMT-6f" transform="translate(433.398438 0)"/>
      <use xlink:href="#ArialMT-72" transform="translate(489.013672 0)"/>
      <use xlink:href="#ArialMT-20" transform="translate(522.314453 0)"/>
      <use xlink:href="#ArialMT-3d" transform="translate(550.097656 0)"/>
      <use xlink:href="#ArialMT-20" transform="translate(608.496094 0)"/>
      <use xlink:href="#ArialMT-30" transform="translate(636.279297 0)"/>
      <use xlink:href="#ArialMT-2e" transform="translate(691.894531 0)"/>
      <use xlink:href="#ArialMT-32" transform="translate(719.677734 0)"/>
      <use xlink:href="#ArialMT-35" transform="translate(775.292969 0)"/>
     </g>
    </g>
    <g id="line2d_40">
     <path d="M 89.673125 130.84875 
L 107.673125 130.84875 
L 125.673125 130.84875 
" style="fill: none; stroke: #1f77b4; stroke-width: 3.5; stroke-linecap: round"/>
    </g>
    <g id="text_23">
     <!-- Prior Factor = 0.5 -->
     <g style="fill: #262626" transform="translate(140.073125 137.14875) scale(0.18 -0.18)">
      <use xlink:href="#ArialMT-50"/>
      <use xlink:href="#ArialMT-72" transform="translate(66.699219 0)"/>
      <use xlink:href="#ArialMT-69" transform="translate(100 0)"/>
      <use xlink:href="#ArialMT-6f" transform="translate(122.216797 0)"/>
      <use xlink:href="#ArialMT-72" transform="translate(177.832031 0)"/>
      <use xlink:href="#ArialMT-20" transform="translate(211.132812 0)"/>
      <use xlink:href="#ArialMT-46" transform="translate(238.916016 0)"/>
      <use xlink:href="#ArialMT-61" transform="translate(300 0)"/>
      <use xlink:href="#ArialMT-63" transform="translate(355.615234 0)"/>
      <use xlink:href="#ArialMT-74" transform="translate(405.615234 0)"/>
      <use xlink:href="#ArialMT-6f" transform="translate(433.398438 0)"/>
      <use xlink:href="#ArialMT-72" transform="translate(489.013672 0)"/>
      <use xlink:href="#ArialMT-20" transform="translate(522.314453 0)"/>
      <use xlink:href="#ArialMT-3d" transform="translate(550.097656 0)"/>
      <use xlink:href="#ArialMT-20" transform="translate(608.496094 0)"/>
      <use xlink:href="#ArialMT-30" transform="translate(636.279297 0)"/>
      <use xlink:href="#ArialMT-2e" transform="translate(691.894531 0)"/>
      <use xlink:href="#ArialMT-35" transform="translate(719.677734 0)"/>
     </g>
    </g>
   </g>
  </g>
 </g>
 <defs>
  <clipPath id="p4c22c9cba4">
   <rect x="73.473125" y="31.68" width="669.6" height="443.52"/>
  </clipPath>
 </defs>
</svg>
