<?xml version="1.0" encoding="utf-8" standalone="no"?>
<!DOCTYPE svg PUBLIC "-//W3C//DTD SVG 1.1//EN"
  "http://www.w3.org/Graphics/SVG/1.1/DTD/svg11.dtd">
<svg xmlns:xlink="http://www.w3.org/1999/xlink" width="740.928125pt" height="522.34125pt" viewBox="0 0 740.928125 522.34125" xmlns="http://www.w3.org/2000/svg" version="1.1">
 <metadata>
  <rdf:RDF xmlns:dc="http://purl.org/dc/elements/1.1/" xmlns:cc="http://creativecommons.org/ns#" xmlns:rdf="http://www.w3.org/1999/02/22-rdf-syntax-ns#">
   <cc:Work>
    <dc:type rdf:resource="http://purl.org/dc/dcmitype/StillImage"/>
    <dc:date>2025-09-24T13:10:15.842638</dc:date>
    <dc:format>image/svg+xml</dc:format>
    <dc:creator>
     <cc:Agent>
      <dc:title>Matplotlib v3.10.6, https://matplotlib.org/</dc:title>
     </cc:Agent>
    </dc:creator>
   </cc:Work>
  </rdf:RDF>
 </metadata>
 <defs>
  <style type="text/css">*{stroke-linejoin: round; stroke-linecap: butt}</style>
 </defs>
 <g id="figure_1">
  <g id="patch_1">
   <path d="M 0 522.34125 
L 740.928125 522.34125 
L 740.928125 0 
L 0 0 
z
" style="fill: #ffffff"/>
  </g>
  <g id="axes_1">
   <g id="patch_2">
    <path d="M 64.128125 474.24 
L 733.728125 474.24 
L 733.728125 30.72 
L 64.128125 30.72 
z
" style="fill: #ffffff"/>
   </g>
   <g id="matplotlib.axis_1">
    <g id="xtick_1">
     <g id="line2d_1">
      <path d="M 64.128125 474.24 
L 64.128125 30.72 
" clip-path="url(#p6ced2e2c69)" style="fill: none; stroke: #cccccc; stroke-width: 0.8; stroke-linecap: round"/>
     </g>
     <g id="line2d_2"/>
     <g id="text_1">
      <!-- 0 -->
      <g style="fill: #262626" transform="translate(59.679375 489.1925) scale(0.16 -0.16)">
       <defs>
        <path id="ArialMT-30" d="M 266 2259 
Q 266 3072 433 3567 
Q 600 4063 929 4331 
Q 1259 4600 1759 4600 
Q 2128 4600 2406 4451 
Q 2684 4303 2865 4023 
Q 3047 3744 3150 3342 
Q 3253 2941 3253 2259 
Q 3253 1453 3087 958 
Q 2922 463 2592 192 
Q 2263 -78 1759 -78 
Q 1097 -78 719 397 
Q 266 969 266 2259 
z
M 844 2259 
Q 844 1131 1108 757 
Q 1372 384 1759 384 
Q 2147 384 2411 759 
Q 2675 1134 2675 2259 
Q 2675 3391 2411 3762 
Q 2147 4134 1753 4134 
Q 1366 4134 1134 3806 
Q 844 3388 844 2259 
z
" transform="scale(0.015625)"/>
       </defs>
       <use xlink:href="#ArialMT-30"/>
      </g>
     </g>
    </g>
    <g id="xtick_2">
     <g id="line2d_3">
      <path d="M 151.731971 474.24 
L 151.731971 30.72 
" clip-path="url(#p6ced2e2c69)" style="fill: none; stroke: #cccccc; stroke-width: 0.8; stroke-linecap: round"/>
     </g>
     <g id="line2d_4"/>
     <g id="text_2">
      <!-- 100 -->
      <g style="fill: #262626" transform="translate(138.385721 489.1925) scale(0.16 -0.16)">
       <defs>
        <path id="ArialMT-31" d="M 2384 0 
L 1822 0 
L 1822 3584 
Q 1619 3391 1289 3197 
Q 959 3003 697 2906 
L 697 3450 
Q 1169 3672 1522 3987 
Q 1875 4303 2022 4600 
L 2384 4600 
L 2384 0 
z
" transform="scale(0.015625)"/>
       </defs>
       <use xlink:href="#ArialMT-31"/>
       <use xlink:href="#ArialMT-30" transform="translate(55.615234 0)"/>
       <use xlink:href="#ArialMT-30" transform="translate(111.230469 0)"/>
      </g>
     </g>
    </g>
    <g id="xtick_3">
     <g id="line2d_5">
      <path d="M 239.335818 474.24 
L 239.335818 30.72 
" clip-path="url(#p6ced2e2c69)" style="fill: none; stroke: #cccccc; stroke-width: 0.8; stroke-linecap: round"/>
     </g>
     <g id="line2d_6"/>
     <g id="text_3">
      <!-- 200 -->
      <g style="fill: #262626" transform="translate(225.989568 489.1925) scale(0.16 -0.16)">
       <defs>
        <path id="ArialMT-32" d="M 3222 541 
L 3222 0 
L 194 0 
Q 188 203 259 391 
Q 375 700 629 1000 
Q 884 1300 1366 1694 
Q 2113 2306 2375 2664 
Q 2638 3022 2638 3341 
Q 2638 3675 2398 3904 
Q 2159 4134 1775 4134 
Q 1369 4134 1125 3890 
Q 881 3647 878 3216 
L 300 3275 
Q 359 3922 746 4261 
Q 1134 4600 1788 4600 
Q 2447 4600 2831 4234 
Q 3216 3869 3216 3328 
Q 3216 3053 3103 2787 
Q 2991 2522 2730 2228 
Q 2469 1934 1863 1422 
Q 1356 997 1212 845 
Q 1069 694 975 541 
L 3222 541 
z
" transform="scale(0.015625)"/>
       </defs>
       <use xlink:href="#ArialMT-32"/>
       <use xlink:href="#ArialMT-30" transform="translate(55.615234 0)"/>
       <use xlink:href="#ArialMT-30" transform="translate(111.230469 0)"/>
      </g>
     </g>
    </g>
    <g id="xtick_4">
     <g id="line2d_7">
      <path d="M 326.939664 474.24 
L 326.939664 30.72 
" clip-path="url(#p6ced2e2c69)" style="fill: none; stroke: #cccccc; stroke-width: 0.8; stroke-linecap: round"/>
     </g>
     <g id="line2d_8"/>
     <g id="text_4">
      <!-- 300 -->
      <g style="fill: #262626" transform="translate(313.593414 489.1925) scale(0.16 -0.16)">
       <defs>
        <path id="ArialMT-33" d="M 269 1209 
L 831 1284 
Q 928 806 1161 595 
Q 1394 384 1728 384 
Q 2125 384 2398 659 
Q 2672 934 2672 1341 
Q 2672 1728 2419 1979 
Q 2166 2231 1775 2231 
Q 1616 2231 1378 2169 
L 1441 2663 
Q 1497 2656 1531 2656 
Q 1891 2656 2178 2843 
Q 2466 3031 2466 3422 
Q 2466 3731 2256 3934 
Q 2047 4138 1716 4138 
Q 1388 4138 1169 3931 
Q 950 3725 888 3313 
L 325 3413 
Q 428 3978 793 4289 
Q 1159 4600 1703 4600 
Q 2078 4600 2393 4439 
Q 2709 4278 2876 4000 
Q 3044 3722 3044 3409 
Q 3044 3113 2884 2869 
Q 2725 2625 2413 2481 
Q 2819 2388 3044 2092 
Q 3269 1797 3269 1353 
Q 3269 753 2831 336 
Q 2394 -81 1725 -81 
Q 1122 -81 723 278 
Q 325 638 269 1209 
z
" transform="scale(0.015625)"/>
       </defs>
       <use xlink:href="#ArialMT-33"/>
       <use xlink:href="#ArialMT-30" transform="translate(55.615234 0)"/>
       <use xlink:href="#ArialMT-30" transform="translate(111.230469 0)"/>
      </g>
     </g>
    </g>
    <g id="xtick_5">
     <g id="line2d_9">
      <path d="M 414.543511 474.24 
L 414.543511 30.72 
" clip-path="url(#p6ced2e2c69)" style="fill: none; stroke: #cccccc; stroke-width: 0.8; stroke-linecap: round"/>
     </g>
     <g id="line2d_10"/>
     <g id="text_5">
      <!-- 400 -->
      <g style="fill: #262626" transform="translate(401.197261 489.1925) scale(0.16 -0.16)">
       <defs>
        <path id="ArialMT-34" d="M 2069 0 
L 2069 1097 
L 81 1097 
L 81 1613 
L 2172 4581 
L 2631 4581 
L 2631 1613 
L 3250 1613 
L 3250 1097 
L 2631 1097 
L 2631 0 
L 2069 0 
z
M 2069 1613 
L 2069 3678 
L 634 1613 
L 2069 1613 
z
" transform="scale(0.015625)"/>
       </defs>
       <use xlink:href="#ArialMT-34"/>
       <use xlink:href="#ArialMT-30" transform="translate(55.615234 0)"/>
       <use xlink:href="#ArialMT-30" transform="translate(111.230469 0)"/>
      </g>
     </g>
    </g>
    <g id="xtick_6">
     <g id="line2d_11">
      <path d="M 502.147357 474.24 
L 502.147357 30.72 
" clip-path="url(#p6ced2e2c69)" style="fill: none; stroke: #cccccc; stroke-width: 0.8; stroke-linecap: round"/>
     </g>
     <g id="line2d_12"/>
     <g id="text_6">
      <!-- 500 -->
      <g style="fill: #262626" transform="translate(488.801107 489.1925) scale(0.16 -0.16)">
       <defs>
        <path id="ArialMT-35" d="M 266 1200 
L 856 1250 
Q 922 819 1161 601 
Q 1400 384 1738 384 
Q 2144 384 2425 690 
Q 2706 997 2706 1503 
Q 2706 1984 2436 2262 
Q 2166 2541 1728 2541 
Q 1456 2541 1237 2417 
Q 1019 2294 894 2097 
L 366 2166 
L 809 4519 
L 3088 4519 
L 3088 3981 
L 1259 3981 
L 1013 2750 
Q 1425 3038 1878 3038 
Q 2478 3038 2890 2622 
Q 3303 2206 3303 1553 
Q 3303 931 2941 478 
Q 2500 -78 1738 -78 
Q 1113 -78 717 272 
Q 322 622 266 1200 
z
" transform="scale(0.015625)"/>
       </defs>
       <use xlink:href="#ArialMT-35"/>
       <use xlink:href="#ArialMT-30" transform="translate(55.615234 0)"/>
       <use xlink:href="#ArialMT-30" transform="translate(111.230469 0)"/>
      </g>
     </g>
    </g>
    <g id="xtick_7">
     <g id="line2d_13">
      <path d="M 589.751203 474.24 
L 589.751203 30.72 
" clip-path="url(#p6ced2e2c69)" style="fill: none; stroke: #cccccc; stroke-width: 0.8; stroke-linecap: round"/>
     </g>
     <g id="line2d_14"/>
     <g id="text_7">
      <!-- 600 -->
      <g style="fill: #262626" transform="translate(576.404953 489.1925) scale(0.16 -0.16)">
       <defs>
        <path id="ArialMT-36" d="M 3184 3459 
L 2625 3416 
Q 2550 3747 2413 3897 
Q 2184 4138 1850 4138 
Q 1581 4138 1378 3988 
Q 1113 3794 959 3422 
Q 806 3050 800 2363 
Q 1003 2672 1297 2822 
Q 1591 2972 1913 2972 
Q 2475 2972 2870 2558 
Q 3266 2144 3266 1488 
Q 3266 1056 3080 686 
Q 2894 316 2569 119 
Q 2244 -78 1831 -78 
Q 1128 -78 684 439 
Q 241 956 241 2144 
Q 241 3472 731 4075 
Q 1159 4600 1884 4600 
Q 2425 4600 2770 4297 
Q 3116 3994 3184 3459 
z
M 888 1484 
Q 888 1194 1011 928 
Q 1134 663 1356 523 
Q 1578 384 1822 384 
Q 2178 384 2434 671 
Q 2691 959 2691 1453 
Q 2691 1928 2437 2201 
Q 2184 2475 1800 2475 
Q 1419 2475 1153 2201 
Q 888 1928 888 1484 
z
" transform="scale(0.015625)"/>
       </defs>
       <use xlink:href="#ArialMT-36"/>
       <use xlink:href="#ArialMT-30" transform="translate(55.615234 0)"/>
       <use xlink:href="#ArialMT-30" transform="translate(111.230469 0)"/>
      </g>
     </g>
    </g>
    <g id="xtick_8">
     <g id="line2d_15">
      <path d="M 677.35505 474.24 
L 677.35505 30.72 
" clip-path="url(#p6ced2e2c69)" style="fill: none; stroke: #cccccc; stroke-width: 0.8; stroke-linecap: round"/>
     </g>
     <g id="line2d_16"/>
     <g id="text_8">
      <!-- 700 -->
      <g style="fill: #262626" transform="translate(664.0088 489.1925) scale(0.16 -0.16)">
       <defs>
        <path id="ArialMT-37" d="M 303 3981 
L 303 4522 
L 3269 4522 
L 3269 4084 
Q 2831 3619 2401 2847 
Q 1972 2075 1738 1259 
Q 1569 684 1522 0 
L 944 0 
Q 953 541 1156 1306 
Q 1359 2072 1739 2783 
Q 2119 3494 2547 3981 
L 303 3981 
z
" transform="scale(0.015625)"/>
       </defs>
       <use xlink:href="#ArialMT-37"/>
       <use xlink:href="#ArialMT-30" transform="translate(55.615234 0)"/>
       <use xlink:href="#ArialMT-30" transform="translate(111.230469 0)"/>
      </g>
     </g>
    </g>
    <g id="text_9">
     <!-- Training Step -->
     <g style="fill: #262626" transform="translate(339.829688 510.931875) scale(0.2 -0.2)">
      <defs>
       <path id="ArialMT-54" d="M 1659 0 
L 1659 4041 
L 150 4041 
L 150 4581 
L 3781 4581 
L 3781 4041 
L 2266 4041 
L 2266 0 
L 1659 0 
z
" transform="scale(0.015625)"/>
       <path id="ArialMT-72" d="M 416 0 
L 416 3319 
L 922 3319 
L 922 2816 
Q 1116 3169 1280 3281 
Q 1444 3394 1641 3394 
Q 1925 3394 2219 3213 
L 2025 2691 
Q 1819 2813 1613 2813 
Q 1428 2813 1281 2702 
Q 1134 2591 1072 2394 
Q 978 2094 978 1738 
L 978 0 
L 416 0 
z
" transform="scale(0.015625)"/>
       <path id="ArialMT-61" d="M 2588 409 
Q 2275 144 1986 34 
Q 1697 -75 1366 -75 
Q 819 -75 525 192 
Q 231 459 231 875 
Q 231 1119 342 1320 
Q 453 1522 633 1644 
Q 813 1766 1038 1828 
Q 1203 1872 1538 1913 
Q 2219 1994 2541 2106 
Q 2544 2222 2544 2253 
Q 2544 2597 2384 2738 
Q 2169 2928 1744 2928 
Q 1347 2928 1158 2789 
Q 969 2650 878 2297 
L 328 2372 
Q 403 2725 575 2942 
Q 747 3159 1072 3276 
Q 1397 3394 1825 3394 
Q 2250 3394 2515 3294 
Q 2781 3194 2906 3042 
Q 3031 2891 3081 2659 
Q 3109 2516 3109 2141 
L 3109 1391 
Q 3109 606 3145 398 
Q 3181 191 3288 0 
L 2700 0 
Q 2613 175 2588 409 
z
M 2541 1666 
Q 2234 1541 1622 1453 
Q 1275 1403 1131 1340 
Q 988 1278 909 1158 
Q 831 1038 831 891 
Q 831 666 1001 516 
Q 1172 366 1500 366 
Q 1825 366 2078 508 
Q 2331 650 2450 897 
Q 2541 1088 2541 1459 
L 2541 1666 
z
" transform="scale(0.015625)"/>
       <path id="ArialMT-69" d="M 425 3934 
L 425 4581 
L 988 4581 
L 988 3934 
L 425 3934 
z
M 425 0 
L 425 3319 
L 988 3319 
L 988 0 
L 425 0 
z
" transform="scale(0.015625)"/>
       <path id="ArialMT-6e" d="M 422 0 
L 422 3319 
L 928 3319 
L 928 2847 
Q 1294 3394 1984 3394 
Q 2284 3394 2536 3286 
Q 2788 3178 2913 3003 
Q 3038 2828 3088 2588 
Q 3119 2431 3119 2041 
L 3119 0 
L 2556 0 
L 2556 2019 
Q 2556 2363 2490 2533 
Q 2425 2703 2258 2804 
Q 2091 2906 1866 2906 
Q 1506 2906 1245 2678 
Q 984 2450 984 1813 
L 984 0 
L 422 0 
z
" transform="scale(0.015625)"/>
       <path id="ArialMT-67" d="M 319 -275 
L 866 -356 
Q 900 -609 1056 -725 
Q 1266 -881 1628 -881 
Q 2019 -881 2231 -725 
Q 2444 -569 2519 -288 
Q 2563 -116 2559 434 
Q 2191 0 1641 0 
Q 956 0 581 494 
Q 206 988 206 1678 
Q 206 2153 378 2554 
Q 550 2956 876 3175 
Q 1203 3394 1644 3394 
Q 2231 3394 2613 2919 
L 2613 3319 
L 3131 3319 
L 3131 450 
Q 3131 -325 2973 -648 
Q 2816 -972 2473 -1159 
Q 2131 -1347 1631 -1347 
Q 1038 -1347 672 -1080 
Q 306 -813 319 -275 
z
M 784 1719 
Q 784 1066 1043 766 
Q 1303 466 1694 466 
Q 2081 466 2343 764 
Q 2606 1063 2606 1700 
Q 2606 2309 2336 2618 
Q 2066 2928 1684 2928 
Q 1309 2928 1046 2623 
Q 784 2319 784 1719 
z
" transform="scale(0.015625)"/>
       <path id="ArialMT-20" transform="scale(0.015625)"/>
       <path id="ArialMT-53" d="M 288 1472 
L 859 1522 
Q 900 1178 1048 958 
Q 1197 738 1509 602 
Q 1822 466 2213 466 
Q 2559 466 2825 569 
Q 3091 672 3220 851 
Q 3350 1031 3350 1244 
Q 3350 1459 3225 1620 
Q 3100 1781 2813 1891 
Q 2628 1963 1997 2114 
Q 1366 2266 1113 2400 
Q 784 2572 623 2826 
Q 463 3081 463 3397 
Q 463 3744 659 4045 
Q 856 4347 1234 4503 
Q 1613 4659 2075 4659 
Q 2584 4659 2973 4495 
Q 3363 4331 3572 4012 
Q 3781 3694 3797 3291 
L 3216 3247 
Q 3169 3681 2898 3903 
Q 2628 4125 2100 4125 
Q 1550 4125 1298 3923 
Q 1047 3722 1047 3438 
Q 1047 3191 1225 3031 
Q 1400 2872 2139 2705 
Q 2878 2538 3153 2413 
Q 3553 2228 3743 1945 
Q 3934 1663 3934 1294 
Q 3934 928 3725 604 
Q 3516 281 3123 101 
Q 2731 -78 2241 -78 
Q 1619 -78 1198 103 
Q 778 284 539 648 
Q 300 1013 288 1472 
z
" transform="scale(0.015625)"/>
       <path id="ArialMT-74" d="M 1650 503 
L 1731 6 
Q 1494 -44 1306 -44 
Q 1000 -44 831 53 
Q 663 150 594 308 
Q 525 466 525 972 
L 525 2881 
L 113 2881 
L 113 3319 
L 525 3319 
L 525 4141 
L 1084 4478 
L 1084 3319 
L 1650 3319 
L 1650 2881 
L 1084 2881 
L 1084 941 
Q 1084 700 1114 631 
Q 1144 563 1211 522 
Q 1278 481 1403 481 
Q 1497 481 1650 503 
z
" transform="scale(0.015625)"/>
       <path id="ArialMT-65" d="M 2694 1069 
L 3275 997 
Q 3138 488 2766 206 
Q 2394 -75 1816 -75 
Q 1088 -75 661 373 
Q 234 822 234 1631 
Q 234 2469 665 2931 
Q 1097 3394 1784 3394 
Q 2450 3394 2872 2941 
Q 3294 2488 3294 1666 
Q 3294 1616 3291 1516 
L 816 1516 
Q 847 969 1125 678 
Q 1403 388 1819 388 
Q 2128 388 2347 550 
Q 2566 713 2694 1069 
z
M 847 1978 
L 2700 1978 
Q 2663 2397 2488 2606 
Q 2219 2931 1791 2931 
Q 1403 2931 1139 2672 
Q 875 2413 847 1978 
z
" transform="scale(0.015625)"/>
       <path id="ArialMT-70" d="M 422 -1272 
L 422 3319 
L 934 3319 
L 934 2888 
Q 1116 3141 1344 3267 
Q 1572 3394 1897 3394 
Q 2322 3394 2647 3175 
Q 2972 2956 3137 2557 
Q 3303 2159 3303 1684 
Q 3303 1175 3120 767 
Q 2938 359 2589 142 
Q 2241 -75 1856 -75 
Q 1575 -75 1351 44 
Q 1128 163 984 344 
L 984 -1272 
L 422 -1272 
z
M 931 1641 
Q 931 1000 1190 694 
Q 1450 388 1819 388 
Q 2194 388 2461 705 
Q 2728 1022 2728 1688 
Q 2728 2322 2467 2637 
Q 2206 2953 1844 2953 
Q 1484 2953 1207 2617 
Q 931 2281 931 1641 
z
" transform="scale(0.015625)"/>
      </defs>
      <use xlink:href="#ArialMT-54"/>
      <use xlink:href="#ArialMT-72" transform="translate(57.333984 0)"/>
      <use xlink:href="#ArialMT-61" transform="translate(90.634766 0)"/>
      <use xlink:href="#ArialMT-69" transform="translate(146.25 0)"/>
      <use xlink:href="#ArialMT-6e" transform="translate(168.466797 0)"/>
      <use xlink:href="#ArialMT-69" transform="translate(224.082031 0)"/>
      <use xlink:href="#ArialMT-6e" transform="translate(246.298828 0)"/>
      <use xlink:href="#ArialMT-67" transform="translate(301.914062 0)"/>
      <use xlink:href="#ArialMT-20" transform="translate(357.529297 0)"/>
      <use xlink:href="#ArialMT-53" transform="translate(385.3125 0)"/>
      <use xlink:href="#ArialMT-74" transform="translate(452.011719 0)"/>
      <use xlink:href="#ArialMT-65" transform="translate(479.794922 0)"/>
      <use xlink:href="#ArialMT-70" transform="translate(535.410156 0)"/>
     </g>
    </g>
   </g>
   <g id="matplotlib.axis_2">
    <g id="ytick_1">
     <g id="line2d_17">
      <path d="M 64.128125 462.445022 
L 733.728125 462.445022 
" clip-path="url(#p6ced2e2c69)" style="fill: none; stroke: #cccccc; stroke-width: 0.8; stroke-linecap: round"/>
     </g>
     <g id="line2d_18"/>
     <g id="text_10">
      <!-- 1.02 -->
      <g style="fill: #262626" transform="translate(29.490625 468.171272) scale(0.16 -0.16)">
       <defs>
        <path id="ArialMT-2e" d="M 581 0 
L 581 641 
L 1222 641 
L 1222 0 
L 581 0 
z
" transform="scale(0.015625)"/>
       </defs>
       <use xlink:href="#ArialMT-31"/>
       <use xlink:href="#ArialMT-2e" transform="translate(55.615234 0)"/>
       <use xlink:href="#ArialMT-30" transform="translate(83.398438 0)"/>
       <use xlink:href="#ArialMT-32" transform="translate(139.013672 0)"/>
      </g>
     </g>
    </g>
    <g id="ytick_2">
     <g id="line2d_19">
      <path d="M 64.128125 410.999486 
L 733.728125 410.999486 
" clip-path="url(#p6ced2e2c69)" style="fill: none; stroke: #cccccc; stroke-width: 0.8; stroke-linecap: round"/>
     </g>
     <g id="line2d_20"/>
     <g id="text_11">
      <!-- 1.03 -->
      <g style="fill: #262626" transform="translate(29.490625 416.725736) scale(0.16 -0.16)">
       <use xlink:href="#ArialMT-31"/>
       <use xlink:href="#ArialMT-2e" transform="translate(55.615234 0)"/>
       <use xlink:href="#ArialMT-30" transform="translate(83.398438 0)"/>
       <use xlink:href="#ArialMT-33" transform="translate(139.013672 0)"/>
      </g>
     </g>
    </g>
    <g id="ytick_3">
     <g id="line2d_21">
      <path d="M 64.128125 359.55395 
L 733.728125 359.55395 
" clip-path="url(#p6ced2e2c69)" style="fill: none; stroke: #cccccc; stroke-width: 0.8; stroke-linecap: round"/>
     </g>
     <g id="line2d_22"/>
     <g id="text_12">
      <!-- 1.04 -->
      <g style="fill: #262626" transform="translate(29.490625 365.2802) scale(0.16 -0.16)">
       <use xlink:href="#ArialMT-31"/>
       <use xlink:href="#ArialMT-2e" transform="translate(55.615234 0)"/>
       <use xlink:href="#ArialMT-30" transform="translate(83.398438 0)"/>
       <use xlink:href="#ArialMT-34" transform="translate(139.013672 0)"/>
      </g>
     </g>
    </g>
    <g id="ytick_4">
     <g id="line2d_23">
      <path d="M 64.128125 308.108415 
L 733.728125 308.108415 
" clip-path="url(#p6ced2e2c69)" style="fill: none; stroke: #cccccc; stroke-width: 0.8; stroke-linecap: round"/>
     </g>
     <g id="line2d_24"/>
     <g id="text_13">
      <!-- 1.05 -->
      <g style="fill: #262626" transform="translate(29.490625 313.834665) scale(0.16 -0.16)">
       <use xlink:href="#ArialMT-31"/>
       <use xlink:href="#ArialMT-2e" transform="translate(55.615234 0)"/>
       <use xlink:href="#ArialMT-30" transform="translate(83.398438 0)"/>
       <use xlink:href="#ArialMT-35" transform="translate(139.013672 0)"/>
      </g>
     </g>
    </g>
    <g id="ytick_5">
     <g id="line2d_25">
      <path d="M 64.128125 256.662879 
L 733.728125 256.662879 
" clip-path="url(#p6ced2e2c69)" style="fill: none; stroke: #cccccc; stroke-width: 0.8; stroke-linecap: round"/>
     </g>
     <g id="line2d_26"/>
     <g id="text_14">
      <!-- 1.06 -->
      <g style="fill: #262626" transform="translate(29.490625 262.389129) scale(0.16 -0.16)">
       <use xlink:href="#ArialMT-31"/>
       <use xlink:href="#ArialMT-2e" transform="translate(55.615234 0)"/>
       <use xlink:href="#ArialMT-30" transform="translate(83.398438 0)"/>
       <use xlink:href="#ArialMT-36" transform="translate(139.013672 0)"/>
      </g>
     </g>
    </g>
    <g id="ytick_6">
     <g id="line2d_27">
      <path d="M 64.128125 205.217343 
L 733.728125 205.217343 
" clip-path="url(#p6ced2e2c69)" style="fill: none; stroke: #cccccc; stroke-width: 0.8; stroke-linecap: round"/>
     </g>
     <g id="line2d_28"/>
     <g id="text_15">
      <!-- 1.07 -->
      <g style="fill: #262626" transform="translate(29.490625 210.943593) scale(0.16 -0.16)">
       <use xlink:href="#ArialMT-31"/>
       <use xlink:href="#ArialMT-2e" transform="translate(55.615234 0)"/>
       <use xlink:href="#ArialMT-30" transform="translate(83.398438 0)"/>
       <use xlink:href="#ArialMT-37" transform="translate(139.013672 0)"/>
      </g>
     </g>
    </g>
    <g id="ytick_7">
     <g id="line2d_29">
      <path d="M 64.128125 153.771807 
L 733.728125 153.771807 
" clip-path="url(#p6ced2e2c69)" style="fill: none; stroke: #cccccc; stroke-width: 0.8; stroke-linecap: round"/>
     </g>
     <g id="line2d_30"/>
     <g id="text_16">
      <!-- 1.08 -->
      <g style="fill: #262626" transform="translate(29.490625 159.498057) scale(0.16 -0.16)">
       <defs>
        <path id="ArialMT-38" d="M 1131 2484 
Q 781 2613 612 2850 
Q 444 3088 444 3419 
Q 444 3919 803 4259 
Q 1163 4600 1759 4600 
Q 2359 4600 2725 4251 
Q 3091 3903 3091 3403 
Q 3091 3084 2923 2848 
Q 2756 2613 2416 2484 
Q 2838 2347 3058 2040 
Q 3278 1734 3278 1309 
Q 3278 722 2862 322 
Q 2447 -78 1769 -78 
Q 1091 -78 675 323 
Q 259 725 259 1325 
Q 259 1772 486 2073 
Q 713 2375 1131 2484 
z
M 1019 3438 
Q 1019 3113 1228 2906 
Q 1438 2700 1772 2700 
Q 2097 2700 2305 2904 
Q 2513 3109 2513 3406 
Q 2513 3716 2298 3927 
Q 2084 4138 1766 4138 
Q 1444 4138 1231 3931 
Q 1019 3725 1019 3438 
z
M 838 1322 
Q 838 1081 952 856 
Q 1066 631 1291 507 
Q 1516 384 1775 384 
Q 2178 384 2440 643 
Q 2703 903 2703 1303 
Q 2703 1709 2433 1975 
Q 2163 2241 1756 2241 
Q 1359 2241 1098 1978 
Q 838 1716 838 1322 
z
" transform="scale(0.015625)"/>
       </defs>
       <use xlink:href="#ArialMT-31"/>
       <use xlink:href="#ArialMT-2e" transform="translate(55.615234 0)"/>
       <use xlink:href="#ArialMT-30" transform="translate(83.398438 0)"/>
       <use xlink:href="#ArialMT-38" transform="translate(139.013672 0)"/>
      </g>
     </g>
    </g>
    <g id="ytick_8">
     <g id="line2d_31">
      <path d="M 64.128125 102.326272 
L 733.728125 102.326272 
" clip-path="url(#p6ced2e2c69)" style="fill: none; stroke: #cccccc; stroke-width: 0.8; stroke-linecap: round"/>
     </g>
     <g id="line2d_32"/>
     <g id="text_17">
      <!-- 1.09 -->
      <g style="fill: #262626" transform="translate(29.490625 108.052522) scale(0.16 -0.16)">
       <defs>
        <path id="ArialMT-39" d="M 350 1059 
L 891 1109 
Q 959 728 1153 556 
Q 1347 384 1650 384 
Q 1909 384 2104 503 
Q 2300 622 2425 820 
Q 2550 1019 2634 1356 
Q 2719 1694 2719 2044 
Q 2719 2081 2716 2156 
Q 2547 1888 2255 1720 
Q 1963 1553 1622 1553 
Q 1053 1553 659 1965 
Q 266 2378 266 3053 
Q 266 3750 677 4175 
Q 1088 4600 1706 4600 
Q 2153 4600 2523 4359 
Q 2894 4119 3086 3673 
Q 3278 3228 3278 2384 
Q 3278 1506 3087 986 
Q 2897 466 2520 194 
Q 2144 -78 1638 -78 
Q 1100 -78 759 220 
Q 419 519 350 1059 
z
M 2653 3081 
Q 2653 3566 2395 3850 
Q 2138 4134 1775 4134 
Q 1400 4134 1122 3828 
Q 844 3522 844 3034 
Q 844 2597 1108 2323 
Q 1372 2050 1759 2050 
Q 2150 2050 2401 2323 
Q 2653 2597 2653 3081 
z
" transform="scale(0.015625)"/>
       </defs>
       <use xlink:href="#ArialMT-31"/>
       <use xlink:href="#ArialMT-2e" transform="translate(55.615234 0)"/>
       <use xlink:href="#ArialMT-30" transform="translate(83.398438 0)"/>
       <use xlink:href="#ArialMT-39" transform="translate(139.013672 0)"/>
      </g>
     </g>
    </g>
    <g id="ytick_9">
     <g id="line2d_33">
      <path d="M 64.128125 50.880736 
L 733.728125 50.880736 
" clip-path="url(#p6ced2e2c69)" style="fill: none; stroke: #cccccc; stroke-width: 0.8; stroke-linecap: round"/>
     </g>
     <g id="line2d_34"/>
     <g id="text_18">
      <!-- 1.10 -->
      <g style="fill: #262626" transform="translate(29.490625 56.606986) scale(0.16 -0.16)">
       <use xlink:href="#ArialMT-31"/>
       <use xlink:href="#ArialMT-2e" transform="translate(55.615234 0)"/>
       <use xlink:href="#ArialMT-31" transform="translate(83.398438 0)"/>
       <use xlink:href="#ArialMT-30" transform="translate(139.013672 0)"/>
      </g>
     </g>
    </g>
    <g id="text_19">
     <!-- Learned Parameter Value -->
     <g style="fill: #262626" transform="translate(21.515625 366.250312) rotate(-90) scale(0.2 -0.2)">
      <defs>
       <path id="ArialMT-4c" d="M 469 0 
L 469 4581 
L 1075 4581 
L 1075 541 
L 3331 541 
L 3331 0 
L 469 0 
z
" transform="scale(0.015625)"/>
       <path id="ArialMT-64" d="M 2575 0 
L 2575 419 
Q 2259 -75 1647 -75 
Q 1250 -75 917 144 
Q 584 363 401 755 
Q 219 1147 219 1656 
Q 219 2153 384 2558 
Q 550 2963 881 3178 
Q 1213 3394 1622 3394 
Q 1922 3394 2156 3267 
Q 2391 3141 2538 2938 
L 2538 4581 
L 3097 4581 
L 3097 0 
L 2575 0 
z
M 797 1656 
Q 797 1019 1065 703 
Q 1334 388 1700 388 
Q 2069 388 2326 689 
Q 2584 991 2584 1609 
Q 2584 2291 2321 2609 
Q 2059 2928 1675 2928 
Q 1300 2928 1048 2622 
Q 797 2316 797 1656 
z
" transform="scale(0.015625)"/>
       <path id="ArialMT-50" d="M 494 0 
L 494 4581 
L 2222 4581 
Q 2678 4581 2919 4538 
Q 3256 4481 3484 4323 
Q 3713 4166 3852 3881 
Q 3991 3597 3991 3256 
Q 3991 2672 3619 2267 
Q 3247 1863 2275 1863 
L 1100 1863 
L 1100 0 
L 494 0 
z
M 1100 2403 
L 2284 2403 
Q 2872 2403 3119 2622 
Q 3366 2841 3366 3238 
Q 3366 3525 3220 3729 
Q 3075 3934 2838 4000 
Q 2684 4041 2272 4041 
L 1100 4041 
L 1100 2403 
z
" transform="scale(0.015625)"/>
       <path id="ArialMT-6d" d="M 422 0 
L 422 3319 
L 925 3319 
L 925 2853 
Q 1081 3097 1340 3245 
Q 1600 3394 1931 3394 
Q 2300 3394 2536 3241 
Q 2772 3088 2869 2813 
Q 3263 3394 3894 3394 
Q 4388 3394 4653 3120 
Q 4919 2847 4919 2278 
L 4919 0 
L 4359 0 
L 4359 2091 
Q 4359 2428 4304 2576 
Q 4250 2725 4106 2815 
Q 3963 2906 3769 2906 
Q 3419 2906 3187 2673 
Q 2956 2441 2956 1928 
L 2956 0 
L 2394 0 
L 2394 2156 
Q 2394 2531 2256 2718 
Q 2119 2906 1806 2906 
Q 1569 2906 1367 2781 
Q 1166 2656 1075 2415 
Q 984 2175 984 1722 
L 984 0 
L 422 0 
z
" transform="scale(0.015625)"/>
       <path id="ArialMT-56" d="M 1803 0 
L 28 4581 
L 684 4581 
L 1875 1253 
Q 2019 853 2116 503 
Q 2222 878 2363 1253 
L 3600 4581 
L 4219 4581 
L 2425 0 
L 1803 0 
z
" transform="scale(0.015625)"/>
       <path id="ArialMT-6c" d="M 409 0 
L 409 4581 
L 972 4581 
L 972 0 
L 409 0 
z
" transform="scale(0.015625)"/>
       <path id="ArialMT-75" d="M 2597 0 
L 2597 488 
Q 2209 -75 1544 -75 
Q 1250 -75 995 37 
Q 741 150 617 320 
Q 494 491 444 738 
Q 409 903 409 1263 
L 409 3319 
L 972 3319 
L 972 1478 
Q 972 1038 1006 884 
Q 1059 663 1231 536 
Q 1403 409 1656 409 
Q 1909 409 2131 539 
Q 2353 669 2445 892 
Q 2538 1116 2538 1541 
L 2538 3319 
L 3100 3319 
L 3100 0 
L 2597 0 
z
" transform="scale(0.015625)"/>
      </defs>
      <use xlink:href="#ArialMT-4c"/>
      <use xlink:href="#ArialMT-65" transform="translate(55.615234 0)"/>
      <use xlink:href="#ArialMT-61" transform="translate(111.230469 0)"/>
      <use xlink:href="#ArialMT-72" transform="translate(166.845703 0)"/>
      <use xlink:href="#ArialMT-6e" transform="translate(200.146484 0)"/>
      <use xlink:href="#ArialMT-65" transform="translate(255.761719 0)"/>
      <use xlink:href="#ArialMT-64" transform="translate(311.376953 0)"/>
      <use xlink:href="#ArialMT-20" transform="translate(366.992188 0)"/>
      <use xlink:href="#ArialMT-50" transform="translate(394.775391 0)"/>
      <use xlink:href="#ArialMT-61" transform="translate(461.474609 0)"/>
      <use xlink:href="#ArialMT-72" transform="translate(517.089844 0)"/>
      <use xlink:href="#ArialMT-61" transform="translate(550.390625 0)"/>
      <use xlink:href="#ArialMT-6d" transform="translate(606.005859 0)"/>
      <use xlink:href="#ArialMT-65" transform="translate(689.306641 0)"/>
      <use xlink:href="#ArialMT-74" transform="translate(744.921875 0)"/>
      <use xlink:href="#ArialMT-65" transform="translate(772.705078 0)"/>
      <use xlink:href="#ArialMT-72" transform="translate(828.320312 0)"/>
      <use xlink:href="#ArialMT-20" transform="translate(861.621094 0)"/>
      <use xlink:href="#ArialMT-56" transform="translate(889.404297 0)"/>
      <use xlink:href="#ArialMT-61" transform="translate(948.728516 0)"/>
      <use xlink:href="#ArialMT-6c" transform="translate(1004.34375 0)"/>
      <use xlink:href="#ArialMT-75" transform="translate(1026.560547 0)"/>
      <use xlink:href="#ArialMT-65" transform="translate(1082.175781 0)"/>
     </g>
    </g>
   </g>
   <g id="line2d_35">
    <path d="M 65.004163 50.88 
L 65.880202 50.88 
L 66.75624 52.323658 
L 67.632279 55.402316 
L 68.508317 60.088378 
L 69.384356 67.63845 
L 70.260394 78.527211 
L 71.136433 93.114042 
L 72.012471 111.10273 
L 73.764548 137.313643 
L 75.516625 157.665906 
L 77.268702 174.141021 
L 79.020779 187.720235 
L 79.896817 193.607097 
L 81.648894 196.125218 
L 83.400971 197.963214 
L 85.153048 199.020507 
L 86.905125 199.701859 
L 91.285317 201.162075 
L 93.037394 202.026185 
L 95.66551 203.620709 
L 99.169664 206.008203 
L 101.797779 208.028956 
L 109.682125 214.294209 
L 112.310241 215.922464 
L 116.690433 218.043181 
L 133.335164 225.524567 
L 140.343471 228.835658 
L 143.847625 230.066508 
L 148.227818 231.61197 
L 153.484048 233.536438 
L 160.492356 236.121407 
L 179.765202 244.82567 
L 183.269356 246.581487 
L 187.649548 249.186694 
L 201.666164 257.855387 
L 206.922395 261.325317 
L 210.426548 263.594448 
L 214.806741 266.666973 
L 220.062972 270.661257 
L 223.567125 273.570037 
L 226.195241 275.662543 
L 243.71601 289.114809 
L 248.972241 292.956386 
L 252.476395 295.386809 
L 256.856587 298.750029 
L 259.484702 300.837629 
L 269.121126 307.948594 
L 271.749241 309.59954 
L 275.253395 311.570004 
L 277.88151 313.507351 
L 281.385664 316.202097 
L 287.517933 320.452731 
L 295.40228 325.590779 
L 299.782472 328.687836 
L 305.038703 332.56253 
L 310.294933 336.231162 
L 321.683433 345.094264 
L 328.691741 350.207168 
L 336.576087 355.575195 
L 340.080241 358.114168 
L 342.708357 359.788419 
L 347.088549 362.236014 
L 350.592703 364.271485 
L 354.972895 366.592131 
L 357.60101 368.251663 
L 363.73328 372.421344 
L 368.113472 374.995888 
L 370.741587 376.31689 
L 372.493664 377.036266 
L 375.12178 378.058601 
L 380.378011 380.462653 
L 389.138395 384.908923 
L 411.039357 396.857429 
L 417.171626 400.393593 
L 420.67578 402.280038 
L 431.188241 407.434031 
L 436.444472 409.361566 
L 439.948626 410.645771 
L 452.213165 415.51643 
L 454.84128 416.472531 
L 459.221472 418.20811 
L 461.849588 419.229832 
L 466.22978 420.816997 
L 470.609972 422.555641 
L 476.742242 424.911244 
L 483.750549 427.65076 
L 488.130742 429.017144 
L 512.659819 435.866853 
L 522.296242 437.887606 
L 540.693049 442.308731 
L 552.081549 444.786376 
L 563.47005 446.779532 
L 569.602319 447.654067 
L 575.734588 448.52247 
L 581.866857 449.314825 
L 587.999127 449.838565 
L 601.139703 450.983556 
L 610.776127 451.788791 
L 619.536511 452.419242 
L 633.553127 453.07729 
L 648.445781 453.578338 
L 670.346742 453.962251 
L 693.123742 454.075707 
L 701.884127 454.08 
L 701.884127 454.08 
" clip-path="url(#p6ced2e2c69)" style="fill: none; stroke: #d62728; stroke-width: 3.5; stroke-linecap: round"/>
   </g>
   <g id="line2d_36">
    <path d="M 65.004163 50.88 
L 65.880202 50.88 
L 66.75624 53.234376 
L 67.632279 56.848427 
L 68.508317 62.212162 
L 69.384356 69.389974 
L 70.260394 78.84489 
L 72.88851 117.616361 
L 74.640587 137.891964 
L 76.392663 154.611165 
L 78.14474 168.584104 
L 79.020779 174.670281 
L 79.896817 179.923625 
L 81.648894 185.528991 
L 83.400971 189.823781 
L 85.153048 193.139165 
L 86.905125 195.691017 
L 87.781164 196.70722 
L 90.409279 195.343288 
L 93.037394 194.313593 
L 95.66551 193.592378 
L 98.293625 193.166149 
L 102.673817 192.7436 
L 104.425894 192.615425 
L 107.05401 192.153626 
L 108.806087 191.610875 
L 112.310241 190.117541 
L 117.566471 187.438741 
L 131.583087 181.074749 
L 135.087241 179.724923 
L 138.591394 178.580545 
L 142.095548 177.683932 
L 152.60801 175.255962 
L 155.236125 174.794163 
L 157.864241 174.450727 
L 159.616318 174.341563 
L 165.748587 174.707077 
L 168.376702 175.060939 
L 174.508971 176.285043 
L 177.137087 176.32368 
L 179.765202 176.643811 
L 183.269356 177.383425 
L 187.649548 178.467702 
L 190.277664 179.287042 
L 194.657856 180.703102 
L 196.409933 181.185139 
L 199.038048 181.943765 
L 205.170318 184.272383 
L 207.798433 185.332742 
L 212.178625 187.004539 
L 214.806741 188.183261 
L 217.434856 189.555165 
L 221.815049 191.534215 
L 226.195241 193.354426 
L 229.699395 194.764353 
L 238.459779 198.739012 
L 242.839972 200.827225 
L 246.344126 202.22918 
L 250.724318 203.968438 
L 255.10451 205.902105 
L 264.740933 209.84426 
L 267.369049 210.794229 
L 270.873203 212.336624 
L 278.757549 216.115034 
L 281.385664 217.298048 
L 287.517933 220.358308 
L 293.650203 222.588189 
L 298.030395 224.686828 
L 299.782472 225.631277 
L 303.286626 227.748315 
L 304.162664 228.197235 
L 307.666818 229.358784 
L 312.923049 231.242776 
L 316.427203 232.839754 
L 320.807395 235.111337 
L 323.43551 236.310297 
L 333.071933 240.348123 
L 338.328164 242.77364 
L 342.708357 244.549695 
L 344.460433 245.174012 
L 354.972895 248.472225 
L 372.493664 254.949673 
L 375.997818 256.403756 
L 384.758203 259.376318 
L 394.394626 262.074743 
L 401.402934 263.997985 
L 404.031049 264.899504 
L 409.28728 266.699477 
L 420.67578 270.578464 
L 425.055972 271.796435 
L 427.684088 272.570393 
L 432.06428 274.005465 
L 441.700703 276.589821 
L 444.328818 277.07983 
L 446.956934 277.401188 
L 452.213165 278.369555 
L 463.601665 280.880318 
L 467.105818 281.903266 
L 476.742242 284.371099 
L 489.00678 287.39211 
L 510.907742 291.904613 
L 514.411896 292.580446 
L 519.668126 293.66227 
L 563.47005 300.502779 
L 574.85855 301.871617 
L 581.866857 302.493481 
L 590.627242 303.090815 
L 604.643857 304.22722 
L 611.652165 304.707417 
L 624.792742 305.169216 
L 647.569742 305.776975 
L 663.338434 305.977517 
L 697.503935 306.08668 
L 701.884127 306.087294 
L 701.884127 306.087294 
" clip-path="url(#p6ced2e2c69)" style="fill: none; stroke: #ffbf00; stroke-width: 3.5; stroke-linecap: round"/>
   </g>
   <g id="line2d_37">
    <path d="M 65.004163 50.88 
L 65.880202 50.88 
L 66.75624 52.397864 
L 67.632279 55.24409 
L 68.508317 59.532134 
L 69.384356 65.833572 
L 70.260394 73.663299 
L 71.136433 84.288964 
L 72.88851 107.615628 
L 74.640587 126.457999 
L 76.392663 142.45905 
L 78.14474 156.165213 
L 79.020779 162.072925 
L 79.896817 163.930546 
L 80.772856 165.399348 
L 81.648894 166.485465 
L 82.524933 167.155778 
L 83.400971 167.507187 
L 84.27701 167.62371 
L 86.029087 167.552569 
L 92.161356 166.863244 
L 100.045702 165.805952 
L 101.797779 165.291411 
L 104.425894 164.218787 
L 106.177971 163.156589 
L 107.930048 161.785298 
L 114.062317 156.301361 
L 116.690433 154.412463 
L 118.44251 153.380928 
L 125.450817 150.082716 
L 128.078933 149.018678 
L 134.211202 146.832339 
L 136.839318 145.848641 
L 139.467433 145.124972 
L 142.095548 144.622697 
L 146.475741 144.02107 
L 149.103856 143.972008 
L 156.988202 144.424608 
L 164.872548 145.832082 
L 168.376702 146.554524 
L 171.880856 147.059253 
L 175.38501 147.609977 
L 178.013125 148.169287 
L 180.641241 148.696093 
L 182.393318 149.227192 
L 191.153702 152.646834 
L 193.781818 153.185292 
L 198.16201 154.287967 
L 199.914087 154.726461 
L 203.418241 156.022319 
L 204.294279 156.392126 
L 210.426548 157.917963 
L 214.806741 159.513714 
L 220.062972 161.655896 
L 223.567125 163.363877 
L 227.071279 165.178568 
L 232.32751 167.617577 
L 251.600356 177.701717 
L 256.856587 180.568794 
L 260.360741 182.362634 
L 262.988856 183.81917 
L 266.49301 186.13491 
L 273.501318 190.16783 
L 279.633587 193.446418 
L 286.641895 196.604189 
L 292.774164 199.777292 
L 297.154356 201.903529 
L 300.65851 203.94452 
L 303.286626 205.460545 
L 306.79078 207.145834 
L 313.799087 209.863272 
L 318.17928 211.865626 
L 330.443818 217.970815 
L 334.82401 220.504268 
L 337.452126 221.806872 
L 340.080241 223.270155 
L 342.708357 224.624887 
L 346.21251 226.193654 
L 349.716664 227.370535 
L 353.220818 228.590346 
L 355.848934 229.360011 
L 357.60101 230.054242 
L 368.113472 234.912635 
L 373.369703 236.788041 
L 375.997818 237.853919 
L 378.625934 238.716802 
L 388.262357 242.651598 
L 393.518587 244.058459 
L 397.022741 245.319973 
L 403.155011 247.667603 
L 407.535203 249.062198 
L 421.551818 254.731346 
L 432.940318 258.726242 
L 436.444472 259.995729 
L 440.824665 261.086138 
L 442.576741 261.562042 
L 455.717318 265.750122 
L 468.857895 268.728203 
L 474.114126 270.239934 
L 480.246395 271.771904 
L 483.750549 272.321402 
L 491.634895 273.760767 
L 495.139049 274.599118 
L 503.899434 277.173662 
L 510.907742 278.835034 
L 513.535857 279.267395 
L 524.924357 281.426136 
L 536.312857 283.527228 
L 540.693049 284.286467 
L 550.329473 285.797585 
L 556.461742 286.625511 
L 561.717973 287.176235 
L 569.602319 287.999255 
L 574.85855 288.596589 
L 602.89178 291.085273 
L 613.404242 291.782571 
L 624.792742 292.381744 
L 647.569742 293.042858 
L 666.842588 293.312088 
L 689.619588 293.412052 
L 701.884127 293.418798 
L 701.884127 293.418798 
" clip-path="url(#p6ced2e2c69)" style="fill: none; stroke: #2ca02c; stroke-width: 3.5; stroke-linecap: round"/>
   </g>
   <g id="line2d_38">
    <path d="M 65.004163 50.88 
L 65.880202 50.88 
L 66.75624 52.373947 
L 67.632279 55.266782 
L 68.508317 60.615184 
L 69.384356 66.918461 
L 70.260394 74.355077 
L 71.136433 83.652381 
L 72.88851 105.307247 
L 74.640587 123.519168 
L 76.392663 139.028983 
L 78.14474 152.544416 
L 79.896817 163.644758 
L 80.772856 164.70941 
L 81.648894 165.464356 
L 82.524933 165.951912 
L 83.400971 166.286149 
L 85.153048 166.598308 
L 86.905125 166.635105 
L 89.53324 166.447441 
L 91.285317 166.155521 
L 93.037394 165.652019 
L 94.789471 164.895233 
L 98.293625 163.121632 
L 104.425894 159.833232 
L 107.05401 157.960893 
L 109.682125 155.67459 
L 117.566471 148.643351 
L 122.822702 144.182976 
L 126.326856 141.537292 
L 128.078933 140.363477 
L 130.707048 139.005065 
L 133.335164 137.880925 
L 135.087241 137.353506 
L 137.715356 136.824246 
L 147.351779 135.101547 
L 151.731971 134.839677 
L 154.360087 134.799814 
L 161.368395 135.241988 
L 165.748587 135.940512 
L 178.013125 137.801812 
L 178.889164 138.047737 
L 180.641241 138.331072 
L 183.269356 138.993413 
L 185.897472 139.664339 
L 193.781818 141.451433 
L 197.285972 142.402628 
L 202.542202 143.713818 
L 206.046356 144.712849 
L 208.674472 145.730278 
L 211.302587 146.914519 
L 213.054664 147.735699 
L 220.93901 150.637733 
L 223.567125 151.833013 
L 227.071279 153.475373 
L 231.451472 155.212178 
L 241.963933 160.189547 
L 243.71601 160.892364 
L 247.220164 162.367912 
L 252.476395 164.469005 
L 259.484702 167.560542 
L 269.121126 170.934188 
L 271.749241 171.812402 
L 276.129433 173.625867 
L 277.88151 174.455633 
L 285.765856 177.794935 
L 291.022087 180.405662 
L 298.030395 183.912389 
L 306.79078 188.190007 
L 311.170972 190.418661 
L 314.675126 191.751316 
L 316.427203 192.379926 
L 322.559472 194.452808 
L 326.939664 196.467428 
L 330.443818 198.101815 
L 332.195895 198.797886 
L 335.700049 200.451285 
L 339.204203 202.102845 
L 349.716664 207.618672 
L 353.220818 209.351797 
L 355.848934 210.581421 
L 375.997818 218.773596 
L 379.501972 220.415956 
L 382.130087 221.599584 
L 386.51028 223.50688 
L 389.138395 224.845054 
L 394.394626 227.514042 
L 397.022741 228.643702 
L 400.526895 230.254171 
L 404.031049 231.817418 
L 410.163318 234.312235 
L 415.419549 236.076638 
L 418.047664 236.829131 
L 425.055972 238.676939 
L 433.816357 241.276014 
L 438.196549 242.868085 
L 441.700703 244.092189 
L 446.080895 245.359222 
L 450.461088 246.476616 
L 453.089203 247.320487 
L 457.469395 248.797875 
L 460.973549 249.815305 
L 470.609972 252.337719 
L 473.238088 253.006806 
L 501.271319 259.356079 
L 517.916049 262.426765 
L 528.428511 263.969161 
L 534.56078 264.798313 
L 544.197203 265.926133 
L 547.701357 266.300233 
L 553.833626 266.815387 
L 563.47005 267.681336 
L 579.238742 268.845952 
L 593.255357 269.922256 
L 605.519896 270.54596 
L 637.933319 271.55419 
L 652.825973 271.752279 
L 689.619588 272.008016 
L 701.884127 272.015376 
L 701.884127 272.015376 
" clip-path="url(#p6ced2e2c69)" style="fill: none; stroke: #1f77b4; stroke-width: 3.5; stroke-linecap: round"/>
   </g>
   <g id="patch_3">
    <path d="M 64.128125 474.24 
L 64.128125 30.72 
" style="fill: none; stroke: #cccccc; stroke-linejoin: miter; stroke-linecap: square"/>
   </g>
   <g id="patch_4">
    <path d="M 733.728125 474.24 
L 733.728125 30.72 
" style="fill: none; stroke: #cccccc; stroke-linejoin: miter; stroke-linecap: square"/>
   </g>
   <g id="patch_5">
    <path d="M 64.128125 474.24 
L 733.728125 474.24 
" style="fill: none; stroke: #cccccc; stroke-linejoin: miter; stroke-linecap: square"/>
   </g>
   <g id="patch_6">
    <path d="M 64.128125 30.72 
L 733.728125 30.72 
" style="fill: none; stroke: #cccccc; stroke-linejoin: miter; stroke-linecap: square"/>
   </g>
   <g id="text_20">
    <!-- Evolution of Novelty Multiplier ($m_{CU}$) -->
    <g style="fill: #262626" transform="translate(190.848125 24.72) scale(0.24 -0.24)">
     <defs>
      <path id="Arial-BoldMT-45" d="M 466 0 
L 466 4581 
L 3863 4581 
L 3863 3806 
L 1391 3806 
L 1391 2791 
L 3691 2791 
L 3691 2019 
L 1391 2019 
L 1391 772 
L 3950 772 
L 3950 0 
L 466 0 
z
" transform="scale(0.015625)"/>
      <path id="Arial-BoldMT-76" d="M 1372 0 
L 34 3319 
L 956 3319 
L 1581 1625 
L 1763 1059 
Q 1834 1275 1853 1344 
Q 1897 1484 1947 1625 
L 2578 3319 
L 3481 3319 
L 2163 0 
L 1372 0 
z
" transform="scale(0.015625)"/>
      <path id="Arial-BoldMT-6f" d="M 256 1706 
Q 256 2144 472 2553 
Q 688 2963 1083 3178 
Q 1478 3394 1966 3394 
Q 2719 3394 3200 2905 
Q 3681 2416 3681 1669 
Q 3681 916 3195 420 
Q 2709 -75 1972 -75 
Q 1516 -75 1102 131 
Q 688 338 472 736 
Q 256 1134 256 1706 
z
M 1156 1659 
Q 1156 1166 1390 903 
Q 1625 641 1969 641 
Q 2313 641 2545 903 
Q 2778 1166 2778 1666 
Q 2778 2153 2545 2415 
Q 2313 2678 1969 2678 
Q 1625 2678 1390 2415 
Q 1156 2153 1156 1659 
z
" transform="scale(0.015625)"/>
      <path id="Arial-BoldMT-6c" d="M 459 0 
L 459 4581 
L 1338 4581 
L 1338 0 
L 459 0 
z
" transform="scale(0.015625)"/>
      <path id="Arial-BoldMT-75" d="M 2644 0 
L 2644 497 
Q 2463 231 2167 78 
Q 1872 -75 1544 -75 
Q 1209 -75 943 72 
Q 678 219 559 484 
Q 441 750 441 1219 
L 441 3319 
L 1319 3319 
L 1319 1794 
Q 1319 1094 1367 936 
Q 1416 778 1544 686 
Q 1672 594 1869 594 
Q 2094 594 2272 717 
Q 2450 841 2515 1023 
Q 2581 1206 2581 1919 
L 2581 3319 
L 3459 3319 
L 3459 0 
L 2644 0 
z
" transform="scale(0.015625)"/>
      <path id="Arial-BoldMT-74" d="M 1981 3319 
L 1981 2619 
L 1381 2619 
L 1381 1281 
Q 1381 875 1398 808 
Q 1416 741 1477 697 
Q 1538 653 1625 653 
Q 1747 653 1978 738 
L 2053 56 
Q 1747 -75 1359 -75 
Q 1122 -75 931 4 
Q 741 84 652 211 
Q 563 338 528 553 
Q 500 706 500 1172 
L 500 2619 
L 97 2619 
L 97 3319 
L 500 3319 
L 500 3978 
L 1381 4491 
L 1381 3319 
L 1981 3319 
z
" transform="scale(0.015625)"/>
      <path id="Arial-BoldMT-69" d="M 459 3769 
L 459 4581 
L 1338 4581 
L 1338 3769 
L 459 3769 
z
M 459 0 
L 459 3319 
L 1338 3319 
L 1338 0 
L 459 0 
z
" transform="scale(0.015625)"/>
      <path id="Arial-BoldMT-6e" d="M 3478 0 
L 2600 0 
L 2600 1694 
Q 2600 2231 2544 2389 
Q 2488 2547 2361 2634 
Q 2234 2722 2056 2722 
Q 1828 2722 1647 2597 
Q 1466 2472 1398 2265 
Q 1331 2059 1331 1503 
L 1331 0 
L 453 0 
L 453 3319 
L 1269 3319 
L 1269 2831 
Q 1703 3394 2363 3394 
Q 2653 3394 2893 3289 
Q 3134 3184 3257 3021 
Q 3381 2859 3429 2653 
Q 3478 2447 3478 2063 
L 3478 0 
z
" transform="scale(0.015625)"/>
      <path id="Arial-BoldMT-20" transform="scale(0.015625)"/>
      <path id="Arial-BoldMT-66" d="M 75 3319 
L 563 3319 
L 563 3569 
Q 563 3988 652 4194 
Q 741 4400 980 4529 
Q 1219 4659 1584 4659 
Q 1959 4659 2319 4547 
L 2200 3934 
Q 1991 3984 1797 3984 
Q 1606 3984 1523 3895 
Q 1441 3806 1441 3553 
L 1441 3319 
L 2097 3319 
L 2097 2628 
L 1441 2628 
L 1441 0 
L 563 0 
L 563 2628 
L 75 2628 
L 75 3319 
z
" transform="scale(0.015625)"/>
      <path id="Arial-BoldMT-4e" d="M 475 0 
L 475 4581 
L 1375 4581 
L 3250 1522 
L 3250 4581 
L 4109 4581 
L 4109 0 
L 3181 0 
L 1334 2988 
L 1334 0 
L 475 0 
z
" transform="scale(0.015625)"/>
      <path id="Arial-BoldMT-65" d="M 2381 1056 
L 3256 909 
Q 3088 428 2723 176 
Q 2359 -75 1813 -75 
Q 947 -75 531 491 
Q 203 944 203 1634 
Q 203 2459 634 2926 
Q 1066 3394 1725 3394 
Q 2466 3394 2894 2905 
Q 3322 2416 3303 1406 
L 1103 1406 
Q 1113 1016 1316 798 
Q 1519 581 1822 581 
Q 2028 581 2168 693 
Q 2309 806 2381 1056 
z
M 2431 1944 
Q 2422 2325 2234 2523 
Q 2047 2722 1778 2722 
Q 1491 2722 1303 2513 
Q 1116 2303 1119 1944 
L 2431 1944 
z
" transform="scale(0.015625)"/>
      <path id="Arial-BoldMT-79" d="M 44 3319 
L 978 3319 
L 1772 963 
L 2547 3319 
L 3456 3319 
L 2284 125 
L 2075 -453 
Q 1959 -744 1854 -897 
Q 1750 -1050 1614 -1145 
Q 1478 -1241 1279 -1294 
Q 1081 -1347 831 -1347 
Q 578 -1347 334 -1294 
L 256 -606 
Q 463 -647 628 -647 
Q 934 -647 1081 -467 
Q 1228 -288 1306 -9 
L 44 3319 
z
" transform="scale(0.015625)"/>
      <path id="Arial-BoldMT-4d" d="M 453 0 
L 453 4581 
L 1838 4581 
L 2669 1456 
L 3491 4581 
L 4878 4581 
L 4878 0 
L 4019 0 
L 4019 3606 
L 3109 0 
L 2219 0 
L 1313 3606 
L 1313 0 
L 453 0 
z
" transform="scale(0.015625)"/>
      <path id="Arial-BoldMT-70" d="M 434 3319 
L 1253 3319 
L 1253 2831 
Q 1413 3081 1684 3237 
Q 1956 3394 2288 3394 
Q 2866 3394 3269 2941 
Q 3672 2488 3672 1678 
Q 3672 847 3265 386 
Q 2859 -75 2281 -75 
Q 2006 -75 1782 34 
Q 1559 144 1313 409 
L 1313 -1263 
L 434 -1263 
L 434 3319 
z
M 1303 1716 
Q 1303 1156 1525 889 
Q 1747 622 2066 622 
Q 2372 622 2575 867 
Q 2778 1113 2778 1672 
Q 2778 2194 2568 2447 
Q 2359 2700 2050 2700 
Q 1728 2700 1515 2451 
Q 1303 2203 1303 1716 
z
" transform="scale(0.015625)"/>
      <path id="Arial-BoldMT-72" d="M 1300 0 
L 422 0 
L 422 3319 
L 1238 3319 
L 1238 2847 
Q 1447 3181 1614 3287 
Q 1781 3394 1994 3394 
Q 2294 3394 2572 3228 
L 2300 2463 
Q 2078 2606 1888 2606 
Q 1703 2606 1575 2504 
Q 1447 2403 1373 2137 
Q 1300 1872 1300 1025 
L 1300 0 
z
" transform="scale(0.015625)"/>
      <path id="Arial-BoldMT-28" d="M 1916 -1347 
L 1313 -1347 
Q 834 -625 584 153 
Q 334 931 334 1659 
Q 334 2563 644 3369 
Q 913 4069 1325 4659 
L 1925 4659 
Q 1497 3713 1336 3048 
Q 1175 2384 1175 1641 
Q 1175 1128 1270 590 
Q 1366 53 1531 -431 
Q 1641 -750 1916 -1347 
z
" transform="scale(0.015625)"/>
      <path id="DejaVuSans-Oblique-6d" d="M 5747 2113 
L 5338 0 
L 4763 0 
L 5166 2094 
Q 5191 2228 5203 2325 
Q 5216 2422 5216 2491 
Q 5216 2772 5059 2928 
Q 4903 3084 4622 3084 
Q 4203 3084 3875 2770 
Q 3547 2456 3450 1953 
L 3066 0 
L 2491 0 
L 2900 2094 
Q 2925 2209 2937 2307 
Q 2950 2406 2950 2484 
Q 2950 2769 2794 2926 
Q 2638 3084 2363 3084 
Q 1938 3084 1609 2770 
Q 1281 2456 1184 1953 
L 800 0 
L 225 0 
L 909 3500 
L 1484 3500 
L 1375 2956 
Q 1609 3263 1923 3423 
Q 2238 3584 2597 3584 
Q 2978 3584 3223 3384 
Q 3469 3184 3519 2828 
Q 3781 3197 4126 3390 
Q 4472 3584 4856 3584 
Q 5306 3584 5551 3325 
Q 5797 3066 5797 2591 
Q 5797 2488 5784 2364 
Q 5772 2241 5747 2113 
z
" transform="scale(0.015625)"/>
      <path id="DejaVuSans-Oblique-43" d="M 4447 4306 
L 4319 3641 
Q 4019 3944 3683 4091 
Q 3347 4238 2956 4238 
Q 2422 4238 2017 3981 
Q 1613 3725 1319 3200 
Q 1131 2863 1032 2486 
Q 934 2109 934 1728 
Q 934 1091 1264 756 
Q 1594 422 2222 422 
Q 2656 422 3056 561 
Q 3456 700 3834 978 
L 3688 231 
Q 3316 72 2936 -9 
Q 2556 -91 2175 -91 
Q 1278 -91 773 396 
Q 269 884 269 1753 
Q 269 2309 461 2846 
Q 653 3384 1013 3828 
Q 1394 4300 1883 4525 
Q 2372 4750 3022 4750 
Q 3422 4750 3780 4639 
Q 4138 4528 4447 4306 
z
" transform="scale(0.015625)"/>
      <path id="DejaVuSans-Oblique-55" d="M 991 4666 
L 1625 4666 
L 1075 1831 
Q 1041 1641 1027 1517 
Q 1013 1394 1013 1300 
Q 1013 869 1253 645 
Q 1494 422 1959 422 
Q 2563 422 2898 753 
Q 3234 1084 3378 1831 
L 3928 4666 
L 4563 4666 
L 4000 1753 
Q 3816 809 3300 359 
Q 2784 -91 1888 -91 
Q 1188 -91 780 261 
Q 372 613 372 1216 
Q 372 1325 387 1461 
Q 403 1597 434 1753 
L 991 4666 
z
" transform="scale(0.015625)"/>
      <path id="Arial-BoldMT-29" d="M 216 -1347 
Q 475 -791 581 -494 
Q 688 -197 778 190 
Q 869 578 912 926 
Q 956 1275 956 1641 
Q 956 2384 797 3048 
Q 638 3713 209 4659 
L 806 4659 
Q 1278 3988 1539 3234 
Q 1800 2481 1800 1706 
Q 1800 1053 1594 306 
Q 1359 -531 822 -1347 
L 216 -1347 
z
" transform="scale(0.015625)"/>
     </defs>
     <use xlink:href="#Arial-BoldMT-45" transform="translate(0 0.203125)"/>
     <use xlink:href="#Arial-BoldMT-76" transform="translate(66.699219 0.203125)"/>
     <use xlink:href="#Arial-BoldMT-6f" transform="translate(122.314453 0.203125)"/>
     <use xlink:href="#Arial-BoldMT-6c" transform="translate(183.398438 0.203125)"/>
     <use xlink:href="#Arial-BoldMT-75" transform="translate(211.181641 0.203125)"/>
     <use xlink:href="#Arial-BoldMT-74" transform="translate(272.265625 0.203125)"/>
     <use xlink:href="#Arial-BoldMT-69" transform="translate(305.566406 0.203125)"/>
     <use xlink:href="#Arial-BoldMT-6f" transform="translate(333.349609 0.203125)"/>
     <use xlink:href="#Arial-BoldMT-6e" transform="translate(394.433594 0.203125)"/>
     <use xlink:href="#Arial-BoldMT-20" transform="translate(455.517578 0.203125)"/>
     <use xlink:href="#Arial-BoldMT-6f" transform="translate(483.300781 0.203125)"/>
     <use xlink:href="#Arial-BoldMT-66" transform="translate(544.384766 0.203125)"/>
     <use xlink:href="#Arial-BoldMT-20" transform="translate(577.685547 0.203125)"/>
     <use xlink:href="#Arial-BoldMT-4e" transform="translate(605.46875 0.203125)"/>
     <use xlink:href="#Arial-BoldMT-6f" transform="translate(677.685547 0.203125)"/>
     <use xlink:href="#Arial-BoldMT-76" transform="translate(738.769531 0.203125)"/>
     <use xlink:href="#Arial-BoldMT-65" transform="translate(794.384766 0.203125)"/>
     <use xlink:href="#Arial-BoldMT-6c" transform="translate(850 0.203125)"/>
     <use xlink:href="#Arial-BoldMT-74" transform="translate(877.783203 0.203125)"/>
     <use xlink:href="#Arial-BoldMT-79" transform="translate(911.083984 0.203125)"/>
     <use xlink:href="#Arial-BoldMT-20" transform="translate(966.699219 0.203125)"/>
     <use xlink:href="#Arial-BoldMT-4d" transform="translate(994.482422 0.203125)"/>
     <use xlink:href="#Arial-BoldMT-75" transform="translate(1077.783203 0.203125)"/>
     <use xlink:href="#Arial-BoldMT-6c" transform="translate(1138.867188 0.203125)"/>
     <use xlink:href="#Arial-BoldMT-74" transform="translate(1166.650391 0.203125)"/>
     <use xlink:href="#Arial-BoldMT-69" transform="translate(1199.951172 0.203125)"/>
     <use xlink:href="#Arial-BoldMT-70" transform="translate(1227.734375 0.203125)"/>
     <use xlink:href="#Arial-BoldMT-6c" transform="translate(1288.818359 0.203125)"/>
     <use xlink:href="#Arial-BoldMT-69" transform="translate(1316.601562 0.203125)"/>
     <use xlink:href="#Arial-BoldMT-65" transform="translate(1344.384766 0.203125)"/>
     <use xlink:href="#Arial-BoldMT-72" transform="translate(1400 0.203125)"/>
     <use xlink:href="#Arial-BoldMT-20" transform="translate(1438.916016 0.203125)"/>
     <use xlink:href="#Arial-BoldMT-28" transform="translate(1466.699219 0.203125)"/>
     <use xlink:href="#DejaVuSans-Oblique-6d" transform="translate(1500 0.203125)"/>
     <use xlink:href="#DejaVuSans-Oblique-43" transform="translate(1597.412109 -16.203125) scale(0.7)"/>
     <use xlink:href="#DejaVuSans-Oblique-55" transform="translate(1646.289062 -16.203125) scale(0.7)"/>
     <use xlink:href="#Arial-BoldMT-29" transform="translate(1700.258789 0.203125)"/>
    </g>
   </g>
   <g id="legend_1">
    <g id="line2d_39">
     <path d="M 497.554063 53.504062 
L 515.554063 53.504062 
L 533.554063 53.504062 
" style="fill: none; stroke: #d62728; stroke-width: 3.5; stroke-linecap: round"/>
    </g>
    <g id="text_21">
     <!-- Prior Factor = 0.0625 -->
     <g style="fill: #262626" transform="translate(547.954063 59.804062) scale(0.18 -0.18)">
      <defs>
       <path id="ArialMT-6f" d="M 213 1659 
Q 213 2581 725 3025 
Q 1153 3394 1769 3394 
Q 2453 3394 2887 2945 
Q 3322 2497 3322 1706 
Q 3322 1066 3130 698 
Q 2938 331 2570 128 
Q 2203 -75 1769 -75 
Q 1072 -75 642 372 
Q 213 819 213 1659 
z
M 791 1659 
Q 791 1022 1069 705 
Q 1347 388 1769 388 
Q 2188 388 2466 706 
Q 2744 1025 2744 1678 
Q 2744 2294 2464 2611 
Q 2184 2928 1769 2928 
Q 1347 2928 1069 2612 
Q 791 2297 791 1659 
z
" transform="scale(0.015625)"/>
       <path id="ArialMT-46" d="M 525 0 
L 525 4581 
L 3616 4581 
L 3616 4041 
L 1131 4041 
L 1131 2622 
L 3281 2622 
L 3281 2081 
L 1131 2081 
L 1131 0 
L 525 0 
z
" transform="scale(0.015625)"/>
       <path id="ArialMT-63" d="M 2588 1216 
L 3141 1144 
Q 3050 572 2676 248 
Q 2303 -75 1759 -75 
Q 1078 -75 664 370 
Q 250 816 250 1647 
Q 250 2184 428 2587 
Q 606 2991 970 3192 
Q 1334 3394 1763 3394 
Q 2303 3394 2647 3120 
Q 2991 2847 3088 2344 
L 2541 2259 
Q 2463 2594 2264 2762 
Q 2066 2931 1784 2931 
Q 1359 2931 1093 2626 
Q 828 2322 828 1663 
Q 828 994 1084 691 
Q 1341 388 1753 388 
Q 2084 388 2306 591 
Q 2528 794 2588 1216 
z
" transform="scale(0.015625)"/>
       <path id="ArialMT-3d" d="M 3381 2694 
L 356 2694 
L 356 3219 
L 3381 3219 
L 3381 2694 
z
M 3381 1303 
L 356 1303 
L 356 1828 
L 3381 1828 
L 3381 1303 
z
" transform="scale(0.015625)"/>
      </defs>
      <use xlink:href="#ArialMT-50"/>
      <use xlink:href="#ArialMT-72" transform="translate(66.699219 0)"/>
      <use xlink:href="#ArialMT-69" transform="translate(100 0)"/>
      <use xlink:href="#ArialMT-6f" transform="translate(122.216797 0)"/>
      <use xlink:href="#ArialMT-72" transform="translate(177.832031 0)"/>
      <use xlink:href="#ArialMT-20" transform="translate(211.132812 0)"/>
      <use xlink:href="#ArialMT-46" transform="translate(238.916016 0)"/>
      <use xlink:href="#ArialMT-61" transform="translate(300 0)"/>
      <use xlink:href="#ArialMT-63" transform="translate(355.615234 0)"/>
      <use xlink:href="#ArialMT-74" transform="translate(405.615234 0)"/>
      <use xlink:href="#ArialMT-6f" transform="translate(433.398438 0)"/>
      <use xlink:href="#ArialMT-72" transform="translate(489.013672 0)"/>
      <use xlink:href="#ArialMT-20" transform="translate(522.314453 0)"/>
      <use xlink:href="#ArialMT-3d" transform="translate(550.097656 0)"/>
      <use xlink:href="#ArialMT-20" transform="translate(608.496094 0)"/>
      <use xlink:href="#ArialMT-30" transform="translate(636.279297 0)"/>
      <use xlink:href="#ArialMT-2e" transform="translate(691.894531 0)"/>
      <use xlink:href="#ArialMT-30" transform="translate(719.677734 0)"/>
      <use xlink:href="#ArialMT-36" transform="translate(775.292969 0)"/>
      <use xlink:href="#ArialMT-32" transform="translate(830.908203 0)"/>
      <use xlink:href="#ArialMT-35" transform="translate(886.523438 0)"/>
     </g>
    </g>
    <g id="line2d_40">
     <path d="M 497.554063 78.965625 
L 515.554063 78.965625 
L 533.554063 78.965625 
" style="fill: none; stroke: #ffbf00; stroke-width: 3.5; stroke-linecap: round"/>
    </g>
    <g id="text_22">
     <!-- Prior Factor = 0.125 -->
     <g style="fill: #262626" transform="translate(547.954063 85.265625) scale(0.18 -0.18)">
      <use xlink:href="#ArialMT-50"/>
      <use xlink:href="#ArialMT-72" transform="translate(66.699219 0)"/>
      <use xlink:href="#ArialMT-69" transform="translate(100 0)"/>
      <use xlink:href="#ArialMT-6f" transform="translate(122.216797 0)"/>
      <use xlink:href="#ArialMT-72" transform="translate(177.832031 0)"/>
      <use xlink:href="#ArialMT-20" transform="translate(211.132812 0)"/>
      <use xlink:href="#ArialMT-46" transform="translate(238.916016 0)"/>
      <use xlink:href="#ArialMT-61" transform="translate(300 0)"/>
      <use xlink:href="#ArialMT-63" transform="translate(355.615234 0)"/>
      <use xlink:href="#ArialMT-74" transform="translate(405.615234 0)"/>
      <use xlink:href="#ArialMT-6f" transform="translate(433.398438 0)"/>
      <use xlink:href="#ArialMT-72" transform="translate(489.013672 0)"/>
      <use xlink:href="#ArialMT-20" transform="translate(522.314453 0)"/>
      <use xlink:href="#ArialMT-3d" transform="translate(550.097656 0)"/>
      <use xlink:href="#ArialMT-20" transform="translate(608.496094 0)"/>
      <use xlink:href="#ArialMT-30" transform="translate(636.279297 0)"/>
      <use xlink:href="#ArialMT-2e" transform="translate(691.894531 0)"/>
      <use xlink:href="#ArialMT-31" transform="translate(719.677734 0)"/>
      <use xlink:href="#ArialMT-32" transform="translate(775.292969 0)"/>
      <use xlink:href="#ArialMT-35" transform="translate(830.908203 0)"/>
     </g>
    </g>
    <g id="line2d_41">
     <path d="M 497.554063 104.427187 
L 515.554063 104.427187 
L 533.554063 104.427187 
" style="fill: none; stroke: #2ca02c; stroke-width: 3.5; stroke-linecap: round"/>
    </g>
    <g id="text_23">
     <!-- Prior Factor = 0.25 -->
     <g style="fill: #262626" transform="translate(547.954063 110.727187) scale(0.18 -0.18)">
      <use xlink:href="#ArialMT-50"/>
      <use xlink:href="#ArialMT-72" transform="translate(66.699219 0)"/>
      <use xlink:href="#ArialMT-69" transform="translate(100 0)"/>
      <use xlink:href="#ArialMT-6f" transform="translate(122.216797 0)"/>
      <use xlink:href="#ArialMT-72" transform="translate(177.832031 0)"/>
      <use xlink:href="#ArialMT-20" transform="translate(211.132812 0)"/>
      <use xlink:href="#ArialMT-46" transform="translate(238.916016 0)"/>
      <use xlink:href="#ArialMT-61" transform="translate(300 0)"/>
      <use xlink:href="#ArialMT-63" transform="translate(355.615234 0)"/>
      <use xlink:href="#ArialMT-74" transform="translate(405.615234 0)"/>
      <use xlink:href="#ArialMT-6f" transform="translate(433.398438 0)"/>
      <use xlink:href="#ArialMT-72" transform="translate(489.013672 0)"/>
      <use xlink:href="#ArialMT-20" transform="translate(522.314453 0)"/>
      <use xlink:href="#ArialMT-3d" transform="translate(550.097656 0)"/>
      <use xlink:href="#ArialMT-20" transform="translate(608.496094 0)"/>
      <use xlink:href="#ArialMT-30" transform="translate(636.279297 0)"/>
      <use xlink:href="#ArialMT-2e" transform="translate(691.894531 0)"/>
      <use xlink:href="#ArialMT-32" transform="translate(719.677734 0)"/>
      <use xlink:href="#ArialMT-35" transform="translate(775.292969 0)"/>
     </g>
    </g>
    <g id="line2d_42">
     <path d="M 497.554063 129.88875 
L 515.554063 129.88875 
L 533.554063 129.88875 
" style="fill: none; stroke: #1f77b4; stroke-width: 3.5; stroke-linecap: round"/>
    </g>
    <g id="text_24">
     <!-- Prior Factor = 0.5 -->
     <g style="fill: #262626" transform="translate(547.954063 136.18875) scale(0.18 -0.18)">
      <use xlink:href="#ArialMT-50"/>
      <use xlink:href="#ArialMT-72" transform="translate(66.699219 0)"/>
      <use xlink:href="#ArialMT-69" transform="translate(100 0)"/>
      <use xlink:href="#ArialMT-6f" transform="translate(122.216797 0)"/>
      <use xlink:href="#ArialMT-72" transform="translate(177.832031 0)"/>
      <use xlink:href="#ArialMT-20" transform="translate(211.132812 0)"/>
      <use xlink:href="#ArialMT-46" transform="translate(238.916016 0)"/>
      <use xlink:href="#ArialMT-61" transform="translate(300 0)"/>
      <use xlink:href="#ArialMT-63" transform="translate(355.615234 0)"/>
      <use xlink:href="#ArialMT-74" transform="translate(405.615234 0)"/>
      <use xlink:href="#ArialMT-6f" transform="translate(433.398438 0)"/>
      <use xlink:href="#ArialMT-72" transform="translate(489.013672 0)"/>
      <use xlink:href="#ArialMT-20" transform="translate(522.314453 0)"/>
      <use xlink:href="#ArialMT-3d" transform="translate(550.097656 0)"/>
      <use xlink:href="#ArialMT-20" transform="translate(608.496094 0)"/>
      <use xlink:href="#ArialMT-30" transform="translate(636.279297 0)"/>
      <use xlink:href="#ArialMT-2e" transform="translate(691.894531 0)"/>
      <use xlink:href="#ArialMT-35" transform="translate(719.677734 0)"/>
     </g>
    </g>
   </g>
  </g>
 </g>
 <defs>
  <clipPath id="p6ced2e2c69">
   <rect x="64.128125" y="30.72" width="669.6" height="443.52"/>
  </clipPath>
 </defs>
</svg>
