<?xml version="1.0" encoding="utf-8" standalone="no"?>
<!DOCTYPE svg PUBLIC "-//W3C//DTD SVG 1.1//EN"
  "http://www.w3.org/Graphics/SVG/1.1/DTD/svg11.dtd">
<svg xmlns:xlink="http://www.w3.org/1999/xlink" width="741.375625pt" height="523.30125pt" viewBox="0 0 741.375625 523.30125" xmlns="http://www.w3.org/2000/svg" version="1.1">
 <metadata>
  <rdf:RDF xmlns:dc="http://purl.org/dc/elements/1.1/" xmlns:cc="http://creativecommons.org/ns#" xmlns:rdf="http://www.w3.org/1999/02/22-rdf-syntax-ns#">
   <cc:Work>
    <dc:type rdf:resource="http://purl.org/dc/dcmitype/StillImage"/>
    <dc:date>2025-09-24T13:10:15.591913</dc:date>
    <dc:format>image/svg+xml</dc:format>
    <dc:creator>
     <cc:Agent>
      <dc:title>Matplotlib v3.10.6, https://matplotlib.org/</dc:title>
     </cc:Agent>
    </dc:creator>
   </cc:Work>
  </rdf:RDF>
 </metadata>
 <defs>
  <style type="text/css">*{stroke-linejoin: round; stroke-linecap: butt}</style>
 </defs>
 <g id="figure_1">
  <g id="patch_1">
   <path d="M 0 523.30125 
L 741.375625 523.30125 
L 741.375625 0 
L 0 0 
z
" style="fill: #ffffff"/>
  </g>
  <g id="axes_1">
   <g id="patch_2">
    <path d="M 64.575625 475.2 
L 734.175625 475.2 
L 734.175625 31.68 
L 64.575625 31.68 
z
" style="fill: #ffffff"/>
   </g>
   <g id="matplotlib.axis_1">
    <g id="xtick_1">
     <g id="line2d_1">
      <path d="M 64.575625 475.2 
L 64.575625 31.68 
" clip-path="url(#pb8178d4133)" style="fill: none; stroke: #cccccc; stroke-width: 0.8; stroke-linecap: round"/>
     </g>
     <g id="line2d_2"/>
     <g id="text_1">
      <!-- 0 -->
      <g style="fill: #262626" transform="translate(60.126875 490.1525) scale(0.16 -0.16)">
       <defs>
        <path id="ArialMT-30" d="M 266 2259 
Q 266 3072 433 3567 
Q 600 4063 929 4331 
Q 1259 4600 1759 4600 
Q 2128 4600 2406 4451 
Q 2684 4303 2865 4023 
Q 3047 3744 3150 3342 
Q 3253 2941 3253 2259 
Q 3253 1453 3087 958 
Q 2922 463 2592 192 
Q 2263 -78 1759 -78 
Q 1097 -78 719 397 
Q 266 969 266 2259 
z
M 844 2259 
Q 844 1131 1108 757 
Q 1372 384 1759 384 
Q 2147 384 2411 759 
Q 2675 1134 2675 2259 
Q 2675 3391 2411 3762 
Q 2147 4134 1753 4134 
Q 1366 4134 1134 3806 
Q 844 3388 844 2259 
z
" transform="scale(0.015625)"/>
       </defs>
       <use xlink:href="#ArialMT-30"/>
      </g>
     </g>
    </g>
    <g id="xtick_2">
     <g id="line2d_3">
      <path d="M 152.179471 475.2 
L 152.179471 31.68 
" clip-path="url(#pb8178d4133)" style="fill: none; stroke: #cccccc; stroke-width: 0.8; stroke-linecap: round"/>
     </g>
     <g id="line2d_4"/>
     <g id="text_2">
      <!-- 100 -->
      <g style="fill: #262626" transform="translate(138.833221 490.1525) scale(0.16 -0.16)">
       <defs>
        <path id="ArialMT-31" d="M 2384 0 
L 1822 0 
L 1822 3584 
Q 1619 3391 1289 3197 
Q 959 3003 697 2906 
L 697 3450 
Q 1169 3672 1522 3987 
Q 1875 4303 2022 4600 
L 2384 4600 
L 2384 0 
z
" transform="scale(0.015625)"/>
       </defs>
       <use xlink:href="#ArialMT-31"/>
       <use xlink:href="#ArialMT-30" transform="translate(55.615234 0)"/>
       <use xlink:href="#ArialMT-30" transform="translate(111.230469 0)"/>
      </g>
     </g>
    </g>
    <g id="xtick_3">
     <g id="line2d_5">
      <path d="M 239.783318 475.2 
L 239.783318 31.68 
" clip-path="url(#pb8178d4133)" style="fill: none; stroke: #cccccc; stroke-width: 0.8; stroke-linecap: round"/>
     </g>
     <g id="line2d_6"/>
     <g id="text_3">
      <!-- 200 -->
      <g style="fill: #262626" transform="translate(226.437068 490.1525) scale(0.16 -0.16)">
       <defs>
        <path id="ArialMT-32" d="M 3222 541 
L 3222 0 
L 194 0 
Q 188 203 259 391 
Q 375 700 629 1000 
Q 884 1300 1366 1694 
Q 2113 2306 2375 2664 
Q 2638 3022 2638 3341 
Q 2638 3675 2398 3904 
Q 2159 4134 1775 4134 
Q 1369 4134 1125 3890 
Q 881 3647 878 3216 
L 300 3275 
Q 359 3922 746 4261 
Q 1134 4600 1788 4600 
Q 2447 4600 2831 4234 
Q 3216 3869 3216 3328 
Q 3216 3053 3103 2787 
Q 2991 2522 2730 2228 
Q 2469 1934 1863 1422 
Q 1356 997 1212 845 
Q 1069 694 975 541 
L 3222 541 
z
" transform="scale(0.015625)"/>
       </defs>
       <use xlink:href="#ArialMT-32"/>
       <use xlink:href="#ArialMT-30" transform="translate(55.615234 0)"/>
       <use xlink:href="#ArialMT-30" transform="translate(111.230469 0)"/>
      </g>
     </g>
    </g>
    <g id="xtick_4">
     <g id="line2d_7">
      <path d="M 327.387164 475.2 
L 327.387164 31.68 
" clip-path="url(#pb8178d4133)" style="fill: none; stroke: #cccccc; stroke-width: 0.8; stroke-linecap: round"/>
     </g>
     <g id="line2d_8"/>
     <g id="text_4">
      <!-- 300 -->
      <g style="fill: #262626" transform="translate(314.040914 490.1525) scale(0.16 -0.16)">
       <defs>
        <path id="ArialMT-33" d="M 269 1209 
L 831 1284 
Q 928 806 1161 595 
Q 1394 384 1728 384 
Q 2125 384 2398 659 
Q 2672 934 2672 1341 
Q 2672 1728 2419 1979 
Q 2166 2231 1775 2231 
Q 1616 2231 1378 2169 
L 1441 2663 
Q 1497 2656 1531 2656 
Q 1891 2656 2178 2843 
Q 2466 3031 2466 3422 
Q 2466 3731 2256 3934 
Q 2047 4138 1716 4138 
Q 1388 4138 1169 3931 
Q 950 3725 888 3313 
L 325 3413 
Q 428 3978 793 4289 
Q 1159 4600 1703 4600 
Q 2078 4600 2393 4439 
Q 2709 4278 2876 4000 
Q 3044 3722 3044 3409 
Q 3044 3113 2884 2869 
Q 2725 2625 2413 2481 
Q 2819 2388 3044 2092 
Q 3269 1797 3269 1353 
Q 3269 753 2831 336 
Q 2394 -81 1725 -81 
Q 1122 -81 723 278 
Q 325 638 269 1209 
z
" transform="scale(0.015625)"/>
       </defs>
       <use xlink:href="#ArialMT-33"/>
       <use xlink:href="#ArialMT-30" transform="translate(55.615234 0)"/>
       <use xlink:href="#ArialMT-30" transform="translate(111.230469 0)"/>
      </g>
     </g>
    </g>
    <g id="xtick_5">
     <g id="line2d_9">
      <path d="M 414.991011 475.2 
L 414.991011 31.68 
" clip-path="url(#pb8178d4133)" style="fill: none; stroke: #cccccc; stroke-width: 0.8; stroke-linecap: round"/>
     </g>
     <g id="line2d_10"/>
     <g id="text_5">
      <!-- 400 -->
      <g style="fill: #262626" transform="translate(401.644761 490.1525) scale(0.16 -0.16)">
       <defs>
        <path id="ArialMT-34" d="M 2069 0 
L 2069 1097 
L 81 1097 
L 81 1613 
L 2172 4581 
L 2631 4581 
L 2631 1613 
L 3250 1613 
L 3250 1097 
L 2631 1097 
L 2631 0 
L 2069 0 
z
M 2069 1613 
L 2069 3678 
L 634 1613 
L 2069 1613 
z
" transform="scale(0.015625)"/>
       </defs>
       <use xlink:href="#ArialMT-34"/>
       <use xlink:href="#ArialMT-30" transform="translate(55.615234 0)"/>
       <use xlink:href="#ArialMT-30" transform="translate(111.230469 0)"/>
      </g>
     </g>
    </g>
    <g id="xtick_6">
     <g id="line2d_11">
      <path d="M 502.594857 475.2 
L 502.594857 31.68 
" clip-path="url(#pb8178d4133)" style="fill: none; stroke: #cccccc; stroke-width: 0.8; stroke-linecap: round"/>
     </g>
     <g id="line2d_12"/>
     <g id="text_6">
      <!-- 500 -->
      <g style="fill: #262626" transform="translate(489.248607 490.1525) scale(0.16 -0.16)">
       <defs>
        <path id="ArialMT-35" d="M 266 1200 
L 856 1250 
Q 922 819 1161 601 
Q 1400 384 1738 384 
Q 2144 384 2425 690 
Q 2706 997 2706 1503 
Q 2706 1984 2436 2262 
Q 2166 2541 1728 2541 
Q 1456 2541 1237 2417 
Q 1019 2294 894 2097 
L 366 2166 
L 809 4519 
L 3088 4519 
L 3088 3981 
L 1259 3981 
L 1013 2750 
Q 1425 3038 1878 3038 
Q 2478 3038 2890 2622 
Q 3303 2206 3303 1553 
Q 3303 931 2941 478 
Q 2500 -78 1738 -78 
Q 1113 -78 717 272 
Q 322 622 266 1200 
z
" transform="scale(0.015625)"/>
       </defs>
       <use xlink:href="#ArialMT-35"/>
       <use xlink:href="#ArialMT-30" transform="translate(55.615234 0)"/>
       <use xlink:href="#ArialMT-30" transform="translate(111.230469 0)"/>
      </g>
     </g>
    </g>
    <g id="xtick_7">
     <g id="line2d_13">
      <path d="M 590.198703 475.2 
L 590.198703 31.68 
" clip-path="url(#pb8178d4133)" style="fill: none; stroke: #cccccc; stroke-width: 0.8; stroke-linecap: round"/>
     </g>
     <g id="line2d_14"/>
     <g id="text_7">
      <!-- 600 -->
      <g style="fill: #262626" transform="translate(576.852453 490.1525) scale(0.16 -0.16)">
       <defs>
        <path id="ArialMT-36" d="M 3184 3459 
L 2625 3416 
Q 2550 3747 2413 3897 
Q 2184 4138 1850 4138 
Q 1581 4138 1378 3988 
Q 1113 3794 959 3422 
Q 806 3050 800 2363 
Q 1003 2672 1297 2822 
Q 1591 2972 1913 2972 
Q 2475 2972 2870 2558 
Q 3266 2144 3266 1488 
Q 3266 1056 3080 686 
Q 2894 316 2569 119 
Q 2244 -78 1831 -78 
Q 1128 -78 684 439 
Q 241 956 241 2144 
Q 241 3472 731 4075 
Q 1159 4600 1884 4600 
Q 2425 4600 2770 4297 
Q 3116 3994 3184 3459 
z
M 888 1484 
Q 888 1194 1011 928 
Q 1134 663 1356 523 
Q 1578 384 1822 384 
Q 2178 384 2434 671 
Q 2691 959 2691 1453 
Q 2691 1928 2437 2201 
Q 2184 2475 1800 2475 
Q 1419 2475 1153 2201 
Q 888 1928 888 1484 
z
" transform="scale(0.015625)"/>
       </defs>
       <use xlink:href="#ArialMT-36"/>
       <use xlink:href="#ArialMT-30" transform="translate(55.615234 0)"/>
       <use xlink:href="#ArialMT-30" transform="translate(111.230469 0)"/>
      </g>
     </g>
    </g>
    <g id="xtick_8">
     <g id="line2d_15">
      <path d="M 677.80255 475.2 
L 677.80255 31.68 
" clip-path="url(#pb8178d4133)" style="fill: none; stroke: #cccccc; stroke-width: 0.8; stroke-linecap: round"/>
     </g>
     <g id="line2d_16"/>
     <g id="text_8">
      <!-- 700 -->
      <g style="fill: #262626" transform="translate(664.4563 490.1525) scale(0.16 -0.16)">
       <defs>
        <path id="ArialMT-37" d="M 303 3981 
L 303 4522 
L 3269 4522 
L 3269 4084 
Q 2831 3619 2401 2847 
Q 1972 2075 1738 1259 
Q 1569 684 1522 0 
L 944 0 
Q 953 541 1156 1306 
Q 1359 2072 1739 2783 
Q 2119 3494 2547 3981 
L 303 3981 
z
" transform="scale(0.015625)"/>
       </defs>
       <use xlink:href="#ArialMT-37"/>
       <use xlink:href="#ArialMT-30" transform="translate(55.615234 0)"/>
       <use xlink:href="#ArialMT-30" transform="translate(111.230469 0)"/>
      </g>
     </g>
    </g>
    <g id="text_9">
     <!-- Training Step -->
     <g style="fill: #262626" transform="translate(340.277188 511.891875) scale(0.2 -0.2)">
      <defs>
       <path id="ArialMT-54" d="M 1659 0 
L 1659 4041 
L 150 4041 
L 150 4581 
L 3781 4581 
L 3781 4041 
L 2266 4041 
L 2266 0 
L 1659 0 
z
" transform="scale(0.015625)"/>
       <path id="ArialMT-72" d="M 416 0 
L 416 3319 
L 922 3319 
L 922 2816 
Q 1116 3169 1280 3281 
Q 1444 3394 1641 3394 
Q 1925 3394 2219 3213 
L 2025 2691 
Q 1819 2813 1613 2813 
Q 1428 2813 1281 2702 
Q 1134 2591 1072 2394 
Q 978 2094 978 1738 
L 978 0 
L 416 0 
z
" transform="scale(0.015625)"/>
       <path id="ArialMT-61" d="M 2588 409 
Q 2275 144 1986 34 
Q 1697 -75 1366 -75 
Q 819 -75 525 192 
Q 231 459 231 875 
Q 231 1119 342 1320 
Q 453 1522 633 1644 
Q 813 1766 1038 1828 
Q 1203 1872 1538 1913 
Q 2219 1994 2541 2106 
Q 2544 2222 2544 2253 
Q 2544 2597 2384 2738 
Q 2169 2928 1744 2928 
Q 1347 2928 1158 2789 
Q 969 2650 878 2297 
L 328 2372 
Q 403 2725 575 2942 
Q 747 3159 1072 3276 
Q 1397 3394 1825 3394 
Q 2250 3394 2515 3294 
Q 2781 3194 2906 3042 
Q 3031 2891 3081 2659 
Q 3109 2516 3109 2141 
L 3109 1391 
Q 3109 606 3145 398 
Q 3181 191 3288 0 
L 2700 0 
Q 2613 175 2588 409 
z
M 2541 1666 
Q 2234 1541 1622 1453 
Q 1275 1403 1131 1340 
Q 988 1278 909 1158 
Q 831 1038 831 891 
Q 831 666 1001 516 
Q 1172 366 1500 366 
Q 1825 366 2078 508 
Q 2331 650 2450 897 
Q 2541 1088 2541 1459 
L 2541 1666 
z
" transform="scale(0.015625)"/>
       <path id="ArialMT-69" d="M 425 3934 
L 425 4581 
L 988 4581 
L 988 3934 
L 425 3934 
z
M 425 0 
L 425 3319 
L 988 3319 
L 988 0 
L 425 0 
z
" transform="scale(0.015625)"/>
       <path id="ArialMT-6e" d="M 422 0 
L 422 3319 
L 928 3319 
L 928 2847 
Q 1294 3394 1984 3394 
Q 2284 3394 2536 3286 
Q 2788 3178 2913 3003 
Q 3038 2828 3088 2588 
Q 3119 2431 3119 2041 
L 3119 0 
L 2556 0 
L 2556 2019 
Q 2556 2363 2490 2533 
Q 2425 2703 2258 2804 
Q 2091 2906 1866 2906 
Q 1506 2906 1245 2678 
Q 984 2450 984 1813 
L 984 0 
L 422 0 
z
" transform="scale(0.015625)"/>
       <path id="ArialMT-67" d="M 319 -275 
L 866 -356 
Q 900 -609 1056 -725 
Q 1266 -881 1628 -881 
Q 2019 -881 2231 -725 
Q 2444 -569 2519 -288 
Q 2563 -116 2559 434 
Q 2191 0 1641 0 
Q 956 0 581 494 
Q 206 988 206 1678 
Q 206 2153 378 2554 
Q 550 2956 876 3175 
Q 1203 3394 1644 3394 
Q 2231 3394 2613 2919 
L 2613 3319 
L 3131 3319 
L 3131 450 
Q 3131 -325 2973 -648 
Q 2816 -972 2473 -1159 
Q 2131 -1347 1631 -1347 
Q 1038 -1347 672 -1080 
Q 306 -813 319 -275 
z
M 784 1719 
Q 784 1066 1043 766 
Q 1303 466 1694 466 
Q 2081 466 2343 764 
Q 2606 1063 2606 1700 
Q 2606 2309 2336 2618 
Q 2066 2928 1684 2928 
Q 1309 2928 1046 2623 
Q 784 2319 784 1719 
z
" transform="scale(0.015625)"/>
       <path id="ArialMT-20" transform="scale(0.015625)"/>
       <path id="ArialMT-53" d="M 288 1472 
L 859 1522 
Q 900 1178 1048 958 
Q 1197 738 1509 602 
Q 1822 466 2213 466 
Q 2559 466 2825 569 
Q 3091 672 3220 851 
Q 3350 1031 3350 1244 
Q 3350 1459 3225 1620 
Q 3100 1781 2813 1891 
Q 2628 1963 1997 2114 
Q 1366 2266 1113 2400 
Q 784 2572 623 2826 
Q 463 3081 463 3397 
Q 463 3744 659 4045 
Q 856 4347 1234 4503 
Q 1613 4659 2075 4659 
Q 2584 4659 2973 4495 
Q 3363 4331 3572 4012 
Q 3781 3694 3797 3291 
L 3216 3247 
Q 3169 3681 2898 3903 
Q 2628 4125 2100 4125 
Q 1550 4125 1298 3923 
Q 1047 3722 1047 3438 
Q 1047 3191 1225 3031 
Q 1400 2872 2139 2705 
Q 2878 2538 3153 2413 
Q 3553 2228 3743 1945 
Q 3934 1663 3934 1294 
Q 3934 928 3725 604 
Q 3516 281 3123 101 
Q 2731 -78 2241 -78 
Q 1619 -78 1198 103 
Q 778 284 539 648 
Q 300 1013 288 1472 
z
" transform="scale(0.015625)"/>
       <path id="ArialMT-74" d="M 1650 503 
L 1731 6 
Q 1494 -44 1306 -44 
Q 1000 -44 831 53 
Q 663 150 594 308 
Q 525 466 525 972 
L 525 2881 
L 113 2881 
L 113 3319 
L 525 3319 
L 525 4141 
L 1084 4478 
L 1084 3319 
L 1650 3319 
L 1650 2881 
L 1084 2881 
L 1084 941 
Q 1084 700 1114 631 
Q 1144 563 1211 522 
Q 1278 481 1403 481 
Q 1497 481 1650 503 
z
" transform="scale(0.015625)"/>
       <path id="ArialMT-65" d="M 2694 1069 
L 3275 997 
Q 3138 488 2766 206 
Q 2394 -75 1816 -75 
Q 1088 -75 661 373 
Q 234 822 234 1631 
Q 234 2469 665 2931 
Q 1097 3394 1784 3394 
Q 2450 3394 2872 2941 
Q 3294 2488 3294 1666 
Q 3294 1616 3291 1516 
L 816 1516 
Q 847 969 1125 678 
Q 1403 388 1819 388 
Q 2128 388 2347 550 
Q 2566 713 2694 1069 
z
M 847 1978 
L 2700 1978 
Q 2663 2397 2488 2606 
Q 2219 2931 1791 2931 
Q 1403 2931 1139 2672 
Q 875 2413 847 1978 
z
" transform="scale(0.015625)"/>
       <path id="ArialMT-70" d="M 422 -1272 
L 422 3319 
L 934 3319 
L 934 2888 
Q 1116 3141 1344 3267 
Q 1572 3394 1897 3394 
Q 2322 3394 2647 3175 
Q 2972 2956 3137 2557 
Q 3303 2159 3303 1684 
Q 3303 1175 3120 767 
Q 2938 359 2589 142 
Q 2241 -75 1856 -75 
Q 1575 -75 1351 44 
Q 1128 163 984 344 
L 984 -1272 
L 422 -1272 
z
M 931 1641 
Q 931 1000 1190 694 
Q 1450 388 1819 388 
Q 2194 388 2461 705 
Q 2728 1022 2728 1688 
Q 2728 2322 2467 2637 
Q 2206 2953 1844 2953 
Q 1484 2953 1207 2617 
Q 931 2281 931 1641 
z
" transform="scale(0.015625)"/>
      </defs>
      <use xlink:href="#ArialMT-54"/>
      <use xlink:href="#ArialMT-72" transform="translate(57.333984 0)"/>
      <use xlink:href="#ArialMT-61" transform="translate(90.634766 0)"/>
      <use xlink:href="#ArialMT-69" transform="translate(146.25 0)"/>
      <use xlink:href="#ArialMT-6e" transform="translate(168.466797 0)"/>
      <use xlink:href="#ArialMT-69" transform="translate(224.082031 0)"/>
      <use xlink:href="#ArialMT-6e" transform="translate(246.298828 0)"/>
      <use xlink:href="#ArialMT-67" transform="translate(301.914062 0)"/>
      <use xlink:href="#ArialMT-20" transform="translate(357.529297 0)"/>
      <use xlink:href="#ArialMT-53" transform="translate(385.3125 0)"/>
      <use xlink:href="#ArialMT-74" transform="translate(452.011719 0)"/>
      <use xlink:href="#ArialMT-65" transform="translate(479.794922 0)"/>
      <use xlink:href="#ArialMT-70" transform="translate(535.410156 0)"/>
     </g>
    </g>
   </g>
   <g id="matplotlib.axis_2">
    <g id="ytick_1">
     <g id="line2d_17">
      <path d="M 64.575625 455.039991 
L 734.175625 455.039991 
" clip-path="url(#pb8178d4133)" style="fill: none; stroke: #cccccc; stroke-width: 0.8; stroke-linecap: round"/>
     </g>
     <g id="line2d_18"/>
     <g id="text_10">
      <!-- −0.3 -->
      <g style="fill: #262626" transform="translate(29.490625 460.766241) scale(0.16 -0.16)">
       <defs>
        <path id="ArialMT-2212" d="M 3381 1997 
L 356 1997 
L 356 2522 
L 3381 2522 
L 3381 1997 
z
" transform="scale(0.015625)"/>
        <path id="ArialMT-2e" d="M 581 0 
L 581 641 
L 1222 641 
L 1222 0 
L 581 0 
z
" transform="scale(0.015625)"/>
       </defs>
       <use xlink:href="#ArialMT-2212"/>
       <use xlink:href="#ArialMT-30" transform="translate(58.398438 0)"/>
       <use xlink:href="#ArialMT-2e" transform="translate(114.013672 0)"/>
       <use xlink:href="#ArialMT-33" transform="translate(141.796875 0)"/>
      </g>
     </g>
    </g>
    <g id="ytick_2">
     <g id="line2d_19">
      <path d="M 64.575625 377.582157 
L 734.175625 377.582157 
" clip-path="url(#pb8178d4133)" style="fill: none; stroke: #cccccc; stroke-width: 0.8; stroke-linecap: round"/>
     </g>
     <g id="line2d_20"/>
     <g id="text_11">
      <!-- −0.2 -->
      <g style="fill: #262626" transform="translate(29.490625 383.308407) scale(0.16 -0.16)">
       <use xlink:href="#ArialMT-2212"/>
       <use xlink:href="#ArialMT-30" transform="translate(58.398438 0)"/>
       <use xlink:href="#ArialMT-2e" transform="translate(114.013672 0)"/>
       <use xlink:href="#ArialMT-32" transform="translate(141.796875 0)"/>
      </g>
     </g>
    </g>
    <g id="ytick_3">
     <g id="line2d_21">
      <path d="M 64.575625 300.124323 
L 734.175625 300.124323 
" clip-path="url(#pb8178d4133)" style="fill: none; stroke: #cccccc; stroke-width: 0.8; stroke-linecap: round"/>
     </g>
     <g id="line2d_22"/>
     <g id="text_12">
      <!-- −0.1 -->
      <g style="fill: #262626" transform="translate(29.490625 305.850573) scale(0.16 -0.16)">
       <use xlink:href="#ArialMT-2212"/>
       <use xlink:href="#ArialMT-30" transform="translate(58.398438 0)"/>
       <use xlink:href="#ArialMT-2e" transform="translate(114.013672 0)"/>
       <use xlink:href="#ArialMT-31" transform="translate(141.796875 0)"/>
      </g>
     </g>
    </g>
    <g id="ytick_4">
     <g id="line2d_23">
      <path d="M 64.575625 222.666489 
L 734.175625 222.666489 
" clip-path="url(#pb8178d4133)" style="fill: none; stroke: #cccccc; stroke-width: 0.8; stroke-linecap: round"/>
     </g>
     <g id="line2d_24"/>
     <g id="text_13">
      <!-- 0.0 -->
      <g style="fill: #262626" transform="translate(38.835625 228.392739) scale(0.16 -0.16)">
       <use xlink:href="#ArialMT-30"/>
       <use xlink:href="#ArialMT-2e" transform="translate(55.615234 0)"/>
       <use xlink:href="#ArialMT-30" transform="translate(83.398438 0)"/>
      </g>
     </g>
    </g>
    <g id="ytick_5">
     <g id="line2d_25">
      <path d="M 64.575625 145.208656 
L 734.175625 145.208656 
" clip-path="url(#pb8178d4133)" style="fill: none; stroke: #cccccc; stroke-width: 0.8; stroke-linecap: round"/>
     </g>
     <g id="line2d_26"/>
     <g id="text_14">
      <!-- 0.1 -->
      <g style="fill: #262626" transform="translate(38.835625 150.934906) scale(0.16 -0.16)">
       <use xlink:href="#ArialMT-30"/>
       <use xlink:href="#ArialMT-2e" transform="translate(55.615234 0)"/>
       <use xlink:href="#ArialMT-31" transform="translate(83.398438 0)"/>
      </g>
     </g>
    </g>
    <g id="ytick_6">
     <g id="line2d_27">
      <path d="M 64.575625 67.750822 
L 734.175625 67.750822 
" clip-path="url(#pb8178d4133)" style="fill: none; stroke: #cccccc; stroke-width: 0.8; stroke-linecap: round"/>
     </g>
     <g id="line2d_28"/>
     <g id="text_15">
      <!-- 0.2 -->
      <g style="fill: #262626" transform="translate(38.835625 73.477072) scale(0.16 -0.16)">
       <use xlink:href="#ArialMT-30"/>
       <use xlink:href="#ArialMT-2e" transform="translate(55.615234 0)"/>
       <use xlink:href="#ArialMT-32" transform="translate(83.398438 0)"/>
      </g>
     </g>
    </g>
    <g id="text_16">
     <!-- Learned Parameter Value -->
     <g style="fill: #262626" transform="translate(21.515625 367.210312) rotate(-90) scale(0.2 -0.2)">
      <defs>
       <path id="ArialMT-4c" d="M 469 0 
L 469 4581 
L 1075 4581 
L 1075 541 
L 3331 541 
L 3331 0 
L 469 0 
z
" transform="scale(0.015625)"/>
       <path id="ArialMT-64" d="M 2575 0 
L 2575 419 
Q 2259 -75 1647 -75 
Q 1250 -75 917 144 
Q 584 363 401 755 
Q 219 1147 219 1656 
Q 219 2153 384 2558 
Q 550 2963 881 3178 
Q 1213 3394 1622 3394 
Q 1922 3394 2156 3267 
Q 2391 3141 2538 2938 
L 2538 4581 
L 3097 4581 
L 3097 0 
L 2575 0 
z
M 797 1656 
Q 797 1019 1065 703 
Q 1334 388 1700 388 
Q 2069 388 2326 689 
Q 2584 991 2584 1609 
Q 2584 2291 2321 2609 
Q 2059 2928 1675 2928 
Q 1300 2928 1048 2622 
Q 797 2316 797 1656 
z
" transform="scale(0.015625)"/>
       <path id="ArialMT-50" d="M 494 0 
L 494 4581 
L 2222 4581 
Q 2678 4581 2919 4538 
Q 3256 4481 3484 4323 
Q 3713 4166 3852 3881 
Q 3991 3597 3991 3256 
Q 3991 2672 3619 2267 
Q 3247 1863 2275 1863 
L 1100 1863 
L 1100 0 
L 494 0 
z
M 1100 2403 
L 2284 2403 
Q 2872 2403 3119 2622 
Q 3366 2841 3366 3238 
Q 3366 3525 3220 3729 
Q 3075 3934 2838 4000 
Q 2684 4041 2272 4041 
L 1100 4041 
L 1100 2403 
z
" transform="scale(0.015625)"/>
       <path id="ArialMT-6d" d="M 422 0 
L 422 3319 
L 925 3319 
L 925 2853 
Q 1081 3097 1340 3245 
Q 1600 3394 1931 3394 
Q 2300 3394 2536 3241 
Q 2772 3088 2869 2813 
Q 3263 3394 3894 3394 
Q 4388 3394 4653 3120 
Q 4919 2847 4919 2278 
L 4919 0 
L 4359 0 
L 4359 2091 
Q 4359 2428 4304 2576 
Q 4250 2725 4106 2815 
Q 3963 2906 3769 2906 
Q 3419 2906 3187 2673 
Q 2956 2441 2956 1928 
L 2956 0 
L 2394 0 
L 2394 2156 
Q 2394 2531 2256 2718 
Q 2119 2906 1806 2906 
Q 1569 2906 1367 2781 
Q 1166 2656 1075 2415 
Q 984 2175 984 1722 
L 984 0 
L 422 0 
z
" transform="scale(0.015625)"/>
       <path id="ArialMT-56" d="M 1803 0 
L 28 4581 
L 684 4581 
L 1875 1253 
Q 2019 853 2116 503 
Q 2222 878 2363 1253 
L 3600 4581 
L 4219 4581 
L 2425 0 
L 1803 0 
z
" transform="scale(0.015625)"/>
       <path id="ArialMT-6c" d="M 409 0 
L 409 4581 
L 972 4581 
L 972 0 
L 409 0 
z
" transform="scale(0.015625)"/>
       <path id="ArialMT-75" d="M 2597 0 
L 2597 488 
Q 2209 -75 1544 -75 
Q 1250 -75 995 37 
Q 741 150 617 320 
Q 494 491 444 738 
Q 409 903 409 1263 
L 409 3319 
L 972 3319 
L 972 1478 
Q 972 1038 1006 884 
Q 1059 663 1231 536 
Q 1403 409 1656 409 
Q 1909 409 2131 539 
Q 2353 669 2445 892 
Q 2538 1116 2538 1541 
L 2538 3319 
L 3100 3319 
L 3100 0 
L 2597 0 
z
" transform="scale(0.015625)"/>
      </defs>
      <use xlink:href="#ArialMT-4c"/>
      <use xlink:href="#ArialMT-65" transform="translate(55.615234 0)"/>
      <use xlink:href="#ArialMT-61" transform="translate(111.230469 0)"/>
      <use xlink:href="#ArialMT-72" transform="translate(166.845703 0)"/>
      <use xlink:href="#ArialMT-6e" transform="translate(200.146484 0)"/>
      <use xlink:href="#ArialMT-65" transform="translate(255.761719 0)"/>
      <use xlink:href="#ArialMT-64" transform="translate(311.376953 0)"/>
      <use xlink:href="#ArialMT-20" transform="translate(366.992188 0)"/>
      <use xlink:href="#ArialMT-50" transform="translate(394.775391 0)"/>
      <use xlink:href="#ArialMT-61" transform="translate(461.474609 0)"/>
      <use xlink:href="#ArialMT-72" transform="translate(517.089844 0)"/>
      <use xlink:href="#ArialMT-61" transform="translate(550.390625 0)"/>
      <use xlink:href="#ArialMT-6d" transform="translate(606.005859 0)"/>
      <use xlink:href="#ArialMT-65" transform="translate(689.306641 0)"/>
      <use xlink:href="#ArialMT-74" transform="translate(744.921875 0)"/>
      <use xlink:href="#ArialMT-65" transform="translate(772.705078 0)"/>
      <use xlink:href="#ArialMT-72" transform="translate(828.320312 0)"/>
      <use xlink:href="#ArialMT-20" transform="translate(861.621094 0)"/>
      <use xlink:href="#ArialMT-56" transform="translate(889.404297 0)"/>
      <use xlink:href="#ArialMT-61" transform="translate(948.728516 0)"/>
      <use xlink:href="#ArialMT-6c" transform="translate(1004.34375 0)"/>
      <use xlink:href="#ArialMT-75" transform="translate(1026.560547 0)"/>
      <use xlink:href="#ArialMT-65" transform="translate(1082.175781 0)"/>
     </g>
    </g>
   </g>
   <g id="line2d_29">
    <path d="M 65.451663 455.04 
L 66.327702 455.04 
L 67.20374 454.842053 
L 68.079779 454.423697 
L 68.955817 453.738442 
L 69.831856 452.549534 
L 70.707894 450.682182 
L 71.583933 448.124656 
L 72.459971 444.936423 
L 76.840163 432.499677 
L 80.344317 423.021684 
L 83.848471 414.221581 
L 86.476587 408.091933 
L 89.104702 402.587439 
L 91.732817 397.735503 
L 94.360933 393.488466 
L 96.11301 391.080168 
L 97.865087 389.023606 
L 99.617164 387.251106 
L 101.36924 385.746279 
L 103.997356 383.849875 
L 106.625471 382.248672 
L 109.253587 380.928438 
L 111.881702 379.908704 
L 120.642087 377.120994 
L 128.526433 375.283374 
L 144.295125 371.559552 
L 147.799279 370.34232 
L 150.427394 369.261009 
L 153.931548 367.713534 
L 160.939856 364.91973 
L 171.452318 359.309153 
L 174.956471 357.028246 
L 196.857433 342.556579 
L 200.361587 340.164014 
L 202.989702 338.526626 
L 206.493856 336.418227 
L 222.262549 326.145063 
L 224.890664 324.655864 
L 227.518779 323.182305 
L 233.651049 319.413839 
L 239.783318 315.372886 
L 242.411433 313.74509 
L 245.915587 311.868578 
L 254.675972 307.048152 
L 264.312395 301.842011 
L 268.692587 299.598177 
L 273.072779 297.060637 
L 278.32901 294.164702 
L 280.081087 292.96075 
L 283.585241 290.472535 
L 285.337318 289.534484 
L 290.593549 286.915145 
L 293.221664 285.334954 
L 299.353933 281.661104 
L 303.734126 279.42146 
L 305.486203 278.392527 
L 308.990356 276.485186 
L 311.618472 274.788715 
L 319.502818 269.551352 
L 323.88301 266.898968 
L 331.767357 262.473666 
L 337.023587 259.77174 
L 358.04851 247.277375 
L 372.065126 238.859772 
L 382.577587 233.649522 
L 386.081741 231.792979 
L 388.709857 230.480172 
L 398.34628 225.047397 
L 406.230626 220.325379 
L 410.610818 217.825625 
L 421.999318 211.274043 
L 429.007626 208.16879 
L 436.015934 204.747753 
L 443.024241 200.916294 
L 450.032549 197.444448 
L 457.916895 193.690559 
L 471.057472 187.965329 
L 475.437665 186.272432 
L 483.322011 182.94647 
L 492.958434 178.679927 
L 501.718819 175.134717 
L 505.222972 173.78914 
L 512.23128 171.546553 
L 521.867703 168.721296 
L 535.00828 164.779542 
L 542.892626 162.620457 
L 547.272819 161.503693 
L 556.909242 159.336182 
L 581.438319 154.530651 
L 593.702857 152.54678 
L 602.463242 151.426756 
L 615.603819 149.989757 
L 626.11628 149.090713 
L 640.132896 148.220852 
L 649.769319 147.816232 
L 663.785934 147.486982 
L 679.554627 147.299007 
L 702.331627 147.239553 
L 702.331627 147.239553 
" clip-path="url(#pb8178d4133)" style="fill: none; stroke: #d62728; stroke-width: 3.5; stroke-linecap: round"/>
   </g>
   <g id="line2d_30">
    <path d="M 65.451663 455.04 
L 66.327702 455.04 
L 67.20374 454.697845 
L 68.079779 454.190246 
L 68.955817 453.396587 
L 69.831856 452.198793 
L 70.707894 450.353901 
L 71.583933 447.850508 
L 72.459971 444.374068 
L 77.716202 427.113895 
L 80.344317 419.218625 
L 89.104702 394.560694 
L 92.608856 385.828321 
L 95.236971 379.810169 
L 97.865087 374.390879 
L 100.493202 369.5604 
L 103.997356 363.829254 
L 106.625471 359.829864 
L 108.377548 357.482233 
L 111.005664 354.482713 
L 113.633779 351.843366 
L 118.89001 347.091742 
L 120.642087 345.722697 
L 125.022279 342.725302 
L 128.526433 340.551182 
L 130.27851 339.696973 
L 133.782664 338.306148 
L 137.286818 337.11222 
L 139.914933 336.464407 
L 144.295125 335.633894 
L 147.799279 335.092223 
L 154.807587 334.082495 
L 157.435702 333.476719 
L 163.567971 331.733098 
L 188.097048 323.566958 
L 192.477241 321.629937 
L 195.105356 320.538133 
L 206.493856 316.041399 
L 209.121972 315.128897 
L 218.758395 311.627833 
L 221.38651 310.92104 
L 224.890664 309.971672 
L 230.146895 308.536802 
L 235.403125 306.774817 
L 243.287472 304.399605 
L 245.915587 303.585488 
L 255.55201 300.69825 
L 259.056164 299.584955 
L 261.684279 298.66255 
L 266.94051 296.5327 
L 270.444664 295.297717 
L 281.833164 290.98025 
L 285.337318 289.505173 
L 289.71751 287.477298 
L 295.84978 284.994947 
L 298.477895 284.103024 
L 301.982049 282.913522 
L 303.734126 282.097858 
L 308.114318 279.997903 
L 310.742433 278.76188 
L 315.122626 276.563286 
L 316.874703 275.729143 
L 322.130933 272.963681 
L 326.511126 271.157657 
L 330.01528 269.790943 
L 344.031895 264.098071 
L 346.66001 262.922934 
L 348.412087 262.120532 
L 351.916241 260.6437 
L 365.056818 254.409278 
L 369.43701 252.407592 
L 372.941164 250.809979 
L 385.205703 245.888644 
L 393.090049 242.39099 
L 396.594203 240.748185 
L 400.974395 238.837334 
L 410.610818 234.784035 
L 414.991011 233.231828 
L 419.371203 231.700643 
L 427.255549 228.477391 
L 435.139895 225.230317 
L 440.396126 223.333608 
L 443.90028 222.120947 
L 446.528395 221.121762 
L 449.156511 220.129886 
L 461.421049 215.304527 
L 471.933511 211.513273 
L 484.198049 207.322545 
L 490.330319 205.048894 
L 493.834472 204.000924 
L 500.84278 202.104262 
L 506.975049 200.409932 
L 512.23128 199.005696 
L 521.867703 196.577681 
L 542.016588 191.938033 
L 548.148857 190.629671 
L 555.157165 189.231407 
L 563.041511 187.83821 
L 573.553973 186.140552 
L 583.190396 184.923875 
L 594.578896 183.717922 
L 612.099665 182.081568 
L 625.240242 181.231352 
L 637.50478 180.598974 
L 653.273473 180.068325 
L 669.918204 179.800776 
L 691.819165 179.683707 
L 702.331627 179.679053 
L 702.331627 179.679053 
" clip-path="url(#pb8178d4133)" style="fill: none; stroke: #ffbf00; stroke-width: 3.5; stroke-linecap: round"/>
   </g>
   <g id="line2d_31">
    <path d="M 65.451663 455.04 
L 66.327702 455.04 
L 67.20374 454.845562 
L 68.079779 454.455022 
L 68.955817 453.695874 
L 69.831856 452.263082 
L 70.707894 450.069872 
L 71.583933 447.522135 
L 73.33601 441.092368 
L 83.848471 399.4615 
L 86.476587 390.274113 
L 89.104702 381.981252 
L 91.732817 374.265821 
L 94.360933 367.243262 
L 96.989048 360.920064 
L 99.617164 355.203392 
L 101.36924 351.812341 
L 103.121317 348.79597 
L 104.873394 346.149063 
L 106.625471 343.995073 
L 108.377548 342.299536 
L 110.129625 341.037036 
L 111.881702 340.106915 
L 113.633779 339.390923 
L 118.89001 337.540583 
L 122.394164 336.158091 
L 125.022279 335.314663 
L 130.27851 334.107703 
L 139.914933 332.493585 
L 146.047202 330.743823 
L 151.303433 328.941394 
L 155.683625 327.501758 
L 170.576279 321.63206 
L 174.956471 319.702288 
L 179.336664 317.564641 
L 183.716856 315.241208 
L 192.477241 310.301043 
L 196.857433 307.563282 
L 200.361587 305.319587 
L 214.378202 296.998113 
L 217.882356 294.738882 
L 222.262549 292.151682 
L 225.766702 290.119745 
L 228.394818 288.600034 
L 245.039549 279.822243 
L 248.543702 278.005098 
L 252.047856 276.35169 
L 254.675972 274.914085 
L 273.072779 264.237105 
L 279.205049 261.333858 
L 282.709203 259.070299 
L 286.213356 256.666215 
L 294.097703 251.910817 
L 301.982049 247.227557 
L 304.610164 245.565079 
L 313.370549 240.431573 
L 315.122626 239.305297 
L 319.502818 236.291312 
L 326.511126 232.046622 
L 330.891318 229.33644 
L 336.147549 226.158572 
L 339.651703 224.123905 
L 343.155857 222.329259 
L 347.536049 219.883039 
L 362.428703 211.484794 
L 366.808895 208.933033 
L 371.189087 206.51736 
L 375.56928 203.778169 
L 379.073434 201.666139 
L 400.098357 189.924505 
L 406.230626 186.869238 
L 426.379511 176.867601 
L 429.883665 175.129936 
L 440.396126 170.244227 
L 444.776318 168.547547 
L 450.032549 166.438802 
L 454.412742 164.733126 
L 471.057472 157.885044 
L 478.06578 155.317881 
L 485.074088 152.913583 
L 489.45428 151.356026 
L 510.479203 144.782762 
L 525.371857 140.8411 
L 533.256203 138.958546 
L 557.78528 133.538639 
L 564.793588 132.297198 
L 575.30605 130.650046 
L 586.69455 129.127167 
L 595.454934 128.082196 
L 607.719473 126.881447 
L 620.86005 125.805485 
L 633.124588 125.058594 
L 644.513088 124.552276 
L 658.529704 124.153323 
L 673.422358 123.943153 
L 696.199358 123.852455 
L 702.331627 123.851289 
L 702.331627 123.851289 
" clip-path="url(#pb8178d4133)" style="fill: none; stroke: #2ca02c; stroke-width: 3.5; stroke-linecap: round"/>
   </g>
   <g id="line2d_32">
    <path d="M 65.451663 455.04 
L 66.327702 455.04 
L 67.20374 454.841429 
L 68.079779 454.403152 
L 68.955817 453.390632 
L 69.831856 451.994728 
L 70.707894 449.845955 
L 71.583933 447.112828 
L 74.212048 436.114714 
L 79.468279 412.95211 
L 82.972433 398.165701 
L 85.600548 388.017814 
L 88.228664 378.897418 
L 90.856779 370.79888 
L 93.484894 363.595665 
L 95.236971 359.271665 
L 96.989048 355.364543 
L 98.741125 351.814765 
L 101.36924 347.002487 
L 103.997356 342.564785 
L 106.625471 338.675658 
L 108.377548 336.447383 
L 111.881702 332.530531 
L 114.509817 329.795592 
L 117.137933 327.372521 
L 119.766048 325.228699 
L 122.394164 323.427783 
L 126.774356 320.788909 
L 129.402471 319.442498 
L 131.154548 318.735191 
L 133.782664 317.956069 
L 144.295125 315.052361 
L 147.799279 313.882106 
L 151.303433 312.668262 
L 160.063818 309.172876 
L 169.700241 304.432725 
L 173.204395 302.560386 
L 176.708548 300.379601 
L 182.840818 296.604481 
L 193.353279 290.044998 
L 197.733472 287.079378 
L 217.006318 273.167393 
L 225.766702 266.748727 
L 228.394818 264.895239 
L 241.535395 256.335637 
L 248.543702 251.283107 
L 254.675972 245.898505 
L 259.056164 241.830674 
L 268.692587 233.762973 
L 276.576933 227.923627 
L 279.205049 225.746203 
L 283.585241 222.49235 
L 289.71751 218.033972 
L 292.345626 215.820321 
L 298.477895 210.335527 
L 305.486203 204.706633 
L 309.866395 201.526225 
L 314.246587 198.314787 
L 320.378857 193.247833 
L 324.759049 189.616492 
L 330.01528 185.76258 
L 344.031895 176.164952 
L 353.668318 169.07905 
L 365.932857 159.141542 
L 377.321357 150.626714 
L 392.214011 140.411179 
L 395.718164 137.824989 
L 400.098357 134.6464 
L 403.602511 132.335253 
L 408.858741 128.9638 
L 414.991011 125.21821 
L 429.883665 116.389588 
L 437.768011 112.008062 
L 442.148203 109.67338 
L 451.784626 104.975392 
L 458.792934 101.02007 
L 463.173126 98.634534 
L 482.445972 88.983339 
L 492.958434 84.101001 
L 509.603165 77.123676 
L 513.983357 75.53001 
L 525.371857 71.789325 
L 531.504126 69.887242 
L 547.272819 65.605936 
L 556.033203 63.460534 
L 565.669626 61.451201 
L 571.801896 60.298363 
L 591.95078 57.036561 
L 599.835127 56.02097 
L 607.719473 55.202069 
L 623.488165 53.850221 
L 632.24855 53.280075 
L 653.273473 52.38293 
L 669.042165 52.015429 
L 685.686896 51.864885 
L 702.331627 51.84 
L 702.331627 51.84 
" clip-path="url(#pb8178d4133)" style="fill: none; stroke: #1f77b4; stroke-width: 3.5; stroke-linecap: round"/>
   </g>
   <g id="patch_3">
    <path d="M 64.575625 475.2 
L 64.575625 31.68 
" style="fill: none; stroke: #cccccc; stroke-linejoin: miter; stroke-linecap: square"/>
   </g>
   <g id="patch_4">
    <path d="M 734.175625 475.2 
L 734.175625 31.68 
" style="fill: none; stroke: #cccccc; stroke-linejoin: miter; stroke-linecap: square"/>
   </g>
   <g id="patch_5">
    <path d="M 64.575625 475.2 
L 734.175625 475.2 
" style="fill: none; stroke: #cccccc; stroke-linejoin: miter; stroke-linecap: square"/>
   </g>
   <g id="patch_6">
    <path d="M 64.575625 31.68 
L 734.175625 31.68 
" style="fill: none; stroke: #cccccc; stroke-linejoin: miter; stroke-linecap: square"/>
   </g>
   <g id="text_17">
    <!-- Evolution of Gating Temperature ($\beta_{CE}$) -->
    <g style="fill: #262626" transform="translate(182.175625 25.68) scale(0.24 -0.24)">
     <defs>
      <path id="Arial-BoldMT-45" d="M 466 0 
L 466 4581 
L 3863 4581 
L 3863 3806 
L 1391 3806 
L 1391 2791 
L 3691 2791 
L 3691 2019 
L 1391 2019 
L 1391 772 
L 3950 772 
L 3950 0 
L 466 0 
z
" transform="scale(0.015625)"/>
      <path id="Arial-BoldMT-76" d="M 1372 0 
L 34 3319 
L 956 3319 
L 1581 1625 
L 1763 1059 
Q 1834 1275 1853 1344 
Q 1897 1484 1947 1625 
L 2578 3319 
L 3481 3319 
L 2163 0 
L 1372 0 
z
" transform="scale(0.015625)"/>
      <path id="Arial-BoldMT-6f" d="M 256 1706 
Q 256 2144 472 2553 
Q 688 2963 1083 3178 
Q 1478 3394 1966 3394 
Q 2719 3394 3200 2905 
Q 3681 2416 3681 1669 
Q 3681 916 3195 420 
Q 2709 -75 1972 -75 
Q 1516 -75 1102 131 
Q 688 338 472 736 
Q 256 1134 256 1706 
z
M 1156 1659 
Q 1156 1166 1390 903 
Q 1625 641 1969 641 
Q 2313 641 2545 903 
Q 2778 1166 2778 1666 
Q 2778 2153 2545 2415 
Q 2313 2678 1969 2678 
Q 1625 2678 1390 2415 
Q 1156 2153 1156 1659 
z
" transform="scale(0.015625)"/>
      <path id="Arial-BoldMT-6c" d="M 459 0 
L 459 4581 
L 1338 4581 
L 1338 0 
L 459 0 
z
" transform="scale(0.015625)"/>
      <path id="Arial-BoldMT-75" d="M 2644 0 
L 2644 497 
Q 2463 231 2167 78 
Q 1872 -75 1544 -75 
Q 1209 -75 943 72 
Q 678 219 559 484 
Q 441 750 441 1219 
L 441 3319 
L 1319 3319 
L 1319 1794 
Q 1319 1094 1367 936 
Q 1416 778 1544 686 
Q 1672 594 1869 594 
Q 2094 594 2272 717 
Q 2450 841 2515 1023 
Q 2581 1206 2581 1919 
L 2581 3319 
L 3459 3319 
L 3459 0 
L 2644 0 
z
" transform="scale(0.015625)"/>
      <path id="Arial-BoldMT-74" d="M 1981 3319 
L 1981 2619 
L 1381 2619 
L 1381 1281 
Q 1381 875 1398 808 
Q 1416 741 1477 697 
Q 1538 653 1625 653 
Q 1747 653 1978 738 
L 2053 56 
Q 1747 -75 1359 -75 
Q 1122 -75 931 4 
Q 741 84 652 211 
Q 563 338 528 553 
Q 500 706 500 1172 
L 500 2619 
L 97 2619 
L 97 3319 
L 500 3319 
L 500 3978 
L 1381 4491 
L 1381 3319 
L 1981 3319 
z
" transform="scale(0.015625)"/>
      <path id="Arial-BoldMT-69" d="M 459 3769 
L 459 4581 
L 1338 4581 
L 1338 3769 
L 459 3769 
z
M 459 0 
L 459 3319 
L 1338 3319 
L 1338 0 
L 459 0 
z
" transform="scale(0.015625)"/>
      <path id="Arial-BoldMT-6e" d="M 3478 0 
L 2600 0 
L 2600 1694 
Q 2600 2231 2544 2389 
Q 2488 2547 2361 2634 
Q 2234 2722 2056 2722 
Q 1828 2722 1647 2597 
Q 1466 2472 1398 2265 
Q 1331 2059 1331 1503 
L 1331 0 
L 453 0 
L 453 3319 
L 1269 3319 
L 1269 2831 
Q 1703 3394 2363 3394 
Q 2653 3394 2893 3289 
Q 3134 3184 3257 3021 
Q 3381 2859 3429 2653 
Q 3478 2447 3478 2063 
L 3478 0 
z
" transform="scale(0.015625)"/>
      <path id="Arial-BoldMT-20" transform="scale(0.015625)"/>
      <path id="Arial-BoldMT-66" d="M 75 3319 
L 563 3319 
L 563 3569 
Q 563 3988 652 4194 
Q 741 4400 980 4529 
Q 1219 4659 1584 4659 
Q 1959 4659 2319 4547 
L 2200 3934 
Q 1991 3984 1797 3984 
Q 1606 3984 1523 3895 
Q 1441 3806 1441 3553 
L 1441 3319 
L 2097 3319 
L 2097 2628 
L 1441 2628 
L 1441 0 
L 563 0 
L 563 2628 
L 75 2628 
L 75 3319 
z
" transform="scale(0.015625)"/>
      <path id="Arial-BoldMT-47" d="M 2597 1684 
L 2597 2456 
L 4591 2456 
L 4591 631 
Q 4300 350 3748 136 
Q 3197 -78 2631 -78 
Q 1913 -78 1378 223 
Q 844 525 575 1086 
Q 306 1647 306 2306 
Q 306 3022 606 3578 
Q 906 4134 1484 4431 
Q 1925 4659 2581 4659 
Q 3434 4659 3914 4301 
Q 4394 3944 4531 3313 
L 3613 3141 
Q 3516 3478 3248 3673 
Q 2981 3869 2581 3869 
Q 1975 3869 1617 3484 
Q 1259 3100 1259 2344 
Q 1259 1528 1621 1120 
Q 1984 713 2572 713 
Q 2863 713 3155 827 
Q 3447 941 3656 1103 
L 3656 1684 
L 2597 1684 
z
" transform="scale(0.015625)"/>
      <path id="Arial-BoldMT-61" d="M 1116 2306 
L 319 2450 
Q 453 2931 781 3162 
Q 1109 3394 1756 3394 
Q 2344 3394 2631 3255 
Q 2919 3116 3036 2902 
Q 3153 2688 3153 2116 
L 3144 1091 
Q 3144 653 3186 445 
Q 3228 238 3344 0 
L 2475 0 
Q 2441 88 2391 259 
Q 2369 338 2359 363 
Q 2134 144 1878 34 
Q 1622 -75 1331 -75 
Q 819 -75 523 203 
Q 228 481 228 906 
Q 228 1188 362 1408 
Q 497 1628 739 1745 
Q 981 1863 1438 1950 
Q 2053 2066 2291 2166 
L 2291 2253 
Q 2291 2506 2166 2614 
Q 2041 2722 1694 2722 
Q 1459 2722 1328 2630 
Q 1197 2538 1116 2306 
z
M 2291 1594 
Q 2122 1538 1756 1459 
Q 1391 1381 1278 1306 
Q 1106 1184 1106 997 
Q 1106 813 1243 678 
Q 1381 544 1594 544 
Q 1831 544 2047 700 
Q 2206 819 2256 991 
Q 2291 1103 2291 1419 
L 2291 1594 
z
" transform="scale(0.015625)"/>
      <path id="Arial-BoldMT-67" d="M 378 -219 
L 1381 -341 
Q 1406 -516 1497 -581 
Q 1622 -675 1891 -675 
Q 2234 -675 2406 -572 
Q 2522 -503 2581 -350 
Q 2622 -241 2622 53 
L 2622 538 
Q 2228 0 1628 0 
Q 959 0 569 566 
Q 263 1013 263 1678 
Q 263 2513 664 2953 
Q 1066 3394 1663 3394 
Q 2278 3394 2678 2853 
L 2678 3319 
L 3500 3319 
L 3500 341 
Q 3500 -247 3403 -537 
Q 3306 -828 3131 -993 
Q 2956 -1159 2664 -1253 
Q 2372 -1347 1925 -1347 
Q 1081 -1347 728 -1058 
Q 375 -769 375 -325 
Q 375 -281 378 -219 
z
M 1163 1728 
Q 1163 1200 1367 954 
Q 1572 709 1872 709 
Q 2194 709 2416 961 
Q 2638 1213 2638 1706 
Q 2638 2222 2425 2472 
Q 2213 2722 1888 2722 
Q 1572 2722 1367 2476 
Q 1163 2231 1163 1728 
z
" transform="scale(0.015625)"/>
      <path id="Arial-BoldMT-54" d="M 1497 0 
L 1497 3806 
L 138 3806 
L 138 4581 
L 3778 4581 
L 3778 3806 
L 2422 3806 
L 2422 0 
L 1497 0 
z
" transform="scale(0.015625)"/>
      <path id="Arial-BoldMT-65" d="M 2381 1056 
L 3256 909 
Q 3088 428 2723 176 
Q 2359 -75 1813 -75 
Q 947 -75 531 491 
Q 203 944 203 1634 
Q 203 2459 634 2926 
Q 1066 3394 1725 3394 
Q 2466 3394 2894 2905 
Q 3322 2416 3303 1406 
L 1103 1406 
Q 1113 1016 1316 798 
Q 1519 581 1822 581 
Q 2028 581 2168 693 
Q 2309 806 2381 1056 
z
M 2431 1944 
Q 2422 2325 2234 2523 
Q 2047 2722 1778 2722 
Q 1491 2722 1303 2513 
Q 1116 2303 1119 1944 
L 2431 1944 
z
" transform="scale(0.015625)"/>
      <path id="Arial-BoldMT-6d" d="M 394 3319 
L 1203 3319 
L 1203 2866 
Q 1638 3394 2238 3394 
Q 2556 3394 2790 3262 
Q 3025 3131 3175 2866 
Q 3394 3131 3647 3262 
Q 3900 3394 4188 3394 
Q 4553 3394 4806 3245 
Q 5059 3097 5184 2809 
Q 5275 2597 5275 2122 
L 5275 0 
L 4397 0 
L 4397 1897 
Q 4397 2391 4306 2534 
Q 4184 2722 3931 2722 
Q 3747 2722 3584 2609 
Q 3422 2497 3350 2280 
Q 3278 2063 3278 1594 
L 3278 0 
L 2400 0 
L 2400 1819 
Q 2400 2303 2353 2443 
Q 2306 2584 2207 2653 
Q 2109 2722 1941 2722 
Q 1738 2722 1575 2612 
Q 1413 2503 1342 2297 
Q 1272 2091 1272 1613 
L 1272 0 
L 394 0 
L 394 3319 
z
" transform="scale(0.015625)"/>
      <path id="Arial-BoldMT-70" d="M 434 3319 
L 1253 3319 
L 1253 2831 
Q 1413 3081 1684 3237 
Q 1956 3394 2288 3394 
Q 2866 3394 3269 2941 
Q 3672 2488 3672 1678 
Q 3672 847 3265 386 
Q 2859 -75 2281 -75 
Q 2006 -75 1782 34 
Q 1559 144 1313 409 
L 1313 -1263 
L 434 -1263 
L 434 3319 
z
M 1303 1716 
Q 1303 1156 1525 889 
Q 1747 622 2066 622 
Q 2372 622 2575 867 
Q 2778 1113 2778 1672 
Q 2778 2194 2568 2447 
Q 2359 2700 2050 2700 
Q 1728 2700 1515 2451 
Q 1303 2203 1303 1716 
z
" transform="scale(0.015625)"/>
      <path id="Arial-BoldMT-72" d="M 1300 0 
L 422 0 
L 422 3319 
L 1238 3319 
L 1238 2847 
Q 1447 3181 1614 3287 
Q 1781 3394 1994 3394 
Q 2294 3394 2572 3228 
L 2300 2463 
Q 2078 2606 1888 2606 
Q 1703 2606 1575 2504 
Q 1447 2403 1373 2137 
Q 1300 1872 1300 1025 
L 1300 0 
z
" transform="scale(0.015625)"/>
      <path id="Arial-BoldMT-28" d="M 1916 -1347 
L 1313 -1347 
Q 834 -625 584 153 
Q 334 931 334 1659 
Q 334 2563 644 3369 
Q 913 4069 1325 4659 
L 1925 4659 
Q 1497 3713 1336 3048 
Q 1175 2384 1175 1641 
Q 1175 1128 1270 590 
Q 1366 53 1531 -431 
Q 1641 -750 1916 -1347 
z
" transform="scale(0.015625)"/>
      <path id="DejaVuSans-Oblique-3b2" d="M 872 216 
L 572 -1331 
L -6 -1331 
L 928 3478 
Q 1206 4903 2538 4903 
Q 3888 4903 3659 3700 
Q 3503 2844 2894 2531 
Q 3713 2250 3553 1416 
Q 3272 -69 1759 -66 
Q 1097 -63 872 216 
z
M 1019 966 
Q 1259 422 1875 425 
Q 2775 425 2966 1406 
Q 3138 2288 1675 2219 
L 1778 2750 
Q 2909 2731 3106 3750 
Q 3241 4438 2509 4434 
Q 1691 4434 1503 3459 
L 1019 966 
z
" transform="scale(0.015625)"/>
      <path id="DejaVuSans-Oblique-43" d="M 4447 4306 
L 4319 3641 
Q 4019 3944 3683 4091 
Q 3347 4238 2956 4238 
Q 2422 4238 2017 3981 
Q 1613 3725 1319 3200 
Q 1131 2863 1032 2486 
Q 934 2109 934 1728 
Q 934 1091 1264 756 
Q 1594 422 2222 422 
Q 2656 422 3056 561 
Q 3456 700 3834 978 
L 3688 231 
Q 3316 72 2936 -9 
Q 2556 -91 2175 -91 
Q 1278 -91 773 396 
Q 269 884 269 1753 
Q 269 2309 461 2846 
Q 653 3384 1013 3828 
Q 1394 4300 1883 4525 
Q 2372 4750 3022 4750 
Q 3422 4750 3780 4639 
Q 4138 4528 4447 4306 
z
" transform="scale(0.015625)"/>
      <path id="DejaVuSans-Oblique-45" d="M 1081 4666 
L 4031 4666 
L 3928 4134 
L 1606 4134 
L 1338 2753 
L 3566 2753 
L 3463 2222 
L 1234 2222 
L 909 531 
L 3284 531 
L 3181 0 
L 172 0 
L 1081 4666 
z
" transform="scale(0.015625)"/>
      <path id="Arial-BoldMT-29" d="M 216 -1347 
Q 475 -791 581 -494 
Q 688 -197 778 190 
Q 869 578 912 926 
Q 956 1275 956 1641 
Q 956 2384 797 3048 
Q 638 3713 209 4659 
L 806 4659 
Q 1278 3988 1539 3234 
Q 1800 2481 1800 1706 
Q 1800 1053 1594 306 
Q 1359 -531 822 -1347 
L 216 -1347 
z
" transform="scale(0.015625)"/>
     </defs>
     <use xlink:href="#Arial-BoldMT-45" transform="translate(0 0.390625)"/>
     <use xlink:href="#Arial-BoldMT-76" transform="translate(66.699219 0.390625)"/>
     <use xlink:href="#Arial-BoldMT-6f" transform="translate(122.314453 0.390625)"/>
     <use xlink:href="#Arial-BoldMT-6c" transform="translate(183.398438 0.390625)"/>
     <use xlink:href="#Arial-BoldMT-75" transform="translate(211.181641 0.390625)"/>
     <use xlink:href="#Arial-BoldMT-74" transform="translate(272.265625 0.390625)"/>
     <use xlink:href="#Arial-BoldMT-69" transform="translate(305.566406 0.390625)"/>
     <use xlink:href="#Arial-BoldMT-6f" transform="translate(333.349609 0.390625)"/>
     <use xlink:href="#Arial-BoldMT-6e" transform="translate(394.433594 0.390625)"/>
     <use xlink:href="#Arial-BoldMT-20" transform="translate(455.517578 0.390625)"/>
     <use xlink:href="#Arial-BoldMT-6f" transform="translate(483.300781 0.390625)"/>
     <use xlink:href="#Arial-BoldMT-66" transform="translate(544.384766 0.390625)"/>
     <use xlink:href="#Arial-BoldMT-20" transform="translate(577.685547 0.390625)"/>
     <use xlink:href="#Arial-BoldMT-47" transform="translate(605.46875 0.390625)"/>
     <use xlink:href="#Arial-BoldMT-61" transform="translate(683.251953 0.390625)"/>
     <use xlink:href="#Arial-BoldMT-74" transform="translate(738.867188 0.390625)"/>
     <use xlink:href="#Arial-BoldMT-69" transform="translate(772.167969 0.390625)"/>
     <use xlink:href="#Arial-BoldMT-6e" transform="translate(799.951172 0.390625)"/>
     <use xlink:href="#Arial-BoldMT-67" transform="translate(861.035156 0.390625)"/>
     <use xlink:href="#Arial-BoldMT-20" transform="translate(922.119141 0.390625)"/>
     <use xlink:href="#Arial-BoldMT-54" transform="translate(949.902344 0.390625)"/>
     <use xlink:href="#Arial-BoldMT-65" transform="translate(1010.986328 0.390625)"/>
     <use xlink:href="#Arial-BoldMT-6d" transform="translate(1066.601562 0.390625)"/>
     <use xlink:href="#Arial-BoldMT-70" transform="translate(1155.517578 0.390625)"/>
     <use xlink:href="#Arial-BoldMT-65" transform="translate(1216.601562 0.390625)"/>
     <use xlink:href="#Arial-BoldMT-72" transform="translate(1272.216797 0.390625)"/>
     <use xlink:href="#Arial-BoldMT-61" transform="translate(1311.132812 0.390625)"/>
     <use xlink:href="#Arial-BoldMT-74" transform="translate(1366.748047 0.390625)"/>
     <use xlink:href="#Arial-BoldMT-75" transform="translate(1400.048828 0.390625)"/>
     <use xlink:href="#Arial-BoldMT-72" transform="translate(1461.132812 0.390625)"/>
     <use xlink:href="#Arial-BoldMT-65" transform="translate(1500.048828 0.390625)"/>
     <use xlink:href="#Arial-BoldMT-20" transform="translate(1555.664062 0.390625)"/>
     <use xlink:href="#Arial-BoldMT-28" transform="translate(1583.447266 0.390625)"/>
     <use xlink:href="#DejaVuSans-Oblique-3b2" transform="translate(1616.748047 0.390625)"/>
     <use xlink:href="#DejaVuSans-Oblique-43" transform="translate(1680.566406 -16.015625) scale(0.7)"/>
     <use xlink:href="#DejaVuSans-Oblique-45" transform="translate(1729.443359 -16.015625) scale(0.7)"/>
     <use xlink:href="#Arial-BoldMT-29" transform="translate(1776.40625 0.390625)"/>
    </g>
   </g>
   <g id="legend_1">
    <g id="line2d_33">
     <path d="M 80.775625 54.464062 
L 98.775625 54.464062 
L 116.775625 54.464062 
" style="fill: none; stroke: #d62728; stroke-width: 3.5; stroke-linecap: round"/>
    </g>
    <g id="text_18">
     <!-- Prior Factor = 0.0625 -->
     <g style="fill: #262626" transform="translate(131.175625 60.764062) scale(0.18 -0.18)">
      <defs>
       <path id="ArialMT-6f" d="M 213 1659 
Q 213 2581 725 3025 
Q 1153 3394 1769 3394 
Q 2453 3394 2887 2945 
Q 3322 2497 3322 1706 
Q 3322 1066 3130 698 
Q 2938 331 2570 128 
Q 2203 -75 1769 -75 
Q 1072 -75 642 372 
Q 213 819 213 1659 
z
M 791 1659 
Q 791 1022 1069 705 
Q 1347 388 1769 388 
Q 2188 388 2466 706 
Q 2744 1025 2744 1678 
Q 2744 2294 2464 2611 
Q 2184 2928 1769 2928 
Q 1347 2928 1069 2612 
Q 791 2297 791 1659 
z
" transform="scale(0.015625)"/>
       <path id="ArialMT-46" d="M 525 0 
L 525 4581 
L 3616 4581 
L 3616 4041 
L 1131 4041 
L 1131 2622 
L 3281 2622 
L 3281 2081 
L 1131 2081 
L 1131 0 
L 525 0 
z
" transform="scale(0.015625)"/>
       <path id="ArialMT-63" d="M 2588 1216 
L 3141 1144 
Q 3050 572 2676 248 
Q 2303 -75 1759 -75 
Q 1078 -75 664 370 
Q 250 816 250 1647 
Q 250 2184 428 2587 
Q 606 2991 970 3192 
Q 1334 3394 1763 3394 
Q 2303 3394 2647 3120 
Q 2991 2847 3088 2344 
L 2541 2259 
Q 2463 2594 2264 2762 
Q 2066 2931 1784 2931 
Q 1359 2931 1093 2626 
Q 828 2322 828 1663 
Q 828 994 1084 691 
Q 1341 388 1753 388 
Q 2084 388 2306 591 
Q 2528 794 2588 1216 
z
" transform="scale(0.015625)"/>
       <path id="ArialMT-3d" d="M 3381 2694 
L 356 2694 
L 356 3219 
L 3381 3219 
L 3381 2694 
z
M 3381 1303 
L 356 1303 
L 356 1828 
L 3381 1828 
L 3381 1303 
z
" transform="scale(0.015625)"/>
      </defs>
      <use xlink:href="#ArialMT-50"/>
      <use xlink:href="#ArialMT-72" transform="translate(66.699219 0)"/>
      <use xlink:href="#ArialMT-69" transform="translate(100 0)"/>
      <use xlink:href="#ArialMT-6f" transform="translate(122.216797 0)"/>
      <use xlink:href="#ArialMT-72" transform="translate(177.832031 0)"/>
      <use xlink:href="#ArialMT-20" transform="translate(211.132812 0)"/>
      <use xlink:href="#ArialMT-46" transform="translate(238.916016 0)"/>
      <use xlink:href="#ArialMT-61" transform="translate(300 0)"/>
      <use xlink:href="#ArialMT-63" transform="translate(355.615234 0)"/>
      <use xlink:href="#ArialMT-74" transform="translate(405.615234 0)"/>
      <use xlink:href="#ArialMT-6f" transform="translate(433.398438 0)"/>
      <use xlink:href="#ArialMT-72" transform="translate(489.013672 0)"/>
      <use xlink:href="#ArialMT-20" transform="translate(522.314453 0)"/>
      <use xlink:href="#ArialMT-3d" transform="translate(550.097656 0)"/>
      <use xlink:href="#ArialMT-20" transform="translate(608.496094 0)"/>
      <use xlink:href="#ArialMT-30" transform="translate(636.279297 0)"/>
      <use xlink:href="#ArialMT-2e" transform="translate(691.894531 0)"/>
      <use xlink:href="#ArialMT-30" transform="translate(719.677734 0)"/>
      <use xlink:href="#ArialMT-36" transform="translate(775.292969 0)"/>
      <use xlink:href="#ArialMT-32" transform="translate(830.908203 0)"/>
      <use xlink:href="#ArialMT-35" transform="translate(886.523438 0)"/>
     </g>
    </g>
    <g id="line2d_34">
     <path d="M 80.775625 79.925625 
L 98.775625 79.925625 
L 116.775625 79.925625 
" style="fill: none; stroke: #ffbf00; stroke-width: 3.5; stroke-linecap: round"/>
    </g>
    <g id="text_19">
     <!-- Prior Factor = 0.125 -->
     <g style="fill: #262626" transform="translate(131.175625 86.225625) scale(0.18 -0.18)">
      <use xlink:href="#ArialMT-50"/>
      <use xlink:href="#ArialMT-72" transform="translate(66.699219 0)"/>
      <use xlink:href="#ArialMT-69" transform="translate(100 0)"/>
      <use xlink:href="#ArialMT-6f" transform="translate(122.216797 0)"/>
      <use xlink:href="#ArialMT-72" transform="translate(177.832031 0)"/>
      <use xlink:href="#ArialMT-20" transform="translate(211.132812 0)"/>
      <use xlink:href="#ArialMT-46" transform="translate(238.916016 0)"/>
      <use xlink:href="#ArialMT-61" transform="translate(300 0)"/>
      <use xlink:href="#ArialMT-63" transform="translate(355.615234 0)"/>
      <use xlink:href="#ArialMT-74" transform="translate(405.615234 0)"/>
      <use xlink:href="#ArialMT-6f" transform="translate(433.398438 0)"/>
      <use xlink:href="#ArialMT-72" transform="translate(489.013672 0)"/>
      <use xlink:href="#ArialMT-20" transform="translate(522.314453 0)"/>
      <use xlink:href="#ArialMT-3d" transform="translate(550.097656 0)"/>
      <use xlink:href="#ArialMT-20" transform="translate(608.496094 0)"/>
      <use xlink:href="#ArialMT-30" transform="translate(636.279297 0)"/>
      <use xlink:href="#ArialMT-2e" transform="translate(691.894531 0)"/>
      <use xlink:href="#ArialMT-31" transform="translate(719.677734 0)"/>
      <use xlink:href="#ArialMT-32" transform="translate(775.292969 0)"/>
      <use xlink:href="#ArialMT-35" transform="translate(830.908203 0)"/>
     </g>
    </g>
    <g id="line2d_35">
     <path d="M 80.775625 105.387187 
L 98.775625 105.387187 
L 116.775625 105.387187 
" style="fill: none; stroke: #2ca02c; stroke-width: 3.5; stroke-linecap: round"/>
    </g>
    <g id="text_20">
     <!-- Prior Factor = 0.25 -->
     <g style="fill: #262626" transform="translate(131.175625 111.687187) scale(0.18 -0.18)">
      <use xlink:href="#ArialMT-50"/>
      <use xlink:href="#ArialMT-72" transform="translate(66.699219 0)"/>
      <use xlink:href="#ArialMT-69" transform="translate(100 0)"/>
      <use xlink:href="#ArialMT-6f" transform="translate(122.216797 0)"/>
      <use xlink:href="#ArialMT-72" transform="translate(177.832031 0)"/>
      <use xlink:href="#ArialMT-20" transform="translate(211.132812 0)"/>
      <use xlink:href="#ArialMT-46" transform="translate(238.916016 0)"/>
      <use xlink:href="#ArialMT-61" transform="translate(300 0)"/>
      <use xlink:href="#ArialMT-63" transform="translate(355.615234 0)"/>
      <use xlink:href="#ArialMT-74" transform="translate(405.615234 0)"/>
      <use xlink:href="#ArialMT-6f" transform="translate(433.398438 0)"/>
      <use xlink:href="#ArialMT-72" transform="translate(489.013672 0)"/>
      <use xlink:href="#ArialMT-20" transform="translate(522.314453 0)"/>
      <use xlink:href="#ArialMT-3d" transform="translate(550.097656 0)"/>
      <use xlink:href="#ArialMT-20" transform="translate(608.496094 0)"/>
      <use xlink:href="#ArialMT-30" transform="translate(636.279297 0)"/>
      <use xlink:href="#ArialMT-2e" transform="translate(691.894531 0)"/>
      <use xlink:href="#ArialMT-32" transform="translate(719.677734 0)"/>
      <use xlink:href="#ArialMT-35" transform="translate(775.292969 0)"/>
     </g>
    </g>
    <g id="line2d_36">
     <path d="M 80.775625 130.84875 
L 98.775625 130.84875 
L 116.775625 130.84875 
" style="fill: none; stroke: #1f77b4; stroke-width: 3.5; stroke-linecap: round"/>
    </g>
    <g id="text_21">
     <!-- Prior Factor = 0.5 -->
     <g style="fill: #262626" transform="translate(131.175625 137.14875) scale(0.18 -0.18)">
      <use xlink:href="#ArialMT-50"/>
      <use xlink:href="#ArialMT-72" transform="translate(66.699219 0)"/>
      <use xlink:href="#ArialMT-69" transform="translate(100 0)"/>
      <use xlink:href="#ArialMT-6f" transform="translate(122.216797 0)"/>
      <use xlink:href="#ArialMT-72" transform="translate(177.832031 0)"/>
      <use xlink:href="#ArialMT-20" transform="translate(211.132812 0)"/>
      <use xlink:href="#ArialMT-46" transform="translate(238.916016 0)"/>
      <use xlink:href="#ArialMT-61" transform="translate(300 0)"/>
      <use xlink:href="#ArialMT-63" transform="translate(355.615234 0)"/>
      <use xlink:href="#ArialMT-74" transform="translate(405.615234 0)"/>
      <use xlink:href="#ArialMT-6f" transform="translate(433.398438 0)"/>
      <use xlink:href="#ArialMT-72" transform="translate(489.013672 0)"/>
      <use xlink:href="#ArialMT-20" transform="translate(522.314453 0)"/>
      <use xlink:href="#ArialMT-3d" transform="translate(550.097656 0)"/>
      <use xlink:href="#ArialMT-20" transform="translate(608.496094 0)"/>
      <use xlink:href="#ArialMT-30" transform="translate(636.279297 0)"/>
      <use xlink:href="#ArialMT-2e" transform="translate(691.894531 0)"/>
      <use xlink:href="#ArialMT-35" transform="translate(719.677734 0)"/>
     </g>
    </g>
   </g>
  </g>
 </g>
 <defs>
  <clipPath id="pb8178d4133">
   <rect x="64.575625" y="31.68" width="669.6" height="443.52"/>
  </clipPath>
 </defs>
</svg>
