<?xml version="1.0" encoding="utf-8" standalone="no"?>
<!DOCTYPE svg PUBLIC "-//W3C//DTD SVG 1.1//EN"
  "http://www.w3.org/Graphics/SVG/1.1/DTD/svg11.dtd">
<svg xmlns:xlink="http://www.w3.org/1999/xlink" width="723.64pt" height="541.433437pt" viewBox="0 0 723.64 541.433437" xmlns="http://www.w3.org/2000/svg" version="1.1">
 <metadata>
  <rdf:RDF xmlns:dc="http://purl.org/dc/elements/1.1/" xmlns:cc="http://creativecommons.org/ns#" xmlns:rdf="http://www.w3.org/1999/02/22-rdf-syntax-ns#">
   <cc:Work>
    <dc:type rdf:resource="http://purl.org/dc/dcmitype/StillImage"/>
    <dc:date>2025-09-24T19:10:28.182950</dc:date>
    <dc:format>image/svg+xml</dc:format>
    <dc:creator>
     <cc:Agent>
      <dc:title>Matplotlib v3.10.6, https://matplotlib.org/</dc:title>
     </cc:Agent>
    </dc:creator>
   </cc:Work>
  </rdf:RDF>
 </metadata>
 <defs>
  <style type="text/css">*{stroke-linejoin: round; stroke-linecap: butt}</style>
 </defs>
 <g id="figure_1">
  <g id="patch_1">
   <path d="M 0 541.433437 
L 723.64 541.433437 
L 723.64 0 
L 0 0 
z
" style="fill: #ffffff"/>
  </g>
  <g id="axes_1">
   <g id="patch_2">
    <path d="M 46.84 478.873125 
L 716.44 478.873125 
L 716.44 35.353125 
L 46.84 35.353125 
z
" style="fill: #ffffff"/>
   </g>
   <g id="matplotlib.axis_1">
    <g id="xtick_1">
     <g id="line2d_1">
      <path d="M 46.84 478.873125 
L 46.84 35.353125 
" clip-path="url(#pdad31bb2e2)" style="fill: none; stroke: #cccccc; stroke-width: 0.8; stroke-linecap: round"/>
     </g>
     <g id="line2d_2"/>
     <g id="text_1">
      <!-- 0 -->
      <g style="fill: #262626" transform="translate(39.610781 500.983437) scale(0.26 -0.26)">
       <defs>
        <path id="ArialMT-30" d="M 266 2259 
Q 266 3072 433 3567 
Q 600 4063 929 4331 
Q 1259 4600 1759 4600 
Q 2128 4600 2406 4451 
Q 2684 4303 2865 4023 
Q 3047 3744 3150 3342 
Q 3253 2941 3253 2259 
Q 3253 1453 3087 958 
Q 2922 463 2592 192 
Q 2263 -78 1759 -78 
Q 1097 -78 719 397 
Q 266 969 266 2259 
z
M 844 2259 
Q 844 1131 1108 757 
Q 1372 384 1759 384 
Q 2147 384 2411 759 
Q 2675 1134 2675 2259 
Q 2675 3391 2411 3762 
Q 2147 4134 1753 4134 
Q 1366 4134 1134 3806 
Q 844 3388 844 2259 
z
" transform="scale(0.015625)"/>
       </defs>
       <use xlink:href="#ArialMT-30"/>
      </g>
     </g>
    </g>
    <g id="xtick_2">
     <g id="line2d_3">
      <path d="M 185.761162 478.873125 
L 185.761162 35.353125 
" clip-path="url(#pdad31bb2e2)" style="fill: none; stroke: #cccccc; stroke-width: 0.8; stroke-linecap: round"/>
     </g>
     <g id="line2d_4"/>
     <g id="text_2">
      <!-- 5 -->
      <g style="fill: #262626" transform="translate(178.531943 500.983437) scale(0.26 -0.26)">
       <defs>
        <path id="ArialMT-35" d="M 266 1200 
L 856 1250 
Q 922 819 1161 601 
Q 1400 384 1738 384 
Q 2144 384 2425 690 
Q 2706 997 2706 1503 
Q 2706 1984 2436 2262 
Q 2166 2541 1728 2541 
Q 1456 2541 1237 2417 
Q 1019 2294 894 2097 
L 366 2166 
L 809 4519 
L 3088 4519 
L 3088 3981 
L 1259 3981 
L 1013 2750 
Q 1425 3038 1878 3038 
Q 2478 3038 2890 2622 
Q 3303 2206 3303 1553 
Q 3303 931 2941 478 
Q 2500 -78 1738 -78 
Q 1113 -78 717 272 
Q 322 622 266 1200 
z
" transform="scale(0.015625)"/>
       </defs>
       <use xlink:href="#ArialMT-35"/>
      </g>
     </g>
    </g>
    <g id="xtick_3">
     <g id="line2d_5">
      <path d="M 324.682324 478.873125 
L 324.682324 35.353125 
" clip-path="url(#pdad31bb2e2)" style="fill: none; stroke: #cccccc; stroke-width: 0.8; stroke-linecap: round"/>
     </g>
     <g id="line2d_6"/>
     <g id="text_3">
      <!-- 10 -->
      <g style="fill: #262626" transform="translate(310.223886 500.983437) scale(0.26 -0.26)">
       <defs>
        <path id="ArialMT-31" d="M 2384 0 
L 1822 0 
L 1822 3584 
Q 1619 3391 1289 3197 
Q 959 3003 697 2906 
L 697 3450 
Q 1169 3672 1522 3987 
Q 1875 4303 2022 4600 
L 2384 4600 
L 2384 0 
z
" transform="scale(0.015625)"/>
       </defs>
       <use xlink:href="#ArialMT-31"/>
       <use xlink:href="#ArialMT-30" transform="translate(55.615234 0)"/>
      </g>
     </g>
    </g>
    <g id="xtick_4">
     <g id="line2d_7">
      <path d="M 463.603485 478.873125 
L 463.603485 35.353125 
" clip-path="url(#pdad31bb2e2)" style="fill: none; stroke: #cccccc; stroke-width: 0.8; stroke-linecap: round"/>
     </g>
     <g id="line2d_8"/>
     <g id="text_4">
      <!-- 15 -->
      <g style="fill: #262626" transform="translate(449.145048 500.983437) scale(0.26 -0.26)">
       <use xlink:href="#ArialMT-31"/>
       <use xlink:href="#ArialMT-35" transform="translate(55.615234 0)"/>
      </g>
     </g>
    </g>
    <g id="xtick_5">
     <g id="line2d_9">
      <path d="M 602.524647 478.873125 
L 602.524647 35.353125 
" clip-path="url(#pdad31bb2e2)" style="fill: none; stroke: #cccccc; stroke-width: 0.8; stroke-linecap: round"/>
     </g>
     <g id="line2d_10"/>
     <g id="text_5">
      <!-- 20 -->
      <g style="fill: #262626" transform="translate(588.06621 500.983437) scale(0.26 -0.26)">
       <defs>
        <path id="ArialMT-32" d="M 3222 541 
L 3222 0 
L 194 0 
Q 188 203 259 391 
Q 375 700 629 1000 
Q 884 1300 1366 1694 
Q 2113 2306 2375 2664 
Q 2638 3022 2638 3341 
Q 2638 3675 2398 3904 
Q 2159 4134 1775 4134 
Q 1369 4134 1125 3890 
Q 881 3647 878 3216 
L 300 3275 
Q 359 3922 746 4261 
Q 1134 4600 1788 4600 
Q 2447 4600 2831 4234 
Q 3216 3869 3216 3328 
Q 3216 3053 3103 2787 
Q 2991 2522 2730 2228 
Q 2469 1934 1863 1422 
Q 1356 997 1212 845 
Q 1069 694 975 541 
L 3222 541 
z
" transform="scale(0.015625)"/>
       </defs>
       <use xlink:href="#ArialMT-32"/>
       <use xlink:href="#ArialMT-30" transform="translate(55.615234 0)"/>
      </g>
     </g>
    </g>
    <g id="text_6">
     <!-- Layer Number -->
     <g style="fill: #262626" transform="translate(299.278906 528.76125) scale(0.26 -0.26)">
      <defs>
       <path id="ArialMT-4c" d="M 469 0 
L 469 4581 
L 1075 4581 
L 1075 541 
L 3331 541 
L 3331 0 
L 469 0 
z
" transform="scale(0.015625)"/>
       <path id="ArialMT-61" d="M 2588 409 
Q 2275 144 1986 34 
Q 1697 -75 1366 -75 
Q 819 -75 525 192 
Q 231 459 231 875 
Q 231 1119 342 1320 
Q 453 1522 633 1644 
Q 813 1766 1038 1828 
Q 1203 1872 1538 1913 
Q 2219 1994 2541 2106 
Q 2544 2222 2544 2253 
Q 2544 2597 2384 2738 
Q 2169 2928 1744 2928 
Q 1347 2928 1158 2789 
Q 969 2650 878 2297 
L 328 2372 
Q 403 2725 575 2942 
Q 747 3159 1072 3276 
Q 1397 3394 1825 3394 
Q 2250 3394 2515 3294 
Q 2781 3194 2906 3042 
Q 3031 2891 3081 2659 
Q 3109 2516 3109 2141 
L 3109 1391 
Q 3109 606 3145 398 
Q 3181 191 3288 0 
L 2700 0 
Q 2613 175 2588 409 
z
M 2541 1666 
Q 2234 1541 1622 1453 
Q 1275 1403 1131 1340 
Q 988 1278 909 1158 
Q 831 1038 831 891 
Q 831 666 1001 516 
Q 1172 366 1500 366 
Q 1825 366 2078 508 
Q 2331 650 2450 897 
Q 2541 1088 2541 1459 
L 2541 1666 
z
" transform="scale(0.015625)"/>
       <path id="ArialMT-79" d="M 397 -1278 
L 334 -750 
Q 519 -800 656 -800 
Q 844 -800 956 -737 
Q 1069 -675 1141 -563 
Q 1194 -478 1313 -144 
Q 1328 -97 1363 -6 
L 103 3319 
L 709 3319 
L 1400 1397 
Q 1534 1031 1641 628 
Q 1738 1016 1872 1384 
L 2581 3319 
L 3144 3319 
L 1881 -56 
Q 1678 -603 1566 -809 
Q 1416 -1088 1222 -1217 
Q 1028 -1347 759 -1347 
Q 597 -1347 397 -1278 
z
" transform="scale(0.015625)"/>
       <path id="ArialMT-65" d="M 2694 1069 
L 3275 997 
Q 3138 488 2766 206 
Q 2394 -75 1816 -75 
Q 1088 -75 661 373 
Q 234 822 234 1631 
Q 234 2469 665 2931 
Q 1097 3394 1784 3394 
Q 2450 3394 2872 2941 
Q 3294 2488 3294 1666 
Q 3294 1616 3291 1516 
L 816 1516 
Q 847 969 1125 678 
Q 1403 388 1819 388 
Q 2128 388 2347 550 
Q 2566 713 2694 1069 
z
M 847 1978 
L 2700 1978 
Q 2663 2397 2488 2606 
Q 2219 2931 1791 2931 
Q 1403 2931 1139 2672 
Q 875 2413 847 1978 
z
" transform="scale(0.015625)"/>
       <path id="ArialMT-72" d="M 416 0 
L 416 3319 
L 922 3319 
L 922 2816 
Q 1116 3169 1280 3281 
Q 1444 3394 1641 3394 
Q 1925 3394 2219 3213 
L 2025 2691 
Q 1819 2813 1613 2813 
Q 1428 2813 1281 2702 
Q 1134 2591 1072 2394 
Q 978 2094 978 1738 
L 978 0 
L 416 0 
z
" transform="scale(0.015625)"/>
       <path id="ArialMT-20" transform="scale(0.015625)"/>
       <path id="ArialMT-4e" d="M 488 0 
L 488 4581 
L 1109 4581 
L 3516 984 
L 3516 4581 
L 4097 4581 
L 4097 0 
L 3475 0 
L 1069 3600 
L 1069 0 
L 488 0 
z
" transform="scale(0.015625)"/>
       <path id="ArialMT-75" d="M 2597 0 
L 2597 488 
Q 2209 -75 1544 -75 
Q 1250 -75 995 37 
Q 741 150 617 320 
Q 494 491 444 738 
Q 409 903 409 1263 
L 409 3319 
L 972 3319 
L 972 1478 
Q 972 1038 1006 884 
Q 1059 663 1231 536 
Q 1403 409 1656 409 
Q 1909 409 2131 539 
Q 2353 669 2445 892 
Q 2538 1116 2538 1541 
L 2538 3319 
L 3100 3319 
L 3100 0 
L 2597 0 
z
" transform="scale(0.015625)"/>
       <path id="ArialMT-6d" d="M 422 0 
L 422 3319 
L 925 3319 
L 925 2853 
Q 1081 3097 1340 3245 
Q 1600 3394 1931 3394 
Q 2300 3394 2536 3241 
Q 2772 3088 2869 2813 
Q 3263 3394 3894 3394 
Q 4388 3394 4653 3120 
Q 4919 2847 4919 2278 
L 4919 0 
L 4359 0 
L 4359 2091 
Q 4359 2428 4304 2576 
Q 4250 2725 4106 2815 
Q 3963 2906 3769 2906 
Q 3419 2906 3187 2673 
Q 2956 2441 2956 1928 
L 2956 0 
L 2394 0 
L 2394 2156 
Q 2394 2531 2256 2718 
Q 2119 2906 1806 2906 
Q 1569 2906 1367 2781 
Q 1166 2656 1075 2415 
Q 984 2175 984 1722 
L 984 0 
L 422 0 
z
" transform="scale(0.015625)"/>
       <path id="ArialMT-62" d="M 941 0 
L 419 0 
L 419 4581 
L 981 4581 
L 981 2947 
Q 1338 3394 1891 3394 
Q 2197 3394 2470 3270 
Q 2744 3147 2920 2923 
Q 3097 2700 3197 2384 
Q 3297 2069 3297 1709 
Q 3297 856 2875 390 
Q 2453 -75 1863 -75 
Q 1275 -75 941 416 
L 941 0 
z
M 934 1684 
Q 934 1088 1097 822 
Q 1363 388 1816 388 
Q 2184 388 2453 708 
Q 2722 1028 2722 1663 
Q 2722 2313 2464 2622 
Q 2206 2931 1841 2931 
Q 1472 2931 1203 2611 
Q 934 2291 934 1684 
z
" transform="scale(0.015625)"/>
      </defs>
      <use xlink:href="#ArialMT-4c"/>
      <use xlink:href="#ArialMT-61" transform="translate(55.615234 0)"/>
      <use xlink:href="#ArialMT-79" transform="translate(111.230469 0)"/>
      <use xlink:href="#ArialMT-65" transform="translate(161.230469 0)"/>
      <use xlink:href="#ArialMT-72" transform="translate(216.845703 0)"/>
      <use xlink:href="#ArialMT-20" transform="translate(250.146484 0)"/>
      <use xlink:href="#ArialMT-4e" transform="translate(277.929688 0)"/>
      <use xlink:href="#ArialMT-75" transform="translate(350.146484 0)"/>
      <use xlink:href="#ArialMT-6d" transform="translate(405.761719 0)"/>
      <use xlink:href="#ArialMT-62" transform="translate(489.0625 0)"/>
      <use xlink:href="#ArialMT-65" transform="translate(544.677734 0)"/>
      <use xlink:href="#ArialMT-72" transform="translate(600.292969 0)"/>
     </g>
    </g>
   </g>
   <g id="matplotlib.axis_2">
    <g id="ytick_1">
     <g id="line2d_11">
      <path d="M 46.84 436.408886 
L 716.44 436.408886 
" clip-path="url(#pdad31bb2e2)" style="fill: none; stroke: #cccccc; stroke-width: 0.8; stroke-linecap: round"/>
     </g>
     <g id="line2d_12"/>
     <g id="text_7">
      <!-- 0.2 -->
      <g style="fill: #262626" transform="translate(7.2 445.714043) scale(0.26 -0.26)">
       <defs>
        <path id="ArialMT-2e" d="M 581 0 
L 581 641 
L 1222 641 
L 1222 0 
L 581 0 
z
" transform="scale(0.015625)"/>
       </defs>
       <use xlink:href="#ArialMT-30"/>
       <use xlink:href="#ArialMT-2e" transform="translate(55.615234 0)"/>
       <use xlink:href="#ArialMT-32" transform="translate(83.398438 0)"/>
      </g>
     </g>
    </g>
    <g id="ytick_2">
     <g id="line2d_13">
      <path d="M 46.84 374.02059 
L 716.44 374.02059 
" clip-path="url(#pdad31bb2e2)" style="fill: none; stroke: #cccccc; stroke-width: 0.8; stroke-linecap: round"/>
     </g>
     <g id="line2d_14"/>
     <g id="text_8">
      <!-- 0.3 -->
      <g style="fill: #262626" transform="translate(7.2 383.325746) scale(0.26 -0.26)">
       <defs>
        <path id="ArialMT-33" d="M 269 1209 
L 831 1284 
Q 928 806 1161 595 
Q 1394 384 1728 384 
Q 2125 384 2398 659 
Q 2672 934 2672 1341 
Q 2672 1728 2419 1979 
Q 2166 2231 1775 2231 
Q 1616 2231 1378 2169 
L 1441 2663 
Q 1497 2656 1531 2656 
Q 1891 2656 2178 2843 
Q 2466 3031 2466 3422 
Q 2466 3731 2256 3934 
Q 2047 4138 1716 4138 
Q 1388 4138 1169 3931 
Q 950 3725 888 3313 
L 325 3413 
Q 428 3978 793 4289 
Q 1159 4600 1703 4600 
Q 2078 4600 2393 4439 
Q 2709 4278 2876 4000 
Q 3044 3722 3044 3409 
Q 3044 3113 2884 2869 
Q 2725 2625 2413 2481 
Q 2819 2388 3044 2092 
Q 3269 1797 3269 1353 
Q 3269 753 2831 336 
Q 2394 -81 1725 -81 
Q 1122 -81 723 278 
Q 325 638 269 1209 
z
" transform="scale(0.015625)"/>
       </defs>
       <use xlink:href="#ArialMT-30"/>
       <use xlink:href="#ArialMT-2e" transform="translate(55.615234 0)"/>
       <use xlink:href="#ArialMT-33" transform="translate(83.398438 0)"/>
      </g>
     </g>
    </g>
    <g id="ytick_3">
     <g id="line2d_15">
      <path d="M 46.84 311.632293 
L 716.44 311.632293 
" clip-path="url(#pdad31bb2e2)" style="fill: none; stroke: #cccccc; stroke-width: 0.8; stroke-linecap: round"/>
     </g>
     <g id="line2d_16"/>
     <g id="text_9">
      <!-- 0.4 -->
      <g style="fill: #262626" transform="translate(7.2 320.937449) scale(0.26 -0.26)">
       <defs>
        <path id="ArialMT-34" d="M 2069 0 
L 2069 1097 
L 81 1097 
L 81 1613 
L 2172 4581 
L 2631 4581 
L 2631 1613 
L 3250 1613 
L 3250 1097 
L 2631 1097 
L 2631 0 
L 2069 0 
z
M 2069 1613 
L 2069 3678 
L 634 1613 
L 2069 1613 
z
" transform="scale(0.015625)"/>
       </defs>
       <use xlink:href="#ArialMT-30"/>
       <use xlink:href="#ArialMT-2e" transform="translate(55.615234 0)"/>
       <use xlink:href="#ArialMT-34" transform="translate(83.398438 0)"/>
      </g>
     </g>
    </g>
    <g id="ytick_4">
     <g id="line2d_17">
      <path d="M 46.84 249.243996 
L 716.44 249.243996 
" clip-path="url(#pdad31bb2e2)" style="fill: none; stroke: #cccccc; stroke-width: 0.8; stroke-linecap: round"/>
     </g>
     <g id="line2d_18"/>
     <g id="text_10">
      <!-- 0.5 -->
      <g style="fill: #262626" transform="translate(7.2 258.549152) scale(0.26 -0.26)">
       <use xlink:href="#ArialMT-30"/>
       <use xlink:href="#ArialMT-2e" transform="translate(55.615234 0)"/>
       <use xlink:href="#ArialMT-35" transform="translate(83.398438 0)"/>
      </g>
     </g>
    </g>
    <g id="ytick_5">
     <g id="line2d_19">
      <path d="M 46.84 186.855699 
L 716.44 186.855699 
" clip-path="url(#pdad31bb2e2)" style="fill: none; stroke: #cccccc; stroke-width: 0.8; stroke-linecap: round"/>
     </g>
     <g id="line2d_20"/>
     <g id="text_11">
      <!-- 0.6 -->
      <g style="fill: #262626" transform="translate(7.2 196.160856) scale(0.26 -0.26)">
       <defs>
        <path id="ArialMT-36" d="M 3184 3459 
L 2625 3416 
Q 2550 3747 2413 3897 
Q 2184 4138 1850 4138 
Q 1581 4138 1378 3988 
Q 1113 3794 959 3422 
Q 806 3050 800 2363 
Q 1003 2672 1297 2822 
Q 1591 2972 1913 2972 
Q 2475 2972 2870 2558 
Q 3266 2144 3266 1488 
Q 3266 1056 3080 686 
Q 2894 316 2569 119 
Q 2244 -78 1831 -78 
Q 1128 -78 684 439 
Q 241 956 241 2144 
Q 241 3472 731 4075 
Q 1159 4600 1884 4600 
Q 2425 4600 2770 4297 
Q 3116 3994 3184 3459 
z
M 888 1484 
Q 888 1194 1011 928 
Q 1134 663 1356 523 
Q 1578 384 1822 384 
Q 2178 384 2434 671 
Q 2691 959 2691 1453 
Q 2691 1928 2437 2201 
Q 2184 2475 1800 2475 
Q 1419 2475 1153 2201 
Q 888 1928 888 1484 
z
" transform="scale(0.015625)"/>
       </defs>
       <use xlink:href="#ArialMT-30"/>
       <use xlink:href="#ArialMT-2e" transform="translate(55.615234 0)"/>
       <use xlink:href="#ArialMT-36" transform="translate(83.398438 0)"/>
      </g>
     </g>
    </g>
    <g id="ytick_6">
     <g id="line2d_21">
      <path d="M 46.84 124.467403 
L 716.44 124.467403 
" clip-path="url(#pdad31bb2e2)" style="fill: none; stroke: #cccccc; stroke-width: 0.8; stroke-linecap: round"/>
     </g>
     <g id="line2d_22"/>
     <g id="text_12">
      <!-- 0.7 -->
      <g style="fill: #262626" transform="translate(7.2 133.772559) scale(0.26 -0.26)">
       <defs>
        <path id="ArialMT-37" d="M 303 3981 
L 303 4522 
L 3269 4522 
L 3269 4084 
Q 2831 3619 2401 2847 
Q 1972 2075 1738 1259 
Q 1569 684 1522 0 
L 944 0 
Q 953 541 1156 1306 
Q 1359 2072 1739 2783 
Q 2119 3494 2547 3981 
L 303 3981 
z
" transform="scale(0.015625)"/>
       </defs>
       <use xlink:href="#ArialMT-30"/>
       <use xlink:href="#ArialMT-2e" transform="translate(55.615234 0)"/>
       <use xlink:href="#ArialMT-37" transform="translate(83.398438 0)"/>
      </g>
     </g>
    </g>
    <g id="ytick_7">
     <g id="line2d_23">
      <path d="M 46.84 62.079106 
L 716.44 62.079106 
" clip-path="url(#pdad31bb2e2)" style="fill: none; stroke: #cccccc; stroke-width: 0.8; stroke-linecap: round"/>
     </g>
     <g id="line2d_24"/>
     <g id="text_13">
      <!-- 0.8 -->
      <g style="fill: #262626" transform="translate(7.2 71.384262) scale(0.26 -0.26)">
       <defs>
        <path id="ArialMT-38" d="M 1131 2484 
Q 781 2613 612 2850 
Q 444 3088 444 3419 
Q 444 3919 803 4259 
Q 1163 4600 1759 4600 
Q 2359 4600 2725 4251 
Q 3091 3903 3091 3403 
Q 3091 3084 2923 2848 
Q 2756 2613 2416 2484 
Q 2838 2347 3058 2040 
Q 3278 1734 3278 1309 
Q 3278 722 2862 322 
Q 2447 -78 1769 -78 
Q 1091 -78 675 323 
Q 259 725 259 1325 
Q 259 1772 486 2073 
Q 713 2375 1131 2484 
z
M 1019 3438 
Q 1019 3113 1228 2906 
Q 1438 2700 1772 2700 
Q 2097 2700 2305 2904 
Q 2513 3109 2513 3406 
Q 2513 3716 2298 3927 
Q 2084 4138 1766 4138 
Q 1444 4138 1231 3931 
Q 1019 3725 1019 3438 
z
M 838 1322 
Q 838 1081 952 856 
Q 1066 631 1291 507 
Q 1516 384 1775 384 
Q 2178 384 2440 643 
Q 2703 903 2703 1303 
Q 2703 1709 2433 1975 
Q 2163 2241 1756 2241 
Q 1359 2241 1098 1978 
Q 838 1716 838 1322 
z
" transform="scale(0.015625)"/>
       </defs>
       <use xlink:href="#ArialMT-30"/>
       <use xlink:href="#ArialMT-2e" transform="translate(55.615234 0)"/>
       <use xlink:href="#ArialMT-38" transform="translate(83.398438 0)"/>
      </g>
     </g>
    </g>
   </g>
   <g id="PathCollection_1">
    <defs>
     <path id="me385acc759" d="M -7.071068 7.071068 
L 7.071068 -7.071068 
M -7.071068 -7.071068 
L 7.071068 7.071068 
" style="stroke: #1f77b4; stroke-width: 1.5"/>
    </defs>
    <g clip-path="url(#pdad31bb2e2)">
     <use xlink:href="#me385acc759" x="74.624232" y="140.503488" style="fill: #1f77b4; stroke: #1f77b4; stroke-width: 1.5"/>
     <use xlink:href="#me385acc759" x="130.192697" y="203.846326" style="fill: #1f77b4; stroke: #1f77b4; stroke-width: 1.5"/>
     <use xlink:href="#me385acc759" x="185.761162" y="141.038578" style="fill: #1f77b4; stroke: #1f77b4; stroke-width: 1.5"/>
     <use xlink:href="#me385acc759" x="241.329627" y="303.28218" style="fill: #1f77b4; stroke: #1f77b4; stroke-width: 1.5"/>
     <use xlink:href="#me385acc759" x="296.898091" y="228.471372" style="fill: #1f77b4; stroke: #1f77b4; stroke-width: 1.5"/>
     <use xlink:href="#me385acc759" x="352.466556" y="323.622126" style="fill: #1f77b4; stroke: #1f77b4; stroke-width: 1.5"/>
     <use xlink:href="#me385acc759" x="408.035021" y="119.067784" style="fill: #1f77b4; stroke: #1f77b4; stroke-width: 1.5"/>
     <use xlink:href="#me385acc759" x="463.603485" y="292.531174" style="fill: #1f77b4; stroke: #1f77b4; stroke-width: 1.5"/>
     <use xlink:href="#me385acc759" x="519.17195" y="55.513125" style="fill: #1f77b4; stroke: #1f77b4; stroke-width: 1.5"/>
     <use xlink:href="#me385acc759" x="574.740415" y="267.864607" style="fill: #1f77b4; stroke: #1f77b4; stroke-width: 1.5"/>
     <use xlink:href="#me385acc759" x="630.30888" y="458.713125" style="fill: #1f77b4; stroke: #1f77b4; stroke-width: 1.5"/>
     <use xlink:href="#me385acc759" x="685.877344" y="229.897741" style="fill: #1f77b4; stroke: #1f77b4; stroke-width: 1.5"/>
    </g>
   </g>
   <g id="line2d_25">
    <path d="M 74.624232 140.503488 
L 130.192697 203.846326 
L 185.761162 141.038578 
L 241.329627 303.28218 
L 296.898091 228.471372 
L 352.466556 323.622126 
L 408.035021 119.067784 
L 463.603485 292.531174 
L 519.17195 55.513125 
L 574.740415 267.864607 
L 630.30888 458.713125 
L 685.877344 229.897741 
" clip-path="url(#pdad31bb2e2)" style="fill: none; stroke-dasharray: 5.55,2.4; stroke-dashoffset: 0; stroke: #1f77b4; stroke-opacity: 0.5; stroke-width: 1.5"/>
   </g>
   <g id="line2d_26">
    <path d="M 74.624232 174.329944 
L 130.192697 184.517706 
L 185.761162 194.705468 
L 241.329627 204.89323 
L 296.898091 215.080992 
L 352.466556 225.268754 
L 408.035021 235.456517 
L 463.603485 245.644279 
L 519.17195 255.832041 
L 574.740415 266.019803 
L 630.30888 276.207565 
L 685.877344 286.395327 
" clip-path="url(#pdad31bb2e2)" style="fill: none; stroke: #ff0000; stroke-width: 2.5; stroke-linecap: round"/>
   </g>
   <g id="patch_3">
    <path d="M 46.84 478.873125 
L 46.84 35.353125 
" style="fill: none; stroke: #cccccc; stroke-linejoin: miter; stroke-linecap: square"/>
   </g>
   <g id="patch_4">
    <path d="M 716.44 478.873125 
L 716.44 35.353125 
" style="fill: none; stroke: #cccccc; stroke-linejoin: miter; stroke-linecap: square"/>
   </g>
   <g id="patch_5">
    <path d="M 46.84 478.873125 
L 716.44 478.873125 
" style="fill: none; stroke: #cccccc; stroke-linejoin: miter; stroke-linecap: square"/>
   </g>
   <g id="patch_6">
    <path d="M 46.84 35.353125 
L 716.44 35.353125 
" style="fill: none; stroke: #cccccc; stroke-linejoin: miter; stroke-linecap: square"/>
   </g>
   <g id="text_14">
    <g id="patch_7">
     <path d="M 80.32 104.329125 
L 174.32 104.329125 
Q 180.32 104.329125 180.32 98.329125 
L 180.32 57.754125 
Q 180.32 51.754125 174.32 51.754125 
L 80.32 51.754125 
Q 74.32 51.754125 74.32 57.754125 
L 74.32 98.329125 
Q 74.32 104.329125 80.32 104.329125 
z
" style="fill: #f5deb3; opacity: 0.5; stroke: #000000; stroke-linejoin: miter"/>
    </g>
    <!-- $R^2 = 0.11$ -->
    <g style="fill: #262626" transform="translate(80.32 72.154125) scale(0.2 -0.2)">
     <defs>
      <path id="DejaVuSans-Oblique-52" d="M 1613 4147 
L 1294 2491 
L 2106 2491 
Q 2584 2491 2879 2755 
Q 3175 3019 3175 3444 
Q 3175 3784 2976 3965 
Q 2778 4147 2406 4147 
L 1613 4147 
z
M 2772 2241 
Q 2972 2194 3105 2009 
Q 3238 1825 3413 1275 
L 3809 0 
L 3144 0 
L 2778 1197 
Q 2638 1659 2453 1815 
Q 2269 1972 1888 1972 
L 1191 1972 
L 806 0 
L 172 0 
L 1081 4666 
L 2503 4666 
Q 3150 4666 3495 4373 
Q 3841 4081 3841 3531 
Q 3841 3044 3547 2687 
Q 3253 2331 2772 2241 
z
" transform="scale(0.015625)"/>
      <path id="DejaVuSans-32" d="M 1228 531 
L 3431 531 
L 3431 0 
L 469 0 
L 469 531 
Q 828 903 1448 1529 
Q 2069 2156 2228 2338 
Q 2531 2678 2651 2914 
Q 2772 3150 2772 3378 
Q 2772 3750 2511 3984 
Q 2250 4219 1831 4219 
Q 1534 4219 1204 4116 
Q 875 4013 500 3803 
L 500 4441 
Q 881 4594 1212 4672 
Q 1544 4750 1819 4750 
Q 2544 4750 2975 4387 
Q 3406 4025 3406 3419 
Q 3406 3131 3298 2873 
Q 3191 2616 2906 2266 
Q 2828 2175 2409 1742 
Q 1991 1309 1228 531 
z
" transform="scale(0.015625)"/>
      <path id="DejaVuSans-3d" d="M 678 2906 
L 4684 2906 
L 4684 2381 
L 678 2381 
L 678 2906 
z
M 678 1631 
L 4684 1631 
L 4684 1100 
L 678 1100 
L 678 1631 
z
" transform="scale(0.015625)"/>
      <path id="DejaVuSans-30" d="M 2034 4250 
Q 1547 4250 1301 3770 
Q 1056 3291 1056 2328 
Q 1056 1369 1301 889 
Q 1547 409 2034 409 
Q 2525 409 2770 889 
Q 3016 1369 3016 2328 
Q 3016 3291 2770 3770 
Q 2525 4250 2034 4250 
z
M 2034 4750 
Q 2819 4750 3233 4129 
Q 3647 3509 3647 2328 
Q 3647 1150 3233 529 
Q 2819 -91 2034 -91 
Q 1250 -91 836 529 
Q 422 1150 422 2328 
Q 422 3509 836 4129 
Q 1250 4750 2034 4750 
z
" transform="scale(0.015625)"/>
      <path id="DejaVuSans-2e" d="M 684 794 
L 1344 794 
L 1344 0 
L 684 0 
L 684 794 
z
" transform="scale(0.015625)"/>
      <path id="DejaVuSans-31" d="M 794 531 
L 1825 531 
L 1825 4091 
L 703 3866 
L 703 4441 
L 1819 4666 
L 2450 4666 
L 2450 531 
L 3481 531 
L 3481 0 
L 794 0 
L 794 531 
z
" transform="scale(0.015625)"/>
     </defs>
     <use xlink:href="#DejaVuSans-Oblique-52" transform="translate(0 0.765625)"/>
     <use xlink:href="#DejaVuSans-32" transform="translate(76.499193 39.046875) scale(0.7)"/>
     <use xlink:href="#DejaVuSans-3d" transform="translate(143.252122 0.765625)"/>
     <use xlink:href="#DejaVuSans-30" transform="translate(246.523607 0.765625)"/>
     <use xlink:href="#DejaVuSans-2e" transform="translate(310.146654 0.765625)"/>
     <use xlink:href="#DejaVuSans-31" transform="translate(341.933763 0.765625)"/>
     <use xlink:href="#DejaVuSans-31" transform="translate(405.55681 0.765625)"/>
    </g>
    <!-- $p = 0.28$ -->
    <g style="fill: #262626" transform="translate(80.32 94.129125) scale(0.2 -0.2)">
     <defs>
      <path id="DejaVuSans-Oblique-70" d="M 3175 2156 
Q 3175 2616 2975 2859 
Q 2775 3103 2400 3103 
Q 2144 3103 1911 2972 
Q 1678 2841 1497 2591 
Q 1319 2344 1212 1994 
Q 1106 1644 1106 1300 
Q 1106 863 1306 627 
Q 1506 391 1875 391 
Q 2147 391 2380 519 
Q 2613 647 2778 891 
Q 2956 1147 3065 1494 
Q 3175 1841 3175 2156 
z
M 1394 2969 
Q 1625 3272 1939 3428 
Q 2253 3584 2638 3584 
Q 3175 3584 3472 3232 
Q 3769 2881 3769 2247 
Q 3769 1728 3584 1258 
Q 3400 788 3053 416 
Q 2822 169 2531 39 
Q 2241 -91 1919 -91 
Q 1547 -91 1294 64 
Q 1041 219 916 525 
L 556 -1331 
L -19 -1331 
L 922 3500 
L 1497 3500 
L 1394 2969 
z
" transform="scale(0.015625)"/>
      <path id="DejaVuSans-38" d="M 2034 2216 
Q 1584 2216 1326 1975 
Q 1069 1734 1069 1313 
Q 1069 891 1326 650 
Q 1584 409 2034 409 
Q 2484 409 2743 651 
Q 3003 894 3003 1313 
Q 3003 1734 2745 1975 
Q 2488 2216 2034 2216 
z
M 1403 2484 
Q 997 2584 770 2862 
Q 544 3141 544 3541 
Q 544 4100 942 4425 
Q 1341 4750 2034 4750 
Q 2731 4750 3128 4425 
Q 3525 4100 3525 3541 
Q 3525 3141 3298 2862 
Q 3072 2584 2669 2484 
Q 3125 2378 3379 2068 
Q 3634 1759 3634 1313 
Q 3634 634 3220 271 
Q 2806 -91 2034 -91 
Q 1263 -91 848 271 
Q 434 634 434 1313 
Q 434 1759 690 2068 
Q 947 2378 1403 2484 
z
M 1172 3481 
Q 1172 3119 1398 2916 
Q 1625 2713 2034 2713 
Q 2441 2713 2670 2916 
Q 2900 3119 2900 3481 
Q 2900 3844 2670 4047 
Q 2441 4250 2034 4250 
Q 1625 4250 1398 4047 
Q 1172 3844 1172 3481 
z
" transform="scale(0.015625)"/>
     </defs>
     <use xlink:href="#DejaVuSans-Oblique-70" transform="translate(0 0.78125)"/>
     <use xlink:href="#DejaVuSans-3d" transform="translate(82.958984 0.78125)"/>
     <use xlink:href="#DejaVuSans-30" transform="translate(186.230469 0.78125)"/>
     <use xlink:href="#DejaVuSans-2e" transform="translate(249.853516 0.78125)"/>
     <use xlink:href="#DejaVuSans-32" transform="translate(276.140625 0.78125)"/>
     <use xlink:href="#DejaVuSans-38" transform="translate(339.763672 0.78125)"/>
    </g>
   </g>
   <g id="text_15">
    <!-- Learnt Dynamic Capacities per Layer -->
    <g style="fill: #262626" transform="translate(118.211875 29.039062) scale(0.3 -0.3)">
     <defs>
      <path id="Arial-BoldMT-4c" d="M 491 0 
L 491 4544 
L 1416 4544 
L 1416 772 
L 3716 772 
L 3716 0 
L 491 0 
z
" transform="scale(0.015625)"/>
      <path id="Arial-BoldMT-65" d="M 2381 1056 
L 3256 909 
Q 3088 428 2723 176 
Q 2359 -75 1813 -75 
Q 947 -75 531 491 
Q 203 944 203 1634 
Q 203 2459 634 2926 
Q 1066 3394 1725 3394 
Q 2466 3394 2894 2905 
Q 3322 2416 3303 1406 
L 1103 1406 
Q 1113 1016 1316 798 
Q 1519 581 1822 581 
Q 2028 581 2168 693 
Q 2309 806 2381 1056 
z
M 2431 1944 
Q 2422 2325 2234 2523 
Q 2047 2722 1778 2722 
Q 1491 2722 1303 2513 
Q 1116 2303 1119 1944 
L 2431 1944 
z
" transform="scale(0.015625)"/>
      <path id="Arial-BoldMT-61" d="M 1116 2306 
L 319 2450 
Q 453 2931 781 3162 
Q 1109 3394 1756 3394 
Q 2344 3394 2631 3255 
Q 2919 3116 3036 2902 
Q 3153 2688 3153 2116 
L 3144 1091 
Q 3144 653 3186 445 
Q 3228 238 3344 0 
L 2475 0 
Q 2441 88 2391 259 
Q 2369 338 2359 363 
Q 2134 144 1878 34 
Q 1622 -75 1331 -75 
Q 819 -75 523 203 
Q 228 481 228 906 
Q 228 1188 362 1408 
Q 497 1628 739 1745 
Q 981 1863 1438 1950 
Q 2053 2066 2291 2166 
L 2291 2253 
Q 2291 2506 2166 2614 
Q 2041 2722 1694 2722 
Q 1459 2722 1328 2630 
Q 1197 2538 1116 2306 
z
M 2291 1594 
Q 2122 1538 1756 1459 
Q 1391 1381 1278 1306 
Q 1106 1184 1106 997 
Q 1106 813 1243 678 
Q 1381 544 1594 544 
Q 1831 544 2047 700 
Q 2206 819 2256 991 
Q 2291 1103 2291 1419 
L 2291 1594 
z
" transform="scale(0.015625)"/>
      <path id="Arial-BoldMT-72" d="M 1300 0 
L 422 0 
L 422 3319 
L 1238 3319 
L 1238 2847 
Q 1447 3181 1614 3287 
Q 1781 3394 1994 3394 
Q 2294 3394 2572 3228 
L 2300 2463 
Q 2078 2606 1888 2606 
Q 1703 2606 1575 2504 
Q 1447 2403 1373 2137 
Q 1300 1872 1300 1025 
L 1300 0 
z
" transform="scale(0.015625)"/>
      <path id="Arial-BoldMT-6e" d="M 3478 0 
L 2600 0 
L 2600 1694 
Q 2600 2231 2544 2389 
Q 2488 2547 2361 2634 
Q 2234 2722 2056 2722 
Q 1828 2722 1647 2597 
Q 1466 2472 1398 2265 
Q 1331 2059 1331 1503 
L 1331 0 
L 453 0 
L 453 3319 
L 1269 3319 
L 1269 2831 
Q 1703 3394 2363 3394 
Q 2653 3394 2893 3289 
Q 3134 3184 3257 3021 
Q 3381 2859 3429 2653 
Q 3478 2447 3478 2063 
L 3478 0 
z
" transform="scale(0.015625)"/>
      <path id="Arial-BoldMT-74" d="M 1981 3319 
L 1981 2619 
L 1381 2619 
L 1381 1281 
Q 1381 875 1398 808 
Q 1416 741 1477 697 
Q 1538 653 1625 653 
Q 1747 653 1978 738 
L 2053 56 
Q 1747 -75 1359 -75 
Q 1122 -75 931 4 
Q 741 84 652 211 
Q 563 338 528 553 
Q 500 706 500 1172 
L 500 2619 
L 97 2619 
L 97 3319 
L 500 3319 
L 500 3978 
L 1381 4491 
L 1381 3319 
L 1981 3319 
z
" transform="scale(0.015625)"/>
      <path id="Arial-BoldMT-20" transform="scale(0.015625)"/>
      <path id="Arial-BoldMT-44" d="M 463 4581 
L 2153 4581 
Q 2725 4581 3025 4494 
Q 3428 4375 3715 4072 
Q 4003 3769 4153 3330 
Q 4303 2891 4303 2247 
Q 4303 1681 4163 1272 
Q 3991 772 3672 463 
Q 3431 228 3022 97 
Q 2716 0 2203 0 
L 463 0 
L 463 4581 
z
M 1388 3806 
L 1388 772 
L 2078 772 
Q 2466 772 2638 816 
Q 2863 872 3011 1006 
Q 3159 1141 3253 1448 
Q 3347 1756 3347 2288 
Q 3347 2819 3253 3103 
Q 3159 3388 2990 3547 
Q 2822 3706 2563 3763 
Q 2369 3806 1803 3806 
L 1388 3806 
z
" transform="scale(0.015625)"/>
      <path id="Arial-BoldMT-79" d="M 44 3319 
L 978 3319 
L 1772 963 
L 2547 3319 
L 3456 3319 
L 2284 125 
L 2075 -453 
Q 1959 -744 1854 -897 
Q 1750 -1050 1614 -1145 
Q 1478 -1241 1279 -1294 
Q 1081 -1347 831 -1347 
Q 578 -1347 334 -1294 
L 256 -606 
Q 463 -647 628 -647 
Q 934 -647 1081 -467 
Q 1228 -288 1306 -9 
L 44 3319 
z
" transform="scale(0.015625)"/>
      <path id="Arial-BoldMT-6d" d="M 394 3319 
L 1203 3319 
L 1203 2866 
Q 1638 3394 2238 3394 
Q 2556 3394 2790 3262 
Q 3025 3131 3175 2866 
Q 3394 3131 3647 3262 
Q 3900 3394 4188 3394 
Q 4553 3394 4806 3245 
Q 5059 3097 5184 2809 
Q 5275 2597 5275 2122 
L 5275 0 
L 4397 0 
L 4397 1897 
Q 4397 2391 4306 2534 
Q 4184 2722 3931 2722 
Q 3747 2722 3584 2609 
Q 3422 2497 3350 2280 
Q 3278 2063 3278 1594 
L 3278 0 
L 2400 0 
L 2400 1819 
Q 2400 2303 2353 2443 
Q 2306 2584 2207 2653 
Q 2109 2722 1941 2722 
Q 1738 2722 1575 2612 
Q 1413 2503 1342 2297 
Q 1272 2091 1272 1613 
L 1272 0 
L 394 0 
L 394 3319 
z
" transform="scale(0.015625)"/>
      <path id="Arial-BoldMT-69" d="M 459 3769 
L 459 4581 
L 1338 4581 
L 1338 3769 
L 459 3769 
z
M 459 0 
L 459 3319 
L 1338 3319 
L 1338 0 
L 459 0 
z
" transform="scale(0.015625)"/>
      <path id="Arial-BoldMT-63" d="M 3353 2338 
L 2488 2181 
Q 2444 2441 2289 2572 
Q 2134 2703 1888 2703 
Q 1559 2703 1364 2476 
Q 1169 2250 1169 1719 
Q 1169 1128 1367 884 
Q 1566 641 1900 641 
Q 2150 641 2309 783 
Q 2469 925 2534 1272 
L 3397 1125 
Q 3263 531 2881 228 
Q 2500 -75 1859 -75 
Q 1131 -75 698 384 
Q 266 844 266 1656 
Q 266 2478 700 2936 
Q 1134 3394 1875 3394 
Q 2481 3394 2839 3133 
Q 3197 2872 3353 2338 
z
" transform="scale(0.015625)"/>
      <path id="Arial-BoldMT-43" d="M 3397 1684 
L 4294 1400 
Q 4088 650 3608 286 
Q 3128 -78 2391 -78 
Q 1478 -78 890 545 
Q 303 1169 303 2250 
Q 303 3394 893 4026 
Q 1484 4659 2447 4659 
Q 3288 4659 3813 4163 
Q 4125 3869 4281 3319 
L 3366 3100 
Q 3284 3456 3026 3662 
Q 2769 3869 2400 3869 
Q 1891 3869 1573 3503 
Q 1256 3138 1256 2319 
Q 1256 1450 1568 1081 
Q 1881 713 2381 713 
Q 2750 713 3015 947 
Q 3281 1181 3397 1684 
z
" transform="scale(0.015625)"/>
      <path id="Arial-BoldMT-70" d="M 434 3319 
L 1253 3319 
L 1253 2831 
Q 1413 3081 1684 3237 
Q 1956 3394 2288 3394 
Q 2866 3394 3269 2941 
Q 3672 2488 3672 1678 
Q 3672 847 3265 386 
Q 2859 -75 2281 -75 
Q 2006 -75 1782 34 
Q 1559 144 1313 409 
L 1313 -1263 
L 434 -1263 
L 434 3319 
z
M 1303 1716 
Q 1303 1156 1525 889 
Q 1747 622 2066 622 
Q 2372 622 2575 867 
Q 2778 1113 2778 1672 
Q 2778 2194 2568 2447 
Q 2359 2700 2050 2700 
Q 1728 2700 1515 2451 
Q 1303 2203 1303 1716 
z
" transform="scale(0.015625)"/>
      <path id="Arial-BoldMT-73" d="M 150 947 
L 1031 1081 
Q 1088 825 1259 692 
Q 1431 559 1741 559 
Q 2081 559 2253 684 
Q 2369 772 2369 919 
Q 2369 1019 2306 1084 
Q 2241 1147 2013 1200 
Q 950 1434 666 1628 
Q 272 1897 272 2375 
Q 272 2806 612 3100 
Q 953 3394 1669 3394 
Q 2350 3394 2681 3172 
Q 3013 2950 3138 2516 
L 2309 2363 
Q 2256 2556 2107 2659 
Q 1959 2763 1684 2763 
Q 1338 2763 1188 2666 
Q 1088 2597 1088 2488 
Q 1088 2394 1175 2328 
Q 1294 2241 1995 2081 
Q 2697 1922 2975 1691 
Q 3250 1456 3250 1038 
Q 3250 581 2869 253 
Q 2488 -75 1741 -75 
Q 1063 -75 667 200 
Q 272 475 150 947 
z
" transform="scale(0.015625)"/>
     </defs>
     <use xlink:href="#Arial-BoldMT-4c"/>
     <use xlink:href="#Arial-BoldMT-65" transform="translate(61.083984 0)"/>
     <use xlink:href="#Arial-BoldMT-61" transform="translate(116.699219 0)"/>
     <use xlink:href="#Arial-BoldMT-72" transform="translate(172.314453 0)"/>
     <use xlink:href="#Arial-BoldMT-6e" transform="translate(211.230469 0)"/>
     <use xlink:href="#Arial-BoldMT-74" transform="translate(272.314453 0)"/>
     <use xlink:href="#Arial-BoldMT-20" transform="translate(305.615234 0)"/>
     <use xlink:href="#Arial-BoldMT-44" transform="translate(333.398438 0)"/>
     <use xlink:href="#Arial-BoldMT-79" transform="translate(405.615234 0)"/>
     <use xlink:href="#Arial-BoldMT-6e" transform="translate(461.230469 0)"/>
     <use xlink:href="#Arial-BoldMT-61" transform="translate(522.314453 0)"/>
     <use xlink:href="#Arial-BoldMT-6d" transform="translate(577.929688 0)"/>
     <use xlink:href="#Arial-BoldMT-69" transform="translate(666.845703 0)"/>
     <use xlink:href="#Arial-BoldMT-63" transform="translate(694.628906 0)"/>
     <use xlink:href="#Arial-BoldMT-20" transform="translate(750.244141 0)"/>
     <use xlink:href="#Arial-BoldMT-43" transform="translate(778.027344 0)"/>
     <use xlink:href="#Arial-BoldMT-61" transform="translate(850.244141 0)"/>
     <use xlink:href="#Arial-BoldMT-70" transform="translate(905.859375 0)"/>
     <use xlink:href="#Arial-BoldMT-61" transform="translate(966.943359 0)"/>
     <use xlink:href="#Arial-BoldMT-63" transform="translate(1022.558594 0)"/>
     <use xlink:href="#Arial-BoldMT-69" transform="translate(1078.173828 0)"/>
     <use xlink:href="#Arial-BoldMT-74" transform="translate(1105.957031 0)"/>
     <use xlink:href="#Arial-BoldMT-69" transform="translate(1139.257812 0)"/>
     <use xlink:href="#Arial-BoldMT-65" transform="translate(1167.041016 0)"/>
     <use xlink:href="#Arial-BoldMT-73" transform="translate(1222.65625 0)"/>
     <use xlink:href="#Arial-BoldMT-20" transform="translate(1278.271484 0)"/>
     <use xlink:href="#Arial-BoldMT-70" transform="translate(1306.054688 0)"/>
     <use xlink:href="#Arial-BoldMT-65" transform="translate(1367.138672 0)"/>
     <use xlink:href="#Arial-BoldMT-72" transform="translate(1422.753906 0)"/>
     <use xlink:href="#Arial-BoldMT-20" transform="translate(1461.669922 0)"/>
     <use xlink:href="#Arial-BoldMT-4c" transform="translate(1489.453125 0)"/>
     <use xlink:href="#Arial-BoldMT-61" transform="translate(1550.537109 0)"/>
     <use xlink:href="#Arial-BoldMT-79" transform="translate(1606.152344 0)"/>
     <use xlink:href="#Arial-BoldMT-65" transform="translate(1661.767578 0)"/>
     <use xlink:href="#Arial-BoldMT-72" transform="translate(1717.382812 0)"/>
    </g>
   </g>
   <g id="legend_1">
    <g id="patch_8">
     <path d="M 61.44 471.873125 
L 254.121563 471.873125 
Q 257.721563 471.873125 257.721563 468.273125 
L 257.721563 418.674687 
Q 257.721563 415.074687 254.121563 415.074687 
L 61.44 415.074687 
Q 57.84 415.074687 57.84 418.674687 
L 57.84 468.273125 
Q 57.84 471.873125 61.44 471.873125 
z
" style="fill: #4d4d4d; opacity: 0.5; stroke: #4d4d4d; stroke-linejoin: miter"/>
    </g>
    <g id="patch_9">
     <path d="M 59.44 469.873125 
L 252.121563 469.873125 
Q 255.721563 469.873125 255.721563 466.273125 
L 255.721563 416.674687 
Q 255.721563 413.074687 252.121563 413.074687 
L 59.44 413.074687 
Q 55.84 413.074687 55.84 416.674687 
L 55.84 466.273125 
Q 55.84 469.873125 59.44 469.873125 
z
" style="fill: #ffffff; stroke: #cccccc; stroke-linejoin: miter"/>
    </g>
    <g id="line2d_27">
     <path d="M 63.04 426.85875 
L 81.04 426.85875 
L 99.04 426.85875 
" style="fill: none; stroke-dasharray: 5.55,2.4; stroke-dashoffset: 0; stroke: #1f77b4; stroke-opacity: 0.5; stroke-width: 1.5"/>
    </g>
    <g id="text_16">
     <!-- Layer Path -->
     <g style="fill: #262626" transform="translate(113.44 433.15875) scale(0.18 -0.18)">
      <defs>
       <path id="ArialMT-50" d="M 494 0 
L 494 4581 
L 2222 4581 
Q 2678 4581 2919 4538 
Q 3256 4481 3484 4323 
Q 3713 4166 3852 3881 
Q 3991 3597 3991 3256 
Q 3991 2672 3619 2267 
Q 3247 1863 2275 1863 
L 1100 1863 
L 1100 0 
L 494 0 
z
M 1100 2403 
L 2284 2403 
Q 2872 2403 3119 2622 
Q 3366 2841 3366 3238 
Q 3366 3525 3220 3729 
Q 3075 3934 2838 4000 
Q 2684 4041 2272 4041 
L 1100 4041 
L 1100 2403 
z
" transform="scale(0.015625)"/>
       <path id="ArialMT-74" d="M 1650 503 
L 1731 6 
Q 1494 -44 1306 -44 
Q 1000 -44 831 53 
Q 663 150 594 308 
Q 525 466 525 972 
L 525 2881 
L 113 2881 
L 113 3319 
L 525 3319 
L 525 4141 
L 1084 4478 
L 1084 3319 
L 1650 3319 
L 1650 2881 
L 1084 2881 
L 1084 941 
Q 1084 700 1114 631 
Q 1144 563 1211 522 
Q 1278 481 1403 481 
Q 1497 481 1650 503 
z
" transform="scale(0.015625)"/>
       <path id="ArialMT-68" d="M 422 0 
L 422 4581 
L 984 4581 
L 984 2938 
Q 1378 3394 1978 3394 
Q 2347 3394 2619 3248 
Q 2891 3103 3008 2847 
Q 3125 2591 3125 2103 
L 3125 0 
L 2563 0 
L 2563 2103 
Q 2563 2525 2380 2717 
Q 2197 2909 1863 2909 
Q 1613 2909 1392 2779 
Q 1172 2650 1078 2428 
Q 984 2206 984 1816 
L 984 0 
L 422 0 
z
" transform="scale(0.015625)"/>
      </defs>
      <use xlink:href="#ArialMT-4c"/>
      <use xlink:href="#ArialMT-61" transform="translate(55.615234 0)"/>
      <use xlink:href="#ArialMT-79" transform="translate(111.230469 0)"/>
      <use xlink:href="#ArialMT-65" transform="translate(161.230469 0)"/>
      <use xlink:href="#ArialMT-72" transform="translate(216.845703 0)"/>
      <use xlink:href="#ArialMT-20" transform="translate(250.146484 0)"/>
      <use xlink:href="#ArialMT-50" transform="translate(277.929688 0)"/>
      <use xlink:href="#ArialMT-61" transform="translate(344.628906 0)"/>
      <use xlink:href="#ArialMT-74" transform="translate(400.244141 0)"/>
      <use xlink:href="#ArialMT-68" transform="translate(428.027344 0)"/>
     </g>
    </g>
    <g id="line2d_28">
     <path d="M 63.04 452.584687 
L 81.04 452.584687 
L 99.04 452.584687 
" style="fill: none; stroke: #ff0000; stroke-width: 2.5; stroke-linecap: round"/>
    </g>
    <g id="text_17">
     <!-- y = -0.01x + 0.63 -->
     <g style="fill: #262626" transform="translate(113.44 458.884687) scale(0.18 -0.18)">
      <defs>
       <path id="ArialMT-3d" d="M 3381 2694 
L 356 2694 
L 356 3219 
L 3381 3219 
L 3381 2694 
z
M 3381 1303 
L 356 1303 
L 356 1828 
L 3381 1828 
L 3381 1303 
z
" transform="scale(0.015625)"/>
       <path id="ArialMT-2d" d="M 203 1375 
L 203 1941 
L 1931 1941 
L 1931 1375 
L 203 1375 
z
" transform="scale(0.015625)"/>
       <path id="ArialMT-78" d="M 47 0 
L 1259 1725 
L 138 3319 
L 841 3319 
L 1350 2541 
Q 1494 2319 1581 2169 
Q 1719 2375 1834 2534 
L 2394 3319 
L 3066 3319 
L 1919 1756 
L 3153 0 
L 2463 0 
L 1781 1031 
L 1600 1309 
L 728 0 
L 47 0 
z
" transform="scale(0.015625)"/>
       <path id="ArialMT-2b" d="M 1603 741 
L 1603 1997 
L 356 1997 
L 356 2522 
L 1603 2522 
L 1603 3769 
L 2134 3769 
L 2134 2522 
L 3381 2522 
L 3381 1997 
L 2134 1997 
L 2134 741 
L 1603 741 
z
" transform="scale(0.015625)"/>
      </defs>
      <use xlink:href="#ArialMT-79"/>
      <use xlink:href="#ArialMT-20" transform="translate(50 0)"/>
      <use xlink:href="#ArialMT-3d" transform="translate(77.783203 0)"/>
      <use xlink:href="#ArialMT-20" transform="translate(136.181641 0)"/>
      <use xlink:href="#ArialMT-2d" transform="translate(163.964844 0)"/>
      <use xlink:href="#ArialMT-30" transform="translate(197.265625 0)"/>
      <use xlink:href="#ArialMT-2e" transform="translate(252.880859 0)"/>
      <use xlink:href="#ArialMT-30" transform="translate(280.664062 0)"/>
      <use xlink:href="#ArialMT-31" transform="translate(336.279297 0)"/>
      <use xlink:href="#ArialMT-78" transform="translate(391.894531 0)"/>
      <use xlink:href="#ArialMT-20" transform="translate(441.894531 0)"/>
      <use xlink:href="#ArialMT-2b" transform="translate(469.677734 0)"/>
      <use xlink:href="#ArialMT-20" transform="translate(528.076172 0)"/>
      <use xlink:href="#ArialMT-30" transform="translate(555.859375 0)"/>
      <use xlink:href="#ArialMT-2e" transform="translate(611.474609 0)"/>
      <use xlink:href="#ArialMT-36" transform="translate(639.257812 0)"/>
      <use xlink:href="#ArialMT-33" transform="translate(694.873047 0)"/>
     </g>
    </g>
   </g>
  </g>
 </g>
 <defs>
  <clipPath id="pdad31bb2e2">
   <rect x="46.84" y="35.353125" width="669.6" height="443.52"/>
  </clipPath>
 </defs>
</svg>
